<svg xmlns="http://www.w3.org/2000/svg" xmlns:xlink="http://www.w3.org/1999/xlink" width="505.309" height="104.48" viewBox="0 0 505.309 104.48">
  <defs>
    <clipPath id="clip-path">
      <path id="SVGID" d="M772.753,428.332h21.583v75.416H743.387v-3.49h41.952q-.5-1.873-1.1-3.7H743.387v-3.868h39.432q-.757-1.879-1.626-3.7H743.387v-3.867h35.8q-1.063-1.889-2.243-3.7H743.387v-3.868h30.826q-1.451-1.9-3.034-3.7H743.387v-3.868h24.085q-2.014-1.936-4.188-3.7h-19.9v-3.868h14.6a65.307,65.307,0,0,0-6.393-3.7h-8.208V428.332h21.944V447h7.062l-.042-18.665Zm-133.41,0h50.823V434.6h-8.323v31.7h-.728q-2.173,1.759-4.188,3.7h4.916v3.868H673.22q-1.583,1.793-3.034,3.7h11.656v3.868H667.457q-1.181,1.809-2.243,3.7h16.629v3.867H663.206q-.868,1.819-1.626,3.7h20.263v3.868h-21.68q-.6,1.826-1.1,3.7h22.783v3.49H647.666V434.6h-8.323v-6.264Zm52.085,75.416v-3.49H723a35.513,35.513,0,0,1-15.85,3.49Zm0-7.189v-3.868h41.413a32.269,32.269,0,0,1-4.027,3.868Zm0-7.567v-3.867h46.467a36.825,36.825,0,0,1-2.225,3.867Zm0-7.566v-3.868h49.318c-.35,1.312-.759,2.6-1.234,3.868Zm0-7.567v-3.868h50.646q-.172,1.947-.51,3.868Zm0-7.566v-3.868h50.679c.1,1.285.148,2.577.14,3.868Zm0-6.851V428.332h15.719c18.521,0,29.708,11.811,33.57,26.083a65.585,65.585,0,0,0-38.474.443h38.591q.495,1.909.819,3.867H692.8q-.694.35-1.377.716Z" transform="translate(-639.343 -428.332)" fill="none" clip-rule="evenodd"/>
    </clipPath>
  </defs>
  <g id="Сгруппировать_55" data-name="Сгруппировать 55" transform="translate(-137 -426)">
    <path id="Контур_305" data-name="Контур 305" d="M156.924,484.489a10.508,10.508,0,0,1-2.953-.815c-.926-.476-1.146-1.631-1.234-3.33-.132-3.941-.089-21.609-.089-31.326a.736.736,0,0,1,.176-.543,42.983,42.983,0,0,1,5.158,0c.838.135,1.322.612,1.675,2.106a36.279,36.279,0,0,1,.838,6.048c.132.271,1.41.2,1.587-.068a104.471,104.471,0,0,1,1.058-11.755c-.044-.136-.22-.476-.353-.476a9.674,9.674,0,0,1-4.76.883H142.2a7.354,7.354,0,0,1-3.879-.951c-.132-.068-.441.272-.441.408-.132,2.99-.529,8.63-.881,11.416.088.476,1.367.884,1.543.612a54.738,54.738,0,0,1,1.631-5.98c.573-1.63,1.19-2.174,2.072-2.242,1.19-.068,3.923-.068,4.716,0,.089,0,.221.407.221.543,0,10.8.044,24.056-.133,30.375-.089,3.058-.4,4.009-1.631,4.417a15.5,15.5,0,0,1-2.953.679,4.044,4.044,0,0,0,0,2.174c1.366,0,3.658-.2,7.405-.2,2.909,0,5.333.2,6.921.2a4.068,4.068,0,0,0,.132-2.174Z" transform="translate(0 -5.524)" fill="#00a933"/>
    <path id="Контур_306" data-name="Контур 306" d="M177.413,443a9.3,9.3,0,0,1,2.292.679c1.014.476,1.322,1.631,1.366,3.4.045,6.523-.044,19.162.353,23.919.529,6.863,3.306,12.5,10.932,12.5,6.083,0,10.668-4.009,11.329-16.309.308-4.621.4-12.571.529-18.687.089-3.33.441-4.417,1.587-4.893a11.881,11.881,0,0,1,1.852-.612,4.046,4.046,0,0,0,0-2.174c-.926,0-2.248.2-5.114.2-2.2,0-4.055-.2-5.422-.2a5.2,5.2,0,0,0-.044,2.174,13.668,13.668,0,0,1,2.469.679c1.455.408,1.851,1.563,1.939,4.417.176,4.757.133,14.474-.088,19.571-.441,9.717-3.791,11.348-6.965,11.348-4.276,0-6.568-3.126-7.185-7.543a62.47,62.47,0,0,1-.529-8.018c0-3.6-.088-10.8,0-16.241.044-2.174.4-3.262,1.455-3.6A19.454,19.454,0,0,1,190.2,443a4.53,4.53,0,0,0,0-2.174c-1.543,0-3.747.2-6.347.2-2.469,0-5.025-.2-6.392-.2a5.138,5.138,0,0,0-.044,2.174Zm14.627-9.649a7.034,7.034,0,0,0-.353-2.106,1.672,1.672,0,0,0-1.543-.816,3.088,3.088,0,0,0-2.608,1.427,6.443,6.443,0,0,0-.22,2.582,4.269,4.269,0,0,0,1.278,2.718,3.087,3.087,0,0,0,2.432-.34,5.49,5.49,0,0,0,1.014-3.466Zm7.846,0a7.033,7.033,0,0,0-.352-2.106,1.732,1.732,0,0,0-1.543-.816,3.149,3.149,0,0,0-2.608,1.427,7.343,7.343,0,0,0-.22,2.582,4.485,4.485,0,0,0,1.234,2.718,3.062,3.062,0,0,0,2.432-.34,5.228,5.228,0,0,0,1.058-3.466Z" transform="translate(-12.202 -1.34)" fill="#00a933"/>
    <path id="Контур_307" data-name="Контур 307" d="M222.847,447.511a13.393,13.393,0,0,1,2.248.612c.926.34,1.278,1.223,1.323,3.058.088,2.718.088,7.746.088,14.406,0,4.077-.044,13.251-.132,15.221-.088,2.242-.4,3.126-1.366,3.465a19.176,19.176,0,0,1-2.072.544,3.657,3.657,0,0,0,0,2.174c.925,0,2.865-.2,6.26-.2,3.306,0,5.421.2,6.347.2a3.872,3.872,0,0,0,.088-2.243,12.152,12.152,0,0,1-2.38-.611c-.97-.408-1.234-1.156-1.322-3.262-.045-2.65-.089-7.543-.089-11.619a.694.694,0,0,1,.176-.408h1.764c.529.068.925.408,1.234,1.223,1.5,3.6,3.747,9.717,5.511,12.911a8.23,8.23,0,0,0,2.16,2.786c1.719,1.292,5.907,1.563,8.287,1.292a6.806,6.806,0,0,0,.309-2.243c-2.381-.476-2.778-.748-4.408-3.194a109.362,109.362,0,0,1-7.053-14.813c-.044-.136-.044-.476.044-.544,2.822-1.835,5.114-5.029,5.114-10.465,0-6.048-2.865-10.4-8.2-10.4-2.337,0-4.717.136-8.022.136-1.587,0-4.761-.2-5.819-.2a3.556,3.556,0,0,0-.088,2.174Zm10.711.544c3.835,0,5.907,3.873,5.907,9.785,0,4.349-1.058,6.32-2.292,7.271-.794.612-2.822.815-5.07.679-.132,0-.264-.2-.264-.476,0-7.747,0-14.134.089-15.9a2.044,2.044,0,0,1,.308-1.02,2.5,2.5,0,0,1,1.322-.34Z" transform="translate(-25.942 -5.852)" fill="#00a933"/>
    <path id="Контур_308" data-name="Контур 308" d="M272.556,465.723c0-4.349,0-10.873.044-14.134.089-2.174.309-3.058,1.19-3.466a11.558,11.558,0,0,1,2.028-.612,6.023,6.023,0,0,0,0-2.174c-1.587,0-3.659.2-5.951.2-3.438,0-5.245-.2-6.215-.2a3.658,3.658,0,0,0,0,2.174,22.708,22.708,0,0,1,2.336.679c.881.408,1.058,1.428,1.146,3.194.045,2.787.045,7.543.045,13.727,0,5.776,0,12.1-.089,14.949-.044,2.718-.22,3.67-1.322,4.145a21.527,21.527,0,0,1-2.336.612,5.157,5.157,0,0,0,0,2.174c1.014,0,3.218-.2,6.3-.2,2.821,0,4.76.2,6.48.2a5.13,5.13,0,0,0,.176-2.174,20.484,20.484,0,0,1-2.424-.748c-.97-.408-1.278-1.291-1.322-3.466-.089-3.8-.089-8.29-.089-14.881Zm6.7-18.212a7.379,7.379,0,0,1,2.469.748,1.261,1.261,0,0,1,.749,1.223,10.7,10.7,0,0,1-1.366,4.213c-3.13,6.32-6.039,10.873-8.066,12.368a3.073,3.073,0,0,0-.133,1.156,4.271,4.271,0,0,1,.749,1.155c2.072,4.485,5.775,11.891,7.935,15.493a8.945,8.945,0,0,0,2.248,2.65c1.19.68,6.7.815,8.64.476a4.787,4.787,0,0,0,.132-2.243,7.249,7.249,0,0,1-2.557-.611,6.5,6.5,0,0,1-1.852-1.9,124,124,0,0,1-10.138-18.619v-.34c1.631-2.786,4.364-7.475,6.612-11.417,1.852-3.4,3-3.737,5.466-4.349a3.657,3.657,0,0,0,0-2.174c-1.278.068-2.513.136-5.642.2-2.292,0-3.7-.2-5.2-.2a5.108,5.108,0,0,0-.044,2.174Z" transform="translate(-38.228 -5.852)" fill="#00a933"/>
    <path id="Контур_309" data-name="Контур 309" d="M304.9,447.511a14.727,14.727,0,0,1,3.13,1.02c.926.543,1.19,1.971,1.146,3.193-.176,5.64-1.1,22.7-1.543,27.929-.264,3.126-.705,4.009-1.983,4.553a14.394,14.394,0,0,1-2.2.543,5.509,5.509,0,0,0,0,2.243c1.367,0,3.35-.2,5.289-.2,2.689,0,4.541.2,5.775.2a3.9,3.9,0,0,0,.088-2.243,9.877,9.877,0,0,1-2.777-.815c-1.278-.612-1.543-1.63-1.543-4.077,0-5.1.485-19.231.793-24.8a.293.293,0,0,1,.22-.136c3.13,11.62,7.274,26.094,8.331,31.667a3.143,3.143,0,0,0,1.764-.068c1.322-5.844,7.229-25.482,8.948-31.462a.145.145,0,0,1,.22,0c0,6.388.089,20.658,0,25.686,0,1.835-.22,2.854-1.014,3.262a9.288,9.288,0,0,1-2.336.747,6.377,6.377,0,0,0,0,2.243c1.675,0,3.7-.2,6.127-.2,3.791,0,5.6.2,6.921.2a4.8,4.8,0,0,0,.133-2.243,19.366,19.366,0,0,1-2.513-.679c-1.234-.476-1.5-1.835-1.587-3.806-.22-4.621-.573-24.123-.485-28.744,0-1.63.176-2.65,1.234-3.193a14.359,14.359,0,0,1,2.689-.816,3.651,3.651,0,0,0,0-2.174c-2.381,0-4.32.2-9.08.2a20.8,20.8,0,0,1-.794,4.009c-1.5,5.437-6.039,20.114-7.053,23.172-.088.068-.176.136-.264,0-1.014-3.058-4.937-16.1-6.965-22.968a22.036,22.036,0,0,1-.794-4.213c-4.319,0-7.009-.2-9.741-.2a5.756,5.756,0,0,0-.133,2.174Z" transform="translate(-50.337 -5.852)" fill="#00a933"/>
    <path id="Контур_310" data-name="Контур 310" d="M358.951,447.452a9.783,9.783,0,0,1,2.336.612c.881.408,1.146.951,1.234,3.058.089,2.038.133,7.611.133,13.047,0,7.679,0,13.319-.133,16.309-.043,2.31-.44,3.126-1.322,3.466a14.959,14.959,0,0,1-3.262.747,6.373,6.373,0,0,0,0,2.243c2.2,0,5.069-.2,7.582-.2,4.672,0,8.551.272,12.254.272,1.983,0,2.248-.408,2.469-1.088a85.542,85.542,0,0,0,1.939-9.717,2.3,2.3,0,0,0-1.5-.884,33.427,33.427,0,0,1-2.292,6.184c-.926,1.7-1.5,2.038-3.483,2.106a28.9,28.9,0,0,1-5.818-.476c-.529-.2-.97-1.155-.97-2.378,0-3.262-.044-8.7,0-12.5,0-.136.133-.544.264-.544,1.411,0,4.893,0,5.863.136.926.136,1.278.951,1.5,1.9.176.884.133.884.441,2.786a1.736,1.736,0,0,0,1.631-.068c-.044-1.767-.088-4.485-.088-6.591,0-2.243.176-4.96.264-6.523a1.827,1.827,0,0,0-1.675-.136c-.133.883-.22,1.766-.4,2.514-.264,1.5-.617,2.174-1.543,2.243a59.5,59.5,0,0,1-6,.136c-.132,0-.264-.272-.264-.544-.044-4.077-.044-9.377,0-13.59,0-.34.22-1.156.485-1.223a49.3,49.3,0,0,1,6.347,0c.881.135,1.5.612,1.9,2.038a23.241,23.241,0,0,1,.705,4.757,1.681,1.681,0,0,0,1.586-.2c.133-3.4.4-7.882.706-9.921,0-.136-.089-.272-.176-.272a33.5,33.5,0,0,1-5.422.34H365.43c-2.248,0-4.849-.2-6.391-.2a4.468,4.468,0,0,0-.088,2.174Z" transform="translate(-66.834 -5.793)" fill="#00a933"/>
    <path id="Контур_311" data-name="Контур 311" d="M394.8,447.574a6.451,6.451,0,0,1,3.041,1.156c1.014.68,1.455,2.582,1.455,4.009-.044,11.417-.176,23.784-.441,27.385-.132,2.311-.573,3.4-1.543,3.874a8.61,8.61,0,0,1-2.469.747,5.484,5.484,0,0,0,0,2.243c1.234,0,3.174-.2,5.6-.2,2.16,0,4.143.2,5.554.2a4.86,4.86,0,0,0,.088-2.243,14.369,14.369,0,0,1-2.6-.679c-1.234-.408-1.852-1.427-1.939-4.281-.132-3.126-.176-17.328-.089-24.666,0-.068.133-.2.22,0,2.822,5.572,13.444,26.706,15.957,32.142a19.449,19.449,0,0,1,3.967-.068c-.044-2.379-.088-6.32-.088-9.378.044-10.057.088-19.91.352-25.686.176-2.514.573-3.4,1.808-4.009a11.32,11.32,0,0,1,1.808-.612,6.025,6.025,0,0,0,0-2.174c-.794,0-2.865.2-5.025.2-2.777,0-4.8-.2-5.907-.2a5.928,5.928,0,0,0-.044,2.174,13.016,13.016,0,0,1,2.777.748c1.366.544,1.763,1.563,1.9,3.806.264,4.552.176,14.61.176,23.307-.045,0-.089.068-.132.068-2.689-4.825-9.962-18.891-13.709-26.3a15.289,15.289,0,0,1-1.631-3.738,26.725,26.725,0,0,1-2.865.136c-2.6,0-4.761-.271-6.172-.2a6.342,6.342,0,0,0-.044,2.242Z" transform="translate(-77.994 -5.847)" fill="#00a933"/>
    <path id="Контур_312" data-name="Контур 312" d="M441.154,447.511a10.236,10.236,0,0,1,2.469.679c.838.408,1.058,1.428,1.146,2.923.088,2.99.088,6.659.088,13.318s0,14.2-.088,16.377c-.133,2.31-.353,3.058-1.543,3.465a9.507,9.507,0,0,1-2.072.476,3.886,3.886,0,0,0,0,2.243c1.587,0,3.174-.2,6.656-.2,2.821,0,4.761.136,6.3.2a4.223,4.223,0,0,0,.176-2.243,14.194,14.194,0,0,1-2.513-.679c-1.278-.476-1.367-1.9-1.411-3.4-.088-2.514-.088-8.018-.088-15.7,0-5.912,0-11.076.088-13.387.044-1.971.133-2.922,1.1-3.466a11.845,11.845,0,0,1,2.292-.612,5.158,5.158,0,0,0,0-2.174c-.969,0-2.688.2-6.3.2-2.778,0-4.893-.2-6.26-.2a4.524,4.524,0,0,0-.045,2.174Z" transform="translate(-91.998 -5.852)" fill="#00a933"/>
    <path id="Контур_313" data-name="Контур 313" d="M465.31,474.046c-.22-.2-1.322.271-1.454.679.088,2.379.925,9.649,1.366,10.668a11.538,11.538,0,0,0,6.656,2.175c6.612,0,10.315-5.844,10.315-12.843a13.421,13.421,0,0,0-4.541-10.668c-1.763-1.7-3.262-2.854-5.113-4.689a9.126,9.126,0,0,1-2.822-6.931c0-3.262,1.5-6.184,4.056-6.184a4.272,4.272,0,0,1,3.438,1.494c1.058,1.156,1.543,3.126,1.939,7.2a1.274,1.274,0,0,0,1.455-.068,94.978,94.978,0,0,1,.75-9.785c-2.072-.34-3.879-1.223-7.185-1.223-4.981,0-9.125,4.281-9.125,12.028,0,6.8,3,10.057,6.788,13.59,4.056,3.805,5.246,5.844,5.246,9.446,0,4.009-1.939,5.912-4.055,5.912a5.549,5.549,0,0,1-4.144-1.835c-1.587-1.766-2.644-4.485-3.57-8.969Z" transform="translate(-98.919 -5.41)" fill="#00a933"/>
    <path id="Контур_314" data-name="Контур 314" d="M512.793,484.489a10.523,10.523,0,0,1-2.953-.815c-.925-.476-1.146-1.631-1.234-3.33-.132-3.941-.088-21.609-.088-31.326a.733.733,0,0,1,.176-.543,42.971,42.971,0,0,1,5.157,0c.838.135,1.322.612,1.675,2.106a36.269,36.269,0,0,1,.838,6.048c.133.271,1.411.2,1.587-.068a104.446,104.446,0,0,1,1.058-11.755c-.045-.136-.22-.476-.353-.476a9.677,9.677,0,0,1-4.76.883H498.07a7.35,7.35,0,0,1-3.879-.951c-.133-.068-.441.272-.441.408-.132,2.99-.529,8.63-.881,11.416.088.476,1.366.884,1.543.612a54.582,54.582,0,0,1,1.631-5.98c.573-1.63,1.19-2.174,2.072-2.242,1.19-.068,3.923-.068,4.716,0,.088,0,.22.407.22.543,0,10.8.044,24.056-.133,30.375-.088,3.058-.4,4.009-1.63,4.417a15.511,15.511,0,0,1-2.953.679,4.044,4.044,0,0,0,0,2.174c1.366,0,3.658-.2,7.405-.2,2.909,0,5.333.2,6.921.2a4.068,4.068,0,0,0,.132-2.174Z" transform="translate(-107.699 -5.524)" fill="#00a933"/>
    <path id="Контур_315" data-name="Контур 315" d="M525.821,484.779a6.376,6.376,0,0,0,0,2.243c1.322,0,3-.2,4.893-.2,2.557,0,4.452.2,5.6.2a6.426,6.426,0,0,0,.132-2.243,9.407,9.407,0,0,1-2.16-.611c-1.19-.408-1.278-1.3-1.278-2.322,0-1.3,1.1-5.877,1.9-9.3.088-.272.309-.612.485-.612.573-.068,1.455-.068,3.527-.068,1.455,0,2.953-.068,3.658,0,.133,0,.353.34.4.475.661,2.594,1.852,7.656,2.248,10.114a1.589,1.589,0,0,1-.441,1.506,7.229,7.229,0,0,1-2.248.815,6.393,6.393,0,0,0,0,2.243c1.411-.068,3.262-.2,6.436-.2,2.909,0,4.937.2,6.083.2a6.424,6.424,0,0,0,.132-2.243c-3.262-.679-3.526-1.155-4.893-6.489-1.543-5.946-5.466-23.364-6.788-29.061-.265-1.144-.573-2.707-.75-3.794a12.591,12.591,0,0,1-1.983.136,15.74,15.74,0,0,1-1.984-.136,32.444,32.444,0,0,1-.838,4.474c-1.058,4.746-4.8,20.466-7.185,29.13-1.234,4.519-1.807,5.062-4.937,5.741Zm13.268-30.329c.838,3.386,2.38,10.43,2.953,13.274,0,.135-.089.407-.133.407-.441.068-1.631.068-2.953.068-1.366,0-2.38,0-2.865-.068-.088-.068-.132-.2-.088-.464.705-3.25,2.072-9.547,2.909-13.194.044-.091.133-.022.176-.022Z" transform="translate(-117.641 -5.881)" fill="#00a933"/>
    <path id="Контур_316" data-name="Контур 316" d="M567.863,447.574a6.451,6.451,0,0,1,3.041,1.156c1.014.68,1.455,2.582,1.455,4.009-.044,11.417-.176,23.784-.441,27.385-.132,2.311-.573,3.4-1.543,3.874a8.6,8.6,0,0,1-2.469.747,5.5,5.5,0,0,0,0,2.243c1.234,0,3.174-.2,5.6-.2,2.16,0,4.144.2,5.554.2a4.861,4.861,0,0,0,.088-2.243,14.369,14.369,0,0,1-2.6-.679c-1.234-.408-1.851-1.427-1.939-4.281-.132-3.126-.176-17.328-.089-24.666,0-.068.133-.2.221,0,2.821,5.572,13.444,26.706,15.956,32.142a19.449,19.449,0,0,1,3.967-.068c-.044-2.379-.088-6.32-.088-9.378.044-10.057.088-19.91.352-25.686.176-2.514.573-3.4,1.808-4.009a11.321,11.321,0,0,1,1.808-.612,6.026,6.026,0,0,0,0-2.174c-.794,0-2.865.2-5.025.2-2.777,0-4.8-.2-5.907-.2a5.927,5.927,0,0,0-.044,2.174,13.016,13.016,0,0,1,2.777.748c1.366.544,1.763,1.563,1.9,3.806.264,4.552.176,14.61.176,23.307-.045,0-.089.068-.133.068-2.689-4.825-9.962-18.891-13.709-26.3a15.288,15.288,0,0,1-1.631-3.738,26.726,26.726,0,0,1-2.865.136c-2.6,0-4.761-.271-6.172-.2a6.359,6.359,0,0,0-.044,2.242Z" transform="translate(-130.371 -5.847)" fill="#00a933"/>
    <path id="Контур_317" data-name="Контур 317" d="M494.545,486.781c.538-.563,1.04-1.063,1.414-1.443,2.488-2.527,5.552-4.706,9.142-5.216l.276-.039.279.011a6.531,6.531,0,0,1,5.18,2.718,8.3,8.3,0,0,1,1.515,3.932q.345-.327.692-.651a40.741,40.741,0,0,1,4.194-3.828,9.679,9.679,0,0,1,5.426-2.324l.2-.01.2.017a5.6,5.6,0,0,1,5,3.753,10.218,10.218,0,0,1,.739,3.713,8.489,8.489,0,0,1-.395,2.481,19.094,19.094,0,0,1-1.128,2.772c-.7,1.451-1.437,2.888-2.183,4.315q-.863,1.65-1.693,3.319a3.77,3.77,0,0,1,1.693-.716l.214-.031h.215a3.342,3.342,0,0,1,2.384.969l.121.121.106.133a3.415,3.415,0,0,1,.742,2.143v.464l-.139.444a16.512,16.512,0,0,1-2.72,4.1,53.809,53.809,0,0,1-3.577,4.105,11.127,11.127,0,0,1-3.025,2.236,8.271,8.271,0,0,1-3.285.871l-.13,0-.13-.006a6.674,6.674,0,0,1-4.925-2.455,8.332,8.332,0,0,1-1.826-5.284,11.875,11.875,0,0,1,1.158-4.918c1.048-2.389,2.381-4.8,3.6-7.11-1.28,1.453-2.515,2.948-3.7,4.393a80.587,80.587,0,0,0-8.75,13.447l-.857,1.621H488.82l1.937-4.3q.946-2.1,1.9-4.19l-.237.314a42.048,42.048,0,0,1-3.469,4.024,22.659,22.659,0,0,1-3.095,2.675,10.133,10.133,0,0,1-5.283,2l-.149.012-.15,0a7.147,7.147,0,0,1-4.817-1.731,6.594,6.594,0,0,1-1.948-4.97v-.013a45.68,45.68,0,0,1-4.62,4,12.056,12.056,0,0,1-5.737,2.626l-.222.021-.224-.013a5.8,5.8,0,0,1-4.528-2.469,8.215,8.215,0,0,1-1.351-4.844,10.2,10.2,0,0,1,.948-4.389c.665-1.407,1.464-2.8,2.25-4.149q1.052-2.285,2.139-4.557a3.658,3.658,0,0,1-.93.485l-.469.156h-.494a3.55,3.55,0,0,1-.6-.05v.24l-.2.521c-.534,1.411-2.367,3.154-3.446,4.2q-1.751,1.7-3.515,3.384c-1.432,3.824-2.912,7.635-4.492,11.4-1.206,2.872-2.475,5.756-3.9,8.524a41.336,41.336,0,0,1-7.525,10.714,23.009,23.009,0,0,1-4.36,3.406,10.286,10.286,0,0,1-4.879,1.531l-.095,0-.095,0a6.957,6.957,0,0,1-5.328-2.466,7.894,7.894,0,0,1-1.695-5.069v-.116l.009-.116a17.628,17.628,0,0,1,4.374-9.82,72.449,72.449,0,0,1,6.293-6.814q.883-.882,1.785-1.745a11.373,11.373,0,0,1-5.3,2.111l-.222.024-.223-.009a6.528,6.528,0,0,1-5.412-2.9,10.215,10.215,0,0,1-1.455-5.667v-.055l0-.054c.238-6.611,3.723-12.481,7.992-17.325a27.341,27.341,0,0,1,19.436-9.586l.093-.006h.093a16.741,16.741,0,0,1,2.421.174l.036,0,.036.006q.735.126,1.473.244l9.242.639-3.468,9.863a17.477,17.477,0,0,1,2.4-3.462c1.112-1.352,2.269-2.7,3.506-3.937a13.57,13.57,0,0,1,2.885-2.453,7.091,7.091,0,0,1,3.645-1h.063l.064,0,.1,0a5.777,5.777,0,0,1-.183-1.537,8.113,8.113,0,0,1,1.655-4.633,6.512,6.512,0,0,1,5.246-2.822,5.176,5.176,0,0,1,4.255,1.935,5.769,5.769,0,0,1,1.175,2.573,9.63,9.63,0,0,1,.965-1.674,6.525,6.525,0,0,1,5.266-2.834,5.193,5.193,0,0,1,4.255,1.935,5.727,5.727,0,0,1,1.266,3.672,7.611,7.611,0,0,1-1.108,3.841h4.771l-2.037,4.338q-.5,1.06-1,2.119Zm-3.219,6.788q-.992,2.069-1.994,4.132-1.018,2.09-2.029,4.181c.855-1.3,1.907-2.625,3.584-2.778l.139-.013h.139a3.5,3.5,0,0,1,2.118.669l.176.132.155.155a3.3,3.3,0,0,1,.962,2.126q.748-1.621,1.5-3.241c1.148-2.466,2.307-4.932,3.513-7.371a18.409,18.409,0,0,0-1.9,2.063,3.652,3.652,0,0,1-3.766,1.932,3.476,3.476,0,0,1-1.36-.539,3.314,3.314,0,0,1-1.238-1.45Zm-9.737-14.1a8.516,8.516,0,0,1-1.16,1.872,6.627,6.627,0,0,1-4.629,2.545,8.752,8.752,0,0,1,.863,3.726,11.857,11.857,0,0,1-1.424,5.407c-1.327,2.809-2.787,5.6-4.232,8.374,2.22-2.334,4.3-4.837,6.28-7.357a79.325,79.325,0,0,0,7.06-10.744,5.171,5.171,0,0,1-1.493-1.19,5.532,5.532,0,0,1-1.265-2.631Zm-24.531,12.057-.1.292.027,0,.076-.3Zm-19.051,16.777q1.175-1.05,2.354-2.1l.2-.561q-1.234,1.325-2.514,2.609l-.043.047Zm-71.479-19.83c.35-.458.7-.884,1-1.25a52.367,52.367,0,0,1,3.525-3.946,13.226,13.226,0,0,1,2.9-2.444,7.152,7.152,0,0,1,3.626-.977h.063l.064,0a6.476,6.476,0,0,1,5.232,2.858,8.7,8.7,0,0,1,1.52,4.869A11.858,11.858,0,0,1,383.035,493c-1.329,2.812-2.792,5.612-4.239,8.385,2.225-2.333,4.309-4.839,6.288-7.357a80.4,80.4,0,0,0,7.787-12.08l.855-1.616,11.654-.029-2.043,4.349c-2.047,4.361-4.1,8.721-6.209,13.053q-1,2.052-2,4.1c.852-1.287,1.884-2.589,3.552-2.741l.137-.013h.138a3.4,3.4,0,0,1,2.448.969,3.316,3.316,0,0,1,.969,2.371v.233l-.036.229a10.087,10.087,0,0,1-2.126,3.819,40.509,40.509,0,0,1-3.474,4.018,23.1,23.1,0,0,1-3.081,2.663,10.071,10.071,0,0,1-5.291,2.01l-.149.012-.15,0a7.108,7.108,0,0,1-4.815-1.741,6.615,6.615,0,0,1-1.937-4.959v-.026a45.693,45.693,0,0,1-4.633,4.01,12.056,12.056,0,0,1-5.737,2.626l-.222.021-.224-.013a5.825,5.825,0,0,1-4.541-2.456,8.23,8.23,0,0,1-1.351-4.857,10.236,10.236,0,0,1,.945-4.382c.66-1.408,1.478-2.808,2.265-4.154q1.043-2.276,2.126-4.537a3.609,3.609,0,0,1-.916.476l-.469.156h-.494a3.335,3.335,0,0,1-2.151-.755,27.383,27.383,0,0,1-5.985,12.841c-3.3,3.872-7.668,7.478-12.975,7.746l-.077,0H346.8a10.379,10.379,0,0,1-6.777-2.5c-2.475-2.064-3.275-5.222-3.359-8.318v-.082a23.446,23.446,0,0,1,1.175-6.667c.883-2.895,2-5.763,3.147-8.56q2.439-5.929,4.863-11.863c2.21-5.4,4.326-10.843,6.394-16.3l.531-1.4,13.919-4.228-2.575,6.012q-3.46,8.081-6.807,16.208-.437,1.059-.872,2.117a4.773,4.773,0,0,1,3.235-1.477c2.183-.17,3.883,1.14,5.08,2.851,1.368,1.956,1.695,4.889,1.771,7.3ZM347.114,508.5c2.4-.363,4.876-3.448,6.142-5.226a24.967,24.967,0,0,0,4.442-11.114,20.1,20.1,0,0,1-1.533-2.56,12.247,12.247,0,0,1-1.348-5.156l0-.057v-.058q0-.307.022-.61-1.611,3.959-3.183,7.933c-1.346,3.407-2.672,6.844-3.849,10.312a22.492,22.492,0,0,0-1.267,4.84,3.381,3.381,0,0,0,.312,1.624.087.087,0,0,0,.015.018.738.738,0,0,0,.248.054Zm83.087-2.156c.806-.695,1.582-1.453,2.279-2.147,2.966-2.956,5.783-6.375,8.457-9.6a65.206,65.206,0,0,0,5.314-7.267c-4.826,1.374-8.371,4.7-11.085,9.21a61.839,61.839,0,0,0-4.965,9.8Zm-1.463,24.9a27.706,27.706,0,0,0,2.241-3.462c.877-1.6,1.685-3.269,2.449-4.946a39.28,39.28,0,0,0-2.456,3.381,15.01,15.01,0,0,0-2.234,5.027Z" transform="translate(-60.426 -8.916)" fill="#fff" fill-rule="evenodd"/>
    <path id="Контур_318" data-name="Контур 318" d="M362.643,462.365q-3.63,8.476-6.822,16.244t-5.677,14.018c-1.648,4.171-2.948,7.647-3.9,10.452a22.077,22.077,0,0,0-1.429,5.819,5.6,5.6,0,0,0,.94,3.475,3.38,3.38,0,0,0,2.78,1.275q4.151-.386,8.521-6.513a28.05,28.05,0,0,0,5.136-13.774,14.536,14.536,0,0,1-2-3.05,9.174,9.174,0,0,1-1.017-3.888,3.927,3.927,0,0,1,.528-2.1,1.763,1.763,0,0,1,1.493-.876c.811-.077,1.6.438,2.381,1.558s1.184,3.179,1.235,6.2q-.4,10.117-5.882,16.527t-10.813,6.681a7.312,7.312,0,0,1-4.827-1.789c-1.441-1.2-2.188-3.218-2.266-6.062a20.314,20.314,0,0,1,1.043-5.78q1.023-3.379,3.05-8.29,2.008-4.9,4.866-11.868,2.838-6.951,6.423-16.373l6.23-1.892ZM378.9,484.994a3.462,3.462,0,0,1,2.845,1.532,5.721,5.721,0,0,1,.992,3.269,8.671,8.671,0,0,1-1.133,3.991q-1.235,2.644-5.123,10.078-1.661,3.244-3.038,5.844a15.135,15.135,0,0,0-1.454,3.244.342.342,0,0,0,.154.335.941.941,0,0,0,.412.077c.888-.128,2.163-.888,3.849-2.3s3.076-2.651,4.183-3.732a96.651,96.651,0,0,0,8.212-9.333,83.81,83.81,0,0,0,8.084-12.537l5.02-.013q-3.707,7.9-6.191,13.014c-1.661,3.411-2.961,6.1-3.9,8.045s-1.622,3.386-2.034,4.287a4.117,4.117,0,0,0-.553,1.892.791.791,0,0,0,.206.579.85.85,0,0,0,.63.219,4.788,4.788,0,0,0,2.78-1.236c.94-.76,1.764-1.52,2.5-2.24a33.385,33.385,0,0,0,3.527-4.235c.669-1.03,1.133-1.557,1.416-1.583a.431.431,0,0,1,.3.077.283.283,0,0,1,.077.218,9.239,9.239,0,0,1-1.545,2.446,38.117,38.117,0,0,1-3.243,3.746,19.887,19.887,0,0,1-2.7,2.33,7,7,0,0,1-3.707,1.416,4.1,4.1,0,0,1-2.806-.927,3.662,3.662,0,0,1-.965-2.819,8.075,8.075,0,0,1,.334-2.716,22.9,22.9,0,0,1,1.506-3.514q1.1-2.1,2.909-5.509t4.595-8.689a92.259,92.259,0,0,1-7.273,10.362,89.412,89.412,0,0,1-6.564,7.273,45.63,45.63,0,0,1-5.008,4.428,9.214,9.214,0,0,1-4.2,2.034,2.794,2.794,0,0,1-2.227-1.184,5.279,5.279,0,0,1-.785-3.089,7.14,7.14,0,0,1,.656-3.089c.438-.939,1.184-2.278,2.214-4.042q1.989-4.344,3.462-7.273c.978-1.956,1.764-3.514,2.356-4.7s1.043-2.111,1.364-2.767a4.144,4.144,0,0,0,.464-1.275.963.963,0,0,0-.257-.682.943.943,0,0,0-.759-.309,3.779,3.779,0,0,0-1.905.837,14.476,14.476,0,0,0-1.557,1.326,46.232,46.232,0,0,0-3.566,4.209,8.689,8.689,0,0,1-2.059,2.278c-.128,0-.193-.026-.219-.077a.439.439,0,0,1-.038-.219,11.059,11.059,0,0,1,2.073-3.038,47.493,47.493,0,0,1,3.36-3.759,10.471,10.471,0,0,1,2.239-1.93,4.1,4.1,0,0,1,2.1-.567Zm79.035.709-5.69,16.18a39.824,39.824,0,0,0,3.785-3.656c.747-.863,1.249-1.313,1.532-1.339a.443.443,0,0,1,.283.077.362.362,0,0,1,.1.284,14.051,14.051,0,0,1-2.716,3.089c-1.635,1.583-2.974,2.87-4,3.849a199.139,199.139,0,0,1-8.5,20.248,37.439,37.439,0,0,1-6.938,9.924,18.618,18.618,0,0,1-3.772,2.96,7.176,7.176,0,0,1-3.424,1.12,3.952,3.952,0,0,1-3.076-1.338,4.883,4.883,0,0,1-1.017-3.154,14.541,14.541,0,0,1,3.681-8.109,70.24,70.24,0,0,1,6.063-6.565c1.609-1.609,3.333-3.243,5.174-4.879s3.45-3.089,4.853-4.325l6.642-18.329q-3.321,4.614-6.771,8.792t-6.99,7.723a46.751,46.751,0,0,1-3.849,3.694,9.285,9.285,0,0,1-5.02,2.471,3.512,3.512,0,0,1-2.987-1.531,7.265,7.265,0,0,1-.953-3.99q.271-7.512,7.234-15.421a24.282,24.282,0,0,1,17.339-8.559,13.7,13.7,0,0,1,1.983.142c.6.1,1.158.193,1.635.27l5.393.374Zm-29.117,27.713a5.249,5.249,0,0,0,2.665-1.119,31.557,31.557,0,0,0,4.467-3.849q3.05-3.051,8.65-9.809a54.8,54.8,0,0,0,8.1-12.37c-.283-.052-.618-.142-1.017-.257a6.047,6.047,0,0,0-1.622-.167q-10.117,1.178-16.18,11.224-6.043,10.06-6.2,14.778a2.46,2.46,0,0,0,.232,1.133.933.933,0,0,0,.914.437Zm.232,24.02q2.569.038,5.921-6.1a167.172,167.172,0,0,0,8.367-19.347c-.579.464-1.351,1.12-2.317,2.008s-2.137,2.021-3.527,3.424a55.288,55.288,0,0,0-7.762,9.242q-2.8,4.344-2.832,7.775a3.88,3.88,0,0,0,.515,2.149,1.851,1.851,0,0,0,1.635.85ZM471.1,484.994a3.4,3.4,0,0,1,2.832,1.545,5.624,5.624,0,0,1,1,3.283,8.657,8.657,0,0,1-1.133,3.99q-1.235,2.645-5.123,10.079-1.661,3.244-3.025,5.844a14.18,14.18,0,0,0-1.455,3.244c0,.18.052.309.155.361a.843.843,0,0,0,.4.077c.888-.128,2.162-.9,3.849-2.3s3.076-2.664,4.183-3.758A95.445,95.445,0,0,0,481,498.008a83.349,83.349,0,0,0,8.084-12.55h5.02q-3.707,7.9-6.191,13t-3.9,8.045c-.952,1.944-1.621,3.372-2.034,4.287a4.044,4.044,0,0,0-.554,1.879.822.822,0,0,0,.206.6.85.85,0,0,0,.63.219,4.783,4.783,0,0,0,2.78-1.236c.94-.773,1.764-1.532,2.5-2.265a32.755,32.755,0,0,0,3.527-4.2c.656-1.017,1.132-1.545,1.416-1.57a.532.532,0,0,1,.3.064.275.275,0,0,1,.077.206,9.308,9.308,0,0,1-1.545,2.42,38.24,38.24,0,0,1-3.243,3.759,19.925,19.925,0,0,1-2.7,2.33,7.1,7.1,0,0,1-3.707,1.416,4.161,4.161,0,0,1-2.819-.927,3.662,3.662,0,0,1-.965-2.819,8.018,8.018,0,0,1,.335-2.716,21.419,21.419,0,0,1,1.519-3.5c.721-1.416,1.7-3.243,2.909-5.509s2.741-5.161,4.595-8.676a89.332,89.332,0,0,1-7.273,10.35,86.6,86.6,0,0,1-6.565,7.26,45.569,45.569,0,0,1-5.007,4.428,9.214,9.214,0,0,1-4.2,2.034,2.747,2.747,0,0,1-2.214-1.2,5.205,5.205,0,0,1-.785-3.077,7.151,7.151,0,0,1,.656-3.089c.438-.927,1.172-2.278,2.2-4.042q1.989-4.324,3.462-7.26c.978-1.944,1.764-3.514,2.356-4.686s1.043-2.1,1.352-2.755a4,4,0,0,0,.476-1.287,1.114,1.114,0,0,0-.257-.708.914.914,0,0,0-.759-.322,3.7,3.7,0,0,0-1.905.85,15.918,15.918,0,0,0-1.558,1.351,47.74,47.74,0,0,0-3.566,4.184,8.5,8.5,0,0,1-2.059,2.265c-.116,0-.18-.025-.206-.064a.449.449,0,0,1-.039-.206,11.4,11.4,0,0,1,2.073-3.025c1.249-1.532,2.369-2.78,3.347-3.759a10.616,10.616,0,0,1,2.24-1.944,3.993,3.993,0,0,1,2.1-.579Zm7.018-8.985a2.128,2.128,0,0,1,1.8.785,2.679,2.679,0,0,1,.6,1.738,4.772,4.772,0,0,1-1.146,2.987,3.566,3.566,0,0,1-2.806,1.441,2.2,2.2,0,0,1-1.777-.759,2.607,2.607,0,0,1-.6-1.738,5.1,5.1,0,0,1,1.081-2.9,3.479,3.479,0,0,1,2.845-1.558Zm11.662,0a2.147,2.147,0,0,1,1.8.785,2.684,2.684,0,0,1,.605,1.738,4.78,4.78,0,0,1-1.146,2.987,3.555,3.555,0,0,1-2.78,1.441,2.243,2.243,0,0,1-1.789-.759,2.532,2.532,0,0,1-.618-1.738,5.135,5.135,0,0,1,1.068-2.9,3.49,3.49,0,0,1,2.858-1.558Zm17.065,9.217a3.483,3.483,0,0,1,2.845,1.467,5.517,5.517,0,0,1,1,3.347,6.854,6.854,0,0,1-.373,2.137,24.931,24.931,0,0,1-1.262,2.845c-.592,1.159-1.351,2.6-2.252,4.338s-2,3.939-3.283,6.6c1.287-1.815,2.407-3.372,3.4-4.686s1.918-2.523,2.806-3.656,1.867-2.266,2.922-3.424,2.343-2.446,3.849-3.849a36.42,36.42,0,0,1,3.939-3.6,6.638,6.638,0,0,1,3.681-1.674,2.565,2.565,0,0,1,2.394,1.764,7.147,7.147,0,0,1,.554,2.613,5.547,5.547,0,0,1-.271,1.673,17.516,17.516,0,0,1-.953,2.317c-.476.978-1.184,2.394-2.137,4.222s-2.2,4.325-3.746,7.466c-.5,1-1.133,2.3-1.9,3.875a12.583,12.583,0,0,0-1.262,3.372.876.876,0,0,0,.283.708,1.084,1.084,0,0,0,.734.258,2.777,2.777,0,0,0,1.583-.644,17.379,17.379,0,0,0,1.969-1.789,41.32,41.32,0,0,0,3.695-4.364q1.235-1.775,1.776-1.853a.318.318,0,0,1,.232.077.376.376,0,0,1,.077.245,16.46,16.46,0,0,1-2.188,3.1c-1.338,1.66-2.458,2.947-3.372,3.874a8.129,8.129,0,0,1-2.188,1.635,5.287,5.287,0,0,1-2.072.566,3.6,3.6,0,0,1-2.729-1.365,5.229,5.229,0,0,1-1.12-3.4,8.863,8.863,0,0,1,.9-3.63q.946-2.143,3.514-6.926c2.123-4.067,3.668-7.092,4.634-9.049a21.149,21.149,0,0,0,1.455-3.243.282.282,0,0,0-.142-.257.526.526,0,0,0-.322-.091,6.169,6.169,0,0,0-2.6,1.442,40.481,40.481,0,0,0-4.119,3.694,100.389,100.389,0,0,0-7.659,8.56,83.563,83.563,0,0,0-9.087,13.954h-5.2q3.012-6.681,5.3-11.572t3.9-8.148c1.082-2.163,1.892-3.849,2.433-5.034a16.627,16.627,0,0,0,.888-2.175.755.755,0,0,0-.283-.656,1.035,1.035,0,0,0-.618-.219,6.433,6.433,0,0,0-2.471,1.03,24.115,24.115,0,0,0-4.814,3.965,27.745,27.745,0,0,0-2.716,2.96c-.3.464-.528.669-.682.618a.412.412,0,0,1-.245-.09.282.282,0,0,1-.142-.257c.206-.631,1.545-2.214,4.042-4.737s4.955-3.99,7.4-4.338Z" transform="translate(-61.747 -11.005)" fill="#eb2f31"/>
    <path id="Контур_319" data-name="Контур 319" d="M327.563,437.457h1v-7.872h1.6v-.9h-4.2v.9h1.6v7.872Z" transform="translate(-57.187 -0.813)" fill="#191000"/>
    <path id="Контур_320" data-name="Контур 320" d="M333.37,427.874v5.842c0,2.173.859,3.032,2.173,3.032s2.239-.872,2.239-3.149v-5.725h-1v5.881c0,1.536-.469,2.108-1.21,2.108-.677,0-1.2-.533-1.2-2.108v-5.881Zm1.145-.664a.544.544,0,0,0,.559-.6.561.561,0,0,0-.559-.612.577.577,0,0,0-.559.612.558.558,0,0,0,.559.6Zm2.108,0a.544.544,0,0,0,.559-.6.561.561,0,0,0-.559-.612.569.569,0,0,0-.559.612.55.55,0,0,0,.559.6Z" transform="translate(-59.429)" fill="#191000"/>
    <path id="Контур_321" data-name="Контур 321" d="M341.916,437.44h1v-3.826h.39c.859,0,1.236.455,1.432,1.653a11.3,11.3,0,0,0,.469,2.173h1.015a12.4,12.4,0,0,1-.494-2.225c-.2-1.145-.533-1.77-1.184-1.964v-.026a2.287,2.287,0,0,0,1.405-2.251,2.362,2.362,0,0,0-.612-1.718,2.7,2.7,0,0,0-1.978-.624,5.676,5.676,0,0,0-1.444.169v8.64Zm1-7.951a2,2,0,0,1,.52-.052c1.08.013,1.5.637,1.5,1.652a1.589,1.589,0,0,1-1.6,1.757h-.416v-3.357Z" transform="translate(-62.015 -0.796)" fill="#191000"/>
    <path id="Контур_322" data-name="Контур 322" d="M349.547,437.457h1v-3.384l.494-.845,1.8,4.229h1.079l-2.2-5.023,2.147-3.747h-1.106l-1.64,3.11q-.254.507-.547,1.054h-.026v-4.164h-1v8.77Z" transform="translate(-64.324 -0.813)" fill="#191000"/>
    <path id="Контур_323" data-name="Контур 323" d="M362.486,437.457h.937l-.507-8.77H361.8l-.989,4.008c-.287,1.184-.481,2.017-.651,3.018h-.039c-.182-1-.4-1.861-.7-3.018l-1.028-4.008h-1.08l-.52,8.77h.9l.169-3.709c.052-1.249.1-2.472.1-3.5H358c.169,1.015.43,2.095.715,3.213l1.028,3.943h.637l1.08-4.112c.273-1.028.508-2.069.7-3.045h.052c-.039.989.026,2.277.091,3.435l.182,3.773Z" transform="translate(-66.516 -0.813)" fill="#191000"/>
    <path id="Контур_324" data-name="Контур 324" d="M371.462,432.447h-2.2v-2.889h2.342v-.872h-3.344v8.77h3.5v-.872h-2.5v-3.292h2.2v-.846Z" transform="translate(-69.988 -0.813)" fill="#191000"/>
    <path id="Контур_325" data-name="Контур 325" d="M375.777,437.457v-3.032c0-1.874-.026-2.992-.1-4.164h.026c.312,1.093.69,2.095,1.04,2.98l1.666,4.216h.95v-8.77h-.9v3.136c0,1.522.039,2.654.117,4.034h-.026c-.3-.95-.755-2.121-1.119-3.058l-1.613-4.112h-.951v8.77Z" transform="translate(-71.987 -0.813)" fill="#191000"/>
    <path id="Контур_326" data-name="Контур 326" d="M383.543,428.687v8.77h1v-8.77Z" transform="translate(-74.613 -0.813)" fill="#191000"/>
    <path id="Контур_327" data-name="Контур 327" d="M386.659,437.123a2.95,2.95,0,0,0,1.483.378,2.35,2.35,0,0,0,2.459-2.46,3,3,0,0,0-1.522-2.524c-.833-.6-1.288-.937-1.288-1.808a1.209,1.209,0,0,1,1.262-1.249,1.835,1.835,0,0,1,1.041.3l.247-.859a2.277,2.277,0,0,0-1.236-.325,2.21,2.21,0,0,0-2.317,2.3,3.254,3.254,0,0,0,1.653,2.434,2.245,2.245,0,0,1,1.158,1.821,1.374,1.374,0,0,1-1.457,1.483,2.564,2.564,0,0,1-1.262-.351l-.221.858Z" transform="translate(-75.556 -0.779)" fill="#191000"/>
    <path id="Контур_328" data-name="Контур 328" d="M394.771,437.457h1v-7.872h1.6v-.9h-4.2v.9h1.6v7.872Z" transform="translate(-77.527 -0.813)" fill="#191000"/>
    <path id="Контур_329" data-name="Контур 329" d="M402.536,434.829l.585,2.628h.989l-1.952-8.77h-1.106l-2,8.77h.963l.585-2.628Zm-1.8-.807.455-2.225c.116-.585.247-1.34.351-2h.052c.1.651.221,1.379.352,2l.455,2.225Z" transform="translate(-79.305 -0.813)" fill="#191000"/>
    <path id="Контур_330" data-name="Контур 330" d="M408.784,437.457v-3.032c0-1.874-.026-2.992-.1-4.164h.027a31.41,31.41,0,0,0,1.04,2.98l1.666,4.216h.95v-8.77h-.9v3.136c0,1.522.039,2.654.117,4.034h-.026c-.3-.95-.755-2.121-1.119-3.058l-1.614-4.112h-.95v8.77Z" transform="translate(-81.976 -0.813)" fill="#191000"/>
    <path id="Контур_331" data-name="Контур 331" d="M418.545,437.457v-3.748l2.017-5.022h-1.054l-.742,2.16c-.234.676-.455,1.34-.637,2.017H418.1c-.195-.676-.429-1.366-.65-1.978l-.781-2.2h-1.054l1.925,5.061v3.709Z" transform="translate(-84.32 -0.813)" fill="#191000"/>
    <path id="Контур_332" data-name="Контур 332" d="M424.812,436.7v-3.032c0-1.874-.026-2.992-.1-4.164h.026a31.394,31.394,0,0,0,1.041,2.98l1.665,4.216h.95v-8.77h-.9v3.136c0,1.522.039,2.654.117,4.034h-.026c-.3-.95-.755-2.121-1.119-3.058l-1.614-4.112h-.95v8.77Zm1.757-9.239,1.119-1.275h-.859l-.676.755h-.026l-.677-.755h-.872l1.133,1.275Z" transform="translate(-86.827 -0.057)" fill="#191000"/>
    <path id="Контур_333" data-name="Контур 333" d="M435.507,437.4a5.737,5.737,0,0,0,1.119.091,3.074,3.074,0,0,0,2.421-.95,5.233,5.233,0,0,0,1.054-3.7,4.544,4.544,0,0,0-1.184-3.552,2.934,2.934,0,0,0-2.056-.663,4.722,4.722,0,0,0-1.353.169v8.6Zm1-7.9a1.776,1.776,0,0,1,.468-.052c1.405,0,2.082,1.21,2.082,3.422,0,2.98-1.066,3.773-2.172,3.773a2.124,2.124,0,0,1-.377-.026V429.5Z" transform="translate(-90.339 -0.796)" fill="#191000"/>
    <path id="Контур_334" data-name="Контур 334" d="M445.864,427.77c-1.536,0-2.577,1.574-2.577,4.476,0,2.954.976,4.5,2.433,4.5,1.405,0,2.538-1.262,2.538-4.554,0-2.8-.9-4.424-2.394-4.424Zm-.091.884c1.145,0,1.444,1.939,1.444,3.578,0,1.718-.3,3.63-1.431,3.63-1.106,0-1.457-1.8-1.457-3.6,0-1.783.351-3.6,1.444-3.6Zm-1.054-1.444a.544.544,0,0,0,.559-.6.561.561,0,0,0-.559-.612.569.569,0,0,0-.56.612.551.551,0,0,0,.56.6Zm2.095,0a.544.544,0,0,0,.559-.6.561.561,0,0,0-.559-.612.577.577,0,0,0-.56.612.558.558,0,0,0,.56.6Z" transform="translate(-92.694)" fill="#191000"/>
    <path id="Контур_335" data-name="Контур 335" d="M453.845,437.457l.872-4.229c.209-.976.352-1.926.482-2.915h.026c.1.963.273,1.952.442,2.876l.846,4.268h.976l1.7-8.77h-.976l-.728,4.177c-.169,1-.326,1.952-.469,3.214h-.039c-.117-1.223-.312-2.225-.508-3.266l-.807-4.124h-.858L454,432.9c-.208,1.119-.416,2.069-.52,3.175h-.052c-.1-1.08-.247-2.056-.43-3.162l-.741-4.229h-1.041l1.692,8.77Z" transform="translate(-95.094 -0.813)" fill="#191000"/>
    <path id="Контур_336" data-name="Контур 336" d="M464.166,437.457h3.474v-.846h-2.472v-7.924h-1v8.77Z" transform="translate(-99.012 -0.813)" fill="#191000"/>
    <path id="Контур_337" data-name="Контур 337" d="M473.786,432.447h-2.2v-2.889h2.342v-.872h-3.344v8.77h3.5v-.872h-2.5v-3.292h2.2v-.846Z" transform="translate(-100.955 -0.813)" fill="#191000"/>
    <path id="Контур_338" data-name="Контур 338" d="M477.969,437.457h1v-7.872h1.6v-.9h-4.2v.9h1.6v7.872Z" transform="translate(-102.705 -0.813)" fill="#191000"/>
    <path id="Контур_339" data-name="Контур 339" d="M486.724,428.687v8.77h1v-4.1h2.459v4.1h1v-8.77h-1v3.76h-2.459v-3.76Z" transform="translate(-105.839 -0.813)" fill="#191000"/>
    <path id="Контур_340" data-name="Контур 340" d="M498.141,434.829l.586,2.628h.989l-1.952-8.77h-1.106l-2,8.77h.963l.585-2.628Zm-1.8-.807.456-2.225c.116-.585.247-1.34.351-2h.052c.1.651.221,1.379.351,2l.455,2.225Z" transform="translate(-108.239 -0.813)" fill="#191000"/>
    <path id="Контур_341" data-name="Контур 341" d="M503.479,437.4a7.153,7.153,0,0,0,1.315.091,2.988,2.988,0,0,0,2.316-.794,2.52,2.52,0,0,0,.625-1.743,2.163,2.163,0,0,0-1.627-2.239v-.026a2.027,2.027,0,0,0,1.354-1.952,1.98,1.98,0,0,0-.573-1.5,2.739,2.739,0,0,0-1.939-.612,6.066,6.066,0,0,0-1.471.169v8.6Zm1-7.924a1.782,1.782,0,0,1,.533-.066,1.286,1.286,0,0,1,1.444,1.432,1.506,1.506,0,0,1-1.522,1.548h-.455v-2.914Zm0,3.682h.442a1.7,1.7,0,0,1,1.782,1.8,1.587,1.587,0,0,1-1.717,1.743,2.3,2.3,0,0,1-.508-.052v-3.487Z" transform="translate(-110.91 -0.796)" fill="#191000"/>
    <path id="Контур_342" data-name="Контур 342" d="M514.02,434.829l.585,2.628h.989l-1.951-8.77h-1.106l-2,8.77h.963l.585-2.628Zm-1.8-.807.455-2.225c.117-.585.247-1.34.351-2h.052c.1.651.221,1.379.351,2l.455,2.225Z" transform="translate(-113.044 -0.813)" fill="#191000"/>
    <path id="Контур_343" data-name="Контур 343" d="M519.357,437.44h1v-3.826h.391c.859,0,1.236.455,1.431,1.653a11.347,11.347,0,0,0,.469,2.173h1.015a12.267,12.267,0,0,1-.494-2.225c-.2-1.145-.533-1.77-1.184-1.964v-.026a2.288,2.288,0,0,0,1.405-2.251,2.364,2.364,0,0,0-.612-1.718,2.7,2.7,0,0,0-1.978-.624,5.678,5.678,0,0,0-1.445.169v8.64Zm1-7.951a2.011,2.011,0,0,1,.521-.052c1.08.013,1.5.637,1.5,1.652a1.589,1.589,0,0,1-1.6,1.757h-.416v-3.357Z" transform="translate(-115.715 -0.796)" fill="#191000"/>
    <path id="Контур_344" data-name="Контур 344" d="M526.989,437.457h3.474v-.846h-2.472v-7.924h-1v8.77Z" transform="translate(-118.025 -0.813)" fill="#191000"/>
    <path id="Контур_345" data-name="Контур 345" d="M536.242,434.829l.586,2.628h.989l-1.952-8.77h-1.106l-2,8.77h.962l.586-2.628Zm-1.8-.807.455-2.225c.117-.585.248-1.34.351-2h.052c.1.651.222,1.379.351,2l.455,2.225Z" transform="translate(-119.77 -0.813)" fill="#191000"/>
    <path id="Контур_346" data-name="Контур 346" d="M541.58,437.44h1v-3.826h.39c.859,0,1.236.455,1.432,1.653a11.347,11.347,0,0,0,.469,2.173h1.015a12.4,12.4,0,0,1-.494-2.225c-.2-1.145-.533-1.77-1.184-1.964v-.026a2.287,2.287,0,0,0,1.405-2.251,2.362,2.362,0,0,0-.612-1.718,2.7,2.7,0,0,0-1.978-.624,5.676,5.676,0,0,0-1.444.169v8.64Zm1-7.951a2,2,0,0,1,.52-.052c1.08.013,1.5.637,1.5,1.652a1.589,1.589,0,0,1-1.6,1.757h-.416v-3.357Z" transform="translate(-122.441 -0.796)" fill="#191000"/>
    <path id="Контур_347" data-name="Контур 347" d="M554.919,434.829l.586,2.628h.989l-1.952-8.77h-1.106l-2,8.77h.962l.586-2.628Zm-1.8-.807.455-2.225c.117-.585.248-1.34.351-2h.052c.1.651.221,1.379.352,2l.455,2.225Z" transform="translate(-125.422 -0.813)" fill="#191000"/>
    <path id="Контур_348" data-name="Контур 348" d="M564.046,432.843h-2.082v.833H563.1v2.863a1.439,1.439,0,0,1-.612.1c-1.054,0-2.082-.872-2.082-3.578s1.184-3.591,2.278-3.591a2.193,2.193,0,0,1,1.015.208l.221-.859a2.778,2.778,0,0,0-1.249-.247c-1.549,0-3.292,1.171-3.3,4.58a5.04,5.04,0,0,0,1.054,3.487,2.619,2.619,0,0,0,2.069.859,4.5,4.5,0,0,0,1.561-.3v-4.359Z" transform="translate(-127.822 -0.779)" fill="#191000"/>
    <path id="Контур_349" data-name="Контур 349" d="M571.22,432.447h-2.2v-2.889h2.342v-.872h-3.344v8.77h3.5v-.872h-2.5v-3.292h2.2v-.846Z" transform="translate(-130.442 -0.813)" fill="#191000"/>
    <path id="Контур_350" data-name="Контур 350" d="M575.535,437.457v-3.032c0-1.874-.026-2.992-.1-4.164h.026a31.4,31.4,0,0,0,1.041,2.98l1.665,4.216h.95v-8.77h-.9v3.136c0,1.522.039,2.654.117,4.034h-.026c-.3-.95-.755-2.121-1.119-3.058l-1.614-4.112h-.95v8.77Z" transform="translate(-132.441 -0.813)" fill="#191000"/>
    <path id="Контур_351" data-name="Контур 351" d="M584.08,437.457h1v-7.872h1.6v-.9h-4.2v.9h1.6v7.872Z" transform="translate(-134.818 -0.813)" fill="#191000"/>
    <path id="Контур_352" data-name="Контур 352" d="M589.906,437.457h3.474v-.846h-2.472v-7.924h-1v8.77Z" transform="translate(-137.066 -0.813)" fill="#191000"/>
    <path id="Контур_353" data-name="Контур 353" d="M596.324,428.687v8.77h1v-8.77Z" transform="translate(-139.008 -0.813)" fill="#191000"/>
    <path id="Контур_354" data-name="Контур 354" d="M604.2,432.843h-2.082v.833h1.132v2.863a1.439,1.439,0,0,1-.612.1c-1.054,0-2.082-.872-2.082-3.578s1.184-3.591,2.278-3.591a2.193,2.193,0,0,1,1.015.208l.221-.859a2.778,2.778,0,0,0-1.249-.247c-1.548,0-3.292,1.171-3.3,4.58a5.04,5.04,0,0,0,1.054,3.487,2.619,2.619,0,0,0,2.069.859,4.5,4.5,0,0,0,1.561-.3v-4.359Z" transform="translate(-139.974 -0.779)" fill="#191000"/>
    <path id="Контур_355" data-name="Контур 355" d="M608.172,428.687v8.77h1v-8.77Z" transform="translate(-142.594 -0.813)" fill="#191000"/>
    <g id="Сгруппировать_54" data-name="Сгруппировать 54" transform="translate(487.316 427.626)">
      <g id="Сгруппировать_53" data-name="Сгруппировать 53" clip-path="url(#clip-path)">
        <path id="Контур_356" data-name="Контур 356" d="M639.343,428.195H795.6V503.8H639.343V428.195Z" transform="translate(-639.343 -428.29)" fill="#00a933" fill-rule="evenodd"/>
        <path id="Контур_357" data-name="Контур 357" d="M654.521,428.195h20.46V503.8h-20.46V428.195Z" transform="translate(-643.937 -428.29)" fill="#eb2f31" fill-rule="evenodd"/>
        <path id="Контур_358" data-name="Контур 358" d="M658.827,428.2l-1.7,1.838-.891-.833-.3.319.676.6-.764.828.234.218-1.568,1.7v-.842l.732-.794-.339-.317.718-.778-.262-.249v.326l-.7.052-.006-.427,1.4-1.521h.987v.582h-.4l.4.372.99-1.072Zm-1.066,0-.578.626V428.2Zm-3.239,0h1.225l-.452.43h-.5l0,.467-.272.349V428.2Z" transform="translate(-643.936 -428.291)" fill="#2c0001" fill-rule="evenodd"/>
        <path id="Контур_359" data-name="Контур 359" d="M661.928,528.648a2.625,2.625,0,0,1-.826-1.1c-.3-.745-1-1.086-1.372-1.406a5.112,5.112,0,0,0,1,2.126c.28.229-1.352-.206-1.97-.239a2.827,2.827,0,0,1-.856-.268s.333,1.046,2.181,1.276c.693.087,1.157-.391,1.841-.391Zm-2.163-.729a5.831,5.831,0,0,0-.262-1.5c-.246-.715-.921-1.588-1.024-1.453-.355.5.649,2.044.524,2.114-.141.077-.61-.442-1.114-.748-.646-.389-1.31-.766-1.282-.737.113.126-.292,1.692,3.158,2.33Zm-1.6-1.881a10.4,10.4,0,0,0-.038-2c-.079-.766-.3-1.026-.356-1.021a4.7,4.7,0,0,0-.333,1.317c-.046.391.4,1.047.257,1.069-.065.01-1.712-1.835-2.034-1.743a2.655,2.655,0,0,0,1.458,1.928c1.031.57,1.045.446,1.045.446Zm-1.14-1.939c.221,0,.311-.671.386-1.577.037-.42-.06-1.311-.178-1.256-.22.1-.413.544-.478,1-.082.515-.086,1.038-.176,1.072-.167.062-.4-.778-.787-1.274-.324-.42-.645-.408-.657-.524a2.484,2.484,0,0,0,1.89,2.561Zm-.734-4.194c-.239.046-.519,1.454.135,2.552l.227-1.017a2.664,2.664,0,0,0-.363-1.536Zm14.392,9.5s-.521.742-2.237.683c-1.209-.046-1.731-.737-2.294-.706a3.12,3.12,0,0,0-.805-.013,6.3,6.3,0,0,1,1.817,1.34.283.283,0,0,1-.39.1,7.532,7.532,0,0,0-1.782-1.329,4.269,4.269,0,0,0-1.836,1.329.274.274,0,0,1-.372-.121,3.322,3.322,0,0,1,1.763-1.323,3.328,3.328,0,0,0-.752-.04c-.6,0-1.246.679-2.259.743-1.913.058-2.344-.684-2.344-.684.554.377,2.356-.161,2.551-.225a5.147,5.147,0,0,1,3.248.031,5.213,5.213,0,0,1,3.266-.066c.195.063,1.87.656,2.425.279Zm-2.739-.754a2.568,2.568,0,0,0,.825-1.1c.305-.745,1.006-1.086,1.377-1.406a5.226,5.226,0,0,1-1,2.126c-.283.229,1.349-.206,1.972-.239a2.789,2.789,0,0,0,.847-.268s-.328,1.046-2.176,1.276c-.7.087-1.158-.391-1.844-.391Zm2.159-.729a6.062,6.062,0,0,1,.268-1.5c.246-.715.921-1.588,1.017-1.453.358.5-.649,2.044-.52,2.114s.614-.442,1.118-.748c.642-.389,1.308-.766,1.28-.737-.116.126.289,1.692-3.163,2.33Zm1.609-1.881a10.526,10.526,0,0,1,.038-2c.084-.766.3-1.026.352-1.021a4.544,4.544,0,0,1,.335,1.317c.045.391-.4,1.047-.262,1.069.07.01,1.722-1.835,2.039-1.743a2.654,2.654,0,0,1-1.456,1.928c-1.033.57-1.046.446-1.046.446Zm1.14-1.939c-.222,0-.311-.671-.388-1.577-.036-.42.06-1.311.181-1.256a1.439,1.439,0,0,1,.479,1c.078.515.084,1.038.174,1.072.167.062.4-.778.785-1.274.326-.42.646-.408.658-.524a2.492,2.492,0,0,1-1.889,2.561Zm.732-4.194c.239.046.52,1.454-.132,2.552l-.231-1.017a2.681,2.681,0,0,1,.363-1.536Z" transform="translate(-644.121 -456.045)" fill="#ffef00" fill-rule="evenodd"/>
        <path id="Контур_360" data-name="Контур 360" d="M658.826,446.7l-1.7-1.838-.891.833-.3-.32.676-.6-.764-.827.234-.218-1.568-1.7v.842l.732.794-.339.317.718.778-.262.248v-.368h-.7v.418l1.4,1.52h.987V446h-.4l.4-.372.99,1.073-.99,1.072-.4-.372h.4v-.582h-.987l-1.4,1.52.007.381.7,0v-.335l.262.249-.718.778.339.317-.732.794v.842l1.568-1.7-.234-.218.764-.828-.676-.6.3-.32.891.834,1.7-1.838Zm-1.644.626.49-.53.115-.077-.019-.019.019-.02-.115-.077-.49-.53v1.253Zm-2.661.621.272-.349,0-.467h.5l.452-.43-.452-.431h-.5l0-.467-.272-.349v2.494Z" transform="translate(-643.936 -432.478)" fill="#2c0001" fill-rule="evenodd"/>
        <path id="Контур_361" data-name="Контур 361" d="M658.655,446.778l-1.531-1.66-.892.833-.468-.507.676-.6-.761-.825.234-.218-1.391-1.507v.471l.909.985-.339.317.717.778-.564.536v-.536h-.452v.243l1.332,1.443h.807v-.33h-.589l.724-.677,1.154,1.251-1.154,1.25-.724-.676h.589v-.331h-.807l-1.332,1.444,0,.208.448,0v-.5l.564.536-.717.778.339.317-.909.985v.471l1.391-1.508-.234-.218.761-.825-.676-.6.468-.507.892.833,1.531-1.659Zm-1.066,0-.281-.3v.61l.281-.3Zm-3.068,1.043v-2.086l.146.188,0,.55h.58l.32.305-.32.3h-.58l0,.55-.146.188Z" transform="translate(-643.936 -432.558)" fill="#ffef00" fill-rule="evenodd"/>
        <path id="Контур_362" data-name="Контур 362" d="M658.221,428.2h.434l-1.531,1.659-.892-.833-.468.508.676.6-.761.825.234.218-1.391,1.508V432.2l.909-.985-.339-.317.717-.778-.564-.536v.5l-.448.033,0-.243,1.332-1.443h.807v.33h-.589l.724.677,1.154-1.25Zm-.912,0h.281l-.281.3v-.3Zm-2.787,1.043V428.2h1.043l-.32.3h-.58l0,.55-.146.188Z" transform="translate(-643.936 -428.291)" fill="#ffef00" fill-rule="evenodd"/>
        <path id="Контур_363" data-name="Контур 363" d="M658.826,507.3l-1.7-1.838-.891.833-.3-.32.676-.6-.764-.828.234-.218-1.568-1.7v.842l.732.794-.339.317.718.778-.262.249v-.369h-.7v.418l1.4,1.52h.987V506.6h-.4l.4-.373.99,1.073-.99,1.073-.4-.373h.4v-.582h-.987l-1.4,1.521.007.381.7,0v-.336l.262.249-.718.778.339.317-.732.794v.842l1.568-1.7-.234-.218.764-.828-.676-.6.3-.32.891.833,1.7-1.838Zm-1.644.627.49-.531.115-.077-.019-.02.019-.019-.115-.077-.49-.531v1.254Zm-2.661.621.272-.349,0-.467h.5l.452-.431-.452-.431h-.5l0-.466-.272-.35v2.5Z" transform="translate(-643.936 -450.818)" fill="#2c0001" fill-rule="evenodd"/>
        <path id="Контур_364" data-name="Контур 364" d="M658.655,507.379l-1.531-1.659-.892.833-.468-.508.676-.6-.761-.825.234-.218-1.391-1.508v.471l.909.986-.339.317.717.778-.564.535v-.535h-.452v.243l1.332,1.444h.807V506.8h-.589l.724-.676,1.154,1.25-1.154,1.25-.724-.676h.589v-.331h-.807l-1.332,1.444,0,.208.448,0v-.5l.564.536-.717.777.339.317-.909.986v.471l1.391-1.508-.234-.218.761-.825-.676-.6.468-.507.892.833,1.531-1.66Zm-1.066,0-.281-.3v.61l.281-.305Zm-3.068,1.043v-2.085l.146.188,0,.55h.58l.32.3-.32.305h-.58l0,.549-.146.188Z" transform="translate(-643.936 -450.898)" fill="#ffef00" fill-rule="evenodd"/>
        <path id="Контур_365" data-name="Контур 365" d="M658.826,487.1l-1.7-1.838-.891.833-.3-.32.676-.6-.764-.827.234-.218-1.568-1.7v.842l.732.794-.339.317.718.778-.262.249v-.368h-.7v.418l1.4,1.52h.987V486.4h-.4l.4-.373.99,1.073-.99,1.073-.4-.373h.4v-.582h-.987l-1.4,1.52.007.381.7,0v-.335l.262.249-.718.778.339.317-.732.794v.842l1.568-1.7-.234-.218.764-.828-.676-.6.3-.32.891.834,1.7-1.838Zm-1.644.626.49-.53.115-.077-.019-.02.019-.02-.115-.077-.49-.53v1.253Zm-2.661.621.272-.349,0-.467h.5l.452-.43-.452-.431h-.5l0-.467-.272-.349v2.494Z" transform="translate(-643.936 -444.705)" fill="#2c0001" fill-rule="evenodd"/>
        <path id="Контур_366" data-name="Контур 366" d="M658.655,487.179l-1.531-1.66-.892.833-.468-.507.676-.6-.761-.825.234-.218-1.391-1.507v.471l.909.985-.339.317.717.778-.564.536v-.536h-.452v.243l1.332,1.443h.807v-.33h-.589l.724-.677,1.154,1.251-1.154,1.25-.724-.677h.589v-.33h-.807l-1.332,1.444,0,.208.448,0v-.5l.564.535-.717.778.339.317-.909.985v.471l1.391-1.507-.234-.218.761-.825-.676-.6.468-.507.892.833,1.531-1.659Zm-1.066,0-.281-.3v.61l.281-.3Zm-3.068,1.043v-2.086l.146.188,0,.55h.58l.32.305-.32.3h-.58l0,.55-.146.188Z" transform="translate(-643.936 -444.785)" fill="#ffef00" fill-rule="evenodd"/>
        <path id="Контур_367" data-name="Контур 367" d="M658.826,466.9l-1.7-1.838-.891.833-.3-.32.676-.6-.764-.828.234-.218-1.568-1.7v.842l.732.794-.339.317.718.778-.262.249v-.369h-.7v.418l1.4,1.52h.987V466.2h-.4l.4-.373.99,1.073-.99,1.073-.4-.373h.4v-.582h-.987l-1.4,1.521.007.381.7,0v-.335l.262.248-.718.778.339.317-.732.794v.842l1.568-1.7-.234-.218.764-.827-.676-.6.3-.32.891.833,1.7-1.838Zm-1.644.627.49-.531.115-.077-.019-.02.019-.02-.115-.077-.49-.53v1.253Zm-2.661.621.272-.349,0-.467h.5l.452-.431-.452-.431h-.5l0-.467-.272-.349v2.494Z" transform="translate(-643.936 -438.591)" fill="#2c0001" fill-rule="evenodd"/>
        <path id="Контур_368" data-name="Контур 368" d="M658.655,466.978l-1.531-1.659-.892.833-.468-.508.676-.6-.761-.824.234-.218-1.391-1.508v.471l.909.985-.339.317.717.777-.564.536v-.536h-.452v.243l1.332,1.444h.807V466.4h-.589l.724-.676,1.154,1.25-1.154,1.251-.724-.677h.589v-.331h-.807l-1.332,1.444,0,.208.448,0v-.5l.564.536-.717.777.339.317-.909.986v.471l1.391-1.508-.234-.218.761-.825-.676-.6.468-.507.892.833,1.531-1.66Zm-1.066,0-.281-.3v.61l.281-.305Zm-3.068,1.043v-2.085l.146.188,0,.55h.58l.32.3-.32.305h-.58l0,.55-.146.188Z" transform="translate(-643.936 -438.672)" fill="#ffef00" fill-rule="evenodd"/>
        <path id="Контур_369" data-name="Контур 369" d="M677.687,446.7l1.7-1.838.892.833.3-.32-.676-.6.764-.827-.234-.218,1.568-1.7v.842l-.732.794.339.317-.718.778.262.248v-.368h.7v.418l-1.4,1.52h-.987V446h.4l-.4-.372-.99,1.073.99,1.072.4-.372h-.4v-.582h.987l1.4,1.52-.007.381-.7,0v-.335l-.262.249.718.778-.339.317.732.794v.842l-1.568-1.7.234-.218-.764-.828.676-.6-.3-.32-.892.834-1.7-1.838Zm1.644.626-.49-.53-.115-.077.02-.019-.02-.02.115-.077.49-.53v1.253Zm2.66.621-.271-.349,0-.467h-.5l-.451-.43.451-.431h.5l0-.467.271-.349v2.494Z" transform="translate(-650.947 -432.478)" fill="#2c0001" fill-rule="evenodd"/>
        <path id="Контур_370" data-name="Контур 370" d="M677.933,446.778l1.531-1.66.892.833.468-.507-.676-.6.762-.825-.234-.218,1.391-1.507v.471l-.909.985.339.317-.718.778.564.536v-.536h.453v.243l-1.332,1.443h-.807v-.33h.589l-.724-.677-1.154,1.251,1.154,1.25.724-.676h-.589v-.331h.807l1.332,1.444,0,.208-.448,0v-.5l-.564.536.718.778-.339.317.909.985v.471l-1.391-1.508.234-.218-.762-.825.676-.6-.468-.507-.892.833-1.531-1.659Zm1.066,0,.282-.3v.61l-.282-.3Zm3.068,1.043v-2.086l-.146.188,0,.55h-.581l-.319.305.319.3h.581l0,.55.146.188Z" transform="translate(-651.022 -432.558)" fill="#ffef00" fill-rule="evenodd"/>
        <path id="Контур_371" data-name="Контур 371" d="M677.687,507.3l1.7-1.838.892.833.3-.32-.676-.6.764-.828-.234-.218,1.568-1.7v.842l-.732.794.339.317-.718.778.262.249v-.369h.7v.418l-1.4,1.52h-.987V506.6h.4l-.4-.373-.99,1.073.99,1.073.4-.373h-.4v-.582h.987l1.4,1.521-.007.381-.7,0v-.336l-.262.249.718.778-.339.317.732.794v.842l-1.568-1.7.234-.218-.764-.828.676-.6-.3-.32-.892.833-1.7-1.838Zm1.644.627-.49-.531-.115-.077.02-.02-.02-.019.115-.077.49-.531v1.254Zm2.66.621-.271-.349,0-.467h-.5l-.451-.431.451-.431h.5l0-.466.271-.35v2.5Z" transform="translate(-650.947 -450.818)" fill="#2c0001" fill-rule="evenodd"/>
        <path id="Контур_372" data-name="Контур 372" d="M677.933,507.379l1.531-1.659.892.833.468-.508-.676-.6.762-.825-.234-.218,1.391-1.508v.471l-.909.986.339.317-.718.778.564.535v-.535h.453v.243l-1.332,1.444h-.807V506.8h.589l-.724-.676-1.154,1.25,1.154,1.25.724-.676h-.589v-.331h.807l1.332,1.444,0,.208-.448,0v-.5l-.564.536.718.777-.339.317.909.986v.471l-1.391-1.508.234-.218-.762-.825.676-.6-.468-.507-.892.833-1.531-1.66Zm1.066,0,.282-.3v.61l-.282-.305Zm3.068,1.043v-2.085l-.146.188,0,.55h-.581l-.319.3.319.305h.581l0,.549.146.188Z" transform="translate(-651.022 -450.898)" fill="#ffef00" fill-rule="evenodd"/>
        <path id="Контур_373" data-name="Контур 373" d="M677.687,487.1l1.7-1.838.892.833.3-.32-.676-.6.764-.827-.234-.218,1.568-1.7v.842l-.732.794.339.317-.718.778.262.249v-.368h.7v.418l-1.4,1.52h-.987V486.4h.4l-.4-.373-.99,1.073.99,1.073.4-.373h-.4v-.582h.987l1.4,1.52-.007.381-.7,0v-.335l-.262.249.718.778-.339.317.732.794v.842l-1.568-1.7.234-.218-.764-.828.676-.6-.3-.32-.892.834-1.7-1.838Zm1.644.626-.49-.53-.115-.077.02-.02-.02-.02.115-.077.49-.53v1.253Zm2.66.621-.271-.349,0-.467h-.5l-.451-.43.451-.431h.5l0-.467.271-.349v2.494Z" transform="translate(-650.947 -444.705)" fill="#2c0001" fill-rule="evenodd"/>
        <path id="Контур_374" data-name="Контур 374" d="M677.933,487.179l1.531-1.66.892.833.468-.507-.676-.6.762-.825-.234-.218,1.391-1.507v.471l-.909.985.339.317-.718.778.564.536v-.536h.453v.243l-1.332,1.443h-.807v-.33h.589l-.724-.677-1.154,1.251,1.154,1.25.724-.677h-.589v-.33h.807l1.332,1.444,0,.208-.448,0v-.5l-.564.535.718.778-.339.317.909.985v.471l-1.391-1.507.234-.218-.762-.825.676-.6-.468-.507-.892.833-1.531-1.659Zm1.066,0,.282-.3v.61l-.282-.3Zm3.068,1.043v-2.086l-.146.188,0,.55h-.581l-.319.305.319.3h.581l0,.55.146.188Z" transform="translate(-651.022 -444.785)" fill="#ffef00" fill-rule="evenodd"/>
        <path id="Контур_375" data-name="Контур 375" d="M677.687,466.9l1.7-1.838.892.833.3-.32-.676-.6.764-.828-.234-.218,1.568-1.7v.842l-.732.794.339.317-.718.778.262.249v-.369h.7v.418l-1.4,1.52h-.987V466.2h.4l-.4-.373-.99,1.073.99,1.073.4-.373h-.4v-.582h.987l1.4,1.521-.007.381-.7,0v-.335l-.262.248.718.778-.339.317.732.794v.842l-1.568-1.7.234-.218-.764-.827.676-.6-.3-.32-.892.833-1.7-1.838Zm1.644.627-.49-.531-.115-.077.02-.02-.02-.02.115-.077.49-.53v1.253Zm2.66.621-.271-.349,0-.467h-.5l-.451-.431.451-.431h.5l0-.467.271-.349v2.494Z" transform="translate(-650.947 -438.591)" fill="#2c0001" fill-rule="evenodd"/>
        <path id="Контур_376" data-name="Контур 376" d="M677.933,466.978l1.531-1.659.892.833.468-.508-.676-.6.762-.824-.234-.218,1.391-1.508v.471l-.909.985.339.317-.718.777.564.536v-.536h.453v.243l-1.332,1.444h-.807V466.4h.589l-.724-.676-1.154,1.25,1.154,1.251.724-.677h-.589v-.331h.807l1.332,1.444,0,.208-.448,0v-.5l-.564.536.718.777-.339.317.909.986v.471l-1.391-1.508.234-.218-.762-.825.676-.6-.468-.507-.892.833-1.531-1.66Zm1.066,0,.282-.3v.61l-.282-.305Zm3.068,1.043v-2.085l-.146.188,0,.55h-.581l-.319.3.319.305h.581l0,.55.146.188Z" transform="translate(-651.022 -438.672)" fill="#ffef00" fill-rule="evenodd"/>
        <path id="Контур_377" data-name="Контур 377" d="M677.687,428.2l1.7,1.838.892-.833.3.319-.676.6.764.828-.234.218,1.568,1.7v-.842l-.732-.794.339-.317-.718-.778.262-.249v.326l.7.052.006-.427-1.4-1.521h-.987v.582h.4l-.4.372-.99-1.072Zm1.066,0,.578.626V428.2Zm3.239,0h-1.225l.451.43h.5l0,.467.271.349V428.2Z" transform="translate(-650.947 -428.291)" fill="#2c0001" fill-rule="evenodd"/>
        <path id="Контур_378" data-name="Контур 378" d="M678.367,428.2h-.435l1.531,1.659.892-.833.468.508-.676.6.762.825-.234.218,1.391,1.508V432.2l-.909-.985.339-.317-.718-.778.564-.536v.5l.448.033,0-.243-1.332-1.443h-.807v.33h.589l-.724.677-1.154-1.25Zm.913,0H679l.282.3v-.3Zm2.786,1.043V428.2h-1.043l.319.3h.581l0,.55.146.188Z" transform="translate(-651.022 -428.291)" fill="#ffef00" fill-rule="evenodd"/>
        <path id="Контур_379" data-name="Контур 379" d="M665.336,502.438l.7.45h2.145l1.2-1.164-2.242,0-.812.45.153.091H668l-.138.121h-1.6l-.315-.2,1.028-.577h4.468v-1.447h1.473v-1.289h1.308v-3.493h-1.308v-1.287h-1.473v-1.447H666.97l-1.028-.576.315-.2h1.6l.138.121h-1.514l-.153.091.812.449,2.242.006-1.2-1.166h-2.145l-.7.45-.7-.45h-2.147l-1.195,1.166,2.241-.006.813-.449-.15-.091h-1.517l.14-.121h1.6l.316.2-1.028.576h-4.466v1.447H657.76v1.287h-1.308v3.493h1.308v1.289h1.475v1.447H663.7l1.028.577-.316.2h-1.6l-.14-.121h1.517l.15-.091-.813-.45-2.241,0,1.195,1.164h2.147l.7-.45Z" transform="translate(-644.521 -447.41)" fill="#2c0001" fill-rule="evenodd"/>
        <path id="Контур_380" data-name="Контур 380" d="M660.954,500.485v-1.1l1.715,1.1Zm0-5.865v1.1l1.715-1.1Zm9.289,5.865v-1.1l-1.713,1.1Zm0-5.865v1.1l-1.713-1.1Zm-8.079,4.621.786-.571h-1.573l.787.571Zm0-2.877h.786l-.786-.567-.787.567Zm2.205,2.205h1.179v.529h-1.179v-.529Zm.316.08h.547v.369h-.547v-.369Zm1.062-.08h1.1v.529h-1.1v-.529Zm.257.08h.577v.369H666v-.369Zm.345,1.121h1.179v-.53h-1.179v.53Zm.316-.08h.547v-.37h-.547v.37Zm-1.656.08h1.179v-.53h-1.179v.53Zm.316-.08h.547v-.37h-.547v.37Zm.423.771h1.1v-.531h-1.1v.531Zm.257-.082h.577v-.367H666v.367Zm-1.635.082h1.179v-.531h-1.179v.531Zm.316-.082h.547v-.367h-.547v.367Zm-.986-.609h1.179v-.53H663.7v.53Zm.316-.08h.547v-.37h-.547v.37Zm.354-3.159h1.179V496h-1.179v.529Zm.316-.077h.547v-.372h-.547v.372Zm1.062.077h1.1V496h-1.1v.529Zm.257-.077h.577v-.372H666v.372Zm.345-1.125h1.179v.531h-1.179v-.531Zm.316.08h.547v.37h-.547v-.37Zm-1.656-.08h1.179v.531h-1.179v-.531Zm.316.08h.547v.37h-.547v-.37Zm.423-.771h1.1v.535h-1.1v-.535Zm.257.085h.577v.367H666v-.367Zm-1.635-.085h1.179v.535h-1.179v-.535Zm.316.085h.547v.367h-.547v-.367Zm-.986.607h1.179v.531H663.7v-.531Zm.316.08h.547v.37h-.548v-.37Zm1.584,6.656,1.461-.847h3.784v-1.543h1.538v-1.264h1.239V496.69h-1.239v-1.266h-1.538v-1.54H667.06l-1.461-.847-1.463.847h-3.782v1.54h-1.539v1.266h-1.236v1.724h1.236v1.264h1.539v1.543h3.782l1.463.847Zm0,.273,1.492-.87h4v-1.551h1.456v-1.273h1.334v-2.192h-1.334v-1.27h-1.456v-1.551h-4l-1.492-.867-1.492.867h-4v1.551h-1.456v1.27h-1.336v2.192h1.336v1.273h1.456v1.551h4l1.492.87Zm3.437-5.974h-.789l.789-.567.786.567Zm0,2.877-.789-.571h1.575l-.786.571Z" transform="translate(-644.783 -447.832)" fill="#eb2f31" fill-rule="evenodd"/>
        <path id="Контур_381" data-name="Контур 381" d="M665.407,502.183l1.515-.906h4.14v-1.555h1.46v-1.259h1.33v-2.543h-1.33v-1.259h-1.46v-1.557h-4.14l-1.515-.9-1.515.9h-4.14v1.557h-1.46v1.259h-1.328v2.543h1.328v1.259h1.46v1.555h4.14l1.515.906Zm0,.107.792.515h1.986l.884-.851H667.25l-.37.207h1.591l-.482.438h-1.757l-.54-.349,1.263-.74h4.391v-1.443h1.464v-1.294h1.317v-3.167h-1.317v-1.292h-1.464v-1.444h-4.391l-1.263-.738.54-.351h1.757l.482.44H666.88l.37.206h1.819l-.884-.849H666.2l-.792.512-.792-.512h-1.987l-.883.849h1.82l.37-.206h-1.592l.482-.44h1.757l.54.351-1.264.738h-4.393v1.444H658v1.292h-1.317v3.167H658v1.294h1.464v1.443h4.393l1.264.74-.54.349h-1.757l-.482-.438h1.592l-.37-.207h-1.82l.883.851h1.987l.792-.515Zm-1.814-5.276h-.547v.369h.547v-.369Zm.4-.081h-1.179v.53h1.179v-.53Zm-1.077-.609h-.547v.367h.547v-.367Zm.316-.082h-1.179v.531h1.179v-.531Zm-1.348,0h-1.167v.531h1.167v-.531Zm-.295.082h-.577v.367h.577v-.367Zm-.276.609h-1.179v.53h1.179v-.53Zm-.285.081h-.547v.369h.547v-.369Zm1.239,0h-.547v.369h.547v-.369Zm.388-.081h-1.179v.53h1.179v-.53Zm-.77.672h-1.167v.531h1.167v-.531Zm-.295.082h-.577v.367h.577v-.367Zm1.643-.082h-1.179v.531h1.179v-.531Zm-.316.082h-.547v.367h.547v-.367Zm4.981,0h.55v.367h-.55v-.367Zm-.315-.082h1.177v.531h-1.177v-.531Zm1.641.082h.58v.367h-.58v-.367Zm-.294-.082H670.1v.531h-1.167v-.531Zm-.768-.672h1.177v.53h-1.177v-.53Zm.385.081h.549v.369h-.549v-.369Zm1.241,0h.547v.369h-.547v-.369Zm-.288-.081h1.181v.53H669.5v-.53Zm-.276-.609h.58v.367h-.58v-.367Zm-.294-.082H670.1v.531h-1.167v-.531Zm-1.347,0h1.177v.531h-1.177v-.531Zm.315.082h.55v.367h-.55v-.367Zm-1.077.609H668v.53H666.82v-.53Zm.4.081h.547v.369h-.547v-.369Zm-1.813-.066-.786-.571h1.573l-.787.571Zm0-2.877h-.786l.786-.567.787.567Zm0,3.36-.786.571h1.573l-.787-.571Zm0,2.876h-.786l.786.57.787-.57Z" transform="translate(-644.591 -447.473)" fill="#ffef00" fill-rule="evenodd"/>
        <path id="Контур_382" data-name="Контур 382" d="M673.646,497.761l0,.676-1.274,0v1.273h-1.524v1.537h-3.651l-1.419.81-1.42-.81h-3.649v-1.537H659.18v-1.273l-1.274,0v-1.353l1.274,0v-1.275h1.526v-1.538h3.649l1.42-.81,1.419.81h3.651v1.538h1.524v1.275l1.274,0,0,.676Zm-3.053,3.112v-1.559l-2.424,1.559Zm0-6.225v1.559l-2.424-1.559Zm-9.635,6.225v-1.559l2.425,1.559Zm0-6.225v1.559l2.425-1.559Zm8.255,5.028-1.129-.817H667.8v-.681h-.77v-.838h.77v-.684h.279l1.129-.845,1.068.845h.367v.684h.555v.838h-.555v.681h-.367l-1.068.817Zm-6.873,0,1.128-.817h.275v-.681h.771v-.838h-.771v-.684h-.275l-1.128-.845-1.069.845H660.9v.684h-.557v.838h.557v.681h.366l1.069.817Zm3.435-1.868-1.128.817h-.276v.681h-.649v.838h.649v.683h.276l1.128.815,1.13-.815h.275v-.683h.648v-.838h-.648v-.681H666.9l-1.13-.817Zm0-.093-1.128-.819h-.276v-.68h-.649v-.838h.649v-.685h.276l1.128-.813,1.13.813h.275v.685h.648v.838h-.648v.68H666.9l-1.13.819Z" transform="translate(-644.961 -448.042)" fill="#00a049" fill-rule="evenodd"/>
        <path id="Контур_383" data-name="Контур 383" d="M665.971,522.2h-2.283l-5.136-2.706v-4.676l5.136-2.707h4.567l5.136,2.707V519.5l-5.136,2.706Z" transform="translate(-645.156 -453.687)" fill="#2c0001" fill-rule="evenodd"/>
        <path id="Контур_384" data-name="Контур 384" d="M663.773,522.131l-5.042-2.656v-4.523l5.042-2.658h4.506l5.041,2.658v4.523l-5.041,2.656Zm.067-.273L659,519.31v-4.194l4.837-2.55h4.371l4.837,2.55v4.194l-4.837,2.548Zm1.921-4.642-1.222.79h-.5v-.39h.345v-.223h-.554v.84h.718v.643H665.8v-.741h-.474v.215h.242v.317h-.794v-.5l1.243-.806,1.244.806v.5h-.795v-.317h.243v-.215h-.474v.741h1.246v-.643h.718v-.84h-.554v.223h.342v.39h-.493l-1.223-.79,1.223-.79h.493v.39h-.342v.223h.554v-.84h-.718v-.643h-1.246v.741h.474v-.215h-.243v-.317h.795v.5l-1.244.805-1.243-.8v-.5h.794v.317h-.242v.216h.474v-.745h-1.246v.645h-.718v.842h.554v-.224h-.345v-.393h.5l1.222.792Z" transform="translate(-645.211 -453.742)" fill="#00a049" fill-rule="evenodd"/>
        <path id="Контур_385" data-name="Контур 385" d="M666.253,513.992l.24.211V513H668.1l-1.135.794v.712l1.043.674v-1.359h.762v.5l.474.008v-.513h.731l-.006,1.524-.725-.006v-.492h-.474v.5h-.489l.242.16h.93v1.823h3.628l-.011-1.934-4.753-2.526h-2.061v1.122Zm3.99,1.355h1.985v-.123l-1.985-1.059v1.182Zm0,1.87v-1.524H671v.5l.475.008v-.513h.73l0,1.524-.725-.006v-.492H671v.5Zm-4.126,3.572-.239-.211v1.2h-1.6l1.133-.794v-.712l-1.042-.674v1.359H663.6v-.5l-.476-.008v.513H662.4l.006-1.524.723.006v.492h.476v-.5h.489l-.244-.16h-.928v-1.823h-3.628l.013,1.934,4.75,2.526h2.061v-1.122Zm-3.987-1.355h-1.986v.123l1.986,1.059v-1.182Zm0-1.87v1.524h-.764v-.5l-.473-.008v.513h-.73l0-1.524.725.006v.492h.473v-.5Z" transform="translate(-645.38 -453.916)" fill="#ffef00" fill-rule="evenodd"/>
        <path id="Контур_386" data-name="Контур 386" d="M666.253,520.789l.24-.211v1.2H668.1l-1.135-.794v-.712l1.043-.674v1.359h.762v-.5l.474-.008v.513h.731l-.006-1.524-.725.006v.492h-.474v-.5h-.489l.242-.16h.93v-1.823h3.628l-.011,1.934-4.753,2.526h-2.061v-1.122Zm3.99-1.355h1.985v.123l-1.985,1.059v-1.182Zm0-1.87v1.524H671v-.5l.475-.008v.513h.73l0-1.524-.725.006v.492H671v-.5Zm-4.126-3.573-.239.211V513h-1.6l1.133.794v.712l-1.042.674v-1.36H663.6v.5l-.476.008v-.512H662.4l.006,1.525.723,0v-.492h.476v.5h.489l-.244.16h-.928v1.822h-3.628l.013-1.935,4.75-2.524h2.061v1.12Zm-3.987,1.357h-1.986v-.124l1.986-1.059v1.183Zm0,1.87v-1.526h-.764v.5l-.473.008v-.513h-.73l0,1.526.725,0v-.493h.473v.5Z" transform="translate(-645.38 -453.917)" fill="#fff" fill-rule="evenodd"/>
        <path id="Контур_387" data-name="Контур 387" d="M670.276,520.944h-.437v-.518h-.78v.518h-.437v-1.25h.437v.535h.78v-.535h.437v1.25Zm2.227-1.858h-.437v-.518h-.78v.518h-.437v-1.25h.437v.534h.78v-.534h.437v1.25Zm-1.646.6h1.508l-1.508.77v-.77Zm-.582-5.591h-.437v.518h-.78v-.518h-.437v1.25h.437v-.535h.78v.535h.437v-1.25Zm2.227,1.858h-.437v.518h-.78v-.518h-.437v1.25h.437v-.534h.78v.534h.437v-1.25Zm-1.646-.6h1.508l-1.508-.768v.768Zm-7.884,5.591h.439v-.518h.782v.518h.435v-1.25h-.435v.535h-.782v-.535h-.439v1.25Zm-2.227-1.858h.437v-.518h.78v.518h.44v-1.25h-.44v.534h-.78v-.534h-.437v1.25Zm1.646.6h-1.507l1.507.77v-.77Zm.581-5.591h.439v.521h.782v-.521h.435v1.251h-.435v-.534h-.782v.534h-.439v-1.251Zm-2.227,1.859h.437v.517h.78v-.517h.44V517.2h-.44v-.537h-.78v.537h-.437v-1.251Zm1.646-.6h-1.507l1.507-.769v.769Zm3.784,6.391v-1.3l.449.293.449-.293v1.3h.987l-.822-.556v-.85l1.672-1.085h.822v-3.466h-.822L667.24,514.7v-.85l.822-.556h-.987v1.3l-.449-.292-.449.292v-1.3h-.987l.821.554v.849l-1.673,1.086h-.822v3.466h.822l1.673,1.085v.85l-.821.556Zm3.241-4.224v-1.506h-.567l-2.225-1.436-2.224,1.436h-.568v3.013h.568l2.224,1.435,2.225-1.435h.567v-1.506Zm-2.792,2.727-1.407-.9h1.333v-1.073h-.631l.7-.455.7.455H666.7v1.073h1.331l-1.405.9Zm.857-1.879v.418h-.272v.056h.529v-.307l-.257-.167Zm-1.714,0v.418h.271v.056h-.529v-.307l.258-.167Zm1.714-1.695v-.418h-.272V516.2h.529v.307l-.257.167Zm-1.714,0v-.422h.271V516.2h-.529v.307l.258.169Zm3.486.846v1.375h-.524l-.475.3v-.517h.728v-1.113h-.893v.483h.37v.117h-.315l-1-.647,1-.647h.315v.117h-.37v.483h.893v-1.113h-.728v-.517l.475.3h.524v1.375Zm-5.258,0v-1.375l.526,0,.474-.305v.518h-.729l0,1.112h.894v-.481h-.37l0-.119h.315l1,.647-1,.647h-.315l0-.117h.37v-.483h-.894l0,1.113H665v.517l-.474-.3H664V517.52Zm2.629-.3-.7-.454h.631V515.7h-1.333l1.407-.9,1.405.9H666.7v1.073h.629l-.7.455Z" transform="translate(-645.821 -454.045)" fill="#eb2f31" fill-rule="evenodd"/>
        <path id="Контур_388" data-name="Контур 388" d="M665.2,442.609h2.476l2.534-1.424h1.254l1.437-.82v-1.423l1.492-.837v-2.624l-1.492-.837v-1.424l-1.437-.821-1.254,0-2.534-1.426h-4.949l-2.538,1.426-1.25,0-1.441.821v1.424l-1.492.837v2.624l1.492.837v1.423l1.441.82h1.25l2.538,1.424Z" transform="translate(-644.387 -429.133)" fill="#2c0001" fill-rule="evenodd"/>
        <path id="Контур_389" data-name="Контур 389" d="M670.768,434.716l.464-.317h-.867v.085l.4.232Zm.286-1.319h-.7l-2.434-1.363h-1.289l.44.317,1.077,0,.844.486-.476.471-.484-.271h-.43l-.9.891.708.423.6-.394v-.831l.727.4.51-.334.545.337-.528.324.514.294.081-.048v-.879l.748.448.444-.275Zm-11.4,5.4h.792l.634-.377v-.477l-.725-.49h-.13v.707h-.742v.176h.692v.151l-.522.309Zm1.728,1.193h1.083l.319-.218H661.7l-.319.218Zm-.46-.379.186-.105v-.524l-.186.105v.524Zm-1.575.949.5-.334-.568-.347v-.056h.366l-.464-.321.509-.308-1.488-.856v-.323l-.84-.8h-.383v.777l1.538.888v1.435l.885.51h.371l-.421-.264Zm.584.264h.7l2.433,1.364h1.289l-.44-.317-1.078,0-.845-.486.476-.471.484.271h.43l.9-.89-.708-.423-.6.394v.831l-.727-.4-.51.333-.545-.337.528-.324-.514-.294-.081.048V441l-.748-.448-.444.274Zm.286-1.319-.464.317h.868v-.085l-.4-.232Zm11.42-5.845-.5.334.568.347v.056h-.366l.464.321-.508.308,1.487.856v.323l.84.8h.383v-.777l-1.538-.888v-1.434l-.885-.51h-.371l.421.265Zm-.306,1.762h-.793l-.634.377v.476l.725.49h.13v-.708h.743v-.176h-.693v-.151l.522-.31Zm-1.269-.813-.185.105v.523l.185-.105v-.523Zm-.459-.379h-1.084l-.319.218h1.083l.319-.218Z" transform="translate(-644.679 -429.452)" fill="#ffef00" fill-rule="evenodd"/>
        <path id="Контур_390" data-name="Контур 390" d="M660.219,434.721l-.464-.317h.868v.085l-.4.232Zm-.286-1.319h.7l2.433-1.364h1.289l-.44.317-1.078,0-.845.487.476.471.484-.271h.43l.9.89-.708.423-.6-.394v-.831l-.727.4-.51-.333-.545.337.528.324-.514.294-.081-.048v-.879l-.748.448-.444-.274Zm-.584.264.5.334-.568.347v.056h.366l-.464.321.509.308-1.488.856v.323l-.84.8h-.383v-.777l1.538-.888v-1.435l.885-.51h.371l-.421.264Zm1.575.949.186.105v.524l-.186-.105v-.524Zm.46-.379h1.083l.319.218H661.7l-.319-.218Zm-1.728,1.193h.792l.634.377v.477l-.725.49h-.13v-.707h-.742v-.176h.692v-.151l-.522-.309Zm4.525.939.51-.317v.317Zm-1.038.644.707-.436v.436Zm2.351-3.96-.554-.444.554-.407.555.4-.555.446Zm2.351,3.957-.707-.436v.436Zm-1.038-.644-.51-.317v.317Zm-1.313-.456h.577l-.577-.356-.576.36.576,0Zm0-2.409,1.955,1.166,2.1.071,0,1.727.8.555h2.345l-.76-.772-.216.185H672l0,.08-.421.414-1.023,0-.852-.585v-1.728l-2.2-.026-1.836-1.092,0-.469.183-.162h.622v.281l.2-.208-1.177-.873-1.177.877.2.207v-.281h.623l.183.162,0,.469-1.835,1.093-2.2.025v1.728l-.852.585-1.024,0-.423-.415v-.08h.281l-.217-.185-.76.772h2.345l.8-.555,0-1.726,2.1-.071,1.954-1.169Zm0,7.674.555.444-.555.407-.554-.4.554-.446Zm2.351-3.96-.707.436v-.436Zm-1.038.644-.51.317v-.317Zm4.526.939h-.793l-.634-.377v-.477l.725-.49h.13v.708h.743v.176h-.693v.151l.522.309Zm-1.728,1.193h-1.084l-.319-.218h1.083l.319.218Zm.459-.379-.185-.105v-.524l.185.105v.524Zm1.575.948-.5-.334.568-.347v-.056h-.366l.464-.321-.508-.308,1.487-.856v-.323l.84-.8h.383v.778l-1.538.888v1.434l-.885.51h-.371l.421-.265Zm-.584.265h-.7l-2.434,1.363h-1.289l.44-.316,1.077,0,.844-.486-.476-.471-.484.271h-.43l-.9-.891.708-.423.6.395v.831l.727-.4.51.334.545-.337-.528-.324.514-.294.081.047V441l.748-.448.444.275Zm-.286-1.319.464.317h-.867v-.084l.4-.232Zm-7.626-2.288.707.436v-.436Zm1.038.644.51.317v-.317Zm1.313.814-.576-.357h1.153l-.577.36Zm0,2.051-1.954-1.167-2.1-.071,0-1.726-.8-.555H658.3l.76.772.217-.185h-.281l0-.08.42-.415,1.024,0,.852.584v1.729l2.2.025,1.835,1.093,0,.469-.183.162h-.623v-.281l-.2.207,1.177.874,1.177-.877-.2-.207v.28h-.622l-.183-.161,0-.469,1.836-1.092,2.2-.026v-1.728l.852-.584,1.023,0,.424.415v.08h-.28l.216.185.76-.773h-2.345l-.8.555,0,1.727-2.1.071-1.955,1.169Z" transform="translate(-644.679 -429.454)" fill="#fff" fill-rule="evenodd"/>
        <path id="Контур_391" data-name="Контур 391" d="M664.2,437.878l.257.159-.625.371v.649l-1.075-.657h.786l.658-.522Zm-1.284.828-.354.239.222.125.361-.236-.228-.128Zm2.868,3.125-.31-.211.31-.239.31.236-.31.214Zm-1.04-1.451-1,.975h-.506l-.434-.246-.229.234.617.357h1.057l.676.49h.618l-1.165-.9.567-.571v.485h.382l.13-.084v-.307l-.715-.432Zm-2.58.074-.352.23.222.141.354-.242-.225-.129Zm1.2-.685h.232l.06.016-.58.381v.626l-1.139-.64h.845l.582-.381Zm-2.02,0h.3l-.43.241v.645l-1.085-.672h.8l.414-.215Zm-1.052.538-.354.24.222.125.36-.236-.228-.128Zm-.159-1.017-.344.236.2.137.373-.241-.23-.132Zm1.264-.7v.2l-.33.2v.652l-1.083-.653h.758l.655-.39Zm-3.473-1.376.771.754v.31l.14.046.738.43.485-.261h-.438v-.466h.7l0-.575h-.506l-.17.171h.322l-.635.6-.983-1.01Zm15.721,0-.771.751v.31l-.139.047-.738.427-.485-.259h.438v-.465h-.7l0-.577h.506l.17.171H671.6l.635.6.982-1.007Zm-3.472,1.375v.193l.329.2v.653l1.083-.653h-.757l-.655-.389Zm1.263.7.345.238-.2.136-.373-.241.23-.133Zm-.158,1.021.354.238-.222.126-.36-.238.228-.126Zm-1.052-.54h-.3l.431.241v.647l1.084-.672h-.8l-.414-.217Zm-2.02,0h-.231l-.06.015.58.381v.627l1.139-.639h-.846l-.582-.384Zm1.2.683.352.232-.222.137-.354-.239.224-.13Zm-2.171-3.235v.449h-.81v.483h-.527v-.932Zm3.059,0-.623.451v1.675h-1.877l-1.873,1.095,0-1.653,1.03-.642.617.367v.858l.723-.437.507.325.517-.313-.478-.346.608-.375h-1.347l-.533-.463.87-.543Zm-3.468,3.166,1,.976h.506l.434-.248.229.234-.618.357h-1.056l-.676.49h-.619l1.165-.9-.566-.57v.485h-.382l-.13-.086v-.308l.715-.43Zm-8.9-3.37.771-.75v-.31l.14-.048.738-.427.485.259h-.438v.465h.7l0,.577h-.506l-.17-.171h.322l-.635-.6-.983,1.007Zm3.473-1.375v-.193l-.33-.2v-.652l-1.083.652h.758l.655.39Zm-1.264-.7-.344-.237.2-.137.373.242-.23.132Zm.159-1.02-.354-.238.222-.125.36.238-.228.125Zm1.052.54h.3l-.43-.242v-.646l-1.085.672h.8l.414.217Zm2.02,0h.232l.06-.015-.58-.381v-.627l-1.139.639h.845l.582.384Zm-1.2-.684-.352-.232.222-.137.354.239-.225.13Zm2.171,3.235v-.449h.81v-.482h.527v.931Zm-3.059,0,.623-.451v-1.675h1.877l1.873-1.095,0,1.652-1.029.643L664,435.72v-.859l-.722.437-.507-.325-.517.314.478.346-.608.375h1.347l.533.462-.87.543Zm3.468-3.165-1-.976h-.506l-.434.248-.229-.234.617-.357h1.057l.676-.49h.618l-1.165.9.567.57v-.486h.382l.13.086v.308l-.715.43Zm1.04-1-.31-.236.31-.214.31.211-.31.239Zm1.584,3.5-.257-.16.626-.37v-.649l1.075.656h-.787l-.657.523Zm1.284-.828.354-.239-.222-.125-.36.236.228.128Zm-1.828-1.675,1-.974h.506l.434.246.229-.234-.618-.357h-1.056l-.676-.489h-.619l1.165.9-.566.571v-.486h-.382l-.13.084v.308l.715.431Zm2.58-.074.352-.229-.222-.141-.354.242.224.128Zm-1.2.685h-.231l-.06-.016.58-.381v-.626l1.139.64h-.846l-.582.381Zm2.02,0h-.3l.431-.241v-.646l1.084.672h-.8l-.414.216Zm1.052-.538.354-.239-.222-.125-.36.236.228.128Zm.158,1.018.345-.236-.2-.137-.373.241.23.132Zm-1.263.7v-.195l.329-.2v-.653l1.083.654h-.757l-.655.389Zm3.472,1.377-.771-.755v-.309l-.139-.046-.738-.43-.485.262h.438v.466h-.7l0,.575h.506l.17-.172H671.6l.635-.6.982,1.01Z" transform="translate(-644.964 -429.453)" fill="#eb2f31" fill-rule="evenodd"/>
        <path id="Контур_392" data-name="Контур 392" d="M660.773,436.984l.623.449v1.677h1.877l1.873,1.091,0-1.65-1.029-.644-.618.37v.858l-.722-.439-.507.327-.517-.315.478-.344-.608-.379h1.347l.533-.461-.87-.542Zm3.059,0v.452h.81v.483h.527v-.934Zm4.317,1.486.354.24-.222.125-.36-.236.228-.128Zm-1.284-.828-.257.159.626.371v.649l1.075-.657h-.787l-.657-.522Zm-1.584,4.854h2.476l2.493-1.4h1.221l1.294-.725v-1.423l1.523-.856v-2.428l-1.523-.856v-1.423l-1.294-.725-1.221,0-2.493-1.4h-4.95l-2.494,1.4-1.221,0-1.3.725v1.423l-1.523.856V438.1l1.523.856v1.423l1.3.725h1.221l2.494,1.4Zm0-.386H667.8l2.356-1.331h1.226l1.093-.617v-1.416l1.531-.875v-1.979l-1.531-.878V433.6l-1.093-.618h-1.226l-2.356-1.331h-5.031l-2.356,1.331h-1.222l-1.089.618v1.414l-1.54.878v1.979l1.54.875v1.416l1.089.617h1.222l2.356,1.331Zm4.507-5.336-.623-.449v-1.678h-1.877l-1.873-1.091,0,1.651,1.03.644.617-.37v-.858l.723.439.507-.327.517.315-.478.344.608.379h-1.347l-.533.46.87.543Zm-3.059,0v-.452h-.81v-.483h-.527v.934Zm-4.317-1.487-.354-.239.222-.125.361.236-.228.128Zm1.284.828.257-.159-.625-.371v-.649l-1.075.657h.786l.658.522Z" transform="translate(-644.467 -429.22)" fill="#00a049" fill-rule="evenodd"/>
        <path id="Контур_393" data-name="Контур 393" d="M665.546,462.015h2.3v-.8h2.121v-.708h1.893v-.8h2.085v-6.682H671.86v-.8h-1.893v-.711h-2.121v-.8h-4.6v.8h-2.123v.711h-1.892v.8h-2.085V459.7h2.085v.8h1.892v.708h2.123v.8Z" transform="translate(-644.731 -435.104)" fill="#2c0001" fill-rule="evenodd"/>
        <path id="Контур_394" data-name="Контур 394" d="M659.242,456.1l-.326-.337v-.225l.205.176.121-.261.119.261.206-.176v.225l-.324.337Zm4.154-.771.674-.665-.088-.142-.091-.015.052.112-.474.443v-.893l.249-.161-.322-.234-.321.234.249.161v.893l-.475-.443.052-.112-.091.015-.085.142.671.665Zm-2.052.7.674-.667-.088-.144-.091-.012.052.112-.475.439v-.888l.25-.161-.322-.237-.323.237.25.161v.888l-.475-.439.053-.112-.091.012-.085.144.671.667Zm4.738-2.478-.238-.184.238-.124.236.124-.236.184Zm-2.109,3.579-.424-.31-.467.31.467.31.424-.31Zm-4.731,1.028-.326.338v.225l.205-.174.121.259.119-.259.206.174v-.225l-.324-.338Zm4.154.768.674.669-.088.142-.091.013.052-.112-.474-.441v.891l.249.162-.322.236-.321-.236.249-.162V459.2l-.475.441.052.112-.091-.013-.085-.142.671-.669Zm-2.052-.7.674.669-.088.142-.091.014.052-.113-.475-.44v.891l.25.162-.322.236-.323-.236.25-.162V458.5l-.475.44.053.113-.091-.014-.085-.142.671-.669Zm4.738,2.784-.238-.123.238-.183.236.183-.236.123Zm6.84-4.914.324-.337v-.225l-.2.176-.121-.261-.12.261-.2-.176v.225l.324.337Zm-4.155-.771-.674-.665.088-.142.091-.015-.052.112.474.443v-.893l-.248-.161.322-.234.322.234-.248.161v.893l.474-.443-.052-.112.09.015.087.142-.672.665Zm2.052.7-.674-.667.089-.144.091-.012-.053.112.474.439v-.888l-.248-.161.322-.237.322.237-.248.161v.888l.473-.439-.052-.112.09.012.086.144-.672.667Zm-2.629,1.1.425-.31.465.31-.465.31-.425-.31Zm4.732,1.028.324.338v.225l-.2-.174-.121.259-.12-.259-.2.174v-.225l.324-.338Zm-4.155.768-.674.669.088.142.091.013-.052-.112.474-.441v.891l-.248.162.322.236.322-.236-.248-.162V459.2l.474.441-.052.112.09-.013.087-.142-.672-.669Zm2.052-.7-.674.669.089.142.091.014-.053-.113.474-.44v.891l-.248.162.322.236.322-.236-.248-.162V458.5l.473.44-.052.113.09-.014.086-.142-.672-.669Z" transform="translate(-645.267 -435.87)" fill="#fff" fill-rule="evenodd"/>
        <path id="Контур_395" data-name="Контур 395" d="M665.835,454.528h-.63l.2-.239-.688-.451.732-.423v.485h.184v-.648l-.573-.375.779-.443.778.443-.571.375v.648h.183v-.485l.733.423-.69.451.2.239Zm0-2.372-.92-.578h1.839l-.919.578Zm-7.4,1.709v.3l-.334-.3Zm.521.312-.317-.312h.633l-.317.312Zm.522-.312v.3l.334-.3Zm.978-.794v.3l-.335-.3Zm.549.386-.374-.386h.75l-.375.386Zm.551-.386v.3l.333-.3Zm.952-.7v.3l-.334-.3Zm.55.388-.375-.388h.75l-.374.388Zm.548-.388v.3l.336-.3Zm1.165-.218v-.578h-.591l.591.578Zm1.063,4.686-.275-.216.275-.216.276.216-.276.216Zm0,3.976-.779-.446.573-.374v-.646h-.184v.485l-.732-.425.688-.452-.2-.238h1.259l-.2.238.69.452-.733.425v-.485h-.183V460l.571.374-.778.446Zm0-2.444h-1.61l-1.7-1.1v-.245h-2.138v-.8h2.138v-.244l1.7-1.1h3.219l1.7,1.1v.244h2.139v.8h-2.139v.245l-1.7,1.1Zm0,.169H664.2l-2.033-1.324h-2.734l0-.331h-.843v-.525h.843l0-.333h2.734l2.033-1.322h3.268l2.03,1.322h2.739l0,.333h.843v.525h-.843l0,.331H669.5l-2.03,1.324Zm0,3.129h-.92l.92-.579.919.579Zm-7.4-2.287v-.3l-.334.3Zm.521-.312-.317.312h.633l-.317-.312Zm.522.312v-.3l.334.3Zm.978.794v-.3l-.335.3Zm.549-.388-.374.388h.75l-.375-.388Zm.551.388v-.3l.333.3Zm.952.7v-.3l-.334.3Zm.55-.388-.375.388h.75l-.374-.388Zm.548.388v-.3l.336.3Zm1.165.217v.579h-.591l.591-.579Zm1.063-7.845-.536-.372.536-.282.536.282-.536.372Zm0,7.41-.536-.283.536-.37.536.37-.536.283Zm7.4-6.792v.3l.334-.3Zm-.522.312.317-.312H672.4l.316.312Zm-.52-.312v.3l-.335-.3Zm-.98-.794v.3l.334-.3Zm-.55.386.375-.386h-.749l.374.386Zm-.549-.386v.3l-.335-.3Zm-.953-.7v.3l.335-.3Zm-.55.388.375-.388h-.749l.374.388Zm-.55-.388v.3l-.335-.3Zm-1.164-.218v-.578h.591l-.591.578Zm6.338,7.23v-.3l.334.3Zm-.522-.312.317.312H672.4l.316-.312Zm-.52.312v-.3l-.335.3Zm-.98.794v-.3l.334.3Zm-.55-.388.375.388h-.749l.374-.388Zm-.549.388v-.3l-.335.3Zm-.953.7v-.3l.335.3Zm-.55-.388.375.388h-.749l.374-.388Zm-.55.388v-.3l-.335.3Zm-1.164.217v.579h.591l-.591-.579Z" transform="translate(-645.02 -435.367)" fill="#eb2f31" fill-rule="evenodd"/>
        <path id="Контур_396" data-name="Контур 396" d="M662.063,457.873v3.052l.437-.369v.457l.369-.388.439.415v-.462l.589.6v-2.12l-1.833-1.186Zm.9.72.794.771v.229l-.418.334.073-.205-.211-.317v.479l.316.283-.553.363-.554-.363.317-.283v-.479l-.211.317.073.205-.419-.334v-.229l.794-.771ZM658.245,457v.455h.826v.3h.694v1.932l-.609-.579v.483l-.348-.4-.393.374v-.513l-.553.545v-2.256h-.389v-.679h.389v-2.256l.553.543v-.513l.393.374.348-.4v.483l.609-.579v1.931h-.694v.3h-.826V457Zm.56.811-.443.46v.668l.281-.239.162.348.16-.348.281.239v-.668l-.441-.46Zm4.936-.811-.629.469L662.4,457l.712-.469.629.469Zm1.9.414L665.1,457l.548-.412.549.412-.549.414Zm0,.172-.776-.586.776-.585.776.585-.776.586Zm0,.644-.311.21h-.79l.656-.509-.823-.573-.462.371.151.083.252-.173.532.248-.787.481-1.08-.618.954-.749-.954-.749,1.08-.618.787.48-.532.25-.252-.172-.151.08.462.371.823-.573-.656-.51h.79l.311.211.31-.211h.792l-.656.51.819.573.463-.371-.15-.08-.253.172-.533-.25.789-.48,1.08.618-.955.749.955.749-1.08.618-.789-.481.533-.248.253.173.15-.083-.463-.371-.819.573.656.509h-.792l-.31-.21Zm0,.332h-1.573l-1.57-1.03v-.318h-2.137v-.427H662.5v-.317l1.57-1.031h3.145l1.568,1.031v.317h2.139v.427h-2.139v.318l-1.568,1.03Zm-3.582-2.433v-3.053l.437.37v-.458l.369.386.439-.412v.46l.589-.6v2.119l-1.833,1.188Zm.9-.72.794-.771v-.229l-.418-.333.073.2-.211.318v-.48l.316-.283-.553-.364-.554.364.317.283v.48l-.211-.318.073-.2-.419.333v.229l.794.771Zm-4.154.782-.443-.46v-.669l.281.236.162-.348.16.348.281-.236v.669l-.441.46Zm10.421,1.681v3.052l-.436-.369v.457l-.37-.388-.441.415v-.462l-.586.6v-2.12l1.833-1.186Zm-.9.72-.794.771v.229l.418.334-.073-.205.211-.317v.479l-.317.283.554.363.553-.363-.316-.283v-.479l.21.317-.072.205.418-.334v-.229l-.794-.771ZM673.046,457v.455h-.831v.3h-.691v1.932l.608-.579v.483l.35-.4.391.374v-.513l.555.545v-2.256h.386v-.679h-.386v-2.256l-.555.543v-.513l-.391.374-.35-.4v.483l-.608-.579v1.931h.691v.3h.831V457Zm-.562.811.441.46v.668l-.28-.239-.162.348-.161-.348-.28.239v-.668l.441-.46ZM667.547,457l.63.469.71-.469-.71-.469-.63.469Zm1.679-.872v-3.053l-.436.37v-.458l-.37.386-.441-.412v.46l-.586-.6v2.119l1.833,1.188Zm-.9-.72-.794-.771v-.229l.418-.333-.073.2.211.318v-.48l-.317-.283.554-.364.553.364-.316.283v.48l.21-.318-.072-.2.418.333v.229l-.794.771Zm4.155.782.441-.46v-.669l-.28.236-.162-.348-.161.348-.28-.236v.669l.441.46Z" transform="translate(-644.83 -435.744)" fill="#00a049" fill-rule="evenodd"/>
        <path id="Контур_397" data-name="Контур 397" d="M671.329,457.194v2.586l-.506-.481v.456l-.369-.388-.441.415v-.462l-.629.6v-2.727Zm-.967.141-.794.772v.229l.418.334-.073-.206.211-.317v.479l-.316.283.554.363.552-.363-.315-.283v-.479l.209.317-.071.206.418-.334v-.229l-.793-.772Zm-4.737,4.58h2.118v-.8h2.121v-.708h1.893v-.8h2.085v-2.652h-.269v2.4h-2.084v.8h-2.1v.708h-1.974v.8h-3.573v-.8h-1.976v-.708h-2.1v-.8h-2.081v-2.4h-.27V459.6h2.085v.8h1.892v.708h2.123v.8Zm0-6.493.365-.278h.252l-.446.366,1.077.8.781-.63-.457-.24-.248.164-.173-.072.411-.262.792.45-.894.718.894.717-.792.453-.411-.264.173-.072.248.166.457-.242-.781-.628-1.077.8.446.367h-.252l-.365-.28-.366.28h-.252l.446-.367-1.075-.8-.782.628.457.242.249-.166.172.072-.413.264-.79-.453.893-.717-.893-.718.79-.45.413.262-.172.072-.249-.164-.457.24.782.63,1.075-.8-.446-.366h.252l.366.278Zm0,.213,1.1.8-1.1.8-1.1-.8,1.1-.8Zm.112-3.524.81-.532v.746l.658-.612v2.642h-.74l-.177-.2.7-.493-.884-.564.573-.424-.946-.56Zm5.592,3.571V453.1l-.506.482v-.457l-.369.388-.441-.415v.462l-.629-.6v2.725Zm-.967-.139-.794-.773v-.229l.418-.334-.073.206.211.319v-.48l-.316-.285.554-.363.552.363-.315.285v.48l.209-.319-.071-.206.418.334v.229l-.793.773Zm-4.737-4.581h2.118v.8h2.121v.709h1.893v.8h2.085v2.653h-.269v-2.4h-2.084v-.806h-2.1v-.706h-1.974v-.8h-1.787v-.253Zm-5.7,6.232v2.586l.508-.481v.456l.367-.388.442.415v-.462l.627.6v-2.727Zm.967.141.793.772v.229l-.418.334.073-.206-.211-.317v.479l.316.283-.553.363-.554-.363.317-.283v-.479l-.208.317.07.206-.418-.334v-.229l.794-.772Zm4.627-5.224-.812-.532v.746l-.658-.612v2.642h.741l.175-.2-.7-.493.885-.564-.574-.424.946-.56Zm-5.594,3.571V453.1l.508.482v-.457l.367.388.442-.415v.462l.627-.6v2.725Zm.967-.139.793-.773v-.229l-.418-.334.073.206-.211.319v-.48l.316-.285-.553-.363-.554.363.317.285v.48l-.208-.319.07-.206-.418.334v.229l.794.773Zm4.738-4.581h-2.117v.8h-2.123v.709h-1.892v.8h-2.085v2.653h.27v-2.4h2.081v-.806h2.1v-.706h1.976v-.8h1.787v-.253Zm-.111,9.8-.812.532v-.745l-.658.61V458.52h.741l.175.206-.7.492.885.566-.574.425.946.559Zm.222,0,.81.532v-.745l.658.61V458.52h-.74l-.177.206.7.492-.884.566.573.425-.946.559Z" transform="translate(-644.81 -435.181)" fill="#ffef00" fill-rule="evenodd"/>
        <path id="Контур_398" data-name="Контур 398" d="M665.324,482.037l-.363.256-.42-.256v-.36l.219-.121-.386-.311-.379.311.2.121v.36l-.456.256-.321-.339-.4.339-.432-.256v-.392l.168-.089-.42-.38h-1.682v.671h-.732v-.476h-.485v-.742h.638V480.1h-1.157v.671h-.732V480.3H657.7v-.742h.692v-.432l-.761-.561-.343.3h-.378l-.5-.41.3-.246-.3-.276.5-.383h.382l.343.306.681-.524-.681-.539-.343.328h-.386l-.473-.388.315-.317-.315-.317.473-.387h.386l.343.326.681-.539-.681-.521-.343.3h-.382l-.5-.382.3-.275-.3-.249.5-.406h.378l.343.3.761-.561v-.431H657.7v-.744h.488v-.476h.732v.675h1.157v-.531h-.638v-.741h.485v-.476h.732v.668h1.682l.42-.378-.168-.09v-.392l.432-.255.4.339.321-.339.456.255v.36l-.2.123.379.31.386-.31-.219-.123v-.36l.42-.255.363.255.362-.255.421.255v.36l-.218.123.384.31.381-.31-.206-.123v-.36l.457-.255.322.339.4-.339.433.255v.392l-.169.09.42.378h1.681v-.668h.732v.476h.487v.741h-.639v.531h1.157v-.675h.733v.476h.487v.744h-.69v.431l.762.561.341-.3h.376l.5.406-.3.249.3.275-.495.382h-.383l-.341-.3-.682.521.682.539.341-.326h.386l.474.387-.316.317.316.317-.474.388h-.386l-.341-.328-.682.539.682.524.341-.306h.383l.495.383-.3.276.3.246-.5.41h-.376l-.341-.3-.762.561v.432h.69v.742h-.487v.476h-.733V480.1h-1.157v.527h.639v.742h-.487v.476h-.732v-.671h-1.681l-.42.38.169.089v.392l-.433.256-.4-.339-.322.339-.457-.256v-.36l.206-.121-.381-.311-.384.311.218.121v.36l-.421.256-.362-.256Z" transform="translate(-644.509 -441.102)" fill="#2c0001"/>
        <path id="Контур_399" data-name="Контур 399" d="M659.13,476.837v.245l-.318-.245.318-.243v.243Zm-.281,1.793.272.214v-.428l-.272.214Zm7.2,3.107-.137-.133h.276l-.139.133Zm-1.91,0-.156-.134h.312l-.156.134Zm1.91-2.888-.23-.144-.417.28v.425l.063.047-.171.089-.181-.091.063-.047v-.423l-.432-.3-.267.3-.339-.287-.375.287v.411l.114.069-.515.343-1.244-.967.347-.125v.193h.465l.189-.363-.189-.279.189-.278-.189-.339h-.465v.236l-.42-.182v-.179l.211-.082.209-.082v.214h.465l.189-.331-.126-.409.126-.407-.189-.331h-.465v.213l-.209-.084-.211-.077v-.181l.42-.186v.239h.465l.189-.341-.189-.275.189-.279-.189-.37h-.465v.2l-.347-.127,1.244-.964.515.342-.114.065v.417l.375.285.339-.285.267.3.432-.3v-.426l-.063-.045.181-.091.171.091-.063.045v.426l.417.279.23-.145.232.145.418-.279v-.426l-.065-.045.172-.091.177.091-.061.045v.426l.431.3.268-.3.337.285.374-.285v-.417l-.112-.065.518-.342,1.241.964-.348.127v-.2h-.462l-.19.37.19.279-.19.275.19.341h.462v-.239l.423.186v.181l-.211.077-.211.084V476.1h-.462l-.19.331.128.407-.128.409.19.331h.462v-.214l.211.082.211.082v.179l-.423.182v-.236h-.462l-.19.339.19.278-.19.279.19.363h.462v-.193l.348.125-1.241.967-.518-.343.112-.069v-.411l-.374-.287-.337.287-.268-.3-.431.3v.423l.061.047-.177.091-.172-.089.065-.047v-.425l-.418-.28-.232.144Zm0,1.43H663.4l-1.643-1.254v-4.372L663.4,473.4H668.7l1.643,1.257v4.372l-1.643,1.254Zm0-.135h-2.593l-1.566-1.216,0-2.09,0-2.089,1.566-1.218h5.186l1.567,1.218v4.179l-1.567,1.216Zm2.059-3.306v.488h-.628v.5h-.506v.485h-1.852v-.485h-.5v-.5h-.63v-.976h.63v-.5h.5v-.486h1.852v.486h.506v.5h.628v.488Zm-2.764.1v.3l.612.305v-.6Zm-6.5-1.9.272-.213v.425l-.272-.212Zm7.2-3.106-.137.132h.276l-.139-.132Zm-1.91,0-.156.132h.312l-.156-.132Zm1.206,4.794v-.3l.612-.3v.6Zm7.625.105v.245l.317-.245-.317-.243v.243Zm.283,1.793-.274.214v-.428l.274.214Zm-5.294,3.107.155-.134h-.31l.156.134Zm-1.206-4.8v.3l-.611.305v-.6Zm6.5-1.9-.274-.213v.425l.274-.212Zm-5.294-3.106.155.132h-.31l.156-.132Zm-1.206,4.794v-.3l-.611-.3v.6Z" transform="translate(-645.235 -441.529)" fill="#eb2f31" fill-rule="evenodd"/>
        <path id="Контур_400" data-name="Контур 400" d="M671.664,477.3v-2.27l-.571-.438h.706V480h-.706l.571-.434V477.3Zm-.856-3.46v.538l-.7-.538Zm-1.962-.38-.275.221h.549l-.275-.221Zm-.846,0-.275.221h.55l-.275-.221Zm-.809.221h.276l-.276-.221-.276.221Zm0,.682.433-.2h-.865l.432.2Zm1.513.123-.433-.327h.867l-.434.327Zm2.384,2.815.107-.128v.257l-.107-.129Zm-.068-1.433.175.129v-.258l-.175.129Zm-.213,4.9v-.538l-.7.538Zm-1.962.379-.275-.222h.549l-.275.222Zm-.846,0-.275-.222h.55l-.275.222Zm-.809,0,.276-.222h-.552l.276.222Zm0-.7h.433l-.433-.2-.432.2Zm1.513-.328-.433.328h.867l-.434-.328Zm2.317-1.383.175-.128v.257l-.175-.129Zm-8.3-1.432v-2.27l.573-.438h-.708V480h.708l-.573-.434V477.3Zm.857-3.46v.538l.705-.538Zm1.961-.38.275.221h-.548l.273-.221Zm.844,0,.277.221h-.549l.272-.221Zm-.7,1.026.434-.327h-.867l.433.327Zm-2.384,2.815-.106-.128v.257l.106-.129Zm.068-1.433-.174.129v-.258l.174.129Zm.213,4.9v-.538l.705.538Zm1.961.379.275-.222h-.548l.273.222Zm.844,0,.277-.222h-.549l.272.222Zm-.7-1.027.434.328h-.867l.433-.328Zm-2.315-1.383-.174-.128v.257l.174-.129Z" transform="translate(-646.376 -441.988)" fill="#fff" fill-rule="evenodd"/>
        <path id="Контур_401" data-name="Контур 401" d="M670.815,480.995h-1.18l1.18-.866v.866Zm1.669-1.026h-1.448l1.448-1.062v1.062Zm-1.447-1.306v.356h.656l.313-.356-.313-.356h-.656v.356Zm0-1.686v-.358h.656l.313.358-.313.356h-.656v-.356Zm0-1.688v-.354h.656l.313.354-.313.36h-.656v-.36Zm1.447-1.3h-1.448l1.448,1.063v-1.063Zm-1.669-1.023h-1.18l1.18.864v-.864Zm-4.559,8.59h5.058v-1.077h1.7v-7h-1.7V472.4H661.2v1.077h-1.7v7h1.7v1.077Zm0-.372h4.723v-1.036h1.662v-6.336h-1.662v-1.034h-9.444v1.034h-1.664v6.336h1.664v1.036Zm-4.557-.186h1.178l-1.178-.866v.866Zm-1.67-1.026h1.448l-1.448-1.062v1.062Zm1.445-1.306v.356h-.653l-.315-.356.315-.356h.653v.356Zm0-1.686v-.358h-.653l-.315.358.315.356h.653v-.356Zm0-1.688v-.354h-.653l-.315.354.315.36h.653v-.36Zm-1.445-1.3h1.448l-1.448,1.063v-1.063Zm1.67-1.023h1.178l-1.178.864v-.864Zm2.671,4.319h.637l0,.509h.476l0,.48h.68v-.382l-.778-.4v-.4H664.37v.2Zm3.771,0H667.5l0,.509h-.476l0,.48h-.68v-.382l.779-.4v-.4h1.022l0,.2Zm0-.609H667.5l0-.509h-.476l0-.479h-.68v.381l.779.4v.4h1.022l0-.2Zm-3.771,0h.637l0-.509h.476l0-.479h.68v.381l-.778.4v.4H664.37v-.2Z" transform="translate(-645.442 -441.669)" fill="#ffef00" fill-rule="evenodd"/>
        <path id="Контур_402" data-name="Контур 402" d="M668.85,476.5l.591.3v.2l-.595-.256v.33h-.208l-.112-.163.143-.4-.143-.4.112-.164h.208v.33l.595-.256v.2l-.591.3Zm-.119,1.432-.18.279.119.172h.177v-.347l.595.254v-.149l-.485-.209.485-.208v-.147l-.595.251v-.347h-.177l-.119.172.18.278Zm-3.3,1.31.785.4.786-.519.736.519h.268l-.976-.692h.529v-.222l-.242-.153-.316.32-.316-.32-.242.153,0,.222h.527l-.759.467-.616-.329.052-.137h.3v-.222l-.314-.147-.2.163-.2-.163-.312.147v.222h.294l.055.137-.619.329-.758-.467h.528l0-.222-.243-.153-.314.32-.315-.32-.243.153v.222h.531l-.978.692h.267l.737-.519.785.519.786-.4Zm.4,1.02-.351.256h.7l-.351-.256Zm.827,0-.351.256h.7l-.352-.256Zm1.872.256h-1.378l.524-.4h1.393l-.54.4Zm.673-1.126h.865l-.865.643v-.643Zm1-2.04v.356h.656l.313-.356-.313-.356h-.656v.356Zm1.446-.852v1.73l-1.446,1.059v-.614h.727l.494-.49-.388-.424.409-.409-.409-.434.372-.418-.372-.418.409-.433-.409-.41.388-.423-.494-.49h-.727v-.614l1.446,1.059v1.73Zm2.091,0,.319.317-.237.184h-.368l-.342-.347-.761.607v-.324l.568-.438-.568-.438v-.324l.761.607.342-.347h.368l.237.184-.319.317Zm-1.389,1.112v.272l.552.411-.552.457v.265l.761-.591.439.36h.242l.264-.221-.295-.27.312-.276-.277-.2h-.289l-.4.365-.761-.573Zm.5,2.226v.372H672.4v.483l-.4,0v-.531h.391v-.322Zm-7.43,2.076.356.257.251-.128v-.183l-.325-.213.449-.38h-.358l-.372.324-.372-.324h-.36l.45.38-.325.213v.183l.249.128.357-.257Zm1.183-.648h.352l.367.38.406-.38h.408l-.434.38.295.213v.167l-.251.145-.423-.369-.354.369-.256-.146v-.166l.307-.213-.416-.38Zm4.51-.354v.373h-.466v.485l-.4-.006v-.531h.391v-.322ZM662.2,476.5l.141.4-.111.163h-.208v-.33l-.593.256v-.2l.589-.3-.589-.3v-.195l.593.258v-.329h.208l.111.162-.141.4Zm-.062,1.432.178.279-.116.172h-.178v-.347l-.593.254v-.149l.483-.209-.483-.208v-.147l.593.251v-.347h.178l.116.172-.178.278Zm2.889,2.33.35.256h-.7l.351-.256Zm-.828,0,.351.256h-.7l.351-.256Zm-1.87.256h1.376l-.522-.4h-1.394l.54.4Zm-.675-1.126H660.8l.863.643v-.643Zm-1-2.04v.356H660l-.315-.356L660,477h.653v.356Zm-1.205-.852.371.418-.407.434.407.409-.386.424.494.49h.726v.614l-1.446-1.059v-3.46l1.446-1.059v.614h-.726l-.494.49.386.423-.407.409.407.433-.371.419Zm-1.511,0,.569.438v.324l-.761-.607L657.4,477h-.368l-.238-.184.319-.317-.319-.317.238-.183h.368l.342.347.761-.608v.324l-.569.438Zm.569,1.112v.272l-.551.411.551.457v.265l-.761-.591-.438.36h-.246l-.261-.221.294-.27-.312-.276.276-.2h.289l.4.365.761-.573Zm-.5,2.226v.372h.464v.483l.4,0v-.531h-.39v-.322Zm6.247,1.428H663.9l-.366.38-.407-.38h-.409l.435.38-.294.213v.167l.252.145.422-.369.351.369.259-.146v-.166l-.31-.213.419-.38Zm-4.511-.354v.373h.464v.485l.4-.006v-.531h-.389v-.322Zm2.4-5.845.178-.275-.116-.174h-.178v.347l-.593-.254v.15l.483.206-.483.21v.147l.593-.252v.348h.178l.116-.174-.178-.279Zm3.294-.812-.2.165-.312-.151v-.222h.294l.055-.135-.619-.33-.758.469.528,0,0,.222-.243.156-.314-.322-.315.322-.243-.156v-.222l.531,0-.978-.693h.267l.737.517.785-.517.786.4.785-.4.786.519.736-.519h.268l-.976.692h.529v.222l-.242.153-.316-.32-.316.32-.242-.153,0-.222h.527l-.759-.466-.616.329.052.136h.3v.222l-.314.147-.2-.163Zm-.4-1.513.35-.259h-.7l.351.259Zm-.828,0,.351-.259h-.7l.351.259Zm-1.87-.259h1.376l-.522.4h-1.394l.54-.4Zm-.675,1.128H660.8l.863-.645v.645Zm-1,2.038v-.356H660l-.315.356.315.357h.653v-.357Zm-2.147-.259v-.273l-.551-.408.551-.459v-.264l-.761.591-.438-.36h-.246l-.261.22.294.272-.312.275.276.2h.289l.4-.366.761.573Zm-.5-2.225v-.372h.464v-.482h.4v.53h-.39v.324Zm7.429-2.075-.357-.261-.249.13v.185l.325.213-.45.381h.36l.372-.326.372.325h.358l-.449-.381.325-.213v-.184l-.251-.128-.356.259Zm-1.182.649H663.9l-.366-.381-.407.381h-.409l.435-.381-.294-.213v-.167l.252-.149.422.372.351-.372.259.149v.167l-.31.213.419.381Zm-4.511.35v-.37h.464v-.487l.4.006v.531h-.389v.321Zm8.988,2.982-.18-.278.119-.173h.177v.347l.595-.254v.149l-.485.209.485.208v.147l-.595-.251v.347h-.177l-.119-.172.18-.278Zm-2.891-2.329-.351-.257h.7l-.351.257Zm.827,0-.351-.257h.7l-.352.257Zm1.872-.257h-1.378l.524.4h1.393l-.54-.4Zm.673,1.126h.865l-.865-.644v.644Zm1,2.04v-.357h.656l.313.357-.313.356h-.656v-.356Zm2.149-.26v-.272l.552-.411-.552-.457v-.265l.761.591.439-.36h.242l.264.221-.295.27.312.276-.277.2h-.289l-.4-.365-.761.573Zm.5-2.225v-.373H672.4v-.483l-.4,0v.531h.391v.323Zm-6.248-1.428h.352l.367-.381.406.381h.408l-.434-.381.295-.213v-.167l-.251-.145-.423.37-.354-.37-.256.146v.167l.307.213-.416.381Zm4.51.353v-.372h-.466v-.486l-.4.006v.531h.391v.322Z" transform="translate(-644.621 -441.193)" fill="#00a049"/>
        <path id="Контур_403" data-name="Контур 403" d="M733.45,432.54a10.386,10.386,0,1,1-10.823,17.382A10.386,10.386,0,0,0,733.45,432.54Zm-12.48,12.279h1.561l.462,1.5.506-1.5,1.568-.01-1.251-.934.51-1.446-1.259.886-1.25-.934.457,1.523-1.305.911Zm-5.792-3.206h1.562l.462,1.5.506-1.5,1.568-.01-1.25-.934.51-1.445-1.259.886-1.25-.934.457,1.522-1.305.912Zm5.7-8.387h1.562l.462,1.5.506-1.5,1.568-.01-1.25-.934.51-1.446-1.259.886-1.251-.934.458,1.523-1.306.911Zm5.792,3.206h1.562l.462,1.5.506-1.5,1.568-.01-1.25-.934.509-1.445-1.259.886-1.25-.934.457,1.523-1.305.912Zm-5.739,2.633h1.561l.462,1.5.506-1.5,1.569-.009-1.251-.934.51-1.446-1.259.886-1.25-.934.457,1.522-1.305.912Z" transform="translate(-662.293 -429.076)" fill="#fff" fill-rule="evenodd"/>
      </g>
    </g>
  </g>
</svg>
