<svg xmlns="http://www.w3.org/2000/svg" xmlns:xlink="http://www.w3.org/1999/xlink" width="507.198" height="104.48" viewBox="0 0 507.198 104.48">
  <defs>
    <clipPath id="clip-path">
      <path id="SVGID" d="M773.252,426h21.664v75.7h-51.14v-3.5h42.109q-.5-1.879-1.107-3.713h-41V490.6h39.579q-.76-1.886-1.632-3.713H743.776v-3.881h35.932q-1.067-1.9-2.252-3.713h-33.68V475.41h30.941q-1.456-1.912-3.045-3.713h-27.9v-3.882h24.175q-2.021-1.943-4.2-3.713H743.776V460.22h14.656a65.538,65.538,0,0,0-6.417-3.713h-8.239V426H765.8v18.735h7.089L772.848,426Zm-133.909,0h51.013v6.287H682V464.1h-.731q-2.181,1.766-4.2,3.713H682V471.7h-8.655q-1.589,1.8-3.045,3.713H682v3.882h-14.44q-1.185,1.815-2.252,3.713H682v3.881H663.3q-.871,1.826-1.632,3.713H682v3.882H660.241q-.607,1.833-1.107,3.713H682v3.5H647.7V432.287h-8.354V426Zm52.279,75.7v-3.5h31.687a35.646,35.646,0,0,1-15.91,3.5Zm0-7.216V490.6H733.19a32.438,32.438,0,0,1-4.042,3.882Zm0-7.6v-3.881h46.64a36.961,36.961,0,0,1-2.234,3.881Zm0-7.595V475.41h49.5c-.351,1.317-.762,2.614-1.238,3.882Zm0-7.6v-3.882h50.835q-.172,1.954-.512,3.882Zm0-7.595V460.22h50.868c.1,1.29.148,2.586.141,3.882Zm0-6.877V426H707.4c18.591,0,29.819,11.855,33.7,26.18a65.837,65.837,0,0,0-38.617.446h38.735q.5,1.916.822,3.881H693q-.7.352-1.382.719Z" transform="translate(-639.343 -426)" fill="none" clip-rule="evenodd"/>
    </clipPath>
  </defs>
  <g id="Сгруппировать_52" data-name="Сгруппировать 52" transform="translate(-137 -426)">
    <path id="Контур_207" data-name="Контур 207" d="M157,482.308a10.548,10.548,0,0,1-2.964-.818c-.93-.477-1.151-1.637-1.239-3.342-.133-3.956-.089-21.69-.089-31.443a.742.742,0,0,1,.177-.546,43.3,43.3,0,0,1,5.177,0c.841.137,1.327.614,1.681,2.115a36.4,36.4,0,0,1,.841,6.071c.132.272,1.415.2,1.592-.069a104.862,104.862,0,0,1,1.062-11.8c-.044-.137-.221-.478-.354-.478a9.7,9.7,0,0,1-4.778.887H142.221a7.382,7.382,0,0,1-3.894-.955c-.132-.069-.442.273-.442.409-.132,3-.531,8.662-.885,11.458.088.477,1.372.887,1.548.614a54.9,54.9,0,0,1,1.637-6c.575-1.637,1.195-2.182,2.08-2.251,1.195-.068,3.937-.068,4.734,0,.089,0,.222.409.222.546,0,10.845.044,24.146-.133,30.489-.089,3.069-.4,4.024-1.637,4.434a15.559,15.559,0,0,1-2.964.682,4.059,4.059,0,0,0,0,2.182c1.371,0,3.672-.2,7.433-.2,2.92,0,5.353.2,6.947.2a4.083,4.083,0,0,0,.133-2.182Z" transform="translate(0 -4.777)" fill="#00a933"/>
    <path id="Контур_208" data-name="Контур 208" d="M177.413,445.188a9.335,9.335,0,0,1,2.3.682c1.018.477,1.327,1.637,1.371,3.411.045,6.548-.044,19.234.354,24.008.531,6.889,3.319,12.55,10.973,12.55,6.106,0,10.707-4.024,11.371-16.37.309-4.638.4-12.618.531-18.756.089-3.342.442-4.434,1.593-4.911a11.926,11.926,0,0,1,1.858-.614,4.061,4.061,0,0,0,0-2.182c-.93,0-2.257.2-5.133.2-2.212,0-4.07-.2-5.442-.2a5.224,5.224,0,0,0-.044,2.182,13.719,13.719,0,0,1,2.478.682c1.46.41,1.858,1.569,1.947,4.434.177,4.775.133,14.528-.088,19.644-.442,9.753-3.805,11.391-6.991,11.391-4.292,0-6.592-3.138-7.212-7.572a62.7,62.7,0,0,1-.531-8.048c0-3.615-.088-10.845,0-16.3.044-2.182.4-3.274,1.46-3.615a19.527,19.527,0,0,1,2.036-.614,4.547,4.547,0,0,0,0-2.182c-1.549,0-3.761.2-6.371.2-2.478,0-5.044-.2-6.416-.2a5.157,5.157,0,0,0-.044,2.182Z" transform="translate(-12.097 -5.102)" fill="#00a933"/>
    <path id="Контур_209" data-name="Контур 209" d="M222.847,445.188a13.445,13.445,0,0,1,2.256.614c.93.341,1.283,1.228,1.328,3.069.088,2.728.088,7.775.088,14.46,0,4.092-.044,13.3-.133,15.278-.088,2.25-.4,3.137-1.371,3.478a19.25,19.25,0,0,1-2.08.546,3.67,3.67,0,0,0,0,2.183c.929,0,2.876-.2,6.283-.2,3.318,0,5.442.2,6.371.2a3.886,3.886,0,0,0,.088-2.251,12.193,12.193,0,0,1-2.389-.613c-.974-.409-1.239-1.16-1.327-3.274-.045-2.66-.089-7.571-.089-11.663a.7.7,0,0,1,.177-.409h1.77c.531.068.929.409,1.238,1.228,1.5,3.615,3.761,9.753,5.531,12.959a8.261,8.261,0,0,0,2.168,2.8c1.725,1.3,5.929,1.569,8.318,1.3a6.831,6.831,0,0,0,.31-2.251c-2.39-.477-2.788-.75-4.424-3.206a109.773,109.773,0,0,1-7.079-14.869c-.044-.137-.044-.477.044-.546,2.832-1.842,5.133-5.047,5.133-10.5,0-6.07-2.876-10.436-8.23-10.436-2.346,0-4.735.137-8.052.137-1.593,0-4.779-.2-5.841-.2a3.57,3.57,0,0,0-.088,2.182Zm10.751.546c3.85,0,5.929,3.888,5.929,9.821,0,4.366-1.062,6.344-2.3,7.3-.8.614-2.832.818-5.089.682-.132,0-.265-.2-.265-.477,0-7.776,0-14.187.089-15.961a2.051,2.051,0,0,1,.309-1.023,2.51,2.51,0,0,1,1.327-.341Z" transform="translate(-25.718 -5.102)" fill="#00a933"/>
    <path id="Контур_210" data-name="Контур 210" d="M272.59,463.467c0-4.366,0-10.913.044-14.187.089-2.183.31-3.069,1.195-3.479a11.6,11.6,0,0,1,2.035-.614,6.047,6.047,0,0,0,0-2.182c-1.593,0-3.673.2-5.974.2-3.451,0-5.264-.2-6.238-.2a3.672,3.672,0,0,0,0,2.182,22.791,22.791,0,0,1,2.345.682c.885.41,1.062,1.433,1.15,3.206.045,2.8.045,7.571.045,13.778,0,5.8,0,12.14-.089,15.005-.044,2.728-.221,3.683-1.327,4.161a21.6,21.6,0,0,1-2.345.614,5.176,5.176,0,0,0,0,2.183c1.018,0,3.23-.2,6.327-.2,2.831,0,4.778.2,6.5.2a5.149,5.149,0,0,0,.176-2.183,20.554,20.554,0,0,1-2.433-.75c-.974-.409-1.283-1.3-1.327-3.479-.089-3.819-.089-8.321-.089-14.937Zm6.725-18.28a7.407,7.407,0,0,1,2.478.75,1.265,1.265,0,0,1,.752,1.228,10.738,10.738,0,0,1-1.371,4.229c-3.141,6.344-6.062,10.913-8.1,12.414a3.081,3.081,0,0,0-.133,1.159,4.3,4.3,0,0,1,.752,1.16c2.08,4.5,5.8,11.936,7.964,15.551a8.978,8.978,0,0,0,2.257,2.66c1.194.682,6.725.818,8.672.477a4.805,4.805,0,0,0,.132-2.251,7.276,7.276,0,0,1-2.566-.613,6.523,6.523,0,0,1-1.858-1.91,124.466,124.466,0,0,1-10.176-18.688v-.341c1.637-2.8,4.38-7.5,6.637-11.459,1.858-3.41,3.008-3.751,5.486-4.365a3.67,3.67,0,0,0,0-2.182c-1.283.068-2.522.137-5.663.2-2.3,0-3.716-.2-5.221-.2a5.127,5.127,0,0,0-.044,2.182Z" transform="translate(-37.898 -5.102)" fill="#00a933"/>
    <path id="Контур_211" data-name="Контур 211" d="M304.9,445.188a14.782,14.782,0,0,1,3.141,1.023c.93.545,1.195,1.978,1.151,3.205-.177,5.661-1.107,22.781-1.549,28.033-.265,3.137-.708,4.024-1.991,4.57a14.441,14.441,0,0,1-2.213.545,5.53,5.53,0,0,0,0,2.251c1.372,0,3.363-.2,5.309-.2,2.7,0,4.557.2,5.8.2a3.91,3.91,0,0,0,.088-2.251,9.914,9.914,0,0,1-2.787-.818c-1.283-.614-1.548-1.637-1.548-4.092,0-5.116.486-19.3.8-24.9a.3.3,0,0,1,.221-.137c3.142,11.664,7.3,26.191,8.363,31.784a3.149,3.149,0,0,0,1.77-.068c1.327-5.866,7.256-25.578,8.981-31.58a.146.146,0,0,1,.221,0c0,6.412.089,20.735,0,25.782,0,1.842-.221,2.865-1.018,3.274a9.323,9.323,0,0,1-2.345.75,6.4,6.4,0,0,0,0,2.251c1.681,0,3.717-.2,6.15-.2,3.805,0,5.619.2,6.947.2a4.816,4.816,0,0,0,.133-2.251,19.434,19.434,0,0,1-2.522-.682c-1.239-.477-1.5-1.842-1.593-3.82-.221-4.638-.575-24.213-.486-28.851,0-1.637.177-2.66,1.239-3.206a14.478,14.478,0,0,1,2.7-.818,3.665,3.665,0,0,0,0-2.182c-2.39,0-4.336.2-9.114.2a20.878,20.878,0,0,1-.8,4.024c-1.5,5.457-6.062,20.189-7.079,23.259-.088.068-.177.137-.265,0-1.018-3.069-4.955-16.165-6.991-23.054a22.118,22.118,0,0,1-.8-4.229c-4.336,0-7.035-.2-9.778-.2a5.778,5.778,0,0,0-.133,2.182Z" transform="translate(-49.903 -5.102)" fill="#00a933"/>
    <path id="Контур_212" data-name="Контур 212" d="M358.955,445.129a9.821,9.821,0,0,1,2.345.614c.885.409,1.15.955,1.238,3.069.089,2.046.133,7.639.133,13.1,0,7.707,0,13.368-.133,16.37-.043,2.319-.442,3.137-1.327,3.479a15.013,15.013,0,0,1-3.274.75,6.4,6.4,0,0,0,0,2.251c2.212,0,5.088-.2,7.61-.2,4.69,0,8.583.273,12.3.273,1.991,0,2.257-.409,2.478-1.092a85.857,85.857,0,0,0,1.947-9.753,2.3,2.3,0,0,0-1.5-.887,33.579,33.579,0,0,1-2.3,6.207c-.93,1.705-1.5,2.046-3.5,2.114a29.009,29.009,0,0,1-5.84-.477c-.531-.2-.974-1.159-.974-2.387,0-3.274-.044-8.731,0-12.55,0-.137.133-.546.265-.546,1.416,0,4.912,0,5.885.136.93.137,1.283.955,1.5,1.91.177.887.133.887.442,2.8a1.745,1.745,0,0,0,1.637-.068c-.044-1.774-.088-4.5-.088-6.616,0-2.251.177-4.979.265-6.548a1.837,1.837,0,0,0-1.681-.137c-.133.887-.221,1.774-.4,2.524-.265,1.5-.619,2.183-1.548,2.25a59.509,59.509,0,0,1-6.018.137c-.132,0-.265-.273-.265-.546-.044-4.093-.044-9.413,0-13.641,0-.342.221-1.16.487-1.228a49.476,49.476,0,0,1,6.371,0c.885.137,1.5.614,1.9,2.047a23.33,23.33,0,0,1,.708,4.774,1.687,1.687,0,0,0,1.592-.205c.133-3.41.4-7.912.708-9.958,0-.137-.089-.273-.177-.273a33.626,33.626,0,0,1-5.442.341h-8.849c-2.256,0-4.867-.2-6.415-.2a4.485,4.485,0,0,0-.088,2.182Z" transform="translate(-66.258 -5.044)" fill="#00a933"/>
    <path id="Контур_213" data-name="Контур 213" d="M394.8,445.251a6.476,6.476,0,0,1,3.053,1.16c1.018.682,1.46,2.592,1.46,4.024-.044,11.459-.177,23.872-.442,27.487-.132,2.319-.575,3.411-1.548,3.888a8.641,8.641,0,0,1-2.478.75,5.505,5.505,0,0,0,0,2.251c1.239,0,3.186-.2,5.619-.2,2.168,0,4.159.2,5.575.2a4.879,4.879,0,0,0,.088-2.251,14.425,14.425,0,0,1-2.61-.682c-1.239-.409-1.858-1.432-1.947-4.3-.133-3.137-.177-17.393-.089-24.759,0-.069.133-.205.221,0,2.832,5.593,13.495,26.8,16.017,32.262a19.523,19.523,0,0,1,3.982-.068c-.044-2.388-.088-6.344-.088-9.413.044-10.094.088-19.984.353-25.782.177-2.523.575-3.41,1.814-4.024a11.365,11.365,0,0,1,1.814-.614,6.047,6.047,0,0,0,0-2.182c-.8,0-2.876.2-5.044.2-2.787,0-4.823-.2-5.929-.2a5.951,5.951,0,0,0-.044,2.182,13.067,13.067,0,0,1,2.787.75c1.371.545,1.77,1.569,1.9,3.82.265,4.569.177,14.664.177,23.394-.045,0-.089.069-.133.069-2.7-4.843-10-18.961-13.76-26.4a15.345,15.345,0,0,1-1.637-3.752,26.832,26.832,0,0,1-2.875.136c-2.611,0-4.779-.272-6.195-.2a6.366,6.366,0,0,0-.044,2.25Z" transform="translate(-77.323 -5.097)" fill="#00a933"/>
    <path id="Контур_214" data-name="Контур 214" d="M441.155,445.188a10.275,10.275,0,0,1,2.478.682c.841.41,1.062,1.433,1.151,2.934.088,3,.088,6.684.088,13.368s0,14.256-.088,16.438c-.133,2.319-.354,3.069-1.549,3.478a9.543,9.543,0,0,1-2.08.477,3.9,3.9,0,0,0,0,2.251c1.593,0,3.186-.2,6.681-.2,2.831,0,4.779.137,6.327.2a4.239,4.239,0,0,0,.177-2.251,14.246,14.246,0,0,1-2.522-.682c-1.283-.477-1.372-1.91-1.416-3.41-.088-2.523-.088-8.048-.088-15.756,0-5.934,0-11.118.088-13.437.044-1.978.133-2.934,1.107-3.479a11.891,11.891,0,0,1,2.3-.614,5.175,5.175,0,0,0,0-2.182c-.973,0-2.7.2-6.326.2-2.788,0-4.912-.2-6.283-.2a4.541,4.541,0,0,0-.045,2.182Z" transform="translate(-91.206 -5.102)" fill="#00a933"/>
    <path id="Контур_215" data-name="Контур 215" d="M465.315,471.827c-.221-.205-1.327.272-1.459.682.088,2.387.929,9.685,1.371,10.708a11.581,11.581,0,0,0,6.681,2.183c6.637,0,10.354-5.866,10.354-12.891A13.471,13.471,0,0,0,477.7,461.8c-1.77-1.706-3.274-2.865-5.132-4.707a9.16,9.16,0,0,1-2.832-6.957c0-3.274,1.5-6.207,4.071-6.207a4.288,4.288,0,0,1,3.451,1.5c1.062,1.16,1.548,3.138,1.947,7.23a1.279,1.279,0,0,0,1.46-.068,95.342,95.342,0,0,1,.752-9.822c-2.08-.341-3.894-1.228-7.212-1.228-5,0-9.159,4.3-9.159,12.073,0,6.82,3.008,10.094,6.814,13.641,4.071,3.82,5.265,5.866,5.265,9.481,0,4.024-1.947,5.934-4.07,5.934a5.57,5.57,0,0,1-4.159-1.842c-1.592-1.774-2.654-4.5-3.584-9Z" transform="translate(-98.067 -4.663)" fill="#00a933"/>
    <path id="Контур_216" data-name="Контур 216" d="M512.867,482.308a10.563,10.563,0,0,1-2.964-.818c-.929-.477-1.15-1.637-1.239-3.342-.132-3.956-.088-21.69-.088-31.443a.739.739,0,0,1,.177-.546,43.286,43.286,0,0,1,5.176,0c.841.137,1.327.614,1.681,2.115a36.408,36.408,0,0,1,.841,6.071c.133.272,1.416.2,1.593-.069a104.85,104.85,0,0,1,1.062-11.8c-.045-.137-.221-.478-.354-.478a9.7,9.7,0,0,1-4.778.887H498.089a7.378,7.378,0,0,1-3.893-.955c-.133-.069-.442.273-.442.409-.133,3-.531,8.662-.885,11.458.088.477,1.371.887,1.548.614a54.747,54.747,0,0,1,1.637-6c.575-1.637,1.194-2.182,2.08-2.251,1.194-.068,3.937-.068,4.734,0,.088,0,.221.409.221.546,0,10.845.044,24.146-.133,30.489-.088,3.069-.4,4.024-1.637,4.434a15.572,15.572,0,0,1-2.964.682,4.059,4.059,0,0,0,0,2.182c1.371,0,3.672-.2,7.433-.2,2.92,0,5.353.2,6.947.2a4.083,4.083,0,0,0,.132-2.182Z" transform="translate(-106.771 -4.777)" fill="#00a933"/>
    <path id="Контур_217" data-name="Контур 217" d="M525.821,482.594a6.4,6.4,0,0,0,0,2.251c1.327,0,3.008-.2,4.911-.2,2.566,0,4.469.2,5.619.2a6.45,6.45,0,0,0,.132-2.251,9.436,9.436,0,0,1-2.168-.613c-1.195-.409-1.283-1.307-1.283-2.331,0-1.307,1.106-5.9,1.9-9.333.088-.273.31-.614.487-.614.575-.069,1.46-.069,3.54-.069,1.46,0,2.964-.068,3.672,0,.133,0,.354.342.4.477.664,2.6,1.858,7.685,2.257,10.152a1.6,1.6,0,0,1-.442,1.512,7.255,7.255,0,0,1-2.257.818,6.418,6.418,0,0,0,0,2.251c1.416-.068,3.274-.2,6.46-.2,2.92,0,4.955.2,6.106.2a6.449,6.449,0,0,0,.132-2.251c-3.274-.682-3.539-1.159-4.911-6.513-1.548-5.969-5.486-23.452-6.813-29.17-.266-1.148-.575-2.717-.753-3.809a12.642,12.642,0,0,1-1.991.136,15.8,15.8,0,0,1-1.991-.136,32.548,32.548,0,0,1-.841,4.49c-1.062,4.763-4.822,20.542-7.212,29.238-1.239,4.536-1.814,5.081-4.955,5.763Zm13.318-30.442c.841,3.4,2.389,10.469,2.964,13.323,0,.136-.089.409-.133.409-.442.068-1.637.068-2.964.068-1.371,0-2.389,0-2.876-.068-.088-.068-.132-.2-.088-.466.708-3.263,2.08-9.583,2.92-13.243.044-.091.133-.022.177-.022Z" transform="translate(-116.628 -5.131)" fill="#00a933"/>
    <path id="Контур_218" data-name="Контур 218" d="M567.864,445.251a6.476,6.476,0,0,1,3.052,1.16c1.018.682,1.46,2.592,1.46,4.024-.044,11.459-.177,23.872-.442,27.487-.132,2.319-.575,3.411-1.548,3.888a8.634,8.634,0,0,1-2.478.75,5.517,5.517,0,0,0,0,2.251c1.239,0,3.186-.2,5.619-.2,2.168,0,4.159.2,5.575.2a4.879,4.879,0,0,0,.088-2.251,14.427,14.427,0,0,1-2.61-.682c-1.239-.409-1.858-1.432-1.947-4.3-.133-3.137-.177-17.393-.089-24.759,0-.069.133-.205.222,0,2.831,5.593,13.494,26.8,16.016,32.262a19.523,19.523,0,0,1,3.982-.068c-.044-2.388-.088-6.344-.088-9.413.044-10.094.088-19.984.353-25.782.177-2.523.575-3.41,1.814-4.024a11.366,11.366,0,0,1,1.814-.614,6.049,6.049,0,0,0,0-2.182c-.8,0-2.876.2-5.044.2-2.787,0-4.823-.2-5.929-.2a5.949,5.949,0,0,0-.044,2.182,13.067,13.067,0,0,1,2.787.75c1.371.545,1.77,1.569,1.9,3.82.265,4.569.177,14.664.177,23.394-.045,0-.089.069-.133.069-2.7-4.843-10-18.961-13.76-26.4a15.346,15.346,0,0,1-1.637-3.752,26.83,26.83,0,0,1-2.875.136c-2.611,0-4.779-.272-6.195-.2a6.38,6.38,0,0,0-.044,2.25Z" transform="translate(-129.248 -5.097)" fill="#00a933"/>
    <path id="Контур_219" data-name="Контур 219" d="M508.616,488.945a20.645,20.645,0,0,1,2-2.731c1.146-1.38,2.334-2.762,3.608-4.027a17.82,17.82,0,0,1,3.275-2.632l.05-.029a7.648,7.648,0,0,1,3.816-1.134h.078a6.34,6.34,0,0,1,4.957,2.673,9.431,9.431,0,0,1,1.727,5.63v.081l0,.081a18.849,18.849,0,0,1-1.764,6.521c-1.044,2.4-2.21,4.747-3.435,7.059q-.48.905-.956,1.812c2.344-2.666,4.543-5.533,6.611-8.338a104.476,104.476,0,0,0,8.664-13.642l.856-1.645h10.446l-4.728,13.427a3.144,3.144,0,0,1,2.163,1.672,3.367,3.367,0,0,1,.3.911,3.574,3.574,0,0,1-.761,2.987,11.462,11.462,0,0,1-1.187,1.273c-1.648,1.569-3.258,3.217-4.864,4.837-2.424,6.235-4.976,12.5-7.859,18.532-1.942,4.065-4.436,8.564-7.626,11.788a21.574,21.574,0,0,1-4.712,3.612,11.685,11.685,0,0,1-5.151,1.646l-.132.006-.132-.006a6.3,6.3,0,0,1-5.092-2.536,8.034,8.034,0,0,1-1.4-4.716v-.121l.01-.12a20.223,20.223,0,0,1,4.748-10.779,74.248,74.248,0,0,1,6.249-7.1,8.314,8.314,0,0,1-1.776.326l-.2.015-.2-.013a6.321,6.321,0,0,1-5.219-3.177,10.543,10.543,0,0,1-1.354-5.416,17.056,17.056,0,0,1,1.6-6.475c.841-1.963,1.764-3.892,2.75-5.787a4.15,4.15,0,0,1-2.259,1.214l-.223.034h-.225a3.579,3.579,0,0,1-1.856-.5l-.176-.106-.161-.129a3.3,3.3,0,0,1-1.236-2.605v-.335l.073-.327a4.176,4.176,0,0,1,.132-.466q-1.819,3.881-3.547,7.8a3.319,3.319,0,0,1,2.759-1.226,3.666,3.666,0,0,1,1.691.477,3.342,3.342,0,0,1,1.669,2.938v.26l-.044.257c-.246,1.434-1.578,3.193-2.443,4.343a45.349,45.349,0,0,1-3.963,4.625,21.308,21.308,0,0,1-3.15,2.6,9.087,9.087,0,0,1-4.169,1.681l-.195.019-.2-.006a6.078,6.078,0,0,1-4.339-2.074,7.788,7.788,0,0,1-1.8-5.3l-.206.221a43.655,43.655,0,0,1-4.864,4.487,10.838,10.838,0,0,1-6.061,2.509l-.183.01-.183-.012a5.871,5.871,0,0,1-5.1-3.339,10.925,10.925,0,0,1-1.006-5v-.054q.023-.637.086-1.266a7.058,7.058,0,0,1-3.39-2.3l-.576-.589a51.438,51.438,0,0,1-6.359,7.134c-3.039,2.832-6.746,5.192-10.991,5.49l-.128.009-.128,0a8.237,8.237,0,0,1-6.751-3.312,13.2,13.2,0,0,1-2.154-7.789,22.612,22.612,0,0,1,2.931-11.072,28.807,28.807,0,0,1,8.836-9.522c-.885-1.618-1.7-3.277-2.478-4.943a24.4,24.4,0,0,1-2.39-9.525,13.662,13.662,0,0,1,2.231-7.781c2.022-3.188,5.535-4.347,9.151-4.492l.093,0,.093,0a16.707,16.707,0,0,1,12.07,5.793c3.785,4.07,5.259,9.29,5.416,14.746v.088a33.514,33.514,0,0,1-1.757,10.546,48.811,48.811,0,0,1-3.808,8.523c.639.7,1.284,1.4,1.94,2.076l.006.006a36.961,36.961,0,0,1,5.917-9.121,26.971,26.971,0,0,1,19.486-9.705l.093-.006h.093a13.187,13.187,0,0,1,2.305.2l.064.012c.493.1.984.211,1.467.354H513.1l-1.892,4.289c-.842,1.908-1.714,3.805-2.6,5.7Zm-94.709,6.9a21.82,21.82,0,0,1,1.34-3.547,25.913,25.913,0,0,1,5.02-7.227l.047-.046.048-.044a25.584,25.584,0,0,1,8.3-5.276,20.706,20.706,0,0,1,5.155-1.461,3.62,3.62,0,0,1,2.3.784,5.085,5.085,0,0,1,2.174-.552l.1,0,.1,0a5.45,5.45,0,0,1,4.712,3.42,13.605,13.605,0,0,1,1.13,5.677v.082l0,.081a31.02,31.02,0,0,1-6.247,17.016c-3.573,4.957-8.344,8.779-14.612,9.282l-.139.011h-.14a9.55,9.55,0,0,1-7.587-3.418,11.673,11.673,0,0,1-2.379-5.787h0c-1.157,1.393-2.358,2.787-3.638,4.07a23.468,23.468,0,0,1-3.36,2.836,10.581,10.581,0,0,1-5.236,2.055l-.161.014-.162,0a6.45,6.45,0,0,1-5.309-2.733,9.9,9.9,0,0,1-1.559-5.787,16.3,16.3,0,0,1,.61-4.252c.433-1.592.981-3.167,1.564-4.71.771-2.04,1.6-4.061,2.44-6.075q.82-1.973,1.62-3.953a3.545,3.545,0,0,1-1.613-.689,3.5,3.5,0,0,1,.514-5.883,4.111,4.111,0,0,1,1.951-.479h1.97l2.953-7.971,1.406-.458a21.942,21.942,0,0,0,3.226-1.261,7.918,7.918,0,0,1,2.791-1.07l.151-.015h.153a3.226,3.226,0,0,1,3.081,2.208,3.8,3.8,0,0,1,.195,1.2v.243l-.038.24a29.593,29.593,0,0,1-1.722,5.179q-.354.9-.706,1.811a3.442,3.442,0,0,1,1.532.712,3.593,3.593,0,0,1-.754,5.941,4.314,4.314,0,0,1-1.819.364h-1.669q-1.638,4.155-3.244,8.323-1.447,3.772-2.878,7.55c-.112.3-.225.594-.337.894a33.287,33.287,0,0,0,3.286-3.881c.941-1.366,2.075-3.055,3.876-3.244l1.576-.166Zm16.561-7.369a26.864,26.864,0,0,0-5.146,8.111,24,24,0,0,0-2.159,8.561,3.79,3.79,0,0,0,.357,1.844.279.279,0,0,0,.027.031.846.846,0,0,0,.289.052c2.645-.349,4.688-2.695,6.08-4.784a37.809,37.809,0,0,0,4.588-9.226,16.793,16.793,0,0,1-1.127-2.942,15.771,15.771,0,0,1-.579-3.627,27.244,27.244,0,0,0-2.33,1.979Zm30.657-25.9c-.78.06-1.6.217-1.891,1.025a12.047,12.047,0,0,0-.725,4.591v.092a23.742,23.742,0,0,0,.991,6.709,29.332,29.332,0,0,0,1.2,3.258l.053-.027a8.442,8.442,0,0,1,2.983-1.056l.123-.01h.122a3.509,3.509,0,0,1,2.507,1.008l.085.085.078.092a3.529,3.529,0,0,1,.577.934,32.206,32.206,0,0,0,.364-4.826,17.6,17.6,0,0,0-2.117-8.915,5.211,5.211,0,0,0-4.352-2.96Zm5.253,20.66a6.529,6.529,0,0,1-1.343,1.005c-.228.132-.469.293-.714.468q.551.829,1.116,1.647.506-1.549.941-3.12Zm-7.424,6.46a37.492,37.492,0,0,0-4.779,7.853c-1.1,2.39-2.825,6.389-2.949,9.081a3.166,3.166,0,0,0,.032.341c1.885-.33,4.155-2.579,5.3-3.832a34.335,34.335,0,0,0,5.811-9.05q-1.1-1.373-2.173-2.766-.627-.81-1.244-1.627Zm37.968-2.867a21.066,21.066,0,0,0-8.608,8.145,57.308,57.308,0,0,0-4.506,8.29q.136-.134.271-.27a99.344,99.344,0,0,0,8.443-9.9c1.539-2.019,3.024-4.107,4.4-6.261Zm23.9,35.486a23.8,23.8,0,0,0-4.373,7.878,25.409,25.409,0,0,0,1.742-2.639,50.134,50.134,0,0,0,2.631-5.239Z" transform="translate(-77.046 -8.834)" fill="#fff" fill-rule="evenodd"/>
    <path id="Контур_220" data-name="Контур 220" d="M411.273,489.192h3.256a1.229,1.229,0,0,1,.723.129.368.368,0,0,1,.117.374c0,.22-.065.349-.207.414a1.351,1.351,0,0,1-.555.09H410.86c-1.538,3.889-2.882,7.326-4.019,10.285s-2.093,5.491-2.881,7.558-1.357,3.708-1.705,4.9a11.373,11.373,0,0,0-.53,2.274,2.1,2.1,0,0,0,.245,1.1.815.815,0,0,0,.75.4,5.119,5.119,0,0,0,2.609-1.357,28.639,28.639,0,0,0,2.507-2.338,44.674,44.674,0,0,0,4.445-5.143c.866-1.266,1.434-1.912,1.68-1.938l.4.491a10.414,10.414,0,0,1-2.184,3.346c-1.331,1.6-2.481,2.894-3.475,3.889a20.338,20.338,0,0,1-2.945,2.481,7.521,7.521,0,0,1-3.721,1.5,3.407,3.407,0,0,1-2.882-1.448,6.911,6.911,0,0,1-.995-4.018,13.568,13.568,0,0,1,.5-3.45c.349-1.253.84-2.739,1.473-4.431s1.448-3.682,2.4-5.982,2.054-5,3.281-8.114H402.19a.976.976,0,0,1-.607-.13.416.416,0,0,1-.168-.374.388.388,0,0,1,.245-.374,1.042,1.042,0,0,1,.53-.129h4.1l3.179-8.579a25.353,25.353,0,0,0,3.747-1.486,5.926,5.926,0,0,1,1.628-.71.172.172,0,0,1,.181.116.733.733,0,0,1,.039.232,31.385,31.385,0,0,1-1.55,4.548c-.93,2.377-1.68,4.341-2.236,5.878Z" transform="translate(-78.355 -15.727)" fill="#eb2f31"/>
    <path id="Контур_221" data-name="Контур 221" d="M443.364,492.372a.474.474,0,0,1,.44.181.683.683,0,0,1,.116.388c-.026.245-.582.633-1.68,1.137a18.924,18.924,0,0,0-4.366,3.295,29.743,29.743,0,0,0-5.815,9.1,26.671,26.671,0,0,0-2.4,9.755,5.99,5.99,0,0,0,.982,3.7,3.39,3.39,0,0,0,2.881,1.292c3.127-.311,5.956-2.352,8.489-6.151a39.633,39.633,0,0,0,5.336-11.253,14.006,14.006,0,0,1-1.473-3.424,12.291,12.291,0,0,1-.478-3.321,6.543,6.543,0,0,1,.672-3.217,2.144,2.144,0,0,1,1.874-1.24c.839.026,1.525.594,2.054,1.693a10.593,10.593,0,0,1,.827,4.393,27.934,27.934,0,0,1-5.672,15.349q-5.388,7.462-12.378,8.024a6.505,6.505,0,0,1-5.259-2.3q-1.842-2.248-1.886-6.576a20.173,20.173,0,0,1,1.925-8.488,22.885,22.885,0,0,1,4.419-6.383,22.489,22.489,0,0,1,7.287-4.664,21.63,21.63,0,0,1,4.108-1.279Z" transform="translate(-86.596 -19.913)" fill="#eb2f31"/>
    <path id="Контур_222" data-name="Контур 222" d="M482.834,459.811a13.641,13.641,0,0,1,9.9,4.819c2.92,3.139,4.445,7.378,4.6,12.752a30.406,30.406,0,0,1-1.6,9.587,47.648,47.648,0,0,1-4.678,9.871c1.59,1.757,2.766,3.036,3.515,3.811s1.137,1.292,1.137,1.525a.45.45,0,0,1-.039.206.229.229,0,0,1-.194.065,5.3,5.3,0,0,1-1.77-1.434c-.891-.905-1.951-1.99-3.178-3.269a48.291,48.291,0,0,1-8.024,9.716c-3.139,2.92-6.176,4.471-9.122,4.677a5.212,5.212,0,0,1-4.341-2.08,10.258,10.258,0,0,1-1.551-6.034,19.355,19.355,0,0,1,2.584-9.587q2.713-5.213,10.194-10.013a71.038,71.038,0,0,1-3.773-7.158,21.576,21.576,0,0,1-2.106-8.333,10.664,10.664,0,0,1,1.758-6.047q1.841-2.887,6.692-3.075Zm-1.4,23.773c1.008-.439,1.951-.878,2.83-1.343a6.448,6.448,0,0,1,1.821-.724.477.477,0,0,1,.349.116.472.472,0,0,1,.116.323c.026.258-.284.568-.943.943a26.77,26.77,0,0,0-3.23,2.468c.776,1.253,1.693,2.649,2.739,4.16a50.2,50.2,0,0,0,3.385,4.355,75.6,75.6,0,0,0,2.985-8.748,36.756,36.756,0,0,0,1.266-9.38,20.759,20.759,0,0,0-2.532-10.453,8.209,8.209,0,0,0-7.016-4.483c-2.467.155-4.057,1.163-4.742,3.049a15.145,15.145,0,0,0-.9,5.75,26.457,26.457,0,0,0,1.124,7.571,29.283,29.283,0,0,0,2.752,6.4Zm-.155,2.61a38.128,38.128,0,0,0-7.778,11.383q-3.12,6.783-3.23,10.349a3.756,3.756,0,0,0,.853,2.558,2.741,2.741,0,0,0,2.093.878c2.3-.129,4.858-1.744,7.7-4.859a38.49,38.49,0,0,0,7.094-11.6c-1.137-1.382-2.222-2.765-3.295-4.147s-2.2-2.894-3.437-4.561Z" transform="translate(-99.153 -10.144)" fill="#eb2f31"/>
    <path id="Контур_223" data-name="Контур 223" d="M543.552,493.161c-.776,1.758-1.809,4.005-3.075,6.718s-2.558,5.53-3.838,8.45-2.377,5.491-3.294,7.688a15.045,15.045,0,0,0-1.357,4.431,1.037,1.037,0,0,0,.091.491.405.405,0,0,0,.387.181,5.4,5.4,0,0,0,1.835-1.15,29.628,29.628,0,0,0,2.481-2.209,27.681,27.681,0,0,0,4.263-5.22c.543-1.072.93-1.6,1.189-1.576a.634.634,0,0,1,.323.077.3.3,0,0,1,.13.285,10.951,10.951,0,0,1-1.874,3.023,41.934,41.934,0,0,1-3.7,4.315,18.044,18.044,0,0,1-2.7,2.222,6.1,6.1,0,0,1-2.738,1.163,3.051,3.051,0,0,1-2.184-1.086,4.892,4.892,0,0,1-.995-3.281,11.572,11.572,0,0,1,.7-3.617,37.429,37.429,0,0,1,1.874-4.419c.788-1.589,1.589-3.256,2.441-5.039s1.68-3.579,2.507-5.4c-.93,1.24-1.873,2.532-2.829,3.889s-1.977,2.726-3.036,4.147-2.183,2.843-3.359,4.289-2.455,2.894-3.785,4.328a42.356,42.356,0,0,1-4.523,4.174,7.824,7.824,0,0,1-4.341,1.861,2.826,2.826,0,0,1-2.545-1.628,7.814,7.814,0,0,1-.7-3.6q.271-7.423,7.131-15.427a23.918,23.918,0,0,1,17.352-8.644,10.108,10.108,0,0,1,1.77.155,11.809,11.809,0,0,1,1.589.413Zm-5.672.827a1.772,1.772,0,0,1-.646-.155,2.862,2.862,0,0,0-1.06-.155q-9.071,1.067-15.3,10.789t-6.486,15.453a2.015,2.015,0,0,0,.13.827.491.491,0,0,0,.491.3,6.779,6.779,0,0,0,3.23-1.821c1.279-1.124,2.325-2.106,3.139-2.933a102.552,102.552,0,0,0,8.708-10.208,82,82,0,0,0,7.791-12.093Z" transform="translate(-112.181 -19.98)" fill="#eb2f31"/>
    <path id="Контур_224" data-name="Контур 224" d="M571.351,492.593a3.319,3.319,0,0,1,2.6,1.46,6.472,6.472,0,0,1,1.111,3.837,15.818,15.818,0,0,1-1.511,5.414c-.956,2.2-2.068,4.471-3.334,6.848s-2.351,4.5-3.294,6.356a10.927,10.927,0,0,0-1.4,3.941,1.065,1.065,0,0,0,.414.878,1.5,1.5,0,0,0,.839.259,4.4,4.4,0,0,0,2.52-1.137,25.467,25.467,0,0,0,2.131-2,125,125,0,0,0,18.515-25.621h4.277l-6.434,18.269c1.989-1.925,3.295-3.243,3.9-3.953s1.034-1.033,1.279-.982q.233,0,.272.078a.491.491,0,0,1,.039.206c.1.155-.259.608-1.06,1.382s-2.6,2.558-5.375,5.349q-4.477,11.551-8,18.915a41.04,41.04,0,0,1-7.041,10.957,19.019,19.019,0,0,1-4.044,3.1,8.577,8.577,0,0,1-3.785,1.253,3.269,3.269,0,0,1-2.726-1.253,4.967,4.967,0,0,1-.839-2.946c.232-2.933,1.589-5.969,4.1-9.121a67.3,67.3,0,0,1,6.667-7.455q1.842-1.822,4.561-4.263,2.694-2.442,4.522-4.225l6.964-18.54c-.981,1.253-2.067,2.713-3.256,4.366s-2.442,3.372-3.747,5.143-2.649,3.515-3.992,5.194-2.6,3.139-3.734,4.367a18.173,18.173,0,0,1-2.8,2.377,6.562,6.562,0,0,1-3.321,1.318,3.254,3.254,0,0,1-2.778-1.679,7.407,7.407,0,0,1-.93-3.863,14.164,14.164,0,0,1,1.357-5.272c.918-2.119,1.964-4.315,3.179-6.576s2.287-4.315,3.217-6.137a12.2,12.2,0,0,0,1.473-3.863,1.41,1.41,0,0,0-.284-.956,1,1,0,0,0-.814-.336,3.955,3.955,0,0,0-2.041.892,14.148,14.148,0,0,0-1.809,1.615,38.917,38.917,0,0,0-3.889,4.626c-.84,1.24-1.447,1.886-1.8,1.938a.546.546,0,0,1-.284-.064.251.251,0,0,1-.09-.22,10.3,10.3,0,0,1,2.08-3.153c1.266-1.525,2.4-2.8,3.411-3.811a15.021,15.021,0,0,1,2.7-2.183,4.646,4.646,0,0,1,2.287-.724Zm8.217,27.326a82.864,82.864,0,0,0-11.021,11.473c-3.527,4.38-5.4,8.566-5.659,12.52a3.391,3.391,0,0,0,.4,1.8,1.468,1.468,0,0,0,1.292.685,3.067,3.067,0,0,0,1.6-.555,9.363,9.363,0,0,0,1.576-1.318,25.225,25.225,0,0,0,3.062-4.289,53.494,53.494,0,0,0,2.92-5.853q1.4-3.256,2.843-6.951t2.985-7.507Z" transform="translate(-127.035 -19.98)" fill="#eb2f31"/>
    <path id="Контур_225" data-name="Контур 225" d="M359.4,435.157h1.006v-7.9h1.606v-.9h-4.219v.9H359.4v7.9Z" transform="translate(-66.245 -0.106)" fill="#191000"/>
    <path id="Контур_226" data-name="Контур 226" d="M365.221,426.355v8.8h1.006v-4.114h2.468v4.114H369.7v-8.8h-1.006v3.775h-2.468v-3.775Z" transform="translate(-68.473 -0.106)" fill="#191000"/>
    <path id="Контур_227" data-name="Контур 227" d="M377.073,430.129h-2.207v-2.9h2.351v-.875H373.86v8.8h3.513v-.875h-2.508v-3.3h2.207v-.849Z" transform="translate(-71.065 -0.106)" fill="#191000"/>
    <path id="Контур_228" data-name="Контур 228" d="M382.8,434.823a2.963,2.963,0,0,0,1.489.379,2.358,2.358,0,0,0,2.468-2.469,3.014,3.014,0,0,0-1.528-2.534c-.836-.6-1.293-.94-1.293-1.815a1.215,1.215,0,0,1,1.267-1.254,1.84,1.84,0,0,1,1.045.3l.248-.862a2.285,2.285,0,0,0-1.24-.326,2.218,2.218,0,0,0-2.325,2.311A3.263,3.263,0,0,0,384.586,431a2.256,2.256,0,0,1,1.163,1.829,1.379,1.379,0,0,1-1.463,1.489,2.573,2.573,0,0,1-1.267-.353l-.222.862Z" transform="translate(-73.746 -0.073)" fill="#191000"/>
    <path id="Контур_229" data-name="Контур 229" d="M390.915,435.157h1.006v-7.9h1.606v-.9h-4.219v.9h1.606v7.9Z" transform="translate(-75.7 -0.106)" fill="#191000"/>
    <path id="Контур_230" data-name="Контур 230" d="M398.687,432.52l.587,2.638h.993l-1.959-8.8H397.2l-2.012,8.8h.967l.587-2.638Zm-1.8-.81.457-2.234c.118-.588.248-1.345.352-2.011h.052c.1.653.222,1.384.353,2.011l.457,2.234Z" transform="translate(-77.464 -0.107)" fill="#191000"/>
    <path id="Контур_231" data-name="Контур 231" d="M403.678,435.157h1.006v-7.9h1.606v-.9h-4.219v.9h1.606v7.9Z" transform="translate(-79.529 -0.106)" fill="#191000"/>
    <path id="Контур_232" data-name="Контур 232" d="M412.71,430.129H410.5v-2.9h2.351v-.875H409.5v8.8h3.513v-.875H410.5v-3.3h2.207v-.849Z" transform="translate(-81.757 -0.106)" fill="#191000"/>
    <path id="Контур_233" data-name="Контур 233" d="M419.946,435.158v-3.043c0-1.881-.027-3-.1-4.18h.027a31.525,31.525,0,0,0,1.044,2.991l1.672,4.232h.953v-8.8h-.9V429.5c0,1.528.039,2.665.118,4.049h-.026c-.3-.953-.757-2.129-1.123-3.069l-1.62-4.127h-.953v8.8Z" transform="translate(-84.618 -0.107)" fill="#191000"/>
    <path id="Контур_234" data-name="Контур 234" d="M430.921,430.129h-2.207v-2.9h2.351v-.875h-3.357v8.8h3.513v-.875h-2.508v-3.3h2.207v-.849Z" transform="translate(-87.221 -0.106)" fill="#191000"/>
    <path id="Контур_235" data-name="Контур 235" d="M436.373,435.158l.875-4.245c.209-.98.352-1.933.483-2.926h.026c.105.967.274,1.959.445,2.887l.848,4.284h.98l1.711-8.8h-.979l-.731,4.192c-.17,1.006-.326,1.959-.47,3.226h-.039c-.118-1.228-.314-2.234-.509-3.279l-.81-4.14h-.862l-.809,4.231c-.209,1.123-.419,2.077-.523,3.187h-.052c-.1-1.084-.248-2.064-.431-3.174l-.745-4.245h-1.045l1.7,8.8Z" transform="translate(-89.029 -0.107)" fill="#191000"/>
    <path id="Контур_236" data-name="Контур 236" d="M446.086,434.823a2.963,2.963,0,0,0,1.49.379,2.359,2.359,0,0,0,2.468-2.469,3.016,3.016,0,0,0-1.528-2.534c-.836-.6-1.293-.94-1.293-1.815a1.214,1.214,0,0,1,1.266-1.254,1.838,1.838,0,0,1,1.045.3l.248-.862a2.288,2.288,0,0,0-1.241-.326,2.218,2.218,0,0,0-2.325,2.311A3.263,3.263,0,0,0,447.876,431a2.256,2.256,0,0,1,1.162,1.829,1.379,1.379,0,0,1-1.462,1.489,2.571,2.571,0,0,1-1.267-.353l-.223.862Z" transform="translate(-92.735 -0.073)" fill="#191000"/>
    <path id="Контур_237" data-name="Контур 237" d="M459.14,432.52l.588,2.638h.993l-1.959-8.8h-1.11l-2.012,8.8h.967l.588-2.638Zm-1.8-.81.457-2.234c.118-.588.248-1.345.353-2.011h.052c.105.653.223,1.384.353,2.011l.457,2.234Z" transform="translate(-95.601 -0.107)" fill="#191000"/>
    <path id="Контур_238" data-name="Контур 238" d="M468.271,430.527h-2.09v.836h1.137v2.873a1.445,1.445,0,0,1-.614.1c-1.058,0-2.09-.875-2.09-3.592s1.189-3.6,2.285-3.6a2.2,2.2,0,0,1,1.019.209l.222-.862a2.79,2.79,0,0,0-1.254-.248c-1.555,0-3.3,1.175-3.318,4.6a5.063,5.063,0,0,0,1.058,3.5,2.627,2.627,0,0,0,2.077.862,4.521,4.521,0,0,0,1.567-.3v-4.375Z" transform="translate(-97.98 -0.073)" fill="#191000"/>
    <path id="Контур_239" data-name="Контур 239" d="M475.44,430.129h-2.207v-2.9h2.351v-.875h-3.357v8.8h3.513v-.875h-2.508v-3.3h2.207v-.849Z" transform="translate(-100.578 -0.106)" fill="#191000"/>
    <path id="Контур_240" data-name="Контур 240" d="M479.746,435.158v-3.043c0-1.881-.026-3-.1-4.18h.026a31.518,31.518,0,0,0,1.045,2.991l1.672,4.232h.953v-8.8h-.9V429.5c0,1.528.039,2.665.118,4.049h-.027c-.3-.953-.757-2.129-1.123-3.069l-1.62-4.127h-.953v8.8Z" transform="translate(-102.56 -0.107)" fill="#191000"/>
    <path id="Контур_241" data-name="Контур 241" d="M491.035,434.118a2.183,2.183,0,0,1-.927.2c-1.071,0-2.064-.888-2.064-3.579s1.1-3.6,2.038-3.6a1.92,1.92,0,0,1,.888.183l.222-.849a2.186,2.186,0,0,0-1.1-.222c-1.385,0-3.109,1.11-3.109,4.584,0,2.991,1.228,4.376,2.952,4.376a2.812,2.812,0,0,0,1.254-.235l-.157-.849Z" transform="translate(-105.006 -0.073)" fill="#191000"/>
    <path id="Контур_242" data-name="Контур 242" d="M496.809,435.158V431.4l2.024-5.041h-1.058l-.745,2.168c-.234.679-.457,1.345-.64,2.024h-.026c-.2-.679-.431-1.371-.653-1.985l-.784-2.207h-1.058l1.933,5.08v3.722Z" transform="translate(-107.072 -0.107)" fill="#191000"/>
    <path id="Контур_243" data-name="Контур 243" d="M507.148,426.206c-1.541,0-2.586,1.58-2.586,4.492,0,2.965.979,4.519,2.442,4.519,1.41,0,2.547-1.267,2.547-4.571,0-2.808-.9-4.44-2.4-4.44Zm-.091.888c1.149,0,1.45,1.946,1.45,3.592,0,1.724-.3,3.644-1.437,3.644-1.11,0-1.462-1.8-1.462-3.617,0-1.79.352-3.618,1.45-3.618Z" transform="translate(-110.28 -0.062)" fill="#191000"/>
    <path id="Контур_244" data-name="Контур 244" d="M513.406,435.157h1.006v-4h2.194v-.849h-2.194V427.23h2.351v-.875h-3.357v8.8Z" transform="translate(-112.933 -0.106)" fill="#191000"/>
    <path id="Контур_245" data-name="Контур 245" d="M522.9,435.157h1.006v-7.9h1.606v-.9H521.3v.9H522.9v7.9Z" transform="translate(-115.301 -0.106)" fill="#191000"/>
    <path id="Контур_246" data-name="Контур 246" d="M528.706,426.355v5.864c0,2.181.862,3.043,2.181,3.043s2.246-.875,2.246-3.161v-5.746h-1.006v5.9c0,1.541-.47,2.116-1.214,2.116-.679,0-1.2-.535-1.2-2.116v-5.9Z" transform="translate(-117.523 -0.107)" fill="#191000"/>
    <path id="Контур_247" data-name="Контур 247" d="M537.251,435.141h1.006V431.3h.392c.862,0,1.241.457,1.436,1.659a11.413,11.413,0,0,0,.47,2.181h1.019a12.311,12.311,0,0,1-.5-2.234c-.2-1.149-.535-1.777-1.189-1.972v-.027a2.3,2.3,0,0,0,1.41-2.259,2.373,2.373,0,0,0-.614-1.724,2.712,2.712,0,0,0-1.985-.626,5.732,5.732,0,0,0-1.45.169v8.673Zm1.006-7.98a2.019,2.019,0,0,1,.523-.052c1.084.013,1.5.64,1.5,1.658a1.6,1.6,0,0,1-1.607,1.763h-.418v-3.37Z" transform="translate(-120.087 -0.09)" fill="#191000"/>
    <path id="Контур_248" data-name="Контур 248" d="M544.883,435.158h1.006v-3.4l.5-.848,1.8,4.245h1.084l-2.207-5.042,2.155-3.761h-1.11l-1.646,3.121q-.255.509-.549,1.058h-.026v-4.18h-1.006v8.8Z" transform="translate(-122.377 -0.107)" fill="#191000"/>
    <path id="Контур_249" data-name="Контур 249" d="M557.843,435.158h.94l-.51-8.8h-1.123l-.993,4.023c-.288,1.189-.484,2.024-.653,3.029h-.039c-.183-1.006-.405-1.868-.706-3.029l-1.032-4.023h-1.083l-.523,8.8h.9l.169-3.722c.052-1.254.1-2.481.1-3.513h.04c.169,1.018.431,2.1.718,3.225l1.032,3.958h.64l1.084-4.127c.274-1.032.509-2.077.7-3.056h.052c-.039.993.026,2.285.091,3.447l.183,3.788Z" transform="translate(-124.549 -0.107)" fill="#191000"/>
    <path id="Контур_250" data-name="Контур 250" d="M566.81,430.129H564.6v-2.9h2.351v-.875H563.6v8.8h3.513v-.875H564.6v-3.3h2.207v-.849Z" transform="translate(-127.992 -0.106)" fill="#191000"/>
    <path id="Контур_251" data-name="Контур 251" d="M571.116,435.158v-3.043c0-1.881-.026-3-.1-4.18h.026a31.535,31.535,0,0,0,1.045,2.991l1.672,4.232h.953v-8.8h-.9V429.5c0,1.528.039,2.665.118,4.049H573.9c-.3-.953-.757-2.129-1.123-3.069l-1.62-4.127H570.2v8.8Z" transform="translate(-129.974 -0.107)" fill="#191000"/>
    <path id="Контур_252" data-name="Контур 252" d="M578.878,426.355v8.8h1.006v-8.8Z" transform="translate(-132.577 -0.106)" fill="#191000"/>
    <path id="Контур_253" data-name="Контур 253" d="M581.995,434.823a2.958,2.958,0,0,0,1.489.379,2.359,2.359,0,0,0,2.468-2.469,3.014,3.014,0,0,0-1.528-2.534c-.836-.6-1.293-.94-1.293-1.815a1.214,1.214,0,0,1,1.267-1.254,1.837,1.837,0,0,1,1.044.3l.249-.862a2.286,2.286,0,0,0-1.241-.326,2.218,2.218,0,0,0-2.325,2.311A3.263,3.263,0,0,0,583.784,431a2.255,2.255,0,0,1,1.162,1.829,1.378,1.378,0,0,1-1.462,1.489,2.571,2.571,0,0,1-1.267-.353l-.222.862Z" transform="translate(-133.512 -0.073)" fill="#191000"/>
    <path id="Контур_254" data-name="Контур 254" d="M590.113,435.157h1.006v-7.9h1.606v-.9h-4.219v.9h1.606v7.9Z" transform="translate(-135.465 -0.106)" fill="#191000"/>
    <path id="Контур_255" data-name="Контур 255" d="M597.884,432.52l.588,2.638h.993l-1.959-8.8H596.4l-2.011,8.8h.966l.588-2.638Zm-1.8-.81.457-2.234c.118-.588.249-1.345.353-2.011h.052c.1.653.222,1.384.353,2.011l.457,2.234Z" transform="translate(-137.229 -0.107)" fill="#191000"/>
    <path id="Контур_256" data-name="Контур 256" d="M604.123,435.158v-3.043c0-1.881-.026-3-.1-4.18h.026a31.518,31.518,0,0,0,1.045,2.991l1.672,4.232h.953v-8.8h-.9V429.5c0,1.528.039,2.665.118,4.049H606.9c-.3-.953-.757-2.129-1.123-3.069l-1.62-4.127h-.953v8.8Z" transform="translate(-139.877 -0.107)" fill="#191000"/>
    <g id="Сгруппировать_51" data-name="Сгруппировать 51" transform="translate(488.625 426)">
      <g id="Сгруппировать_50" data-name="Сгруппировать 50" clip-path="url(#clip-path)">
        <path id="Контур_257" data-name="Контур 257" d="M796.183,425.863v75.89H639.343v-75.89Z" transform="translate(-639.343 -425.959)" fill="#00a933" fill-rule="evenodd"/>
        <path id="Контур_258" data-name="Контур 258" d="M654.521,425.863h20.536v75.89H654.521v-75.89Z" transform="translate(-643.897 -425.959)" fill="#eb2f31" fill-rule="evenodd"/>
        <path id="Контур_259" data-name="Контур 259" d="M658.843,425.863l-1.7,1.844-.895-.836-.3.321.678.6-.766.831.234.218-1.574,1.706V429.7l.735-.8-.34-.318.721-.78-.263-.25v.328l-.7.052-.006-.428,1.408-1.527h.991v.584h-.4l.4.374.993-1.076Zm-1.07,0-.58.629v-.629Zm-3.251,0h1.23l-.454.432h-.506l0,.469-.273.351v-1.252Z" transform="translate(-643.897 -425.959)" fill="#2c0001" fill-rule="evenodd"/>
        <path id="Контур_260" data-name="Контур 260" d="M661.953,526.348a2.634,2.634,0,0,1-.829-1.1c-.3-.748-1-1.09-1.378-1.411a5.135,5.135,0,0,0,1.005,2.133c.281.23-1.357-.207-1.977-.24a2.837,2.837,0,0,1-.859-.269s.335,1.05,2.19,1.281c.7.088,1.161-.393,1.848-.392Zm-2.171-.731a5.853,5.853,0,0,0-.262-1.511c-.247-.718-.925-1.594-1.028-1.459-.356.5.651,2.052.526,2.122-.141.078-.612-.444-1.119-.751-.649-.391-1.315-.77-1.287-.74.113.127-.293,1.7,3.169,2.339Zm-1.609-1.888a10.434,10.434,0,0,0-.038-2c-.08-.769-.3-1.03-.357-1.025a4.721,4.721,0,0,0-.334,1.322c-.046.393.4,1.052.258,1.074-.065.011-1.718-1.842-2.042-1.75a2.665,2.665,0,0,0,1.464,1.935c1.035.572,1.049.448,1.049.448Zm-1.144-1.947c.222,0,.312-.673.388-1.583.037-.421-.06-1.316-.178-1.261-.221.1-.414.546-.48,1-.083.517-.086,1.042-.177,1.076-.168.062-.4-.781-.79-1.279-.325-.421-.647-.41-.659-.526a2.493,2.493,0,0,0,1.9,2.571Zm-.737-4.21c-.239.046-.521,1.459.136,2.562l.228-1.021a2.673,2.673,0,0,0-.364-1.541Zm14.446,9.533s-.523.745-2.246.686c-1.214-.046-1.737-.74-2.3-.709a3.126,3.126,0,0,0-.809-.013,6.322,6.322,0,0,1,1.823,1.345.284.284,0,0,1-.391.1,7.557,7.557,0,0,0-1.788-1.334,4.283,4.283,0,0,0-1.842,1.334.275.275,0,0,1-.373-.122,3.334,3.334,0,0,1,1.77-1.328,3.34,3.34,0,0,0-.755-.041c-.6,0-1.251.681-2.267.745-1.92.058-2.353-.687-2.353-.687.556.378,2.365-.162,2.56-.226a5.167,5.167,0,0,1,3.26.031,5.233,5.233,0,0,1,3.279-.067c.2.064,1.877.658,2.435.28Zm-2.75-.757a2.577,2.577,0,0,0,.828-1.1c.307-.748,1.01-1.09,1.382-1.411a5.249,5.249,0,0,1-1.005,2.133c-.284.23,1.354-.207,1.979-.24a2.8,2.8,0,0,0,.85-.269s-.329,1.05-2.184,1.281c-.7.088-1.162-.393-1.851-.392Zm2.167-.731a6.08,6.08,0,0,1,.269-1.511c.247-.718.924-1.594,1.021-1.459.359.5-.651,2.052-.522,2.122s.616-.444,1.122-.751c.644-.391,1.312-.77,1.285-.74-.116.127.29,1.7-3.175,2.339Zm1.615-1.888a10.568,10.568,0,0,1,.038-2c.084-.769.3-1.03.353-1.025a4.561,4.561,0,0,1,.336,1.322c.045.393-.4,1.052-.263,1.074.07.011,1.728-1.842,2.047-1.75a2.664,2.664,0,0,1-1.462,1.935c-1.037.572-1.05.448-1.05.448Zm1.144-1.947c-.223,0-.312-.673-.39-1.583-.036-.421.06-1.316.182-1.261a1.444,1.444,0,0,1,.481,1c.078.517.085,1.042.175,1.076.168.062.4-.781.787-1.279.328-.421.649-.41.661-.526a2.5,2.5,0,0,1-1.9,2.571Zm.735-4.21c.24.046.521,1.459-.132,2.562l-.232-1.021a2.69,2.69,0,0,1,.364-1.541Z" transform="translate(-644.079 -453.474)" fill="#ffef00" fill-rule="evenodd"/>
        <path id="Контур_261" data-name="Контур 261" d="M658.842,444.383l-1.7-1.844-.895.836-.3-.321.678-.6-.766-.83.234-.219-1.574-1.706v.845l.735.8-.34.318.721.781-.263.249v-.37h-.706v.419l1.408,1.526h.991v-.584h-.4l.4-.374.993,1.077-.993,1.076-.4-.375h.4V444.5h-.991l-1.409,1.526.007.383.7,0v-.337l.263.25-.721.78.34.318-.735.8v.845l1.574-1.706-.234-.218.766-.831-.678-.6.3-.321.895.837,1.7-1.844Zm-1.65.629.491-.532.115-.078-.02-.019.02-.02-.115-.078-.491-.532v1.258Zm-2.671.623.273-.351,0-.469h.506l.454-.432-.454-.433h-.506l0-.469-.273-.351v2.5Z" transform="translate(-643.897 -430.11)" fill="#2c0001" fill-rule="evenodd"/>
        <path id="Контур_262" data-name="Контур 262" d="M658.67,444.462l-1.536-1.666-.9.836-.47-.509.678-.6-.764-.828.234-.219-1.4-1.513v.473l.913.989-.34.318.72.78-.566.537v-.537h-.454v.244l1.337,1.448h.81v-.331h-.591l.727-.68,1.158,1.256-1.158,1.255-.727-.679h.591v-.332h-.81l-1.337,1.448,0,.209h.449v-.5l.566.538-.72.78.34.318-.913.989v.473l1.4-1.513-.234-.219.764-.828-.678-.6.47-.509.9.836,1.536-1.665Zm-1.07,0-.282-.306v.612l.282-.306Zm-3.08,1.047v-2.094l.146.188,0,.552h.582l.321.307-.321.306h-.582l0,.552-.146.188Z" transform="translate(-643.897 -430.19)" fill="#ffef00" fill-rule="evenodd"/>
        <path id="Контур_263" data-name="Контур 263" d="M658.234,425.863h.436l-1.536,1.665-.9-.836-.47.509.678.6-.764.828.234.219-1.4,1.513v-.473l.913-.989-.34-.318.72-.78-.566-.538v.5l-.449.034,0-.244,1.337-1.448h.81v.331h-.591l.727.68,1.158-1.255Zm-.916,0h.282l-.282.306v-.306Zm-2.8,1.047v-1.047h1.047l-.321.306h-.582l0,.552-.146.188Z" transform="translate(-643.897 -425.959)" fill="#ffef00" fill-rule="evenodd"/>
        <path id="Контур_264" data-name="Контур 264" d="M658.842,504.983l-1.7-1.844-.895.836-.3-.321.678-.6-.766-.83.234-.219-1.574-1.706v.845l.735.8-.34.318.721.781-.263.25v-.37h-.706v.42l1.408,1.525h.991v-.584h-.4l.4-.374.993,1.077-.993,1.077-.4-.374h.4V505.1h-.991l-1.409,1.527.007.383.7,0v-.337l.263.25-.721.781.34.318-.735.8v.845l1.574-1.706-.234-.219.766-.831-.678-.6.3-.321.895.836,1.7-1.844Zm-1.65.629.491-.533L657.8,505l-.02-.02.02-.02-.115-.077-.491-.533v1.259Zm-2.671.623.273-.351,0-.469h.506l.454-.433-.454-.433h-.506l0-.469-.273-.351v2.5Z" transform="translate(-643.897 -448.292)" fill="#2c0001" fill-rule="evenodd"/>
        <path id="Контур_265" data-name="Контур 265" d="M658.67,505.063l-1.536-1.665-.9.836-.47-.51.678-.6-.764-.827.234-.219-1.4-1.513v.472l.913.99-.34.318.72.78-.566.538v-.538h-.454v.244l1.337,1.449h.81v-.332h-.591l.727-.68,1.158,1.256-1.158,1.255-.727-.679h.591v-.332h-.81l-1.337,1.449,0,.209.449,0v-.5l.566.538-.72.78.34.318-.913.989v.473l1.4-1.513-.234-.218.764-.828-.678-.6.47-.509.9.836,1.536-1.666Zm-1.07,0-.282-.306v.612l.282-.307Zm-3.08,1.046v-2.093l.146.188,0,.552h.582l.321.306-.321.307h-.582l0,.552-.146.188Z" transform="translate(-643.897 -448.372)" fill="#ffef00" fill-rule="evenodd"/>
        <path id="Контур_266" data-name="Контур 266" d="M658.842,484.783l-1.7-1.844-.895.836-.3-.321.678-.6-.766-.83.234-.219-1.574-1.706v.845l.735.8-.34.318.721.78-.263.25v-.37h-.706v.419l1.408,1.526h.991v-.585h-.4l.4-.374.993,1.077-.993,1.076-.4-.374h.4V484.9h-.991l-1.409,1.526.007.383.7,0v-.337l.263.25-.721.78.34.318-.735.8v.845l1.574-1.706-.234-.218.766-.831-.678-.6.3-.321.895.836,1.7-1.844Zm-1.65.629.491-.532.115-.078-.02-.019.02-.02-.115-.078-.491-.532v1.258Zm-2.671.623.273-.351,0-.469h.506l.454-.432-.454-.433h-.506l0-.469-.273-.351v2.5Z" transform="translate(-643.897 -442.232)" fill="#2c0001" fill-rule="evenodd"/>
        <path id="Контур_267" data-name="Контур 267" d="M658.67,484.863l-1.536-1.666-.9.836-.47-.509.678-.6-.764-.828.234-.219-1.4-1.513v.472l.913.989-.34.318.72.78-.566.538v-.538h-.454v.244l1.337,1.448h.81v-.331h-.591l.727-.68,1.158,1.256-1.158,1.255-.727-.68h.591v-.331h-.81l-1.337,1.448,0,.209h.449v-.5l.566.538-.72.78.34.318-.913.989v.472l1.4-1.513-.234-.219.764-.828-.678-.6.47-.509.9.836,1.536-1.665Zm-1.07,0-.282-.306v.612l.282-.306Zm-3.08,1.047v-2.094l.146.188,0,.552h.582l.321.307-.321.306h-.582l0,.552-.146.188Z" transform="translate(-643.897 -442.311)" fill="#ffef00" fill-rule="evenodd"/>
        <path id="Контур_268" data-name="Контур 268" d="M658.842,464.582l-1.7-1.844-.895.836-.3-.321.678-.6-.766-.831.234-.219-1.574-1.706v.845l.735.8-.34.318.721.781-.263.25v-.37h-.706v.42l1.408,1.525h.991v-.584h-.4l.4-.374.993,1.077-.993,1.077-.4-.374h.4V464.7h-.991l-1.409,1.527.007.383.7,0v-.337l.263.249-.721.781.34.318-.735.8v.845l1.574-1.706-.234-.219.766-.83-.678-.6.3-.321.895.836,1.7-1.844Zm-1.65.629.491-.533.115-.077-.02-.02.02-.02-.115-.077-.491-.532v1.258Zm-2.671.623.273-.351,0-.469h.506l.454-.433-.454-.433h-.506l0-.469-.273-.351v2.5Z" transform="translate(-643.897 -436.171)" fill="#2c0001" fill-rule="evenodd"/>
        <path id="Контур_269" data-name="Контур 269" d="M658.67,464.662,657.134,463l-.9.837-.47-.51.678-.6-.764-.828.234-.218-1.4-1.513v.473l.913.989-.34.318.72.78-.566.538v-.538h-.454v.244l1.337,1.449h.81v-.332h-.591l.727-.679,1.158,1.255-1.158,1.256-.727-.68h.591v-.332h-.81l-1.337,1.449,0,.209.449,0v-.5l.566.538-.72.78.34.318-.913.99v.472l1.4-1.513-.234-.219.764-.827-.678-.6.47-.51.9.837,1.536-1.666Zm-1.07,0-.282-.307v.613l.282-.307Zm-3.08,1.046v-2.093l.146.188,0,.552h.582l.321.307-.321.307h-.582l0,.552-.146.188Z" transform="translate(-643.897 -436.25)" fill="#ffef00" fill-rule="evenodd"/>
        <path id="Контур_270" data-name="Контур 270" d="M677.687,444.383l1.7-1.844.9.836.3-.321-.678-.6.766-.83-.234-.219,1.574-1.706v.845l-.735.8.34.318-.72.781.263.249v-.37h.706v.419l-1.408,1.526h-.991v-.584h.4l-.4-.374-.993,1.077.993,1.076.4-.375h-.4V444.5h.991l1.408,1.526-.007.383-.7,0v-.337l-.263.25.72.78-.34.318.735.8v.845l-1.574-1.706.234-.218-.766-.831.678-.6-.3-.321-.9.837-1.7-1.844Zm1.651.629-.491-.532-.116-.078.02-.019-.02-.02.116-.078.491-.532v1.258Zm2.67.623-.272-.351,0-.469h-.506l-.453-.432.453-.433h.506l0-.469.272-.351v2.5Z" transform="translate(-650.847 -430.11)" fill="#2c0001" fill-rule="evenodd"/>
        <path id="Контур_271" data-name="Контур 271" d="M677.933,444.462l1.536-1.666.9.836.47-.509-.678-.6.764-.828-.234-.219,1.4-1.513v.473l-.912.989.34.318-.72.78.566.537v-.537h.454v.244l-1.337,1.448h-.81v-.331h.591l-.727-.68-1.158,1.256,1.158,1.255.727-.679h-.591v-.332h.81l1.337,1.448,0,.209h-.45v-.5l-.566.538.72.78-.34.318.912.989v.473l-1.4-1.513.234-.219-.764-.828.678-.6-.47-.509-.9.836-1.536-1.665Zm1.07,0,.283-.306v.612l-.283-.306Zm3.079,1.047v-2.094l-.146.188,0,.552h-.583l-.321.307.321.306h.583l0,.552.146.188Z" transform="translate(-650.921 -430.19)" fill="#ffef00" fill-rule="evenodd"/>
        <path id="Контур_272" data-name="Контур 272" d="M677.687,504.983l1.7-1.844.9.836.3-.321-.678-.6.766-.83-.234-.219,1.574-1.706v.845l-.735.8.34.318-.72.781.263.25v-.37h.706v.42l-1.408,1.525h-.991v-.584h.4l-.4-.374-.993,1.077.993,1.077.4-.374h-.4V505.1h.991l1.408,1.527-.007.383-.7,0v-.337l-.263.25.72.781-.34.318.735.8v.845l-1.574-1.706.234-.219-.766-.831.678-.6-.3-.321-.9.836-1.7-1.844Zm1.651.629-.491-.533-.116-.077.02-.02-.02-.02.116-.077.491-.533v1.259Zm2.67.623-.272-.351,0-.469h-.506l-.453-.433.453-.433h.506l0-.469.272-.351v2.5Z" transform="translate(-650.847 -448.292)" fill="#2c0001" fill-rule="evenodd"/>
        <path id="Контур_273" data-name="Контур 273" d="M677.933,505.063l1.536-1.665.9.836.47-.51-.678-.6.764-.827-.234-.219,1.4-1.513v.472l-.912.99.34.318-.72.78.566.538v-.538h.454v.244l-1.337,1.449h-.81v-.332h.591l-.727-.68-1.158,1.256,1.158,1.255.727-.679h-.591v-.332h.81l1.337,1.449,0,.209-.45,0v-.5l-.566.538.72.78-.34.318.912.989v.473l-1.4-1.513.234-.218-.764-.828.678-.6-.47-.509-.9.836-1.536-1.666Zm1.07,0,.283-.306v.612l-.283-.307Zm3.079,1.046v-2.093l-.146.188,0,.552h-.583l-.321.306.321.307h.583l0,.552.146.188Z" transform="translate(-650.921 -448.372)" fill="#ffef00" fill-rule="evenodd"/>
        <path id="Контур_274" data-name="Контур 274" d="M677.687,484.783l1.7-1.844.9.836.3-.321-.678-.6.766-.83-.234-.219,1.574-1.706v.845l-.735.8.34.318-.72.78.263.25v-.37h.706v.419l-1.408,1.526h-.991v-.585h.4l-.4-.374-.993,1.077.993,1.076.4-.374h-.4V484.9h.991l1.408,1.526-.007.383-.7,0v-.337l-.263.25.72.78-.34.318.735.8v.845l-1.574-1.706.234-.218-.766-.831.678-.6-.3-.321-.9.836-1.7-1.844Zm1.651.629-.491-.532-.116-.078.02-.019-.02-.02.116-.078.491-.532v1.258Zm2.67.623-.272-.351,0-.469h-.506l-.453-.432.453-.433h.506l0-.469.272-.351v2.5Z" transform="translate(-650.847 -442.232)" fill="#2c0001" fill-rule="evenodd"/>
        <path id="Контур_275" data-name="Контур 275" d="M677.933,484.863l1.536-1.666.9.836.47-.509-.678-.6.764-.828-.234-.219,1.4-1.513v.472l-.912.989.34.318-.72.78.566.538v-.538h.454v.244l-1.337,1.448h-.81v-.331h.591l-.727-.68-1.158,1.256,1.158,1.255.727-.68h-.591v-.331h.81l1.337,1.448,0,.209h-.45v-.5l-.566.538.72.78-.34.318.912.989v.472l-1.4-1.513.234-.219-.764-.828.678-.6-.47-.509-.9.836-1.536-1.665Zm1.07,0,.283-.306v.612l-.283-.306Zm3.079,1.047v-2.094l-.146.188,0,.552h-.583l-.321.307.321.306h.583l0,.552.146.188Z" transform="translate(-650.921 -442.311)" fill="#ffef00" fill-rule="evenodd"/>
        <path id="Контур_276" data-name="Контур 276" d="M677.687,464.582l1.7-1.844.9.836.3-.321-.678-.6.766-.831-.234-.219,1.574-1.706v.845l-.735.8.34.318-.72.781.263.25v-.37h.706v.42l-1.408,1.525h-.991v-.584h.4l-.4-.374-.993,1.077.993,1.077.4-.374h-.4V464.7h.991l1.408,1.527-.007.383-.7,0v-.337l-.263.249.72.781-.34.318.735.8v.845l-1.574-1.706.234-.219-.766-.83.678-.6-.3-.321-.9.836-1.7-1.844Zm1.651.629-.491-.533-.116-.077.02-.02-.02-.02.116-.077.491-.532v1.258Zm2.67.623-.272-.351,0-.469h-.506l-.453-.433.453-.433h.506l0-.469.272-.351v2.5Z" transform="translate(-650.847 -436.171)" fill="#2c0001" fill-rule="evenodd"/>
        <path id="Контур_277" data-name="Контур 277" d="M677.933,464.662,679.469,463l.9.837.47-.51-.678-.6.764-.828-.234-.218,1.4-1.513v.473l-.912.989.34.318-.72.78.566.538v-.538h.454v.244l-1.337,1.449h-.81v-.332h.591l-.727-.679-1.158,1.255,1.158,1.256.727-.68h-.591v-.332h.81l1.337,1.449,0,.209-.45,0v-.5l-.566.538.72.78-.34.318.912.99v.472l-1.4-1.513.234-.219-.764-.827.678-.6-.47-.51-.9.837-1.536-1.666Zm1.07,0,.283-.307v.613l-.283-.307Zm3.079,1.046v-2.093l-.146.188,0,.552h-.583l-.321.307.321.307h.583l0,.552.146.188Z" transform="translate(-650.921 -436.25)" fill="#ffef00" fill-rule="evenodd"/>
        <path id="Контур_278" data-name="Контур 278" d="M677.687,425.863l1.7,1.844.9-.836.3.321-.678.6.766.831-.234.218,1.574,1.706V429.7l-.735-.8.34-.318-.72-.78.263-.25v.328l.7.052.006-.428-1.408-1.527h-.991v.584h.4l-.4.374-.993-1.076Zm1.07,0,.58.629v-.629Zm3.251,0h-1.229l.453.432h.506l0,.469.272.351v-1.252Z" transform="translate(-650.847 -425.959)" fill="#2c0001" fill-rule="evenodd"/>
        <path id="Контур_279" data-name="Контур 279" d="M678.369,425.863h-.436l1.536,1.665.9-.836.47.509-.678.6.764.828-.234.219,1.4,1.513v-.473l-.912-.989.34-.318-.72-.78.566-.538v.5l.45.034,0-.244-1.337-1.448h-.81v.331h.591l-.727.68-1.158-1.255Zm.916,0H679l.283.306v-.306Zm2.8,1.047v-1.047h-1.046l.321.306h.583l0,.552.146.188Z" transform="translate(-650.921 -425.959)" fill="#ffef00" fill-rule="evenodd"/>
        <path id="Контур_280" data-name="Контур 280" d="M665.369,500.147l.707.451h2.153l1.2-1.168-2.25,0-.815.452.154.091h1.52l-.138.121h-1.606l-.316-.2,1.032-.58h4.484v-1.453h1.479V496.57h1.313v-3.506h-1.313v-1.291h-1.479V490.32H667.01l-1.032-.578.316-.2H667.9l.138.121h-1.52l-.154.091.815.451,2.25.006-1.2-1.17h-2.153l-.707.451-.708-.451h-2.155l-1.2,1.17,2.25-.006.816-.451-.151-.091H662.7l.14-.121h1.6l.317.2-1.032.578h-4.482v1.453h-1.481v1.291h-1.313v3.506h1.313v1.294h1.481v1.453h4.482l1.032.58-.317.2h-1.6l-.14-.121h1.523l.151-.091-.816-.452-2.25,0,1.2,1.168h2.155l.708-.451Z" transform="translate(-644.476 -444.913)" fill="#2c0001" fill-rule="evenodd"/>
        <path id="Контур_281" data-name="Контур 281" d="M660.967,498.182v-1.105l1.721,1.105Zm0-5.887v1.1l1.721-1.1Zm9.324,5.887v-1.105l-1.719,1.105Zm0-5.887v1.1l-1.719-1.1Zm-8.109,4.638.789-.573h-1.579l.79.573Zm0-2.887h.789l-.789-.569-.79.569Zm2.213,2.213h1.184v.531H664.4v-.531Zm.317.081h.55v.37h-.55v-.37Zm1.066-.081h1.105v.531h-1.105v-.531Zm.258.081h.579v.37h-.579v-.37Zm.346,1.126h1.184v-.532h-1.184v.532Zm.317-.081h.549v-.371H666.7v.371Zm-1.662.081h1.184v-.532h-1.184v.532Zm.317-.081h.549v-.371h-.549v.371Zm.425.774h1.105v-.533h-1.105v.533Zm.258-.083h.579v-.368h-.579v.368Zm-1.641.083h1.184v-.533H664.4v.533Zm.317-.083h.55v-.368h-.55v.368Zm-.99-.611h1.184v-.532h-1.184v.532Zm.317-.081h.549v-.371h-.549v.371Zm.356-3.171h1.184v-.531H664.4v.531Zm.317-.077h.55v-.374h-.55v.374Zm1.066.077h1.105v-.531h-1.105v.531Zm.258-.077h.579v-.374h-.579v.374Zm.346-1.129h1.184v.533h-1.184v-.533Zm.317.08h.549v.371H666.7v-.371Zm-1.662-.08h1.184v.533h-1.184v-.533Zm.317.08h.549v.371h-.549v-.371Zm.425-.774h1.105v.537h-1.105v-.537Zm.258.085h.579v.368h-.579V492.4Zm-1.641-.085h1.184v.537H664.4v-.537Zm.317.085h.55v.368h-.55V492.4Zm-.99.609h1.184v.533h-1.184v-.533Zm.317.08h.549v.371h-.55v-.371Zm1.59,6.681,1.466-.851h3.8V497.37h1.543V496.1h1.244v-1.73h-1.244V493.1h-1.543v-1.546h-3.8l-1.466-.85-1.469.85h-3.8V493.1H658.82v1.27h-1.241v1.73h1.241v1.268h1.545v1.548h3.8l1.469.851Zm0,.274,1.5-.873h4.011v-1.557H672.6v-1.277h1.339v-2.2H672.6v-1.275h-1.462v-1.556h-4.011l-1.5-.871-1.5.871h-4.011v1.556h-1.462v1.275h-1.34v2.2h1.34v1.277h1.462v1.557h4.011l1.5.873Zm3.45-6h-.792l.792-.569.789.569Zm0,2.887-.792-.573h1.581l-.789.573Z" transform="translate(-644.736 -445.332)" fill="#eb2f31" fill-rule="evenodd"/>
        <path id="Контур_282" data-name="Контур 282" d="M665.439,499.891l1.52-.909h4.155v-1.561h1.466v-1.263h1.335v-2.552H672.58v-1.263h-1.466V490.78H666.96l-1.52-.908-1.52.908h-4.156v1.562H658.3v1.263h-1.333v2.552H658.3v1.263h1.466v1.561h4.156l1.52.909Zm0,.108.8.517h1.994l.887-.854h-1.826l-.372.208h1.6l-.484.44h-1.764l-.542-.351,1.268-.743H671.4v-1.448h1.47v-1.3h1.322v-3.179h-1.322v-1.3H671.4v-1.449h-4.408l-1.268-.741.542-.353h1.764l.484.442h-1.6l.372.207h1.826l-.887-.853h-1.994l-.8.514-.8-.514h-1.995l-.886.853h1.827l.372-.207h-1.6l.484-.442h1.764l.542.353-1.268.741h-4.409v1.449h-1.47v1.3h-1.322v3.179h1.322v1.3h1.47v1.448h4.409l1.268.743-.542.351h-1.764l-.484-.44h1.6l-.372-.208h-1.827l.886.854h1.995l.8-.517Zm-1.821-5.3h-.549v.37h.549v-.37Zm.4-.081h-1.184v.532h1.184v-.532Zm-1.081-.611h-.549v.368h.549v-.368Zm.317-.083h-1.184v.533h1.184v-.533Zm-1.353,0h-1.171v.533H661.9v-.533Zm-.3.083h-.579v.368h.579v-.368Zm-.277.611h-1.183v.532h1.183v-.532Zm-.286.081h-.549v.37h.549v-.37Zm1.243,0h-.549v.37h.549v-.37Zm.389-.081h-1.184v.532h1.184v-.532Zm-.773.674h-1.171v.533H661.9V495.3Zm-.3.083h-.579v.368h.579v-.368Zm1.649-.083h-1.184v.533h1.184V495.3Zm-.317.083h-.549v.368h.549v-.368Zm5,0h.552v.368h-.552v-.368Zm-.316-.083H668.8v.533h-1.181V495.3Zm1.647.083h.582v.368h-.582v-.368Zm-.295-.083h1.172v.533h-1.172V495.3Zm-.771-.674h1.182v.532H668.2v-.532Zm.386.081h.551v.37h-.551v-.37Zm1.245,0h.549v.37h-.549v-.37Zm-.289-.081h1.185v.532h-1.185v-.532Zm-.277-.611h.582v.368h-.582v-.368Zm-.295-.083h1.172v.533h-1.172v-.533Zm-1.352,0H668.8v.533h-1.181v-.533Zm.316.083h.552v.368h-.552v-.368Zm-1.081.611h1.182v.532h-1.182v-.532Zm.4.081h.549v.37h-.549v-.37Zm-1.82-.066-.789-.573h1.579l-.79.573Zm0-2.887h-.789l.789-.569.79.569Zm0,3.372-.789.573h1.579l-.79-.573Zm0,2.887h-.789l.789.573.79-.573Z" transform="translate(-644.546 -444.976)" fill="#ffef00" fill-rule="evenodd"/>
        <path id="Контур_283" data-name="Контур 283" d="M673.7,495.445l0,.679-1.279,0v1.277h-1.53v1.543h-3.664l-1.424.813-1.425-.813h-3.663v-1.543h-1.532v-1.277l-1.279,0v-1.358l1.279,0v-1.28h1.532V491.94h3.663l1.425-.813,1.424.813h3.664v1.543h1.53v1.28l1.279,0,0,.679Zm-3.064,3.123V497l-2.433,1.564Zm0-6.248v1.565l-2.433-1.565Zm-9.672,6.248V497l2.434,1.564Zm0-6.248v1.565l2.434-1.565Zm8.286,5.047-1.133-.82h-.28v-.684h-.773v-.841h.773v-.687h.28l1.133-.848,1.072.848h.369v.687h.557v.841H670.7v.684h-.369l-1.072.82Zm-6.9,0,1.133-.82h.276v-.684h.773v-.841h-.773v-.687h-.276l-1.133-.848-1.073.848h-.367v.687h-.559v.841h.559v.684h.367l1.073.82Zm3.448-1.875-1.133.82H664.4V497h-.652v.841h.652v.687h.276l1.133.818,1.134-.818h.276v-.687h.651V497h-.651v-.684h-.276l-1.134-.82Zm0-.093-1.133-.822H664.4v-.682h-.652v-.841h.652v-.688h.276l1.133-.816,1.134.816h.276v.688h.651v.841h-.651v.682h-.276l-1.134.822Z" transform="translate(-644.912 -445.54)" fill="#00a049" fill-rule="evenodd"/>
        <path id="Контур_284" data-name="Контур 284" d="M666,519.908h-2.292l-5.156-2.716V512.5l5.156-2.717h4.584l5.155,2.717v4.693l-5.155,2.716Z" transform="translate(-645.106 -451.137)" fill="#2c0001" fill-rule="evenodd"/>
        <path id="Контур_285" data-name="Контур 285" d="M663.792,519.836l-5.061-2.666v-4.54l5.061-2.668h4.523l5.059,2.668v4.54l-5.059,2.666Zm.067-.274L659,517v-4.21l4.855-2.559h4.387l4.855,2.559V517l-4.855,2.558Zm1.928-4.66-1.226.793h-.5V515.3h.346v-.224h-.557v.844h.721v.645h1.251v-.745h-.475v.216h.243v.318h-.8v-.505l1.248-.809,1.249.809v.505h-.8v-.318h.244v-.216h-.476v.745h1.251v-.645h.72v-.844h-.556v.224h.344v.391h-.495L666.3,514.9l1.228-.793h.495v.391h-.344v.224h.556v-.844h-.72v-.645h-1.251v.744h.476v-.216h-.244v-.318h.8v.505l-1.249.808-1.248-.806v-.507h.8v.318h-.243v.217h.475v-.748h-1.251v.647h-.721v.845h.557V514.5h-.346v-.394h.5l1.226.794Z" transform="translate(-645.16 -451.191)" fill="#00a049" fill-rule="evenodd"/>
        <path id="Контур_286" data-name="Контур 286" d="M666.279,511.664l.241.211V510.67h1.611l-1.14.8v.715l1.047.676v-1.364h.765V512l.476.008v-.515h.734l-.006,1.53-.728-.006v-.493H668.8v.5h-.491l.243.16h.933v1.83h3.641l-.011-1.941-4.771-2.535h-2.068v1.126Zm4,1.36h1.992V512.9l-1.992-1.063v1.186Zm0,1.877v-1.53h.764v.507l.477.008v-.515h.733l0,1.53-.728-.006V514.4h-.477v.5Zm-4.141,3.585-.24-.211v1.205h-1.61l1.137-.8v-.715l-1.046-.677v1.365h-.764v-.507l-.477-.008v.515h-.732l.006-1.53.726,0v.494h.477v-.5h.491l-.245-.16h-.932v-1.83h-3.642l.013,1.941,4.768,2.535h2.069v-1.126Zm-4-1.36h-1.994v.124l1.994,1.063v-1.186Zm0-1.877v1.53h-.766v-.507l-.475-.008v.515h-.733l0-1.53.728,0v.493h.475v-.5Z" transform="translate(-645.328 -451.364)" fill="#ffef00" fill-rule="evenodd"/>
        <path id="Контур_287" data-name="Контур 287" d="M666.279,518.486l.241-.211v1.205h1.611l-1.14-.8v-.715l1.047-.677v1.365h.765v-.507l.476-.008v.515h.734l-.006-1.53-.728,0v.494H668.8v-.5h-.491l.243-.16h.933v-1.83h3.641l-.011,1.941-4.771,2.535h-2.068v-1.126Zm4-1.36h1.992v.124l-1.992,1.063v-1.186Zm0-1.877v1.53h.764v-.507l.477-.008v.515h.733l0-1.53-.728,0v.493h-.477v-.5Zm-4.141-3.587-.24.211v-1.2h-1.61l1.137.8v.715l-1.046.676v-1.365h-.764V512l-.477.008v-.514h-.732l.006,1.531.726,0v-.494h.477v.5h.491l-.245.16h-.932v1.829h-3.642l.013-1.942,4.768-2.534h2.069v1.124Zm-4,1.362h-1.994V512.9l1.994-1.064v1.189Zm0,1.877V513.37h-.766v.507l-.475.008v-.514h-.733l0,1.532.728,0V514.4h.475v.5Z" transform="translate(-645.328 -451.364)" fill="#fff" fill-rule="evenodd"/>
        <path id="Контур_288" data-name="Контур 288" d="M670.312,518.64h-.439v-.52h-.783v.52h-.439v-1.255h.439v.537h.783v-.537h.439v1.255Zm2.236-1.865h-.439v-.52h-.783v.52h-.439v-1.255h.439v.536h.783v-.536h.439v1.255Zm-1.652.6h1.513l-1.513.773v-.773Zm-.584-5.612h-.439v.52h-.783v-.52h-.439v1.255h.439v-.537h.783v.537h.439v-1.255Zm2.236,1.865h-.439v.52h-.783v-.52h-.439v1.255h.439v-.536h.783v.536h.439V513.63Zm-1.652-.6h1.513l-1.513-.772v.772Zm-7.914,5.612h.441v-.52h.785v.52h.437v-1.255h-.437v.537h-.785v-.537h-.441v1.255Zm-2.235-1.865h.438v-.52h.783v.52h.442v-1.255h-.442v.536h-.783v-.536h-.438v1.255Zm1.652.6h-1.513l1.513.773v-.773Zm.583-5.613h.441v.524h.785v-.524h.437v1.256h-.437v-.535h-.785v.535h-.441v-1.256Zm-2.235,1.867h.438v.519h.783v-.519h.442v1.256h-.442v-.539h-.783v.539h-.438v-1.256Zm1.652-.6h-1.513l1.513-.772v.772Zm3.8,6.415v-1.308l.451.294.451-.294v1.308h.99l-.825-.558v-.853l1.679-1.089h.825v-3.479h-.825l-1.679-1.089v-.853l.825-.558h-.99v1.308l-.451-.293-.451.293v-1.305h-.991l.824.556v.852l-1.679,1.089h-.825v3.48h.825l1.679,1.089v.853l-.824.558Zm3.253-4.24v-1.512h-.569l-2.234-1.441-2.232,1.441h-.57v3.024h.57l2.232,1.44,2.234-1.44h.569V515.2Zm-2.8,2.737-1.412-.907h1.338v-1.077h-.633l.707-.456.706.456h-.631v1.077h1.336l-1.41.907Zm.86-1.886v.42h-.273v.056h.531v-.308l-.258-.168Zm-1.721,0v.42h.272v.056h-.531v-.308l.259-.168Zm1.721-1.7v-.42h-.273v-.056h.531v.308l-.258.168Zm-1.721,0v-.423h.272v-.055h-.531v.308l.259.17Zm3.5.849v1.38h-.526l-.477.306v-.519h.731V515.25h-.9v.484h.372v.118h-.316l-1.006-.65,1.006-.65h.316v.118h-.372v.484h.9v-1.117h-.731v-.519l.477.305h.526v1.38Zm-5.278,0v-1.38l.528,0,.475-.307v.52h-.732l0,1.116h.9v-.483h-.372l0-.119h.316l1.007.65-1.007.65h-.316l0-.118h.372v-.484h-.9l0,1.117h.732v.519l-.475-.306h-.528V515.2Zm2.639-.3-.707-.456h.633v-1.077h-1.338l1.412-.908,1.41.907h-1.336v1.076h.631l-.706.457Z" transform="translate(-645.765 -451.491)" fill="#eb2f31" fill-rule="evenodd"/>
        <path id="Контур_289" data-name="Контур 289" d="M665.236,440.32h2.485l2.543-1.429h1.259l1.443-.823v-1.428l1.5-.84v-2.634l-1.5-.84V430.9l-1.443-.824-1.259,0-2.543-1.431h-4.968l-2.547,1.431-1.255,0-1.446.824v1.429l-1.5.84V435.8l1.5.84v1.428l1.446.823h1.255l2.547,1.429Z" transform="translate(-644.343 -426.794)" fill="#2c0001" fill-rule="evenodd"/>
        <path id="Контур_290" data-name="Контур 290" d="M670.82,432.394l.466-.318h-.871v.085l.4.232Zm.287-1.324h-.7l-2.443-1.368h-1.294l.442.318,1.081,0,.848.488-.477.473-.486-.272h-.432l-.907.894.71.424.6-.4V430.8l.729.4.512-.335.547.338-.53.326.516.3.081-.048V430.9l.751.449.445-.276Zm-11.442,5.422h.8l.636-.378v-.479l-.727-.491h-.13v.71h-.745v.177h.694v.151l-.524.31Zm1.734,1.2h1.087l.321-.219H661.72l-.32.219Zm-.461-.381.187-.106v-.526l-.187.106v.526Zm-1.581.953.5-.335-.57-.349v-.056h.367l-.466-.323.511-.309-1.494-.86v-.324l-.843-.8h-.384v.78l1.543.892v1.44l.888.512h.372l-.423-.265Zm.587.265h.7l2.442,1.369h1.294l-.442-.318-1.082,0-.848-.488.477-.473.486.272h.432l.907-.893-.711-.424-.6.4v.834l-.729-.4-.512.335-.547-.338.53-.325-.516-.3-.081.048v.883l-.751-.449-.445.275Zm.287-1.324-.466.318h.871v-.085l-.405-.233Zm11.463-5.867-.5.335.57.349v.056H671.4l.465.323-.51.309,1.493.859v.324l.843.8h.384v-.78l-1.543-.891v-1.441l-.888-.512h-.372l.423.266Zm-.307,1.769h-.8l-.636.379v.478l.727.492h.13v-.71h.745v-.176h-.7v-.151l.524-.311Zm-1.274-.816-.186.106v.525l.186-.106v-.525Zm-.461-.381h-1.088l-.32.218h1.087l.321-.218Z" transform="translate(-644.633 -427.111)" fill="#ffef00" fill-rule="evenodd"/>
        <path id="Контур_291" data-name="Контур 291" d="M660.231,432.4l-.466-.318h.871v.085l-.405.233Zm-.287-1.324h.7l2.442-1.369h1.294l-.442.318-1.082,0-.848.488.477.474.486-.272h.432l.907.893-.711.424-.6-.4V430.8l-.729.4-.512-.335-.547.338.53.325-.516.3-.081-.048V430.9l-.751.449-.445-.275Zm-.587.265.5.335-.57.349v.056h.367l-.466.323.511.309-1.494.859v.325l-.843.8h-.384v-.78l1.543-.892v-1.44l.888-.512h.372l-.423.265Zm1.581.953.187.106v.526l-.187-.106v-.526Zm.461-.381h1.087l.321.218H661.72l-.32-.218Zm-1.734,1.2h.8l.636.378v.479l-.727.491h-.13v-.71h-.745v-.176h.694v-.151l-.524-.31Zm4.542.942.512-.318v.318Zm-1.042.646.71-.437v.437Zm2.36-3.974-.556-.445.556-.409.557.406-.557.448Zm2.36,3.972-.71-.437v.437Zm-1.042-.646-.512-.318v.318Zm-1.318-.458h.579l-.579-.358-.578.361.578,0Zm0-2.418,1.962,1.17,2.107.071,0,1.733.806.557h2.353l-.763-.775-.217.185h.281l0,.081-.422.416-1.027,0-.855-.587V432.3l-2.211-.026-1.843-1.1,0-.47.184-.162h.624v.281l.2-.208-1.182-.876-1.182.88.2.208v-.282h.625l.183.162,0,.47-1.842,1.1-2.21.025v1.735l-.855.587-1.027,0L659,434.2v-.081h.282l-.218-.185-.763.775h2.353l.806-.557,0-1.732,2.108-.072,1.961-1.173Zm0,7.7.557.445-.557.408-.556-.405.556-.448Zm2.36-3.975-.71.438V434.9Zm-1.042.646-.512.318v-.318Zm4.543.943h-.8l-.636-.378v-.479l.727-.492h.13v.71h.745v.176h-.7v.151l.524.311Zm-1.735,1.2h-1.088l-.32-.219h1.087l.321.219Zm.461-.381-.186-.106v-.525l.186.106v.526Zm1.581.952-.5-.335.57-.349v-.056H671.4l.465-.322-.51-.309,1.493-.86V435.7l.843-.8h.384v.78l-1.543.892v1.44l-.888.512h-.372l.423-.266Zm-.587.266h-.7l-2.443,1.368h-1.294l.442-.317,1.081,0,.848-.488-.477-.473-.486.272h-.432l-.907-.894.71-.424.6.4v.834l.729-.405.512.335.547-.338-.53-.325.516-.3.081.048v.883l.751-.449.445.276Zm-.287-1.324.466.318h-.871v-.085l.4-.233Zm-7.654-2.3.71.437v-.437Zm1.042.646.512.318v-.318Zm1.318.817-.578-.358H666.1l-.579.361Zm0,2.059-1.961-1.171-2.108-.071,0-1.732-.806-.557H658.3l.763.775.218-.185H659l0-.081.421-.416,1.027,0,.855.587v1.735l2.21.025,1.842,1.1,0,.47-.183.162h-.625v-.282l-.2.208,1.182.877,1.182-.88-.2-.208v.281h-.624l-.184-.162,0-.471,1.843-1.1,2.211-.026v-1.734l.855-.587,1.027,0,.426.416v.081h-.281l.217.185.763-.776H670.4l-.806.557,0,1.733-2.107.071-1.962,1.174Z" transform="translate(-644.633 -427.112)" fill="#fff" fill-rule="evenodd"/>
        <path id="Контур_292" data-name="Контур 292" d="M664.218,435.568l.258.16-.627.372v.652l-1.079-.659h.789l.66-.524Zm-1.289.832-.356.24.223.125.362-.237-.229-.128Zm2.878,3.137-.312-.211.312-.24.311.237-.311.215Zm-1.044-1.456-1,.979h-.508l-.435-.247-.23.234.62.358h1.06l.679.491h.62l-1.17-.9.569-.573v.487h.384l.13-.085v-.309l-.717-.433Zm-2.59.074-.353.231.223.141.355-.243-.225-.129Zm1.2-.687h.232l.06.016-.582.382v.629l-1.143-.643h.848l.585-.383Zm-2.027,0h.3l-.432.242v.647l-1.089-.674h.8l.416-.216Zm-1.056.54-.356.241.223.125.362-.237-.229-.129Zm-.16-1.021-.346.237.2.137.375-.241-.231-.132Zm1.268-.7v.2l-.331.2v.654l-1.087-.656h.761l.657-.391Zm-3.486-1.381.773.757v.311l.141.046.741.431.486-.262h-.44v-.468h.7l0-.577h-.508l-.171.172h.323l-.637.6-.986-1.014Zm15.78,0-.773.754v.311l-.14.048-.741.429-.486-.26H672v-.467h-.7l0-.579h.508l.171.171h-.323l.638.6.986-1.011Zm-3.485,1.38v.194l.33.2v.655l1.087-.655h-.76l-.657-.391Zm1.268.7.346.239-.2.137-.375-.242.231-.133Zm-.159,1.025.355.239-.223.126-.361-.239.229-.126Zm-1.056-.542h-.3l.433.242v.65l1.088-.674h-.8l-.416-.218Zm-2.027,0h-.232l-.06.015.582.382v.629l1.143-.641h-.849l-.585-.385Zm1.2.686.353.233-.223.138-.356-.24.225-.131Zm-2.179-3.247v.451h-.813v.484h-.529V434.9Zm3.07,0-.625.453v1.681h-1.884l-1.88,1.1,0-1.659,1.034-.645.62.368v.862l.726-.438.509.326.519-.314-.479-.347.61-.377h-1.352l-.535-.465.874-.545Zm-3.481,3.178,1,.979h.508l.435-.249.23.235-.62.358h-1.06l-.679.492h-.621l1.17-.9-.568-.572v.487h-.384l-.131-.086v-.309l.717-.432Zm-8.934-3.382.773-.753v-.311l.141-.048.741-.429.486.261h-.44v.467h.7l0,.579h-.508l-.171-.171h.323l-.637-.6-.986,1.011Zm3.486-1.38v-.194l-.331-.2v-.654l-1.087.654h.761l.657.391Zm-1.268-.7-.346-.238.2-.137.375.243-.231.132Zm.16-1.024-.356-.239.223-.126.362.238-.229.127Zm1.056.542h.3l-.432-.243v-.649l-1.089.674h.8l.416.218Zm2.027,0h.232l.06-.015-.582-.382v-.629l-1.143.641h.848l.585.385Zm-1.2-.687-.353-.232.223-.138.355.239-.225.131Zm2.179,3.247v-.451h.813v-.484h.529v.935Zm-3.07,0,.625-.452v-1.681h1.884l1.88-1.1,0,1.658-1.033.645-.62-.367v-.862l-.725.438-.509-.326-.519.315.479.347-.61.377h1.352l.535.464-.874.545Zm3.481-3.177-1-.979h-.508l-.435.248-.23-.235.62-.358h1.06l.679-.491h.62l-1.17.9.569.572v-.488h.384l.13.087v.309l-.717.433Zm1.044-1.007-.312-.237.312-.215.311.211-.311.24Zm1.59,3.517-.258-.16.628-.372v-.652l1.079.659h-.79l-.659.525Zm1.289-.832.355-.24-.223-.125-.361.237.229.129Zm-1.835-1.681,1-.978h.508l.435.247.23-.235-.62-.358h-1.06l-.679-.491h-.621l1.17.9-.568.573v-.488h-.384l-.131.085v.309l.717.433Zm2.59-.074.353-.23-.223-.141-.356.243.225.129Zm-1.2.687h-.232l-.06-.015.582-.382v-.629l1.143.643h-.849l-.585.382Zm2.027,0h-.3l.433-.242v-.648l1.088.674h-.8l-.416.216Zm1.056-.54.355-.24-.223-.125-.361.237.229.129Zm.159,1.022.346-.237-.2-.137-.375.242.231.132Zm-1.268.7v-.2l.33-.2v-.655l1.087.657h-.76l-.657.391Zm3.485,1.381-.773-.757v-.31l-.14-.046-.741-.431-.486.262H672v.468h-.7l0,.577h.508l.171-.172h-.323l.638-.6.986,1.014Z" transform="translate(-644.916 -427.111)" fill="#eb2f31" fill-rule="evenodd"/>
        <path id="Контур_293" data-name="Контур 293" d="M660.79,434.672l.625.451v1.683H663.3l1.88,1.1,0-1.656-1.033-.647-.62.372v.861l-.725-.441-.509.329-.519-.316.479-.345-.61-.38H663l.535-.463-.874-.545Zm3.07,0v.454h.813v.484h.529v-.938Zm4.333,1.492.355.241-.223.125-.361-.237.229-.129Zm-1.289-.831-.258.16.628.372v.652l1.079-.659h-.79l-.659-.524Zm-1.59,4.872H667.8l2.5-1.4h1.226l1.3-.728v-1.428l1.529-.859v-2.437l-1.529-.859v-1.428l-1.3-.728-1.226,0-2.5-1.406h-4.968l-2.5,1.406-1.226,0-1.3.728v1.428l-1.529.859v2.437l1.529.859v1.428l1.3.728h1.226l2.5,1.4Zm0-.387h2.524l2.365-1.337h1.231l1.1-.619v-1.422l1.537-.878v-1.987l-1.537-.881v-1.419l-1.1-.62H670.2l-2.365-1.336h-5.05l-2.365,1.336H659.2l-1.093.62V432.7l-1.546.881v1.987l1.546.878v1.422l1.093.619h1.226l2.365,1.337Zm4.524-5.355-.625-.451V432.33H667.33l-1.88-1.1,0,1.657,1.034.646.619-.371v-.861l.726.44.509-.328.519.316-.479.345.61.38h-1.352l-.535.462.874.545Zm-3.07,0v-.454h-.813v-.484h-.529v.938Zm-4.333-1.492-.356-.24.223-.125.362.237-.229.128Zm1.289.832.258-.16-.627-.372v-.652l-1.079.659h.789l.66.524Z" transform="translate(-644.423 -426.88)" fill="#00a049" fill-rule="evenodd"/>
        <path id="Контур_294" data-name="Контур 294" d="M665.577,459.725h2.308v-.8h2.129v-.711h1.9V457.4h2.092V450.7h-2.092v-.8h-1.9v-.714h-2.129v-.8H663.27v.8h-2.131v.714h-1.9v.8h-2.093V457.4h2.093v.807h1.9v.711h2.131v.8Z" transform="translate(-644.685 -432.713)" fill="#2c0001" fill-rule="evenodd"/>
        <path id="Контур_295" data-name="Контур 295" d="M659.243,453.777l-.327-.337v-.226l.206.176.121-.262.119.262.206-.176v.226l-.325.337Zm4.17-.773.676-.668-.088-.142-.091-.015.053.112-.476.444v-.9l.25-.162-.323-.235-.323.235.25.162v.9l-.477-.444.052-.112-.091.015-.085.142.673.668Zm-2.06.7.676-.669-.088-.145-.091-.012.052.112-.477.44v-.892l.251-.162-.323-.238-.324.238.25.162v.892l-.477-.44.053-.112-.091.012-.085.145.673.669Zm4.756-2.486-.239-.185.239-.125.237.125-.237.185Zm-2.117,3.592-.426-.311-.468.311.468.311.426-.311Zm-4.749,1.032-.327.339v.225l.206-.175.121.26.119-.26.206.175v-.225l-.325-.339Zm4.17.771.676.671-.088.143-.091.013.053-.113-.476-.442v.895l.25.162-.323.237-.323-.237.25-.162v-.895l-.477.442.052.113-.091-.013-.085-.143.673-.671Zm-2.06-.7.676.671-.088.143-.091.014.052-.113-.477-.442v.9l.251.162-.323.237-.324-.237.25-.162v-.9l-.477.442.053.113-.091-.014-.085-.143.673-.671Zm4.756,2.794-.239-.124.239-.183.237.183-.237.124Zm6.865-4.933.325-.337v-.226l-.205.176-.121-.262-.12.262-.2-.176v.226l.326.337ZM668.8,453l-.676-.668.088-.142.091-.015-.052.112.475.444v-.9l-.249-.162.323-.235.323.235-.249.162v.9l.475-.444-.052-.112.09.015.087.142L668.8,453Zm2.06.7-.677-.669.089-.145.091-.012-.053.112.476.44v-.892l-.249-.162.323-.238.323.238-.249.162v.892l.475-.44-.052-.112.09.012.087.145-.674.669Zm-2.639,1.106.426-.311.467.311-.467.311-.426-.311Zm4.749,1.032.325.339v.225l-.205-.175-.121.26-.12-.26-.2.175v-.225l.326-.339Zm-4.17.771-.676.671.088.143.091.013-.052-.113.475-.442v.895l-.249.162.323.237.323-.237-.249-.162v-.895l.475.442-.052.113.09-.013.087-.143-.675-.671Zm2.06-.7-.677.671.089.143.091.014-.053-.113.476-.442v.9l-.249.162.323.237.323-.237-.249-.162v-.9l.475.442-.052.113.09-.014.087-.143-.674-.671Z" transform="translate(-645.216 -433.473)" fill="#fff" fill-rule="evenodd"/>
        <path id="Контур_296" data-name="Контур 296" d="M665.864,452.207h-.633l.2-.24-.69-.453.734-.425v.486h.185v-.65l-.575-.377.782-.445.781.445-.573.377v.65h.184v-.486l.736.425-.693.453.2.24Zm0-2.381-.923-.58h1.846l-.923.58Zm-7.427,1.716v.3l-.335-.3Zm.523.314-.318-.314h.636l-.318.314Zm.524-.314v.3l.335-.3Zm.982-.8v.3l-.336-.3Zm.552.388-.376-.388h.753l-.377.388Zm.553-.388v.3l.335-.3Zm.955-.7v.3l-.335-.3Zm.552.389-.377-.389h.753l-.376.389Zm.55-.389v.3l.337-.3Zm1.169-.219v-.58H664.2l.594.58Zm1.067,4.7-.276-.217.276-.217.277.217-.277.217Zm0,3.991-.782-.447.575-.375v-.649h-.185v.487l-.734-.427.69-.453-.2-.239h1.263l-.2.239.693.453-.736.427v-.487h-.184v.649l.573.375-.781.447Zm0-2.453h-1.616l-1.708-1.107v-.246h-2.146v-.8h2.146v-.245l1.708-1.108h3.231l1.707,1.108v.245h2.148v.8h-2.148v.246l-1.707,1.107Zm0,.17h-1.64l-2.04-1.329h-2.745l0-.332H658.6v-.527h.846l0-.334h2.745l2.04-1.327h3.28l2.038,1.327h2.749l0,.334h.846v.527h-.846l0,.332h-2.749l-2.038,1.329Zm0,3.141h-.923l.923-.582.923.582Zm-7.427-2.3v-.3l-.335.3Zm.523-.313-.318.313h.636l-.318-.313Zm.524.313v-.3l.335.3Zm.982.8v-.3l-.336.3Zm.552-.389-.376.389h.753l-.377-.389Zm.553.389v-.3l.335.3Zm.955.7v-.3l-.335.3Zm.552-.389-.377.389h.753l-.376-.389Zm.55.389v-.3l.337.3Zm1.169.218v.582H664.2l.594-.582Zm1.067-7.875-.538-.373.538-.283.538.283-.538.373Zm0,7.438-.538-.284.538-.372.538.372-.538.284Zm7.427-6.818v.3l.335-.3Zm-.524.314.318-.314h-.635l.317.314Zm-.521-.314v.3l-.337-.3Zm-.984-.8v.3l.335-.3Zm-.552.388.377-.388h-.752l.375.388Zm-.552-.388v.3l-.337-.3Zm-.956-.7v.3l.336-.3Zm-.552.389.376-.389h-.752l.376.389Zm-.552-.389v.3l-.337-.3Zm-1.168-.219v-.58h.594l-.594.58Zm6.361,7.257v-.3l.335.3Zm-.524-.313.318.313h-.635l.317-.313Zm-.521.313v-.3l-.337.3Zm-.984.8v-.3l.335.3Zm-.552-.389.377.389h-.752l.375-.389Zm-.552.389v-.3l-.337.3Zm-.956.7v-.3l.336.3Zm-.552-.389.376.389h-.752l.376-.389Zm-.552.389v-.3l-.337.3Zm-1.168.218v.582h.594l-.594-.582Z" transform="translate(-644.971 -432.974)" fill="#eb2f31" fill-rule="evenodd"/>
        <path id="Контур_297" data-name="Контур 297" d="M662.08,455.56v3.064l.438-.37v.458l.37-.389.44.417v-.464l.592.6V456.75l-1.84-1.19Zm.9.723.8.774v.23l-.42.335.073-.206-.212-.318v.481l.317.284-.555.365-.556-.365.318-.284V457.1l-.211.318.073.206-.421-.335v-.23l.8-.774Zm-4.732-1.6v.457h.829v.3h.7v1.94l-.611-.582v.485l-.349-.4-.395.375v-.515l-.555.547v-2.264h-.391v-.682h.391v-2.264l.555.545v-.514l.395.376.349-.4v.485l.611-.581v1.938h-.7v.3h-.829v.46Zm.562.814-.445.462v.671l.282-.24.162.349.161-.349.282.24v-.671l-.443-.462Zm4.954-.814-.631.47-.715-.47.715-.47.631.47Zm1.911.415-.55-.415.55-.414.551.414-.551.415Zm0,.173-.779-.588.779-.587.779.587-.779.588Zm0,.646-.312.211h-.793l.658-.511-.826-.575-.463.372.152.083.253-.174.534.248-.79.483-1.084-.62.958-.752-.958-.752,1.084-.62.79.482-.534.251-.253-.173-.152.081.463.372.826-.575-.658-.512h.793l.312.212.312-.212h.794l-.658.512.822.575.465-.372-.151-.081-.254.173-.535-.251.792-.482,1.084.62-.958.752.958.752-1.084.62-.792-.483.535-.248.254.174.151-.083-.465-.372-.822.575.658.511h-.794l-.312-.211Zm0,.333H664.1l-1.576-1.034V454.9h-2.145v-.428h2.145v-.318l1.576-1.035h3.157l1.574,1.035v.318h2.147v.428h-2.147v.319l-1.574,1.034Zm-3.6-2.442v-3.064l.438.372v-.46l.37.388.44-.414v.461l.592-.6v2.127l-1.84,1.192Zm.9-.723.8-.773v-.23l-.42-.334.073.2-.212.319v-.483l.317-.283-.555-.365-.556.365.318.283v.483l-.211-.319.073-.2-.421.334v.23l.8.773Zm-4.17.785-.445-.462v-.671l.282.237.162-.349.161.349.282-.237v.671l-.443.462Zm10.46,1.688v3.064l-.437-.37v.458l-.371-.389-.443.417v-.464l-.589.6V456.75l1.84-1.19Zm-.9.723-.8.774v.23l.42.335-.073-.206.212-.318v.481l-.318.284.556.365.555-.365-.317-.284V457.1l.211.318-.072.206.42-.335v-.23l-.8-.774Zm4.735-1.6v.457h-.834v.3h-.694v1.94l.61-.582v.485l.351-.4.392.375v-.515l.557.547v-2.264h.388v-.682h-.388v-2.264l-.557.545v-.514l-.392.376-.351-.4v.485l-.61-.581v1.938h.694v.3h.834v.46Zm-.564.814.443.462v.671l-.281-.24-.162.349-.162-.349-.281.24v-.671l.443-.462Zm-4.956-.814.633.47.713-.47-.713-.47-.633.47Zm1.686-.875v-3.064l-.437.372v-.46l-.371.388-.443-.414v.461l-.589-.6v2.127l1.84,1.192Zm-.9-.723-.8-.773v-.23l.42-.334-.073.2.212.319v-.483l-.318-.283.556-.365.555.365-.317.283v.483l.211-.319-.072-.2.42.334v.23l-.8.773Zm4.17.785.443-.462v-.671l-.281.237-.162-.349-.162.349-.281-.237v.671l.443.462Z" transform="translate(-644.782 -433.348)" fill="#00a049" fill-rule="evenodd"/>
        <path id="Контур_298" data-name="Контур 298" d="M671.381,454.884v2.6l-.508-.483v.458l-.37-.389-.443.417v-.463l-.631.6v-2.738Zm-.97.142-.8.775v.229l.42.336-.073-.207.211-.318v.481l-.317.284.556.365.554-.365-.316-.284v-.481l.21.318-.071.207.419-.336V455.8l-.8-.775Zm-4.755,4.6h2.126v-.8h2.129v-.71h1.9V457.3H673.9v-2.662h-.27v2.409h-2.092v.808h-2.11v.71h-1.982v.8h-3.587v-.8h-1.984v-.71h-2.111v-.808h-2.089v-2.409h-.271V457.3H659.5v.808h1.9v.71h2.131v.8Zm0-6.517.366-.279h.253l-.447.367,1.081.8.784-.632-.459-.241-.249.164-.174-.072.413-.263.794.451-.9.721.9.719-.794.455-.413-.265.174-.072.249.167.459-.243-.784-.631-1.081.8.447.369h-.253l-.366-.281-.367.281h-.253l.447-.369-1.079-.8-.785.631.459.243.25-.167.173.072-.414.265-.793-.455.9-.719-.9-.721.793-.451.414.263-.173.072-.25-.164-.459.241.785.632,1.079-.8-.447-.367h.253l.367.279Zm0,.214,1.1.806-1.1.8-1.105-.8,1.105-.806Zm.112-3.538.813-.534V450l.661-.613v2.652H666.5l-.178-.2.707-.495-.887-.566.575-.426-.949-.562Zm5.613,3.585v-2.595l-.508.484V450.8l-.37.39-.443-.417v.463l-.631-.6v2.735Zm-.97-.139-.8-.776v-.23l.42-.335-.073.207.211.32v-.482l-.317-.286.556-.364.554.364-.316.286v.482l.21-.32-.071-.207.419.335v.23l-.8.776Zm-4.755-4.6h2.126v.8h2.129v.711h1.9v.807H673.9v2.663h-.27v-2.409h-2.092V450.4h-2.11v-.709h-1.982v-.8h-1.793v-.254Zm-5.726,6.254v2.6l.51-.483v.458l.369-.389.444.417v-.463l.629.6v-2.738Zm.97.142.8.775v.229l-.42.336.073-.207-.211-.318v.481l.317.284-.555.365-.556-.365.318-.284v-.481l-.209.318.071.207-.42-.336V455.8l.8-.775Zm4.644-5.243-.815-.534V450l-.661-.613v2.652h.744l.176-.2-.706-.495.888-.566-.576-.426.95-.562Zm-5.614,3.585v-2.595l.51.484V450.8l.369.39.444-.417v.463l.629-.6v2.735Zm.97-.139.8-.776v-.23l-.42-.335.073.207-.211.32v-.482l.317-.286-.555-.364-.556.364.318.286v.482l-.209-.32.071-.207-.42.335v.23l.8.776Zm4.756-4.6h-2.125v.8H661.4v.711h-1.9v.807h-2.093v2.663h.271v-2.409h2.089V450.4h2.111v-.709h1.984v-.8h1.793v-.254Zm-.111,9.841-.815.534v-.748l-.661.612v-2.654h.744l.176.207-.706.493.888.568-.576.426.95.561Zm.223,0,.813.534v-.748l.661.612v-2.654H666.5l-.178.207.707.493-.887.568.575.426-.949.561Z" transform="translate(-644.763 -432.79)" fill="#ffef00" fill-rule="evenodd"/>
        <path id="Контур_299" data-name="Контур 299" d="M665.358,479.748l-.364.257-.421-.257v-.361l.22-.122-.388-.312-.38.312.2.122v.361l-.458.257-.322-.341-.4.341-.433-.257v-.393l.168-.09-.422-.382h-1.688v.673h-.735v-.478h-.487v-.745h.64V477.8h-1.161v.674H658.2V478h-.49v-.745h.695v-.434l-.764-.563-.344.3h-.379l-.5-.412.3-.247-.3-.277.5-.385h.384l.344.307.683-.526-.683-.541-.344.329h-.388l-.475-.39.316-.319-.316-.319.475-.388h.388l.344.327.683-.542-.683-.523-.344.3h-.384l-.5-.383.3-.276-.3-.25.5-.408h.379l.344.3.764-.563v-.433h-.695V470.2h.49v-.478h.734v.677h1.161v-.533h-.64v-.744h.487v-.478h.735v.671h1.688l.422-.379-.168-.091v-.393l.433-.256.4.34.322-.34.458.256v.361l-.2.123.38.311.388-.311-.22-.123v-.361l.421-.256.364.256.363-.256.423.256v.361l-.219.123.385.311.382-.311-.207-.123v-.361l.459-.256.323.34.4-.34.435.256v.393l-.17.091.422.379h1.688v-.671h.735v.478h.489v.744h-.641v.533h1.161v-.677h.735v.478h.489v.747h-.693v.433l.765.563.343-.3h.378l.5.408-.3.25.3.276-.5.383h-.384l-.343-.3-.685.523.685.542.343-.327h.388l.476.388-.318.319.318.319-.476.39h-.388l-.343-.329-.685.541.685.526.343-.307h.384l.5.385-.3.277.3.247-.5.412h-.378l-.343-.3-.765.563v.434h.693V478h-.489v.478h-.735V477.8h-1.161v.529h.641v.745h-.489v.478h-.735v-.673h-1.688l-.422.382.17.09v.393l-.435.257-.4-.341-.323.341-.459-.257v-.361l.207-.122-.382-.312-.385.312.219.122v.361l-.423.257-.363-.257Z" transform="translate(-644.465 -438.66)" fill="#2c0001"/>
        <path id="Контур_300" data-name="Контур 300" d="M659.131,474.523v.246l-.319-.246.319-.244v.244Zm-.282,1.8.273.215v-.43l-.273.215Zm7.228,3.118-.138-.134h.277l-.139.134Zm-1.917,0-.156-.134h.313l-.157.134Zm1.917-2.9-.231-.144-.419.281v.426l.063.047-.172.089-.181-.091.064-.047v-.424l-.433-.3-.268.3-.34-.288-.377.288v.413l.115.069-.517.344-1.249-.97.349-.125v.194h.467l.19-.365-.19-.28.19-.279-.19-.34h-.467v.237l-.421-.183v-.179l.211-.082.21-.083v.215h.467l.19-.332-.127-.41.127-.409-.19-.332h-.467V474l-.21-.084-.211-.077v-.181l.421-.186v.239h.467l.19-.342-.19-.277.19-.279-.19-.371h-.467v.2l-.349-.127,1.249-.968.517.343-.115.066v.419l.377.286.34-.286.268.3.433-.3v-.428l-.064-.045.181-.091.172.091-.063.045v.428l.419.28.231-.146.232.146.419-.28v-.428l-.065-.045.173-.091.178.091-.061.045v.428l.433.3.269-.3.338.286.375-.286v-.419l-.113-.066.52-.343,1.245.968-.349.127v-.2h-.464l-.191.371.191.279-.191.277.191.342h.464v-.239l.424.186v.181l-.212.077-.212.084v-.214h-.464l-.191.332.128.409-.128.41.191.332h.464v-.215l.212.083.212.082v.179l-.424.183v-.237h-.464l-.191.34.191.279-.191.28.191.365h.464v-.194l.349.125-1.245.97-.52-.344.113-.069v-.413l-.375-.288-.338.288-.269-.3-.433.3v.424l.061.047-.178.091-.173-.089.065-.047v-.426l-.419-.281-.232.144Zm0,1.435h-2.663l-1.649-1.259V472.33l1.649-1.261h5.325l1.649,1.261v4.389l-1.649,1.259Zm0-.136h-2.6l-1.571-1.221,0-2.1,0-2.1,1.571-1.222h5.2l1.573,1.222v4.195l-1.573,1.221Zm2.067-3.319v.49h-.631v.5h-.507v.487h-1.859v-.487h-.5v-.5h-.633v-.98h.633v-.5h.5v-.488h1.859v.488h.507v.5h.631v.49Zm-2.774.1v.3l.614.307v-.6Zm-6.521-1.9.273-.214v.427l-.273-.213Zm7.228-3.118-.138.132h.277l-.139-.132Zm-1.917,0-.156.132h.313l-.157-.132Zm1.21,4.812v-.3l.614-.3v.6Zm7.653.106v.246l.318-.246-.318-.244v.244Zm.284,1.8-.275.215v-.43l.275.215Zm-5.313,3.118.155-.134h-.312l.156.134Zm-1.211-4.813v.3l-.613.307v-.6Zm6.524-1.9-.275-.214v.427l.275-.213Zm-5.313-3.118.155.132h-.312l.156-.132Zm-1.211,4.812v-.3l-.613-.3v.6Z" transform="translate(-645.184 -439.083)" fill="#eb2f31" fill-rule="evenodd"/>
        <path id="Контур_301" data-name="Контур 301" d="M671.7,474.979V472.7l-.573-.44h.709V477.7h-.709l.573-.436v-2.28Zm-.86-3.473v.54l-.707-.54Zm-1.969-.381-.276.222h.552l-.276-.222Zm-.849,0-.276.222h.552l-.276-.222Zm-.812.222h.277l-.277-.222-.277.222Zm0,.685.435-.205h-.868l.433.205Zm1.518.123-.435-.328h.87l-.435.328Zm2.393,2.825.108-.129v.258l-.108-.129Zm-.068-1.438.176.129v-.258l-.176.13Zm-.214,4.914v-.54l-.707.54Zm-1.969.381-.276-.223h.552l-.276.223Zm-.849,0-.276-.223h.552l-.276.223Zm-.812,0,.277-.223h-.554l.277.223Zm0-.7h.435l-.435-.2-.433.2Zm1.518-.329-.435.329h.87l-.435-.329Zm2.325-1.388.176-.129v.258l-.176-.13Zm-8.333-1.437V472.7l.575-.44h-.71V477.7h.71l-.575-.436v-2.28Zm.86-3.473v.54l.708-.54Zm1.968-.381.276.222h-.55l.274-.222Zm.848,0,.278.222h-.551l.273-.222Zm-.706,1.03.436-.328h-.871l.435.328Zm-2.392,2.825-.106-.129v.258l.106-.129Zm.069-1.438-.175.129v-.258l.175.13Zm.214,4.914v-.54l.708.54Zm1.968.381.276-.223h-.55l.274.223Zm.848,0,.278-.223h-.551l.273.223Zm-.706-1.031.436.329h-.871l.435-.329Zm-2.324-1.388-.175-.129v.258l.175-.13Z" transform="translate(-646.316 -439.539)" fill="#fff" fill-rule="evenodd"/>
        <path id="Контур_302" data-name="Контур 302" d="M670.858,478.7h-1.184l1.184-.869v.869Zm1.676-1.03h-1.454l1.454-1.066v1.066Zm-1.452-1.311v.358h.658l.314-.358-.314-.358h-.658v.358Zm0-1.692V474.3h.658l.314.359-.314.358h-.658v-.358Zm0-1.695v-.355h.658l.314.355-.314.361h-.658v-.361Zm1.452-1.308h-1.454l1.454,1.067V471.66Zm-1.676-1.027h-1.184l1.184.867v-.867Zm-4.576,8.622h5.077v-1.081h1.71v-7.023h-1.71V470.07H661.205v1.081h-1.71v7.023h1.71v1.081Zm0-.373h4.74v-1.04h1.669v-6.36h-1.669v-1.038h-9.48v1.038h-1.67v6.36h1.67v1.04Zm-4.574-.187h1.182l-1.182-.869v.869Zm-1.676-1.03h1.453l-1.453-1.066v1.066Zm1.45-1.311v.358h-.656l-.316-.358.316-.358h.656v.358Zm0-1.692V474.3h-.656l-.316.359.316.358h.656v-.358Zm0-1.695v-.355h-.656l-.316.355.316.361h.656v-.361Zm-1.45-1.308h1.453l-1.453,1.067V471.66Zm1.676-1.027h1.182l-1.182.867v-.867Zm2.681,4.336h.64l0,.511h.478l0,.481h.682v-.383l-.781-.4v-.4h-1.025v.2Zm3.785,0h-.64l0,.511h-.477l0,.481h-.682v-.383l.782-.4v-.4h1.026l0,.2Zm0-.612h-.64l0-.511h-.477l0-.481h-.682v.383l.782.4v.4h1.026l0-.2Zm-3.785,0h.64l0-.511h.478l0-.481h.682v.383l-.781.4v.4h-1.025v-.2Z" transform="translate(-645.389 -439.222)" fill="#ffef00" fill-rule="evenodd"/>
        <path id="Контур_303" data-name="Контур 303" d="M668.895,474.19l.593.3v.2l-.6-.257v.331h-.209l-.113-.164.143-.405-.143-.405.113-.164h.209v.331l.6-.257v.2l-.593.3Zm-.119,1.437-.181.28.119.173h.178v-.349l.6.255v-.149l-.486-.21.486-.209v-.148l-.6.252v-.348h-.178l-.119.173.181.279Zm-3.307,1.315.788.4.789-.521.739.521h.269l-.98-.694h.531v-.223l-.243-.154-.317.321-.317-.321-.243.154,0,.223h.529l-.762.468-.618-.33.052-.137h.3v-.223l-.315-.148-.2.164-.2-.164-.313.148v.223h.295l.055.137-.622.33-.761-.468h.53l0-.223-.244-.154-.316.321-.316-.321-.244.154v.223h.533l-.981.694h.268l.74-.521.788.521.789-.4Zm.406,1.023-.352.258h.7l-.352-.258Zm.83,0-.352.258h.7l-.353-.258Zm1.879.258H667.2l.526-.4h1.4l-.542.4Zm.675-1.13h.868l-.868.645v-.645Zm1.008-2.048v.358h.658l.314-.358-.314-.357h-.658v.357Zm1.452-.855v1.737l-1.452,1.063v-.617H671l.5-.491-.389-.426.41-.412-.41-.435.373-.42-.373-.42.41-.435-.41-.412.389-.426-.5-.491h-.73v-.617l1.452,1.063v1.737Zm2.1,0,.321.318-.238.185h-.37l-.343-.349-.764.61v-.325l.57-.44-.57-.44v-.325l.764.61.343-.349h.37l.238.185-.321.318Zm-1.394,1.116v.273l.554.412-.554.458v.266l.764-.593.44.361h.243l.265-.222-.3-.271.313-.277-.278-.2h-.29l-.4.367-.764-.575Zm.5,2.234v.374h-.468v.484l-.4,0v-.533h.393v-.324Zm-7.458,2.085.357.258.252-.129v-.185l-.326-.214.451-.382h-.36l-.374.325-.373-.325h-.361l.452.382-.326.214v.185l.25.129.358-.258Zm1.187-.65h.354l.368.382.407-.382h.409l-.436.382.3.214v.168l-.252.146-.425-.37-.355.37-.257-.146v-.167l.308-.214-.418-.382Zm4.527-.355v.375h-.468v.487l-.4-.006v-.533h.393v-.323Zm-8.958-4.429.141.405-.111.164h-.209v-.331l-.6.257v-.2l.591-.3-.591-.3v-.2l.6.259v-.33h.209l.111.162-.141.406Zm-.062,1.437.179.28-.117.173h-.178v-.349l-.6.255v-.149l.485-.21-.485-.209v-.148l.6.252v-.348h.178l.117.173-.179.279Zm2.9,2.338.351.258h-.7l.352-.258Zm-.831,0,.352.258h-.7l.352-.258Zm-1.877.258h1.381l-.524-.4h-1.4l.542.4Zm-.678-1.13h-.866l.866.645v-.645Zm-1.008-2.048v.358h-.656l-.316-.358.316-.357h.656v.357Zm-1.21-.855.372.42-.409.435.409.412-.387.426.5.491h.729v.617l-1.451-1.063v-3.473l1.451-1.063v.617h-.729l-.5.491.387.424-.409.411.409.435-.372.421Zm-1.517,0,.571.44v.325l-.764-.61-.344.349h-.37l-.239-.185.321-.318-.321-.318.239-.184h.37l.344.349.764-.61v.325l-.571.44Zm.571,1.116v.273l-.553.412.553.458v.266l-.764-.593-.44.361h-.247l-.262-.222.3-.271-.313-.277.277-.2h.291l.4.367.764-.575Zm-.5,2.234v.374h.465v.484l.4,0v-.533h-.391v-.324Zm6.27,1.434h-.354l-.367.382-.409-.382h-.41l.437.382-.295.214v.168l.253.146.424-.37.352.37.26-.146v-.167l-.311-.214.421-.382Zm-4.528-.355v.375h.466v.487l.4-.006v-.533h-.391v-.323Zm2.409-5.867.179-.276-.117-.175h-.178v.349l-.6-.255v.151l.485.207-.485.211v.148l.6-.253v.349h.178l.117-.174-.179-.28Zm3.306-.815-.2.166-.313-.151v-.223h.295l.055-.135-.622-.331-.761.47.53,0,0,.223-.244.157-.316-.323-.316.323-.244-.157v-.223l.533,0-.981-.7h.268l.74.519.788-.519.789.4.788-.4.789.521.739-.521h.269l-.98.694h.531v.223l-.243.154-.317-.321-.317.321-.243-.154,0-.223h.529l-.762-.468-.618.33.052.137h.3v.223l-.315.148-.2-.164Zm-.406-1.519.351-.26h-.7l.352.26Zm-.831,0,.352-.26h-.7l.352.26Zm-1.877-.26h1.381l-.524.4h-1.4l.542-.4Zm-.678,1.131h-.866l.866-.647v.647Zm-1.008,2.046v-.358h-.656l-.316.358.316.358h.656v-.358Zm-2.155-.26V472.8l-.553-.409.553-.461v-.264l-.764.593-.44-.361h-.247l-.262.221.3.273-.313.276.277.2h.291l.4-.367.764.575Zm-.5-2.234v-.374h.465v-.484h.4v.532h-.391v.325Zm7.457-2.083-.358-.262-.25.13v.186l.326.214-.452.383h.361l.373-.328.374.326h.36l-.451-.382.326-.214v-.185l-.252-.129-.357.26Zm-1.186.651h-.354l-.367-.383-.409.383h-.41l.437-.383-.295-.214v-.168l.253-.148.424.374.352-.374.26.148v.168l-.311.214.421.383Zm-4.528.351v-.372h.466V468.9l.4.006v.533h-.391v.322Zm9.022,2.993-.181-.28.119-.173h.178v.349l.6-.255v.149l-.486.21.486.209v.148l-.6-.252v.348h-.178l-.119-.173.181-.279Zm-2.9-2.338-.352-.258h.7l-.352.258Zm.83,0-.352-.258h.7l-.353.258Zm1.879-.258H667.2l.526.4h1.4l-.542-.4Zm.675,1.13h.868l-.868-.645v.645Zm1.008,2.048v-.358h.658l.314.358-.314.357h-.658v-.357Zm2.157-.261V472.8l.554-.412-.554-.458v-.266l.764.593.44-.361h.243l.265.222-.3.271.313.277-.278.2h-.29l-.4-.367-.764.575Zm.5-2.234v-.374h-.468v-.484l-.4,0v.533h.393v.324Zm-6.271-1.434h.354l.368-.382.407.382h.409l-.436-.382.3-.214v-.168l-.252-.146-.425.371-.355-.371-.257.146v.167l.308.214-.418.382Zm4.527.354v-.374h-.468V468.9l-.4.006v.533h.393v.323Z" transform="translate(-644.576 -438.75)" fill="#00a049"/>
        <path id="Контур_304" data-name="Контур 304" d="M733.518,430.215a10.425,10.425,0,1,1-10.864,17.447,10.425,10.425,0,0,0,10.864-17.447ZM720.991,442.54h1.567l.464,1.5.508-1.5,1.574-.01-1.256-.937.512-1.451-1.263.889-1.255-.937.459,1.529-1.31.915Zm-5.813-3.218h1.568l.464,1.5.508-1.5,1.574-.01-1.255-.937.512-1.45-1.264.889-1.255-.938.459,1.529-1.31.916ZM720.9,430.9h1.568l.464,1.5.508-1.5,1.574-.01-1.255-.937.512-1.451L723,429.4l-1.256-.937.46,1.529-1.311.915Zm5.813,3.219h1.568l.463,1.5.508-1.5,1.574-.01-1.255-.937.511-1.45-1.263.888-1.255-.937.459,1.529-1.31.916Zm-5.76,2.642h1.567l.464,1.5.507-1.5,1.575-.009-1.256-.937.512-1.451-1.263.889-1.255-.937.459,1.528-1.31.916Z" transform="translate(-662.096 -426.738)" fill="#fff" fill-rule="evenodd"/>
      </g>
    </g>
  </g>
</svg>
