<svg xmlns="http://www.w3.org/2000/svg" width="20" height="20" viewBox="0 0 20 20">
  <g id="cloudy-day" transform="translate(0 -16)">
    <path id="Контур_21" data-name="Контур 21" d="M227.081,102.2a4.383,4.383,0,0,1,3.951,1.593.209.209,0,0,0,.285.04,4.333,4.333,0,1,0-6.869-3.91.208.208,0,0,0,.122.21,5.323,5.323,0,0,1,2.312,1.976.206.206,0,0,0,.2.092Z" transform="translate(-216.078 -76.667)" fill="#00a933"/>
    <path id="Контур_22" data-name="Контур 22" d="M312.667,18.667a.667.667,0,0,0,.667-.667V16.667a.667.667,0,1,0-1.333,0V18A.667.667,0,0,0,312.667,18.667Z" transform="translate(-299.867)" fill="#00a933"/>
    <path id="Контур_23" data-name="Контур 23" d="M450,184h-1.333a.667.667,0,0,0,0,1.333H450A.667.667,0,1,0,450,184Z" transform="translate(-430.667 -161)" fill="#00a933"/>
    <path id="Контур_24" data-name="Контур 24" d="M409.3,280.362a.667.667,0,1,0-.943.943l.943.943a.667.667,0,1,0,.943-.943Z" transform="translate(-392.493 -253.16)" fill="#00a933"/>
    <path id="Контур_25" data-name="Контур 25" d="M194.344,67.288a.667.667,0,1,0,.943-.943l-.943-.943a.667.667,0,1,0-.943.943Z" transform="translate(-185.719 -47.157)" fill="#00a933"/>
    <path id="Контур_26" data-name="Контур 26" d="M408.816,67.482a.664.664,0,0,0,.471-.2l.943-.943a.667.667,0,0,0-.943-.943l-.943.943A.667.667,0,0,0,408.816,67.482Z" transform="translate(-392.476 -47.155)" fill="#00a933"/>
    <path id="Контур_27" data-name="Контур 27" d="M14.393,222.566a2.9,2.9,0,0,0-4.068-3.331A3.732,3.732,0,0,0,6.8,216.417a3.866,3.866,0,0,0-3.669,4.327,3.688,3.688,0,0,0,.269,7.322H14.45a2.756,2.756,0,0,0-.057-5.5Z" transform="translate(0 -192.066)" fill="#00a933"/>
  </g>
</svg>
