<svg id="Сгруппировать_10" data-name="Сгруппировать 10" xmlns="http://www.w3.org/2000/svg" width="14" height="14" viewBox="0 0 14 14">
  <path id="Контур_3183" data-name="Контур 3183" d="M11.78,54.9a1.085,1.085,0,0,0-1.64,0c-.384.38-.767.761-1.144,1.147a.226.226,0,0,1-.316.058c-.248-.135-.512-.245-.751-.393A11.9,11.9,0,0,1,5.061,53.1,6.8,6.8,0,0,1,4.033,51.45a.236.236,0,0,1,.058-.3c.384-.371.757-.751,1.134-1.131a1.089,1.089,0,0,0,0-1.679c-.3-.3-.6-.6-.9-.9s-.616-.622-.928-.928a1.092,1.092,0,0,0-1.64,0C1.367,46.89,1,47.28.6,47.654a1.867,1.867,0,0,0-.587,1.26,5.339,5.339,0,0,0,.413,2.3A13.962,13.962,0,0,0,2.908,55.34a15.336,15.336,0,0,0,5.079,3.974,7.346,7.346,0,0,0,2.813.819,2.062,2.062,0,0,0,1.769-.674c.329-.367.7-.7,1.047-1.054a1.1,1.1,0,0,0,.006-1.669Q12.7,55.812,11.78,54.9Z" transform="translate(-0.006 -46.137)" fill="#00a933"/>
</svg>
