<svg xmlns="http://www.w3.org/2000/svg" width="20" height="20" viewBox="0 0 20 20">
  <g id="earth-globe-with-continents-maps" transform="translate(-0.468)">
    <path id="Контур_28" data-name="Контур 28" d="M18.235,7.109l.178.125h.166V6.921l.522-.05.5.362h.815l.057-.051q-.122-.4-.276-.793L19.66,6.4l-.267-.287-.051-.461-.273.146-.146.564-.395-.411-.016-.389-.381-.321L17.99,5.1h-.442l.139.386.532.29.092.1-.115.057.005.306-.259.106-.221-.047L17.583,6.1l.36.019.1-.128-.8-.526-.061-.224-.324.287-.328-.066-.5.636-.1.249-.32.028-.473,0-.283-.13-.083-.55.1-.262.481-.1.525.1.064-.284L15.723,5.1l.076-.443.528-.081.369-.511.381-.063.344.05h.127l-.07-.48-.418.165-.147-.359-.243-.033L16.625,3.1l.2-.211.471-.181.121-.212A10.342,10.342,0,0,0,4.678,1.915l.515,0,.229.124.432.091.034.167.687.025L6.483,2.1l-.611-.017.144-.133-.05-.158H5.414l.6-.44h.577l.271.366.45.025.271-.258.2.1-.374.357-.492.009a1.643,1.643,0,0,1,.043.349l.627-.017.068-.166.432-.025.051-.249L7.89,1.8l.085-.224L8.17,1.52l.679.033-.374.333.06.257.39.058L8.9,1.736l.373-.191.662-.075.958.416v.357l.305.075-.153.283h-.433l-.128.324L9.5,2.7l.777-.406-.3-.247-.67.083-.059.06h0l-.01.014-.193.2-.319.026.025.156.111.045,0,.051L8.6,2.71l-.019.147-.248.013-.045-.293-.445.133-.91.522.1.367.254.163.509.069V4.4L8.03,4.36l.217-.443.541-.168V3.07l.3-.223.727.168-.051.449h.2l.535-.257.026.59.389.233-.016.35L10.52,4.5l.025.116.45.2-.009.241-.13.011a.034.034,0,0,0,0-.007l-.567-.171-.024-.178h0l.166-.112V4.441L10.251,4.4l-.044.15-.313.047-.031-.01V4.6l-.108.016-.088-.175-.1-.044H9.341l-.1.082v.181l.19.062.188.026-.042.018L9.4,4.952l-.075-.093-.166-.043-.452.417.059.047L8.1,5.642l-.628.64-.043.285L6.8,6.972,6.49,7.28l.035.615-.433-.2,0-.36h-1.2l-.624.309L4,8.136l-.107.388.175.376.491.059.781-.511L5.4,8.7l-.238.441.594.1.059.9.814.136.517-.586.628.125.221.3.6-.035.017-.174.331.157.373.573.644.009.238.408.034.5.713.266.9.009.263.423.4.125-.076.35L12,13.268l-.127,1.2-.395.305-.585-.017-.195.332.145.624-.637.8-.2.366-.607.285-.4.06-.016.166.28.079-.034.179-.251.237.152.188.3.008-.017.228-.08.225-.026.183.446.368-.059.191-.608-.011-.6-.517-.471-.811.066-.783-.356-.466.144-.789-.212-.058V14.13s-.594-.441-.628-.441-.314-.075-.314-.075l-.059-.323-.772-.948L5.957,12l.025-.557.534-.366-.076-.623L5.66,10.4l-.611-.682L4.617,9.6l-.28-.05L4.371,9.3l-.356-.05v.141l-.891-.218-.359-.537.146-.26L2.347,7.57l-.1-.59H2.021l.076.573.39.59-.043.233-.331-.05-.407-.68V6.855l-.424-.2V6.087A9.775,9.775,0,0,0,.468,10,10.117,10.117,0,0,0,10.676,20a10.272,10.272,0,0,0,7.917-3.7h-.337v-.665l-.39-.514v-.8l-.3-.29-.026-.333L17.921,13,17.2,11.757l.084-.84-.644-.065-.237-.233h-.433l-.22.2H14.99l-.026.067h-.425L13.565,9.8l.008-.848.161-.058.06-.324h-.229l-.094-.34,1.128-.8V6.864l.552-.3.224.022h.454l.355-.187,1.145-.087v.573ZM15.372,3.543l.093-.141.336-.067.084.4.178.282.118.133.216.083-.2.237-.395.037h-.3l.033-.345.247-.05-.021-.162-.23-.141L15.371,3.7V3.543Zm-.551.623.2-.32.275-.063.2.083-.018.216-.42.291H14.82V4.167ZM9.275,5.4l-.213.017.012-.145.095-.116.128.1Zm.745-.256-.145.012-.029.137-.112.068-.179.015c-.006-.041-.01-.073-.01-.073h-.07V5.153h.292L9.828,5l.116,0,.133.027Z" transform="translate(0 0)" fill="#00a933"/>
  </g>
</svg>
