<svg xmlns="http://www.w3.org/2000/svg" xmlns:xlink="http://www.w3.org/1999/xlink" width="534.837" height="80" viewBox="0 0 534.837 80">
  <defs>
    <clipPath id="clip-path">
      <path id="SVGID" d="M790.511,444h21.881v76.455H760.741v-3.538h42.53q-.5-1.9-1.118-3.75H760.741v-3.921h39.975q-.768-1.9-1.648-3.75H760.741v-3.92h36.292q-1.077-1.915-2.274-3.75H760.741V493.9h31.25q-1.471-1.931-3.075-3.75H760.741v-3.921h24.417q-2.041-1.963-4.245-3.75H760.741v-3.921h14.8a66.2,66.2,0,0,0-6.482-3.75h-8.321V444h22.246v18.922h7.159L790.1,444Zm-135.247,0h51.523v6.35H698.35v32.133h-.738q-2.2,1.784-4.245,3.75h4.983v3.921h-8.742q-1.6,1.818-3.075,3.75H698.35v3.921H683.765q-1.2,1.834-2.274,3.75H698.35v3.92H679.456q-.88,1.844-1.648,3.75H698.35v3.921H676.371q-.613,1.852-1.118,3.75h23.1v3.538H663.7V450.35h-8.438V444Zm52.8,76.455v-3.538h32A36,36,0,0,1,724,520.455Zm0-7.288v-3.921H750.05a32.766,32.766,0,0,1-4.082,3.921Zm0-7.671v-3.92h47.107a37.343,37.343,0,0,1-2.256,3.92Zm0-7.671V493.9h50c-.355,1.33-.769,2.641-1.251,3.921Zm0-7.671v-3.921H759.41q-.174,1.973-.518,3.921Zm0-7.671v-3.921h51.377c.1,1.3.149,2.612.142,3.921Zm0-6.945V444H724c18.776,0,30.118,11.973,34.033,26.441a66.5,66.5,0,0,0-39,.45h39.122q.5,1.935.831,3.92H709.462q-.7.355-1.4.726Z" transform="translate(-655.264 -444)" fill="none" clip-rule="evenodd"/>
    </clipPath>
  </defs>
  <g id="Сгруппировать_47" data-name="Сгруппировать 47" transform="translate(-121 -444)">
    <path id="Контур_37" data-name="Контур 37" d="M141.2,500.711a10.653,10.653,0,0,1-2.994-.826c-.939-.482-1.162-1.654-1.251-3.376-.134-4-.09-21.907-.09-31.758a.749.749,0,0,1,.179-.551,43.737,43.737,0,0,1,5.229,0c.849.138,1.34.62,1.7,2.136a36.84,36.84,0,0,1,.849,6.132c.134.275,1.43.206,1.608-.069a105.912,105.912,0,0,1,1.072-11.917c-.045-.138-.223-.483-.357-.483a9.8,9.8,0,0,1-4.826.9H126.273a7.456,7.456,0,0,1-3.933-.964c-.134-.069-.447.276-.447.414-.134,3.031-.536,8.749-.894,11.573.089.482,1.386.9,1.564.62a55.447,55.447,0,0,1,1.654-6.062c.581-1.654,1.207-2.2,2.1-2.274,1.207-.069,3.977-.069,4.781,0,.09,0,.224.414.224.551,0,10.953.045,24.387-.134,30.794-.09,3.1-.4,4.064-1.654,4.478a15.711,15.711,0,0,1-2.994.689,4.1,4.1,0,0,0,0,2.2c1.385,0,3.709-.206,7.507-.206,2.949,0,5.408.206,7.016.206a4.124,4.124,0,0,0,.134-2.2Z" transform="translate(0 -4.665)" fill="#00a933"/>
    <path id="Контур_38" data-name="Контур 38" d="M166.174,497.447a9.409,9.409,0,0,0-.358,2.274,11.13,11.13,0,0,0,1.118,5.3,2.669,2.669,0,0,0,2.055.9c3.084,0,5.631-5.855,7.284-10.265,2.726-7.164,5.72-17.5,8.267-27,.983-3.514,1.429-4.616,4.513-5.374a3.6,3.6,0,0,0,.045-2.273c-1.385.069-2.949.206-4.781.206-2.056,0-3.441-.138-5.139-.206a3.3,3.3,0,0,0-.09,2.273,12.845,12.845,0,0,1,2.682.758c.581.344.8,1.24.67,2.342a166.012,166.012,0,0,1-4.692,18.6c-.089.206-.268.138-.312,0-.715-2.066-5.05-15.707-6.167-19.909-.09-.344-.09-.964.268-1.172a10.864,10.864,0,0,1,1.922-.62,3.949,3.949,0,0,0-.045-2.273c-.537.069-3.262.206-6.167.206-2.592,0-5.273-.206-6.122-.206a4.57,4.57,0,0,0-.089,2.2c3.039.689,3.485.689,5.362,6.407,2.457,7.372,7.016,21.631,7.642,24.042a4.431,4.431,0,0,1,.089,1.516c-.983,3.238-2.011,4.271-3.441,4.271a8.308,8.308,0,0,1-4.513-2Z" transform="translate(-11.703 -4.983)" fill="#00a933"/>
    <path id="Контур_39" data-name="Контур 39" d="M212.578,486.425a7.344,7.344,0,0,0,2.011.276,8.1,8.1,0,0,0,5.318-2.136c2.189-1.929,4.2-5.718,4.2-11.5,0-4.684-1.385-7.784-2.949-9.575a7.743,7.743,0,0,0-5.9-2.411c-3.128,0-5.139.069-8.267.138-2.279,0-4.781-.206-5.854-.206a5.976,5.976,0,0,0-.09,2.2,13.346,13.346,0,0,1,2.235.551c1.162.413,1.385,1.446,1.475,3.789.089,2.066.089,6.131.089,13.571,0,8.06-.045,13.02-.134,15.5-.045,2.2-.179,3.375-1.3,3.789a15.43,15.43,0,0,1-2.323.62,4.585,4.585,0,0,0,0,2.2c1.877,0,4.379-.206,6.658-.206,2.234,0,5.228.206,6.882.206a4.339,4.339,0,0,0,.089-2.274,13.05,13.05,0,0,1-2.815-.619c-1.162-.483-1.385-1.585-1.475-3.514-.089-3.72-.089-11.16-.089-16.12,0-9.782.045-13.709.089-15.637a2.2,2.2,0,0,1,.313-.964,2.816,2.816,0,0,1,1.43-.276c4.067,0,6.122,4.34,6.167,10.677,0,4.34-.759,6.958-2.368,8.474a3.6,3.6,0,0,1-2.5.964c-.671,0-1.162-.138-1.43-.138a1.2,1.2,0,0,0-.179.689,5.653,5.653,0,0,0,.715,1.929Z" transform="translate(-23.431 -4.983)" fill="#00a933"/>
    <path id="Контур_40" data-name="Контур 40" d="M237.619,500.56c-.224.345-.224,2.067.089,2.274,1.117-.069,3.217-.206,6.524-.206,3.039,0,5.5.138,6.391.206a3.59,3.59,0,0,0,.045-2.274,16.2,16.2,0,0,1-2.235-.551c-1.162-.482-1.43-1.24-1.475-3.582-.089-3.1-.089-10.4-.089-13.847,0-.138.089-.276.134-.276,1.608.482,2.368,1.516,3.441,4.2,2.771,7.1,4.468,11.711,6.166,14.191a4.9,4.9,0,0,0,2.949,2.067,29.547,29.547,0,0,0,6.971.069,3.617,3.617,0,0,0,.134-2.274c-3.352-.413-4.022-.826-6.525-6.269-1.788-4-3.128-7.233-4.379-9.919a12.379,12.379,0,0,0-2.9-4.34c-.045-.069-.045-.138,0-.344,1.072-1.309,1.966-3.789,3.4-8.06s2.19-5.3,3.083-5.3a4.621,4.621,0,0,1,2.682,1.309.621.621,0,0,0,.447-.414,22.8,22.8,0,0,0,1.028-5.787,2.043,2.043,0,0,0-.313-.964,2.556,2.556,0,0,0-1.7-.826c-2.949,0-4.423,2.962-7.239,11.78a34.479,34.479,0,0,1-2.368,6.062c-.983,1.722-2.368,2.48-4.737,2.549-.179,0-.268-.207-.268-.344,0-3.927,0-9.852.045-12.607.045-2.411.312-3.375,1.654-3.789a11.142,11.142,0,0,1,1.564-.482,3.121,3.121,0,0,0,0-2.2c-.759-.069-2.726.206-6.033.206-2.726,0-5.362-.206-6.256-.206a3.9,3.9,0,0,0-.09,2.273c.939.207,1.475.276,2.1.483,1.251.413,1.43,1.515,1.475,3.375.089,2.618.089,9.094.089,13.3,0,4.684,0,12.124-.045,15.293-.089,3.513-.357,4.34-1.966,4.822a15.556,15.556,0,0,1-1.787.413Z" transform="translate(-34.127 -4.583)" fill="#00a933"/>
    <path id="Контур_41" data-name="Контур 41" d="M279.438,463.209a14.94,14.94,0,0,1,3.173,1.034c.938.551,1.206,2,1.162,3.237-.179,5.718-1.117,23.009-1.564,28.313-.268,3.169-.715,4.064-2.011,4.616a14.58,14.58,0,0,1-2.235.551,5.56,5.56,0,0,0,0,2.274c1.385,0,3.4-.206,5.362-.206,2.726,0,4.6.206,5.854.206a3.949,3.949,0,0,0,.089-2.274,10,10,0,0,1-2.815-.826c-1.3-.62-1.564-1.654-1.564-4.133,0-5.167.491-19.5.8-25.145a.3.3,0,0,1,.223-.138c3.173,11.78,7.374,26.453,8.446,32.1a3.177,3.177,0,0,0,1.787-.069c1.341-5.924,7.329-25.833,9.072-31.9a.147.147,0,0,1,.223,0c0,6.476.089,20.943,0,26.04,0,1.86-.223,2.894-1.028,3.307a9.424,9.424,0,0,1-2.368.757,6.465,6.465,0,0,0,0,2.274c1.7,0,3.753-.206,6.211-.206,3.843,0,5.676.206,7.016.206a4.854,4.854,0,0,0,.134-2.274,19.66,19.66,0,0,1-2.547-.689c-1.251-.482-1.519-1.86-1.608-3.858-.223-4.684-.581-24.456-.491-29.14,0-1.653.178-2.686,1.251-3.238a14.629,14.629,0,0,1,2.725-.826,3.7,3.7,0,0,0,0-2.2c-2.413,0-4.379.206-9.205.206a21.076,21.076,0,0,1-.8,4.064c-1.52,5.512-6.122,20.391-7.15,23.491-.089.069-.179.138-.268,0-1.028-3.1-5.005-16.327-7.061-23.284a22.393,22.393,0,0,1-.8-4.272c-4.38,0-7.105-.206-9.876-.206a5.82,5.82,0,0,0-.134,2.2Z" transform="translate(-45.96 -4.983)" fill="#00a933"/>
    <path id="Контур_42" data-name="Контур 42" d="M333.484,463.152a9.908,9.908,0,0,1,2.368.62c.894.414,1.162.964,1.251,3.1.09,2.066.134,7.715.134,13.227,0,7.784,0,13.5-.134,16.533-.045,2.342-.447,3.169-1.34,3.514a15.163,15.163,0,0,1-3.306.757,6.46,6.46,0,0,0,0,2.274c2.234,0,5.139-.206,7.686-.206,4.737,0,8.669.276,12.423.276,2.011,0,2.279-.414,2.5-1.1a86.745,86.745,0,0,0,1.967-9.851,2.327,2.327,0,0,0-1.519-.9,33.966,33.966,0,0,1-2.324,6.269c-.939,1.722-1.519,2.066-3.531,2.135a29.3,29.3,0,0,1-5.9-.482c-.537-.206-.983-1.171-.983-2.411,0-3.307-.045-8.818,0-12.675,0-.139.134-.551.268-.551,1.43,0,4.96,0,5.943.138.938.138,1.3.964,1.519,1.929.179.9.134.9.447,2.824a1.762,1.762,0,0,0,1.654-.069c-.045-1.791-.089-4.547-.089-6.682,0-2.274.178-5.029.268-6.613a1.855,1.855,0,0,0-1.7-.139c-.134.9-.223,1.791-.4,2.549-.268,1.516-.626,2.2-1.565,2.273a60.088,60.088,0,0,1-6.077.139c-.134,0-.268-.276-.268-.551-.045-4.134-.045-9.507,0-13.777,0-.345.223-1.171.491-1.241a49.98,49.98,0,0,1,6.435,0c.894.138,1.519.62,1.922,2.067a23.5,23.5,0,0,1,.715,4.822,1.7,1.7,0,0,0,1.608-.207c.134-3.444.4-7.991.715-10.057,0-.138-.09-.276-.179-.276a33.969,33.969,0,0,1-5.5.344h-8.938c-2.279,0-4.916-.206-6.479-.206a4.538,4.538,0,0,0-.09,2.2Z" transform="translate(-61.934 -4.926)" fill="#00a933"/>
    <path id="Контур_43" data-name="Контур 43" d="M370.167,463.209a9.981,9.981,0,0,1,2.458.689c.894.345,1.117,1.1,1.207,3.238.044,1.791.089,8.267.089,14.949,0,6.062-.045,12.262-.089,13.709-.09,3.031-.358,4.134-1.565,4.616a16.037,16.037,0,0,1-2.145.551,5.561,5.561,0,0,0,0,2.274c.939,0,3.173-.206,6.346-.206,3.709,0,5.809.206,6.658.206a4.7,4.7,0,0,0,.179-2.274,12.067,12.067,0,0,1-2.547-.757c-1.072-.482-1.251-1.585-1.3-3.72-.045-2.549-.045-8.267-.045-12.4a1.481,1.481,0,0,1,.134-.414c.268-.138,1.743-.138,6.345-.206,2.1,0,4.871,0,5.72.069.179,0,.268.276.268.483,0,4.477,0,10.2-.045,13.02-.044,2.136-.4,2.962-1.207,3.307a7.737,7.737,0,0,1-2.279.619,4.326,4.326,0,0,0,.045,2.274c1.028,0,3.664-.206,6.39-.206,2.9,0,5.228.206,6.435.206a4.79,4.79,0,0,0,.179-2.274,9.054,9.054,0,0,1-2.815-.826c-.8-.413-.983-1.446-1.072-3.307-.09-2.824-.09-8.956-.09-13.985,0-8.4,0-11.711.09-15.569.044-2.2.312-2.894,1.162-3.376a7.326,7.326,0,0,1,2.189-.689,4.1,4.1,0,0,0,0-2.2c-1.072,0-2.86.206-6.077.206-3.083,0-4.782-.206-6.39-.206a3.709,3.709,0,0,0,0,2.2,6.678,6.678,0,0,1,2.458.758c.67.276.893,1.309.938,2.274.089,3.375.089,9.437.089,12.882a.717.717,0,0,1-.268.482c-.536.069-2.1.069-5.586.069-5.362,0-5.988,0-6.39-.138a.968.968,0,0,1-.223-.551c0-4.753,0-8.749.045-11.78.045-2.136.268-2.894,1.161-3.376a10.311,10.311,0,0,1,2.1-.62,5.19,5.19,0,0,0,.045-2.2c-1.207,0-2.949.206-6.257.206-3.217,0-5.228-.206-6.3-.206a5.219,5.219,0,0,0-.045,2.2Z" transform="translate(-72.966 -4.983)" fill="#00a933"/>
    <path id="Контур_44" data-name="Контур 44" d="M417.775,500.96a4.884,4.884,0,0,0,0,2.274c1.072,0,3.485-.206,6.435-.206,3.039,0,4.692.206,6.525.206a4.575,4.575,0,0,0,.134-2.2,14.837,14.837,0,0,1-2.5-.826c-.983-.551-1.162-1.447-1.162-3.651a2.9,2.9,0,0,1,.358-1.722c.581-1.171,10.859-19.5,11.842-21.7.089-.138.223,0,.223.138.045,4.409.045,20.873-.045,23.836-.089,2.066-.312,2.893-1.072,3.238a8.881,8.881,0,0,1-2.368.619,3.941,3.941,0,0,0,0,2.274c.983,0,3.084-.206,6.435-.206,3.62,0,5.14.206,6.39.206.268-.138.358-1.929.223-2.274a10.874,10.874,0,0,1-2.86-.757c-.76-.482-.983-1.516-1.072-3.376-.134-2.894-.134-10.058-.134-15.087,0-8.4,0-10.54.09-14.535.089-2.205.313-2.825,1.162-3.307a13.159,13.159,0,0,1,2.279-.689,4.115,4.115,0,0,0,.045-2.2c-1.43,0-3.083.206-6.167.206-3.262,0-5-.206-6.256-.206a3.382,3.382,0,0,0,0,2.2,6.17,6.17,0,0,1,2.368.758c.626.276.938,1.24.938,2.342a11.441,11.441,0,0,1,0,1.24,5.663,5.663,0,0,1-.223,1.1c-2.011,4.34-10.814,19.84-11.932,21.975-.089.069-.223.138-.268-.138,0-4.753-.045-20.322.045-23.353.045-2.066.269-2.824,1.162-3.307a10.167,10.167,0,0,1,2.011-.62,4.09,4.09,0,0,0,.09-2.2c-1.073,0-2.994.206-6.211.206-3.486,0-4.871-.206-6.39-.206a4.578,4.578,0,0,0-.045,2.2,9.98,9.98,0,0,1,2.637.689c.849.414,1.028,1.378,1.117,3.169.045,1.722.089,9.162.089,15.845,0,6.062-.045,11.573-.089,13.02-.089,3.031-.313,4-1.564,4.478a16.2,16.2,0,0,1-2.235.551Z" transform="translate(-86.924 -4.983)" fill="#00a933"/>
    <path id="Контур_45" data-name="Контур 45" d="M489.959,472.15c.045.344,1.385.138,1.564-.206.045-3.456.447-8.887.715-11.16-2.011-.206-5.407-1.24-8.982-1.24a13.8,13.8,0,0,0-9.071,2.962c-4.916,3.858-7.239,11.16-7.239,18.807,0,14.673,5.809,22.527,15.775,22.527a14.646,14.646,0,0,0,6.747-1.654c1.207-1.24,3.039-6.682,3.575-9.575a2.6,2.6,0,0,0-1.251-1.309,28.881,28.881,0,0,1-3.4,6.82,5.34,5.34,0,0,1-4.513,2.274c-7.463,0-10.59-9.852-10.59-19.771,0-12.194,3.441-18.463,8.759-18.463a8.013,8.013,0,0,1,5.317,1.722c1.743,1.516,2.146,3.72,2.592,8.267Z" transform="translate(-101.372 -4.555)" fill="#00a933"/>
    <path id="Контур_46" data-name="Контур 46" d="M527.029,500.711a10.653,10.653,0,0,1-2.994-.826c-.939-.482-1.162-1.654-1.251-3.376-.134-4-.09-21.907-.09-31.758a.749.749,0,0,1,.179-.551,43.737,43.737,0,0,1,5.229,0c.848.138,1.34.62,1.7,2.136a36.69,36.69,0,0,1,.849,6.132c.134.275,1.43.206,1.609-.069a105.909,105.909,0,0,1,1.072-11.917c-.045-.138-.223-.483-.358-.483a9.8,9.8,0,0,1-4.826.9H512.1a7.456,7.456,0,0,1-3.933-.964c-.134-.069-.447.276-.447.414-.134,3.031-.536,8.749-.894,11.573.089.482,1.385.9,1.564.62a55.454,55.454,0,0,1,1.654-6.062c.581-1.654,1.207-2.2,2.1-2.274,1.207-.069,3.977-.069,4.781,0,.09,0,.223.414.223.551,0,10.953.045,24.387-.134,30.794-.09,3.1-.4,4.064-1.654,4.478a15.724,15.724,0,0,1-2.994.689,4.1,4.1,0,0,0,0,2.2c1.385,0,3.709-.206,7.507-.206,2.949,0,5.407.206,7.016.206a4.131,4.131,0,0,0,.134-2.2Z" transform="translate(-113.06 -4.665)" fill="#00a933"/>
    <path id="Контур_47" data-name="Контур 47" d="M539.783,500.989a6.46,6.46,0,0,0,0,2.274c1.34,0,3.039-.206,4.96-.206,2.592,0,4.513.206,5.676.206a6.515,6.515,0,0,0,.134-2.274,9.536,9.536,0,0,1-2.19-.619c-1.206-.414-1.3-1.321-1.3-2.354,0-1.32,1.118-5.958,1.922-9.426.09-.276.313-.62.491-.62.581-.069,1.475-.069,3.575-.069,1.475,0,2.994-.069,3.709,0,.134,0,.357.345.4.482.67,2.63,1.876,7.762,2.279,10.253a1.609,1.609,0,0,1-.447,1.527,7.313,7.313,0,0,1-2.279.826,6.481,6.481,0,0,0,0,2.274c1.43-.069,3.307-.206,6.525-.206,2.95,0,5.005.206,6.167.206a6.513,6.513,0,0,0,.134-2.274c-3.307-.689-3.574-1.171-4.96-6.578-1.564-6.028-5.541-23.686-6.882-29.462-.268-1.159-.581-2.744-.76-3.847a12.755,12.755,0,0,1-2.011.138,15.942,15.942,0,0,1-2.011-.138,33.1,33.1,0,0,1-.849,4.535c-1.073,4.811-4.871,20.747-7.284,29.531-1.251,4.581-1.832,5.132-5.005,5.82Zm13.451-30.747c.849,3.432,2.413,10.574,2.994,13.456,0,.138-.089.414-.134.414-.448.069-1.654.069-2.995.069-1.385,0-2.413,0-2.9-.069-.089-.069-.134-.206-.089-.471.715-3.3,2.1-9.678,2.949-13.376.045-.092.134-.023.179-.023Z" transform="translate(-122.687 -5.011)" fill="#00a933"/>
    <path id="Контур_48" data-name="Контур 48" d="M582.677,463.209a9.98,9.98,0,0,1,2.458.689c.894.345,1.117,1.1,1.206,3.238.045,1.791.09,8.267.09,14.949,0,6.062-.044,12.262-.09,13.709-.089,3.031-.357,4.134-1.564,4.616a16.066,16.066,0,0,1-2.145.551,5.549,5.549,0,0,0,0,2.274c.938,0,3.173-.206,6.346-.206,3.709,0,5.809.206,6.658.206a4.7,4.7,0,0,0,.179-2.274,12.055,12.055,0,0,1-2.547-.757c-1.072-.482-1.251-1.585-1.3-3.72-.045-2.549-.045-8.267-.045-12.4a1.5,1.5,0,0,1,.134-.414c.269-.138,1.743-.138,6.346-.206,2.1,0,4.871,0,5.72.069.178,0,.268.276.268.483,0,4.477,0,10.2-.045,13.02-.045,2.136-.4,2.962-1.207,3.307a7.742,7.742,0,0,1-2.279.619,4.318,4.318,0,0,0,.045,2.274c1.027,0,3.664-.206,6.39-.206,2.9,0,5.228.206,6.435.206a4.788,4.788,0,0,0,.179-2.274,9.066,9.066,0,0,1-2.816-.826c-.8-.413-.983-1.446-1.073-3.307-.089-2.824-.089-8.956-.089-13.985,0-8.4,0-11.711.089-15.569.045-2.2.313-2.894,1.162-3.376a7.327,7.327,0,0,1,2.189-.689,4.1,4.1,0,0,0,0-2.2c-1.073,0-2.86.206-6.077.206-3.084,0-4.782-.206-6.39-.206a3.7,3.7,0,0,0,0,2.2,6.674,6.674,0,0,1,2.457.758c.67.276.894,1.309.938,2.274.09,3.375.09,9.437.09,12.882a.72.72,0,0,1-.268.482c-.537.069-2.1.069-5.586.069-5.363,0-5.988,0-6.39-.138a.962.962,0,0,1-.223-.551c0-4.753,0-8.749.045-11.78.045-2.136.268-2.894,1.161-3.376a10.285,10.285,0,0,1,2.1-.62,5.179,5.179,0,0,0,.044-2.2c-1.206,0-2.949.206-6.256.206-3.217,0-5.228-.206-6.3-.206a5.22,5.22,0,0,0-.044,2.2Z" transform="translate(-135.238 -4.983)" fill="#00a933"/>
    <path id="Контур_49" data-name="Контур 49" d="M501.221,516.8a6.091,6.091,0,0,1,.648-.27l.127-.045.13-.033a5.371,5.371,0,0,1,4.243.716,6.073,6.073,0,0,1,2.542,3.21l.1.292.042.306c.01.078.02.156.029.234q.232-.351.463-.7c.454-.694.914-1.384,1.393-2.061a11.237,11.237,0,0,1,1.509-1.8c.558-.575,1.132-1.14,1.725-1.681a9.551,9.551,0,0,1-1.946-4.182l-.01-.049-.009-.049a12.218,12.218,0,0,1-.148-3.352,8.632,8.632,0,0,1,.954-3.212,12.528,12.528,0,0,1,1.5-2.527,11.969,11.969,0,0,1,2.127-2.143l.059-.046.061-.043a23.352,23.352,0,0,1,2.918-1.758,14.363,14.363,0,0,1,3.39-1.211q.715-.157,1.433-.3a15.82,15.82,0,0,1,1.822-.245c.63-.048,1.263-.062,1.895-.062.753,0,1.507.035,2.257.086l.633.043.565.289c.473.242.94.493,1.408.744l.037.02.036.021.042.024h11.218l-2.063,4.4q-2.217,4.726-4.46,9.442-1.673,3.5-3.38,6.982l-.373.762a5.332,5.332,0,0,1,3.224-2.573l.273-.049h.278a3.381,3.381,0,0,1,3.465,3.386v.128l-.011.128c-.118,1.42-1.337,2.974-2.173,4.088l-.035.046c-.551.706-1.107,1.407-1.7,2.078-.579.655-1.178,1.294-1.779,1.929a18.481,18.481,0,0,1-1.421,1.345q-.847.727-1.75,1.386a10.773,10.773,0,0,1-5.222,2.039l-.205.023-.206,0a7.168,7.168,0,0,1-4.894-1.8,6.746,6.746,0,0,1-1.951-5.036,13.863,13.863,0,0,1,1.266-5.57q.355-.857.734-1.709c-.17,0-.337-.005-.5-.02l-.089.011a7.7,7.7,0,0,0-.933.508,11.79,11.79,0,0,0-2.427,2.259l-.046.052-.048.051a18.258,18.258,0,0,0-2.167,2.757q-1.035,1.622-2.129,3.206a17.568,17.568,0,0,1-2.568,2.986,8.127,8.127,0,0,1-4.374,2.04l-.245.036-.248,0a9.51,9.51,0,0,1-5.984-1.917,7.25,7.25,0,0,1-2.455-3.768c-.36.4-.725.8-1.1,1.186q-.67.7-1.406,1.329c-.565.484-1.15.946-1.75,1.386a10.506,10.506,0,0,1-5.277,2.006l-.177.017-.179,0a7.207,7.207,0,0,1-4.882-1.765,6.706,6.706,0,0,1-1.964-5.035,13.763,13.763,0,0,1,1.268-5.588q.423-1.017.877-2.026-.444,0-.889-.02a25.314,25.314,0,0,1-2.573-.235h-.085q-.183.375-.365.752c-.516,1.067-1.021,2.139-1.523,3.213l-.071.151-.086.142c-.31.512-.592,1.06-.869,1.591-.385.737-.752,1.486-1.107,2.239q-.574,1.215-1.155,2.428c-.329.688-.665,1.389-1.043,2.051l-.887,1.551-11.847.029,1.968-4.366q1.3-2.883,2.619-5.758a3.333,3.333,0,0,1-2.219.821h-.267l-.264-.046a7.048,7.048,0,0,1-3.463-2.33l-.6-.615a52.159,52.159,0,0,1-6.416,7.187c-3.073,2.863-6.824,5.245-11.115,5.545l-.129.009-.129,0a8.285,8.285,0,0,1-6.8-3.352,13.36,13.36,0,0,1-2.17-7.847,22.8,22.8,0,0,1,2.962-11.184,29.2,29.2,0,0,1,8.91-9.611c-.892-1.633-1.714-3.31-2.491-4.989a24.736,24.736,0,0,1-2.411-9.6A13.871,13.871,0,0,1,440.959,478c2.044-3.234,5.578-4.407,9.245-4.554l.094,0,.094,0a16.874,16.874,0,0,1,12.191,5.851c3.82,4.109,5.311,9.408,5.471,14.918v.089a33.194,33.194,0,0,1-1.29,9.027c.463-.479.886-.9,1.206-1.231,2.519-2.57,5.634-4.81,9.288-5.3l.267-.035.27.011a6.681,6.681,0,0,1,3.009.827,7.038,7.038,0,0,1,2.156,1.834l.032.04.03.042a8.253,8.253,0,0,1,1.211,2.406,9.229,9.229,0,0,1,.419,2.8,10.676,10.676,0,0,1-.219,2.146,14.819,14.819,0,0,1-.672,2.247q-.32.843-.678,1.67c1.32-.032,2.694-.172,3.877-.305q1.112-2.211,2.215-4.428c1.2-2.427,2.383-4.866,3.562-7.306l.843-1.744h11.875l-2.054,4.393q-2.215,4.74-4.474,9.459-1.676,3.5-3.38,7-.19.387-.379.775a5.4,5.4,0,0,1,3.241-2.585l.274-.05h.278a3.525,3.525,0,0,1,2.259.8Zm-34.815,2.719q.842-1.818,1.693-3.632,1.758-3.747,3.538-7.484c-.447.462-.882.932-1.322,1.4a5.064,5.064,0,0,0-.525.622l-.029.048-.035.052a3.723,3.723,0,0,1-3.845,1.943,3.571,3.571,0,0,1-1.466-.617,3.376,3.376,0,0,1-.719-.691q-.607,1.216-1.274,2.4c.645.708,1.3,1.41,1.963,2.093.993,1.017,2.025,2.163,2.025,3.681,0,.061,0,.121,0,.181Zm-63.962-2.525a22.452,22.452,0,0,1,1.948-6.3,25.783,25.783,0,0,1,5.085-7.3l.033-.033.034-.031a25.67,25.67,0,0,1,8.387-5.363,20.763,20.763,0,0,1,5.213-1.492,3.693,3.693,0,0,1,2.338.78,5.159,5.159,0,0,1,2.184-.546l.1,0,.1,0a5.5,5.5,0,0,1,4.742,3.447,13.583,13.583,0,0,1,1.158,5.714v.083l0,.083a31.408,31.408,0,0,1-6.308,17.2c-3.6,5.007-8.431,8.882-14.759,9.391l-.141.011h-.142a9.679,9.679,0,0,1-7.658-3.434,11.808,11.808,0,0,1-2.424-5.963,50.036,50.036,0,0,1-3.717,3.734,17.979,17.979,0,0,1-9.924,5.172l-.184.023h-.186c-.337,0-.674,0-1.01-.016a12.736,12.736,0,0,1-1.536-.153,11.55,11.55,0,0,1-1.618-.375,6.485,6.485,0,0,1-1.8-.847,8.156,8.156,0,0,1-2.888-3.407,8.454,8.454,0,0,1-.685-3.913,10.672,10.672,0,0,1,.139-1.193c-1.434,1.572-3.147,3.122-4.078,3.988-3.5,3.256-7.653,5.724-12.471,6.286l-.238.028-.24-.009a8.314,8.314,0,0,1-6.629-3.033,9.846,9.846,0,0,1-1.843-6.251q.012-.474.041-.943c-1.41,1.528-3.066,3.064-3.917,3.878-3.3,3.157-7.292,5.779-11.9,6.4l-.23.031-.232,0a8.569,8.569,0,0,1-6.349-2.814,11.129,11.129,0,0,1-2.535-7.448l0-.1,0-.1c.256-6.189,2.806-11.7,6.6-16.513,3.853-4.9,8.848-8.413,15.188-8.869l.134-.01.134,0A8.091,8.091,0,0,1,356.315,499a7.006,7.006,0,0,1,1.928,5,7.526,7.526,0,0,1-1.463,4.553,5.852,5.852,0,0,1-4.644,2.4h-.086a5.417,5.417,0,0,1-3.815-1.481,5.222,5.222,0,0,1-1.5-2.748A28.828,28.828,0,0,0,343.658,511c-2.441,4.066-4.392,8.69-4.649,13.478,0,.155.007.375.023.6a20.768,20.768,0,0,0,2.03-1.173,37.687,37.687,0,0,0,5.589-4.587,26.536,26.536,0,0,0,2.244-2.544,4.58,4.58,0,0,1,3.627-2.27,3.444,3.444,0,0,1,2.3.842,34.369,34.369,0,0,1,4.788-9.186c3.719-5.181,8.694-8.848,15.184-9.3l.135-.01.135,0a8.232,8.232,0,0,1,5.43,1.878,6.608,6.608,0,0,1,2.263,4.723c.632-.616,1.222-1.161,1.651-1.564a17.979,17.979,0,0,1,9.923-5.172l.185-.023h.186c.337,0,.673,0,1.01.016a12.557,12.557,0,0,1,1.535.153,11.535,11.535,0,0,1,1.619.375,6.442,6.442,0,0,1,1.809.851,7.423,7.423,0,0,1,2.954,5.992,10.246,10.246,0,0,1-1.676,5.751,17.007,17.007,0,0,1-2.293,2.886q-1.459,1.545-2.921,3.09-1.589,1.687-3.1,3.451a23.447,23.447,0,0,0-2.378,3.27,9.885,9.885,0,0,0-.829,1.724c.755-.473,1.523-1.061,2.151-1.547.833-.68,1.659-1.383,2.438-2.126a16.731,16.731,0,0,0,1.42-1.49c.971-1.193,2.139-2.466,3.762-2.646l.17-.019h.17a3.449,3.449,0,0,1,1.9.559ZM379.478,510.7a28.244,28.244,0,0,1-3.379,3.1,54.757,54.757,0,0,1-11.438,6.872q-.065.294-.124.588a9.44,9.44,0,0,0-.16,1.877v.069a5.918,5.918,0,0,0,.174,1.614,12.762,12.762,0,0,0,2.892-1.6,34.072,34.072,0,0,0,4.848-4.1,24.418,24.418,0,0,0,2.05-2.317c.845-1.141,1.81-2.192,3.345-2.287l.1-.006h.1a3.573,3.573,0,0,1,2.023.581l.113.076.107.085a3.312,3.312,0,0,1,1.074,1.548c.063-.1.127-.2.191-.294l.08-.121.09-.112a35.414,35.414,0,0,1,2.717-2.989c.846-.834,1.7-1.662,2.571-2.466.88-.866,1.774-1.719,2.665-2.574a17.066,17.066,0,0,0,2.134-2.474,6.909,6.909,0,0,0,.554-.925c-.628.419-1.248.893-1.773,1.3-.828.684-1.651,1.386-2.428,2.127a16.645,16.645,0,0,0-1.42,1.49c-.944,1.159-2.093,2.4-3.649,2.631l-.226.034h-.228a3.383,3.383,0,0,1-2.863-1.516c-.045-.066-.088-.134-.128-.2Zm40.292-3.949a27.42,27.42,0,0,0-5.2,8.214,24.174,24.174,0,0,0-2.18,8.631,3.781,3.781,0,0,0,.354,1.828.251.251,0,0,0,.034.039.863.863,0,0,0,.293.053c2.659-.353,4.713-2.721,6.114-4.82a37.977,37.977,0,0,0,4.639-9.324,17.458,17.458,0,0,1-1.12-2.956,16,16,0,0,1-.584-3.661,26.547,26.547,0,0,0-2.346,2Zm-45.571-2.6c-1.541.561-3.126,2.458-3.943,3.546a25.971,25.971,0,0,0-1.75,2.668,29.927,29.927,0,0,0,2.31-1.913,13.759,13.759,0,0,0,3.383-4.3Zm80.884.525q.519-1.584.962-3.193a6.4,6.4,0,0,1-1.415,1.068,7.751,7.751,0,0,0-.684.446q.561.844,1.136,1.678Zm1.807-7.125a32.641,32.641,0,0,0,.372-4.912,17.9,17.9,0,0,0-2.141-9.035,5.26,5.26,0,0,0-4.394-3.01c-.794.06-1.612.219-1.907,1.042a12.363,12.363,0,0,0-.735,4.7v.091a23.905,23.905,0,0,0,.988,6.774,29.446,29.446,0,0,0,1.227,3.3l.069-.035a8.534,8.534,0,0,1,2.985-1.059l.123-.01h.123a3.542,3.542,0,0,1,2.534,1.022,3.465,3.465,0,0,1,.754,1.13ZM452,512.469q-1.113-1.389-2.2-2.8-.629-.818-1.252-1.639a38.087,38.087,0,0,0-4.826,7.938c-1.109,2.407-2.865,6.453-2.99,9.168a3.077,3.077,0,0,0,.03.32c1.915-.328,4.2-2.578,5.367-3.857A34.782,34.782,0,0,0,452,512.469Zm76.379-9.908c-.071-.016-.142-.03-.214-.043a4.726,4.726,0,0,0-.53-.037l-.006,0c-.353.158-.7.355-1.043.542a7.892,7.892,0,0,0-1.08.74,8.33,8.33,0,0,0-2.351,3.589l-.012.035-.013.034a7.042,7.042,0,0,0-.542,3.611,3.061,3.061,0,0,0,.085.295,1.02,1.02,0,0,0,.286.048A3.8,3.8,0,0,0,526,509.471a16.9,16.9,0,0,0,1.47-2.558,9.041,9.041,0,0,0,.706-2.246l.054-.32.119-.3a2.57,2.57,0,0,0,.206-.823,1.9,1.9,0,0,0-.069-.473,1.323,1.323,0,0,0-.107-.187Z" transform="translate(-60.743 -8.628)" fill="#fff" fill-rule="evenodd"/>
    <path id="Контур_50" data-name="Контур 50" d="M351.582,510.815a5.1,5.1,0,0,1,3.758,1.239,3.9,3.9,0,0,1,1.1,2.858,4.476,4.476,0,0,1-.848,2.74,2.783,2.783,0,0,1-2.258,1.162,2.362,2.362,0,0,1-1.683-.626,2.406,2.406,0,0,1-.679-1.709,3.918,3.918,0,0,1,1.084-2.467,4.248,4.248,0,0,0,1.1-1.475c0-.182-.13-.352-.366-.522a1.73,1.73,0,0,0-.94-.248q-4.816.705-9.552,8.6c-3.171,5.272-4.855,10.27-5.089,14.994a6.784,6.784,0,0,0,.548,3.066,1.9,1.9,0,0,0,1.788,1.031c1.018-.052,2.518-.73,4.489-2.009a41.37,41.37,0,0,0,6.094-5,32,32,0,0,0,2.544-2.9c.5-.679.875-1,1.135-1a.348.348,0,0,1,.274.091.508.508,0,0,1,.1.366q-.391,1.037-5.494,5.911c-3.393,3.263-6.8,5.116-10.178,5.572a5.469,5.469,0,0,1-4.124-1.814,8.056,8.056,0,0,1-1.723-5.429q.314-7.575,5.938-14.733t12.984-7.7Z" transform="translate(-62.023 -19.579)" fill="#eb2f31"/>
    <path id="Контур_51" data-name="Контур 51" d="M386.7,510.925a5.163,5.163,0,0,1,3.444,1.109,3.566,3.566,0,0,1,1.227,2.832q-.275,3.367-5.494,7.5a52.363,52.363,0,0,1-12.175,7.086c-.17.691-.339,1.41-.5,2.18a12.443,12.443,0,0,0-.222,2.492,8.539,8.539,0,0,0,.535,3.289,2.309,2.309,0,0,0,2.14,1.644,10.975,10.975,0,0,0,5.259-2.336,36.349,36.349,0,0,0,5.285-4.477,26.06,26.06,0,0,0,2.31-2.623c.509-.679.848-1.031,1.057-1.043a.557.557,0,0,1,.313.065.388.388,0,0,1,.1.313c-.248.783-2.1,2.793-5.559,6s-7.034,5.05-10.727,5.48a5.3,5.3,0,0,1-4.28-1.8,6.86,6.86,0,0,1-1.227-4.32,27.478,27.478,0,0,1,5.611-15.372q5.363-7.5,12.893-8.026Zm-.262.979q-3.405.2-6.955,4.933a34.331,34.331,0,0,0-5.468,11.588,37.518,37.518,0,0,0,10.583-6.708q4.4-4.032,4.593-7.321a2.335,2.335,0,0,0-.848-1.84,2.93,2.93,0,0,0-1.905-.653Z" transform="translate(-72.435 -19.611)" fill="#eb2f31"/>
    <path id="Контур_52" data-name="Контур 52" d="M406.154,529.13a32.251,32.251,0,0,1,2.479-2.727c.9-.887,1.736-1.7,2.532-2.427.809-.8,1.7-1.657,2.675-2.584a20.815,20.815,0,0,0,2.518-2.923,9.04,9.04,0,0,0,1.449-3.106,4.137,4.137,0,0,0-.457-3.092.552.552,0,0,0-.3-.509,1.3,1.3,0,0,0-.652-.182,4.954,4.954,0,0,0-1.971.613,22.246,22.246,0,0,0-3.732,2.453c-1.043.861-1.918,1.631-2.636,2.31a21.484,21.484,0,0,0-1.683,1.775c-.783.966-1.357,1.474-1.709,1.526a.308.308,0,0,1-.288-.13.444.444,0,0,1-.1-.248q.352-.959,4.437-4.815c2.753-2.571,5.48-4.033,8.182-4.358.235,0,.535,0,.9.013a9.593,9.593,0,0,1,1.162.117,8.391,8.391,0,0,1,1.187.274,3.592,3.592,0,0,1,.953.431,4.408,4.408,0,0,1,1.644,3.641,7.218,7.218,0,0,1-1.253,4.006,14.531,14.531,0,0,1-1.879,2.336c-.887.94-1.866,1.97-2.923,3.092s-2.127,2.31-3.2,3.563a25.925,25.925,0,0,0-2.688,3.706,11.1,11.1,0,0,0-1.422,3.51,3.716,3.716,0,0,0,.679,3.027.553.553,0,0,0,.3.509,1.3,1.3,0,0,0,.652.183,4.954,4.954,0,0,0,1.97-.614,21.687,21.687,0,0,0,3.719-2.453c1.057-.861,1.931-1.631,2.649-2.31a21.608,21.608,0,0,0,1.683-1.774c.783-.966,1.357-1.488,1.709-1.527a.32.32,0,0,1,.287.13.442.442,0,0,1,.1.248q-.352.96-4.437,4.815c-2.753,2.571-5.48,4.033-8.182,4.359-.235,0-.535,0-.9-.013a9.586,9.586,0,0,1-1.161-.117,8.365,8.365,0,0,1-1.188-.274,3.6,3.6,0,0,1-.953-.431,5.144,5.144,0,0,1-1.827-2.114,5.388,5.388,0,0,1-.431-2.493,8.006,8.006,0,0,1,.653-2.7,16.049,16.049,0,0,1,1.449-2.714Z" transform="translate(-82.94 -19.546)" fill="#eb2f31"/>
    <path id="Контур_53" data-name="Контур 53" d="M455.033,510.372a.55.55,0,0,1,.457.156.612.612,0,0,1,.1.378c-.013.261-.587.64-1.7,1.149a18.849,18.849,0,0,0-4.41,3.328,30.262,30.262,0,0,0-5.873,9.2,26.819,26.819,0,0,0-2.427,9.839,5.963,5.963,0,0,0,.992,3.706,3.422,3.422,0,0,0,2.91,1.305q4.737-.47,8.547-6.2a39.641,39.641,0,0,0,5.389-11.353,14.879,14.879,0,0,1-1.461-3.458,12.312,12.312,0,0,1-.483-3.34,6.71,6.71,0,0,1,.666-3.237,2.195,2.195,0,0,1,1.905-1.239c.835.026,1.526.587,2.062,1.709a10.4,10.4,0,0,1,.848,4.411,28.261,28.261,0,0,1-5.729,15.516q-5.423,7.536-12.5,8.117a6.619,6.619,0,0,1-5.311-2.31c-1.24-1.514-1.879-3.732-1.905-6.629a20.17,20.17,0,0,1,1.944-8.573,21.27,21.27,0,0,1,11.823-11.171,20.824,20.824,0,0,1,4.15-1.3Z" transform="translate(-92.632 -19.449)" fill="#eb2f31"/>
    <path id="Контур_54" data-name="Контур 54" d="M494.479,477.811q5.579.118,10,4.867t4.646,12.906a30.709,30.709,0,0,1-1.631,9.683,47.343,47.343,0,0,1-4.724,9.957c1.606,1.788,2.792,3.067,3.562,3.863s1.148,1.292,1.148,1.526a.446.446,0,0,1-.039.222c-.026.052-.091.078-.2.078a5.351,5.351,0,0,1-1.788-1.449c-.9-.913-1.97-2.023-3.223-3.328a48.368,48.368,0,0,1-8.1,9.8c-3.158,2.949-6.238,4.515-9.226,4.724a5.218,5.218,0,0,1-4.359-2.1,10.35,10.35,0,0,1-1.566-6.081,19.547,19.547,0,0,1,2.61-9.683q2.74-5.246,10.283-10.113a67.848,67.848,0,0,1-3.8-7.217,21.79,21.79,0,0,1-2.127-8.4,10.827,10.827,0,0,1,1.775-6.133c1.24-1.958,3.485-2.988,6.76-3.119Zm-1.422,24.037c1.018-.443,1.97-.887,2.871-1.344a6.3,6.3,0,0,1,1.827-.73.476.476,0,0,1,.352.117.422.422,0,0,1,.118.313c.025.247-.3.574-.966.952a26.622,26.622,0,0,0-3.249,2.479c.8,1.279,1.722,2.675,2.779,4.215a48.154,48.154,0,0,0,3.419,4.385,76.108,76.108,0,0,0,3.015-8.822,37.3,37.3,0,0,0,1.279-9.487,21.031,21.031,0,0,0-2.558-10.583,8.266,8.266,0,0,0-7.086-4.554q-3.758.234-4.789,3.092a15.563,15.563,0,0,0-.913,5.859,27.2,27.2,0,0,0,1.122,7.647,31.507,31.507,0,0,0,2.78,6.46Zm-.131,2.61a38.261,38.261,0,0,0-7.855,11.5c-2.115,4.567-3.2,8.052-3.276,10.453a3.745,3.745,0,0,0,.862,2.558,2.768,2.768,0,0,0,2.114.887q3.485-.2,7.791-4.894a39.235,39.235,0,0,0,7.164-11.705q-1.722-2.094-3.328-4.189-1.6-2.075-3.471-4.607Z" transform="translate(-104.895 -9.908)" fill="#eb2f31"/>
    <path id="Контур_55" data-name="Контур 55" d="M557.478,511.05q-2.525,5.4-4.463,9.435-1.918,4.033-3.367,6.969c-.953,1.958-1.749,3.589-2.4,4.92s-1.174,2.414-1.566,3.249-.678,1.5-.848,1.958a2.8,2.8,0,0,0-.209,1.07c0,.535.287.809.848.809a4.767,4.767,0,0,0,2.819-1.227c.953-.8,1.788-1.566,2.532-2.3.861-.9,1.592-1.709,2.18-2.44a20.582,20.582,0,0,0,1.37-1.853c.691-1.018,1.174-1.553,1.461-1.6.248,0,.378.1.378.313a9.149,9.149,0,0,1-1.566,2.479c-.509.665-1.043,1.305-1.592,1.931s-1.109,1.253-1.7,1.866c-.339.352-.731.731-1.188,1.122s-.978.81-1.566,1.24a7.414,7.414,0,0,1-3.745,1.422,4.157,4.157,0,0,1-2.845-.94,3.7,3.7,0,0,1-.979-2.845,10.6,10.6,0,0,1,1.031-4.332q1.115-2.682,3.171-6.851c-.691.157-1.331.274-1.944.366a17.936,17.936,0,0,1-1.893.17c-.653.026-1.344.026-2.088,0a22.625,22.625,0,0,1-2.453-.235,10.025,10.025,0,0,1-1.07-.052c-.352-.039-.7-.091-1.07-.131-.4.81-.848,1.7-1.318,2.675s-.978,2.049-1.54,3.25c-.261.431-.574,1.017-.966,1.761s-.77,1.527-1.162,2.349-.769,1.631-1.148,2.414-.679,1.4-.94,1.853l-5.272.013q3.053-6.772,5.389-11.731c1.553-3.314,2.858-6.068,3.928-8.3s1.866-3.915,2.44-5.1a13.512,13.512,0,0,0,.94-2.205.726.726,0,0,0-.287-.626,1.049,1.049,0,0,0-.626-.222,2.989,2.989,0,0,0-.94.235,8.168,8.168,0,0,0-1.566.809,23.424,23.424,0,0,0-2.166,1.54c-.81.653-1.723,1.461-2.715,2.44-.77.783-1.37,1.435-1.84,1.931a7.859,7.859,0,0,0-.913,1.135c-.3.457-.535.653-.692.6a.45.45,0,0,1-.247-.092.319.319,0,0,1-.131-.287c.182-.587,1.54-2.179,4.1-4.789s5.037-4.071,7.49-4.4a3.573,3.573,0,0,1,1.644.443,3.933,3.933,0,0,1,1.227,1.044,5.158,5.158,0,0,1,.757,1.514,6.151,6.151,0,0,1,.274,1.866,7.61,7.61,0,0,1-.156,1.526,12.442,12.442,0,0,1-.535,1.774c-.261.679-.587,1.462-.992,2.362s-.927,1.958-1.527,3.21l.966.078,1.018.078a32.57,32.57,0,0,0,7.229-.235c.222-.026.457-.052.679-.065s.469-.065.731-.117q1.331-2.643,2.962-5.912,1.626-3.288,3.576-7.333Z" transform="translate(-117.615 -19.579)" fill="#eb2f31"/>
    <path id="Контур_56" data-name="Контур 56" d="M601.633,509.49c.535.274.992.522,1.357.718a6.17,6.17,0,0,1,.94.653,3.559,3.559,0,0,1,.614.744,3.716,3.716,0,0,1,.339.978c.157-.326.314-.653.484-.978s.326-.64.469-.966h5.089q-2.525,5.383-4.45,9.422t-3.367,6.955c-.952,1.944-1.762,3.589-2.414,4.906s-1.175,2.414-1.566,3.25-.679,1.5-.836,1.957a2.823,2.823,0,0,0-.222,1.07c0,.535.287.8.848.8a4.782,4.782,0,0,0,2.832-1.214c.94-.8,1.787-1.566,2.518-2.3.875-.9,1.592-1.709,2.18-2.427s1.044-1.344,1.383-1.853q1.018-1.527,1.449-1.6c.248,0,.378.1.378.3a8.912,8.912,0,0,1-1.566,2.493c-.508.653-1.031,1.305-1.579,1.931s-1.122,1.239-1.709,1.853a14.678,14.678,0,0,1-1.188,1.122c-.457.392-.978.809-1.566,1.24A7.665,7.665,0,0,1,598.306,540a4.122,4.122,0,0,1-2.845-.966,3.751,3.751,0,0,1-.979-2.858,10.787,10.787,0,0,1,1.031-4.32q1.116-2.682,3.171-6.851a1.624,1.624,0,0,0,.144-.261,3.278,3.278,0,0,1,.13-.313,11,11,0,0,1-5.507,1.449,2.7,2.7,0,0,1-.339-.013,2.865,2.865,0,0,0-.352-.013c-.026,0-.2.026-.535.066a6.43,6.43,0,0,0-1.944.9,14.282,14.282,0,0,0-3.171,2.884,21.453,21.453,0,0,0-2.531,3.224c-.7,1.109-1.4,2.153-2.062,3.106A14.3,14.3,0,0,1,580.4,538.5a5.038,5.038,0,0,1-2.74,1.266,6.4,6.4,0,0,1-4.085-1.227,4.36,4.36,0,0,1-1.6-3.289,5.231,5.231,0,0,1,.352-3.5,3.61,3.61,0,0,1,1.931-1.774,2.316,2.316,0,0,1,1.84.339,3.024,3.024,0,0,1,1.265,1.6,5.486,5.486,0,0,1-.078,2.206,6.246,6.246,0,0,1-1.109,1.97,2.814,2.814,0,0,0-.274,1.292,1.486,1.486,0,0,0,.352.927.663.663,0,0,0,.352.509,1.627,1.627,0,0,0,.94.248,2.609,2.609,0,0,0,1.435-.627,11.016,11.016,0,0,0,1.526-1.514,23.958,23.958,0,0,0,1.54-2.023c.5-.744.978-1.461,1.449-2.179s.913-1.37,1.33-1.971a8.422,8.422,0,0,1,1.135-1.357c.757-.783,1.41-1.41,1.931-1.866a10.561,10.561,0,0,1,1.357-1.07,4.814,4.814,0,0,1,1.031-.561c.3-.117.613-.222.913-.326a6.73,6.73,0,0,1-3-1.736,6.361,6.361,0,0,1-1.579-3.158,9.14,9.14,0,0,1-.117-2.505,5.511,5.511,0,0,1,.652-2.153,9.794,9.794,0,0,1,1.174-2.01,9.12,9.12,0,0,1,1.579-1.591,20.7,20.7,0,0,1,2.532-1.527,11.225,11.225,0,0,1,2.662-.952c.457-.1.913-.2,1.37-.288a12.711,12.711,0,0,1,1.461-.2c.509-.04,1.058-.052,1.658-.052s1.278.026,2.048.078Zm-.3.835a12.583,12.583,0,0,0-1.305-.313,7.977,7.977,0,0,0-1.161-.078,2.316,2.316,0,0,0-1.135.274c-.378.17-.8.392-1.265.653a10.873,10.873,0,0,0-1.566,1.07,11.35,11.35,0,0,0-3.288,4.933,9.729,9.729,0,0,0-.679,5.35,3.561,3.561,0,0,0,1.148,2.036,3.467,3.467,0,0,0,2.245.756,6.8,6.8,0,0,0,5.585-3.249,18.633,18.633,0,0,0,1.736-3.027,11.842,11.842,0,0,0,.94-3.014,5.147,5.147,0,0,0,.418-2.088,4.566,4.566,0,0,0-.313-1.553,4.164,4.164,0,0,0-.692-1.083,7.818,7.818,0,0,0-.665-.665Z" transform="translate(-132.109 -19.168)" fill="#eb2f31"/>
    <path id="Контур_57" data-name="Контур 57" d="M220.008,444.355v8.891h1.016v-8.007h2.467v-.884Z" transform="translate(-29.012 -0.104)" fill="#191000"/>
    <path id="Контур_58" data-name="Контур 58" d="M227.77,444.206c-1.556,0-2.612,1.6-2.612,4.537,0,2.995.989,4.564,2.467,4.564,1.425,0,2.573-1.28,2.573-4.617,0-2.836-.911-4.484-2.428-4.484Zm-.092.9c1.161,0,1.464,1.965,1.464,3.627,0,1.741-.3,3.68-1.451,3.68-1.121,0-1.477-1.82-1.477-3.654,0-1.808.356-3.654,1.464-3.654Z" transform="translate(-30.521 -0.06)" fill="#191000"/>
    <path id="Контур_59" data-name="Контур 59" d="M237.569,452.2a2.2,2.2,0,0,1-.937.2c-1.082,0-2.084-.9-2.084-3.615s1.108-3.641,2.058-3.641a1.934,1.934,0,0,1,.9.185l.225-.858a2.212,2.212,0,0,0-1.109-.224c-1.4,0-3.139,1.121-3.139,4.63,0,3.021,1.24,4.419,2.981,4.419a2.842,2.842,0,0,0,1.267-.238l-.158-.858Z" transform="translate(-32.96 -0.071)" fill="#191000"/>
    <path id="Контур_60" data-name="Контур 60" d="M240.458,444.355l1.992,5.975a.766.766,0,0,1,.013.515c-.185.633-.673,1.649-1.4,1.649a1.4,1.4,0,0,1-.264-.026l-.053.831a1.687,1.687,0,0,0,.475.053,2.042,2.042,0,0,0,1.676-1.28,21.261,21.261,0,0,0,1.253-3.76l1.055-3.957h-1.029l-.792,3.588c-.119.554-.224,1.134-.329,1.569h-.04c-.119-.5-.238-.989-.409-1.543l-1.056-3.614Z" transform="translate(-35.005 -0.104)" fill="#191000"/>
    <path id="Контур_61" data-name="Контур 61" d="M248.217,444.355v2a19.769,19.769,0,0,1-.277,3.614,11.805,11.805,0,0,1-.713,2.4l-.593.013.053,2.7h.8l.052-1.847h3.927l.066,1.847h.794l.053-2.7-.592-.013v-8.02Zm.923.884h1.649v7.123h-2.52a13.429,13.429,0,0,0,.633-2.255,21.614,21.614,0,0,0,.238-3.536v-1.332Z" transform="translate(-36.815 -0.104)" fill="#191000"/>
    <path id="Контур_62" data-name="Контур 62" d="M259.294,450.581l.593,2.665h1l-1.979-8.891h-1.121l-2.031,8.891h.976l.593-2.665Zm-1.82-.818.462-2.256c.118-.594.25-1.359.356-2.031h.053c.105.66.224,1.4.356,2.031l.462,2.256Z" transform="translate(-39.488 -0.104)" fill="#191000"/>
    <path id="Контур_63" data-name="Контур 63" d="M264.583,453.229H265.6v-3.641c.145.013.277.013.449.013a2.6,2.6,0,0,0,2.1-.99,2.825,2.825,0,0,0,.541-1.82,2.5,2.5,0,0,0-.66-1.833,2.692,2.692,0,0,0-1.965-.66,5.918,5.918,0,0,0-1.478.171v8.759ZM265.6,445.2a2.05,2.05,0,0,1,.567-.066c1.121,0,1.5.818,1.5,1.728,0,1.253-.673,1.913-1.676,1.913a1.679,1.679,0,0,1-.4-.04V445.2Z" transform="translate(-42.074 -0.088)" fill="#191000"/>
    <path id="Контур_64" data-name="Контур 64" d="M275.6,452.2a2.2,2.2,0,0,1-.937.2c-1.082,0-2.084-.9-2.084-3.615s1.108-3.641,2.058-3.641a1.935,1.935,0,0,1,.9.185l.225-.858a2.214,2.214,0,0,0-1.109-.224c-1.4,0-3.139,1.121-3.139,4.63,0,3.021,1.24,4.419,2.981,4.419a2.842,2.842,0,0,0,1.267-.238l-.158-.858Z" transform="translate(-44.103 -0.071)" fill="#191000"/>
    <path id="Контур_65" data-name="Контур 65" d="M280.162,453.245h1.016v-7.981H282.8v-.91H278.54v.91h1.622v7.981Z" transform="translate(-46.164 -0.104)" fill="#191000"/>
    <path id="Контур_66" data-name="Контур 66" d="M285.966,453.19a7.242,7.242,0,0,0,1.332.092,3.029,3.029,0,0,0,2.348-.8,2.554,2.554,0,0,0,.633-1.767,2.193,2.193,0,0,0-1.649-2.269v-.026A2.055,2.055,0,0,0,290,446.435a2.007,2.007,0,0,0-.58-1.516,2.773,2.773,0,0,0-1.965-.62,6.185,6.185,0,0,0-1.49.171v8.72Zm1.015-8.034a1.838,1.838,0,0,1,.541-.066,1.3,1.3,0,0,1,1.465,1.451,1.527,1.527,0,0,1-1.543,1.57h-.462v-2.955Zm0,3.734h.449a1.718,1.718,0,0,1,1.807,1.82,1.609,1.609,0,0,1-1.741,1.767,2.334,2.334,0,0,1-.515-.053v-3.535Z" transform="translate(-48.34 -0.088)" fill="#191000"/>
    <path id="Контур_67" data-name="Контур 67" d="M296.973,448.167h-2.229v-2.928h2.374v-.884h-3.39v8.891h3.549v-.884h-2.533v-3.337h2.229v-.858Z" transform="translate(-50.614 -0.104)" fill="#191000"/>
    <path id="Контур_68" data-name="Контур 68" d="M300.332,444.355v8.891h1.016V449.09h2.493v4.155h1.016v-8.891h-1.016v3.812h-2.493v-3.812Z" transform="translate(-52.55 -0.104)" fill="#191000"/>
    <path id="Контур_69" data-name="Контур 69" d="M308.971,444.355v8.891h1.016V449.09h2.493v4.155H313.5v-8.891H312.48v3.812h-2.493v-3.812Z" transform="translate(-55.081 -0.104)" fill="#191000"/>
    <path id="Контур_70" data-name="Контур 70" d="M319.7,444.206c-1.557,0-2.612,1.6-2.612,4.537,0,2.995.989,4.564,2.467,4.564,1.425,0,2.572-1.28,2.572-4.617,0-2.836-.91-4.484-2.427-4.484Zm-.092.9c1.161,0,1.464,1.965,1.464,3.627,0,1.741-.3,3.68-1.451,3.68-1.121,0-1.478-1.82-1.478-3.654,0-1.808.356-3.654,1.465-3.654Z" transform="translate(-57.46 -0.06)" fill="#191000"/>
    <path id="Контур_71" data-name="Контур 71" d="M329.177,448.167h-2.229v-2.928h2.374v-.884h-3.39v8.891h3.548v-.884h-2.533v-3.337h2.229v-.858Z" transform="translate(-60.051 -0.104)" fill="#191000"/>
    <path id="Контур_72" data-name="Контур 72" d="M335.466,444.355v8.891h.963l1.662-4.287c.344-.9.752-1.873,1.069-2.981h.026c-.079,1.187-.105,2.295-.105,4.194v3.074h.91v-8.891h-.949l-1.6,4.155c-.369.963-.844,2.137-1.147,3.1h-.026c.079-1.4.118-2.533.118-4.076v-3.179Z" transform="translate(-62.845 -0.104)" fill="#191000"/>
    <path id="Контур_73" data-name="Контур 73" d="M344.124,444.355v8.891h1.016V449.09h2.493v4.155h1.016v-8.891h-1.016v3.812H345.14v-3.812Z" transform="translate(-65.382 -0.104)" fill="#191000"/>
    <path id="Контур_74" data-name="Контур 74" d="M354.707,444v.7c-1.187.132-2.467,1.174-2.467,3.984,0,3.007,1.214,3.812,2.454,3.97v.739h.923v-.739c1.227-.132,2.48-1,2.48-4.01,0-2.625-1.1-3.812-2.454-3.944V444Zm0,7.9c-.778-.158-1.437-1.056-1.437-3.179,0-2.334.7-3.166,1.437-3.271v6.45Zm.924-6.45c.659.079,1.437.884,1.437,3.179,0,2.256-.58,3.126-1.437,3.272v-6.45Z" transform="translate(-67.76)" fill="#191000"/>
    <path id="Контур_75" data-name="Контур 75" d="M364.312,444.206c-1.556,0-2.612,1.6-2.612,4.537,0,2.995.989,4.564,2.467,4.564,1.425,0,2.573-1.28,2.573-4.617,0-2.836-.911-4.484-2.428-4.484Zm-.092.9c1.161,0,1.464,1.965,1.464,3.627,0,1.741-.3,3.68-1.451,3.68-1.121,0-1.477-1.82-1.477-3.654,0-1.808.356-3.654,1.464-3.654Z" transform="translate(-70.532 -0.06)" fill="#191000"/>
    <path id="Контур_76" data-name="Контур 76" d="M370.544,453.229h1.016v-3.641c.145.013.277.013.448.013a2.605,2.605,0,0,0,2.1-.99,2.825,2.825,0,0,0,.541-1.82,2.494,2.494,0,0,0-.66-1.833,2.692,2.692,0,0,0-1.965-.66,5.918,5.918,0,0,0-1.478.171v8.759Zm1.016-8.033a2.047,2.047,0,0,1,.567-.066c1.121,0,1.5.818,1.5,1.728,0,1.253-.672,1.913-1.676,1.913a1.677,1.677,0,0,1-.4-.04V445.2Z" transform="translate(-73.124 -0.088)" fill="#191000"/>
    <path id="Контур_77" data-name="Контур 77" d="M383.244,453.246h.949l-.514-8.891h-1.135l-1,4.063c-.291,1.2-.488,2.044-.66,3.06h-.04c-.185-1.016-.409-1.886-.713-3.06l-1.041-4.063h-1.1l-.527,8.891h.91l.172-3.76c.052-1.266.105-2.506.105-3.548h.04c.171,1.029.435,2.124.725,3.258l1.042,4h.646l1.1-4.168c.277-1.042.515-2.1.713-3.087h.052c-.04,1,.026,2.308.093,3.482l.185,3.826Z" transform="translate(-75.153 -0.104)" fill="#191000"/>
    <path id="Контур_78" data-name="Контур 78" d="M391.768,450.581l.594,2.665h1l-1.979-8.891h-1.121l-2.031,8.891h.976l.594-2.665Zm-1.82-.818.462-2.256c.119-.594.251-1.359.356-2.031h.052c.106.66.225,1.4.356,2.031l.462,2.256Z" transform="translate(-78.307 -0.104)" fill="#191000"/>
    <path id="Контур_79" data-name="Контур 79" d="M397.058,444.355v8.891h4.129l.053,1.847h.8l.053-2.7-.594-.013v-8.02h-1v8.007h-2.427v-8.007Z" transform="translate(-80.893 -0.104)" fill="#191000"/>
    <path id="Контур_80" data-name="Контур 80" d="M405.771,444.355v8.891h.963l1.662-4.287c.344-.9.752-1.873,1.069-2.981h.026c-.079,1.187-.105,2.295-.105,4.194v3.074h.91v-8.891h-.949l-1.6,4.155c-.369.963-.844,2.137-1.147,3.1h-.026c.079-1.4.119-2.533.119-4.076v-3.179Z" transform="translate(-83.446 -0.104)" fill="#191000"/>
    <path id="Контур_81" data-name="Контур 81" d="M416.518,444.206c-1.557,0-2.612,1.6-2.612,4.537,0,2.995.99,4.564,2.467,4.564,1.425,0,2.572-1.28,2.572-4.617,0-2.836-.91-4.484-2.427-4.484Zm-.093.9c1.161,0,1.464,1.965,1.464,3.627,0,1.741-.3,3.68-1.451,3.68-1.121,0-1.478-1.82-1.478-3.654,0-1.808.356-3.654,1.464-3.654Z" transform="translate(-85.83 -0.06)" fill="#191000"/>
    <path id="Контур_82" data-name="Контур 82" d="M422.751,444.355v8.891h1.016V449.09h2.493v4.155h1.016v-8.891h-1.016v3.812h-2.493v-3.812Z" transform="translate(-88.422 -0.104)" fill="#191000"/>
    <path id="Контур_83" data-name="Контур 83" d="M431.389,444.355v8.891h1.016V449.09H434.9v4.155h1.016v-8.891H434.9v3.812h-2.493v-3.812Z" transform="translate(-90.953 -0.104)" fill="#191000"/>
    <path id="Контур_84" data-name="Контур 84" d="M442.118,444.206c-1.556,0-2.612,1.6-2.612,4.537,0,2.995.989,4.564,2.467,4.564,1.425,0,2.573-1.28,2.573-4.617,0-2.836-.911-4.484-2.428-4.484Zm-.092.9c1.161,0,1.464,1.965,1.464,3.627,0,1.741-.3,3.68-1.451,3.68-1.121,0-1.477-1.82-1.477-3.654,0-1.808.356-3.654,1.464-3.654Z" transform="translate(-93.332 -0.06)" fill="#191000"/>
    <path id="Контур_85" data-name="Контур 85" d="M451.6,448.167h-2.229v-2.928h2.374v-.884h-3.39v8.891H451.9v-.884h-2.533v-3.337H451.6v-.858Z" transform="translate(-95.923 -0.104)" fill="#191000"/>
    <path id="Контур_86" data-name="Контур 86" d="M460.711,450.581l.594,2.665h1l-1.978-8.891h-1.121l-2.032,8.891h.976l.594-2.665Zm-1.82-.818.462-2.256c.119-.594.251-1.359.356-2.031h.052c.106.66.225,1.4.356,2.031l.462,2.256Z" transform="translate(-98.509 -0.104)" fill="#191000"/>
    <path id="Контур_87" data-name="Контур 87" d="M466,444.355v8.891h1.016v-8.007h2.467v-.884Z" transform="translate(-101.096 -0.104)" fill="#191000"/>
    <path id="Контур_88" data-name="Контур 88" d="M475.571,448.167h-2.229v-2.928h2.374v-.884h-3.39v8.891h3.548v-.884h-2.533v-3.337h2.229v-.858Z" transform="translate(-102.949 -0.104)" fill="#191000"/>
    <path id="Контур_89" data-name="Контур 89" d="M478.931,444.355v8.891h1.016V449.09h2.493v4.155h1.016v-8.891H482.44v3.812h-2.493v-3.812Z" transform="translate(-104.885 -0.104)" fill="#191000"/>
    <path id="Контур_90" data-name="Контур 90" d="M488.241,453.245h1.016v-7.981h1.622v-.91h-4.261v.91h1.622v7.981Z" transform="translate(-107.137 -0.104)" fill="#191000"/>
    <path id="Контур_91" data-name="Контур 91" d="M496.958,452.2a2.2,2.2,0,0,1-.937.2c-1.081,0-2.084-.9-2.084-3.615s1.109-3.641,2.058-3.641a1.94,1.94,0,0,1,.9.185l.224-.858a2.208,2.208,0,0,0-1.108-.224c-1.4,0-3.14,1.121-3.14,4.63,0,3.021,1.24,4.419,2.981,4.419a2.838,2.838,0,0,0,1.266-.238l-.158-.858Z" transform="translate(-108.969 -0.071)" fill="#191000"/>
    <path id="Контур_92" data-name="Контур 92" d="M501.526,453.245h1.016v-7.981h1.622v-.91H499.9v.91h1.622v7.981Z" transform="translate(-111.03 -0.104)" fill="#191000"/>
    <path id="Контур_93" data-name="Контур 93" d="M507.329,453.19a7.252,7.252,0,0,0,1.333.092,3.03,3.03,0,0,0,2.348-.8,2.554,2.554,0,0,0,.633-1.767,2.192,2.192,0,0,0-1.649-2.269v-.026a2.055,2.055,0,0,0,1.372-1.979,2.007,2.007,0,0,0-.58-1.516,2.774,2.774,0,0,0-1.966-.62,6.185,6.185,0,0,0-1.49.171v8.72Zm1.016-8.034a1.835,1.835,0,0,1,.541-.066,1.3,1.3,0,0,1,1.464,1.451,1.527,1.527,0,0,1-1.543,1.57h-.462v-2.955Zm0,3.734h.448a1.718,1.718,0,0,1,1.807,1.82,1.609,1.609,0,0,1-1.741,1.767,2.329,2.329,0,0,1-.515-.053v-3.535Z" transform="translate(-113.206 -0.088)" fill="#191000"/>
    <path id="Контур_94" data-name="Контур 94" d="M517.18,444.206c-1.557,0-2.612,1.6-2.612,4.537,0,2.995.99,4.564,2.467,4.564,1.425,0,2.572-1.28,2.572-4.617,0-2.836-.91-4.484-2.427-4.484Zm-.093.9c1.161,0,1.464,1.965,1.464,3.627,0,1.741-.3,3.68-1.451,3.68-1.121,0-1.478-1.82-1.478-3.654,0-1.808.356-3.654,1.464-3.654Z" transform="translate(-115.327 -0.06)" fill="#191000"/>
    <path id="Контур_95" data-name="Контур 95" d="M527.143,453.245h1.016v-7.981h1.622v-.91h-4.261v.91h1.622v7.981Z" transform="translate(-118.537 -0.104)" fill="#191000"/>
    <path id="Контур_96" data-name="Контур 96" d="M532.331,444.355l1.992,5.975a.77.77,0,0,1,.013.515c-.185.633-.672,1.649-1.4,1.649a1.406,1.406,0,0,1-.264-.026l-.052.831a1.678,1.678,0,0,0,.474.053,2.042,2.042,0,0,0,1.676-1.28,21.27,21.27,0,0,0,1.253-3.76l1.055-3.957h-1.029l-.792,3.588c-.119.554-.224,1.134-.329,1.569h-.04c-.119-.5-.237-.989-.409-1.543l-1.055-3.614Z" transform="translate(-120.532 -0.104)" fill="#191000"/>
    <path id="Контур_97" data-name="Контур 97" d="M540.242,453.229h1.016v-3.641c.145.013.277.013.449.013a2.6,2.6,0,0,0,2.1-.99,2.825,2.825,0,0,0,.541-1.82,2.494,2.494,0,0,0-.66-1.833,2.692,2.692,0,0,0-1.965-.66,5.918,5.918,0,0,0-1.478.171v8.759Zm1.016-8.033a2.054,2.054,0,0,1,.567-.066c1.121,0,1.5.818,1.5,1.728,0,1.253-.673,1.913-1.676,1.913a1.678,1.678,0,0,1-.4-.04V445.2Z" transform="translate(-122.851 -0.088)" fill="#191000"/>
    <path id="Контур_98" data-name="Контур 98" d="M547.687,444.355v8.891h1v-4.1h.158c1.055,0,1.359.818,1.57,1.886a19.169,19.169,0,0,0,.515,2.216h1.029a20.51,20.51,0,0,1-.593-2.467c-.224-1.082-.58-2.018-1.675-2.255l2.177-4.168h-1.1l-1.9,4.036h-.185v-4.036Z" transform="translate(-125.032 -0.104)" fill="#191000"/>
    <path id="Контур_99" data-name="Контур 99" d="M560.462,453.246h.949l-.515-8.891h-1.134l-1,4.063c-.291,1.2-.489,2.044-.66,3.06h-.04c-.185-1.016-.409-1.886-.713-3.06l-1.042-4.063h-1.1l-.527,8.891h.911l.171-3.76c.053-1.266.105-2.506.105-3.548h.04c.172,1.029.435,2.124.726,3.258l1.042,4h.646l1.1-4.168c.276-1.042.514-2.1.712-3.087h.053c-.04,1,.026,2.308.092,3.482l.185,3.826Z" transform="translate(-127.082 -0.104)" fill="#191000"/>
    <path id="Контур_100" data-name="Контур 100" d="M569.4,448.167h-2.229v-2.928h2.374v-.884h-3.39v8.891h3.548v-.884h-2.533v-3.337H569.4v-.858Z" transform="translate(-130.445 -0.104)" fill="#191000"/>
    <path id="Контур_101" data-name="Контур 101" d="M572.764,444.355v8.891h1.016V449.09h2.493v4.155h1.016v-8.891h-1.016v3.812H573.78v-3.812Z" transform="translate(-132.38 -0.104)" fill="#191000"/>
    <path id="Контур_102" data-name="Контур 102" d="M581.4,444.355v8.891h.963l1.662-4.287c.343-.9.752-1.873,1.068-2.981h.026c-.078,1.187-.105,2.295-.105,4.194v3.074h.911v-8.891h-.95l-1.6,4.155c-.37.963-.844,2.137-1.148,3.1h-.026c.079-1.4.119-2.533.119-4.076v-3.179Z" transform="translate(-134.912 -0.104)" fill="#191000"/>
    <path id="Контур_103" data-name="Контур 103" d="M593.627,452.2a2.2,2.2,0,0,1-.937.2c-1.081,0-2.084-.9-2.084-3.615s1.109-3.641,2.058-3.641a1.941,1.941,0,0,1,.9.185l.224-.858a2.209,2.209,0,0,0-1.108-.224c-1.4,0-3.14,1.121-3.14,4.63,0,3.021,1.24,4.419,2.981,4.419a2.838,2.838,0,0,0,1.266-.238l-.158-.858Z" transform="translate(-137.296 -0.071)" fill="#191000"/>
    <path id="Контур_104" data-name="Контур 104" d="M598.195,453.245h1.016v-7.981h1.622v-.91h-4.261v.91h1.622v7.981Z" transform="translate(-139.357 -0.104)" fill="#191000"/>
    <path id="Контур_105" data-name="Контур 105" d="M605.761,450.581l.594,2.665h1l-1.979-8.891h-1.121l-2.031,8.891h.976l.594-2.665Zm-1.82-.818.462-2.256c.119-.594.251-1.359.356-2.031h.053c.105.66.224,1.4.356,2.031l.461,2.256Z" transform="translate(-141.014 -0.104)" fill="#191000"/>
    <path id="Контур_106" data-name="Контур 106" d="M611.051,444.355v8.891h1.016V449.09h2.493v4.155h1.016v-8.891H614.56v3.812h-2.493v-3.812Z" transform="translate(-143.6 -0.104)" fill="#191000"/>
    <path id="Контур_107" data-name="Контур 107" d="M622.517,450.581l.593,2.665h1l-1.979-8.891h-1.121l-2.031,8.891h.976l.593-2.665Zm-1.82-.818.462-2.256c.118-.594.25-1.359.356-2.031h.053c.105.66.224,1.4.356,2.031l.462,2.256Z" transform="translate(-145.923 -0.104)" fill="#191000"/>
    <g id="Сгруппировать_48" data-name="Сгруппировать 48" transform="translate(498.709 444)">
      <g id="Сгруппировать_47-2" data-name="Сгруппировать 47" clip-path="url(#clip-path)">
        <path id="Контур_108" data-name="Контур 108" d="M655.263,443.862H813.672v76.65H655.263v-76.65Z" transform="translate(-655.264 -443.96)" fill="#00a933" fill-rule="evenodd"/>
        <path id="Контур_109" data-name="Контур 109" d="M670.443,443.862h20.742v76.65H670.443v-76.65Z" transform="translate(-659.712 -443.96)" fill="#eb2f31" fill-rule="evenodd"/>
        <path id="Контур_110" data-name="Контур 110" d="M674.806,443.862l-1.719,1.864-.9-.845-.3.324.685.605-.774.839.237.221-1.59,1.723v-.853l.742-.8-.344-.321.728-.789-.266-.252v.331l-.708.052-.006-.433,1.422-1.542h1v.59h-.4l.4.378,1-1.087Zm-1.08,0-.587.636v-.636Zm-3.285,0h1.242l-.457.437h-.512l0,.474-.276.354v-1.265Z" transform="translate(-659.712 -443.96)" fill="#2c0001" fill-rule="evenodd"/>
        <path id="Контур_111" data-name="Контур 111" d="M677.942,544.436a2.659,2.659,0,0,1-.837-1.113c-.307-.755-1.014-1.1-1.391-1.425a5.192,5.192,0,0,0,1.015,2.155c.285.232-1.37-.209-2-.243a2.847,2.847,0,0,1-.867-.271s.338,1.06,2.211,1.293c.7.089,1.173-.4,1.866-.4Zm-2.192-.739a5.9,5.9,0,0,0-.266-1.526c-.249-.725-.933-1.61-1.037-1.474-.36.505.658,2.073.532,2.143-.143.078-.618-.448-1.129-.759-.656-.395-1.329-.778-1.3-.747.115.128-.3,1.715,3.2,2.362Zm-1.625-1.907a10.546,10.546,0,0,0-.038-2.024c-.081-.777-.3-1.041-.361-1.035a4.768,4.768,0,0,0-.337,1.336c-.047.4.406,1.062.26,1.084-.066.011-1.736-1.86-2.062-1.767a2.692,2.692,0,0,0,1.478,1.955c1.044.578,1.06.452,1.06.452Zm-1.156-1.966c.224,0,.315-.68.392-1.6.037-.425-.062-1.329-.181-1.273a1.429,1.429,0,0,0-.485,1.012c-.083.521-.087,1.053-.179,1.087-.17.062-.4-.789-.8-1.292-.327-.425-.653-.413-.665-.53a2.518,2.518,0,0,0,1.916,2.6Zm-.745-4.252c-.242.047-.526,1.474.137,2.588l.23-1.031a2.7,2.7,0,0,0-.367-1.557Zm14.59,9.628s-.528.752-2.268.693c-1.226-.047-1.755-.747-2.327-.716a3.125,3.125,0,0,0-.816-.013,6.366,6.366,0,0,1,1.842,1.358.287.287,0,0,1-.4.105,7.649,7.649,0,0,0-1.806-1.347,4.323,4.323,0,0,0-1.861,1.347.277.277,0,0,1-.377-.124,3.368,3.368,0,0,1,1.787-1.34,3.384,3.384,0,0,0-.762-.042c-.607.005-1.263.687-2.289.753-1.94.059-2.377-.694-2.377-.694.562.383,2.388-.164,2.586-.228a5.221,5.221,0,0,1,3.293.031,5.283,5.283,0,0,1,3.311-.067c.2.064,1.9.665,2.459.283Zm-2.777-.764a2.608,2.608,0,0,0,.836-1.113c.309-.755,1.02-1.1,1.4-1.425a5.3,5.3,0,0,1-1.015,2.155c-.287.232,1.367-.209,2-.243a2.8,2.8,0,0,0,.858-.271s-.332,1.06-2.205,1.293c-.709.089-1.174-.4-1.869-.4Zm2.189-.739a6.177,6.177,0,0,1,.271-1.526c.25-.725.934-1.61,1.031-1.474.363.505-.657,2.073-.527,2.143s.622-.448,1.133-.759c.65-.395,1.326-.778,1.3-.747-.117.128.293,1.715-3.207,2.362Zm1.631-1.907a10.67,10.67,0,0,1,.038-2.024c.085-.777.3-1.041.357-1.035a4.608,4.608,0,0,1,.339,1.336c.045.4-.406,1.062-.266,1.084.071.011,1.746-1.86,2.068-1.767a2.691,2.691,0,0,1-1.475,1.955c-1.048.578-1.061.452-1.061.452Zm1.156-1.966c-.226,0-.315-.68-.394-1.6-.036-.425.061-1.329.184-1.273a1.46,1.46,0,0,1,.486,1.012c.078.521.085,1.053.177,1.087.17.062.405-.789.8-1.292.331-.425.656-.413.667-.53a2.527,2.527,0,0,1-1.915,2.6Zm.742-4.252c.242.047.527,1.474-.133,2.588l-.234-1.031a2.724,2.724,0,0,1,.367-1.557Z" transform="translate(-659.89 -470.833)" fill="#ffef00" fill-rule="evenodd"/>
        <path id="Контур_112" data-name="Контур 112" d="M674.806,462.429l-1.719-1.863-.9.846-.3-.325.685-.605-.774-.839.237-.221-1.59-1.723v.853l.742.8-.344.321.728.789-.266.252v-.374h-.713v.423l1.421,1.54h1v-.59h-.4l.4-.378,1,1.087-1,1.088-.4-.378h.4v-.59h-1l-1.422,1.542.007.386.708,0v-.34l.266.252-.728.788.344.321-.742.8v.853l1.59-1.722-.237-.222.774-.838-.685-.605.3-.324.9.845,1.719-1.863Zm-1.666.636.5-.537.117-.078-.02-.021.02-.019-.117-.078-.5-.537v1.27Zm-2.7.629.276-.354,0-.474h.512l.457-.437-.457-.437h-.512l0-.473-.276-.354v2.529Z" transform="translate(-659.712 -448.014)" fill="#2c0001" fill-rule="evenodd"/>
        <path id="Контур_113" data-name="Контур 113" d="M674.633,462.507l-1.552-1.682-.9.845-.474-.515.684-.6-.771-.836.237-.221-1.41-1.528v.477l.922,1-.344.321.727.788-.572.542v-.542h-.458v.247l1.35,1.463h.818v-.335h-.6l.734-.686,1.17,1.268-1.17,1.268-.734-.686h.6v-.335h-.818l-1.35,1.463,0,.211.455,0v-.509l.572.543-.727.788.344.321-.922,1v.478l1.41-1.528-.237-.221.771-.836-.684-.6.474-.515.9.845,1.552-1.683Zm-1.08,0-.286-.309v.619l.286-.31Zm-3.111,1.058V461.45l.148.19,0,.558h.588l.324.309-.324.31h-.588l0,.558-.148.19Z" transform="translate(-659.712 -448.092)" fill="#ffef00" fill-rule="evenodd"/>
        <path id="Контур_114" data-name="Контур 114" d="M674.193,443.863h.44l-1.552,1.682-.9-.845-.474.514.684.605-.771.836.237.221-1.41,1.528v-.477l.922-1-.344-.321.727-.788-.572-.543v.509l-.455.034,0-.247,1.35-1.463h.818v.334h-.6l.734.686,1.17-1.268Zm-.925,0h.286l-.286.309v-.31Zm-2.825,1.058v-1.058H671.5l-.324.309h-.588l0,.558-.148.19Z" transform="translate(-659.712 -443.96)" fill="#ffef00" fill-rule="evenodd"/>
        <path id="Контур_115" data-name="Контур 115" d="M674.806,523.03l-1.719-1.863-.9.845-.3-.325.685-.6-.774-.839.237-.221-1.59-1.724v.854l.742.8-.344.322.728.788-.266.252v-.374h-.713v.424l1.421,1.541h1v-.59h-.4l.4-.378,1,1.087-1,1.087-.4-.378h.4v-.59h-1l-1.422,1.542.007.387.708,0v-.341l.266.252-.728.789.344.321-.742.8v.853l1.59-1.723-.237-.221.774-.839-.685-.605.3-.324.9.845,1.719-1.863Zm-1.666.636.5-.538.117-.078-.02-.02.02-.02-.117-.078-.5-.538v1.271Zm-2.7.629.276-.354,0-.474h.512l.457-.437-.457-.436h-.512l0-.474-.276-.354v2.53Z" transform="translate(-659.712 -465.772)" fill="#2c0001" fill-rule="evenodd"/>
        <path id="Контур_116" data-name="Контур 116" d="M674.633,523.108l-1.552-1.682-.9.845-.474-.514.684-.606-.771-.836.237-.221-1.41-1.529v.477l.922,1-.344.321.727.788-.572.543v-.543h-.458v.247l1.35,1.463h.818v-.335h-.6l.734-.686,1.17,1.268-1.17,1.268-.734-.686h.6v-.335h-.818l-1.35,1.463,0,.211.455,0v-.509l.572.543-.727.788.344.321-.922,1v.478l1.41-1.528-.237-.221.771-.836-.684-.605.474-.514.9.845,1.552-1.683Zm-1.08,0-.286-.309v.618l.286-.309Zm-3.111,1.057v-2.114l.148.19,0,.558h.588l.324.309-.324.309h-.588l0,.558-.148.19Z" transform="translate(-659.712 -465.85)" fill="#ffef00" fill-rule="evenodd"/>
        <path id="Контур_117" data-name="Контур 117" d="M674.806,502.83l-1.719-1.863-.9.844-.3-.324.685-.605-.774-.839.237-.221-1.59-1.723v.853l.742.8-.344.321.728.788-.266.252v-.374h-.713v.424l1.421,1.54h1v-.59h-.4l.4-.378,1,1.087-1,1.087-.4-.378h.4v-.59h-1l-1.422,1.542.007.386.708,0v-.341l.266.252-.728.788.344.321-.742.805v.853l1.59-1.723-.237-.221.774-.838-.685-.605.3-.324.9.844,1.719-1.862Zm-1.666.635.5-.538.117-.077-.02-.02.02-.02-.117-.078-.5-.537v1.27Zm-2.7.629.276-.354,0-.474h.512l.457-.436-.457-.437h-.512l0-.474-.276-.354v2.529Z" transform="translate(-659.712 -459.853)" fill="#2c0001" fill-rule="evenodd"/>
        <path id="Контур_118" data-name="Контур 118" d="M674.633,502.908l-1.552-1.683-.9.845-.474-.514.684-.605-.771-.836.237-.221-1.41-1.528v.477l.922,1-.344.321.727.788-.572.543v-.543h-.458v.247l1.35,1.463h.818v-.336h-.6l.734-.686,1.17,1.268-1.17,1.268-.734-.686h.6v-.335h-.818l-1.35,1.463,0,.211h.455v-.509l.572.543-.727.788.344.322-.922,1v.477l1.41-1.528-.237-.221.771-.836-.684-.605.474-.514.9.845,1.552-1.682Zm-1.08,0-.286-.31v.619l.286-.309Zm-3.111,1.057v-2.115l.148.19,0,.558h.588l.324.31-.324.309h-.588l0,.558-.148.19Z" transform="translate(-659.712 -459.931)" fill="#ffef00" fill-rule="evenodd"/>
        <path id="Контур_119" data-name="Контур 119" d="M674.806,482.63l-1.719-1.863-.9.845-.3-.324.685-.6-.774-.839.237-.221-1.59-1.722v.853l.742.8-.344.321.728.789-.266.252v-.373h-.713v.424l1.421,1.54h1v-.59h-.4l.4-.378,1,1.087-1,1.087-.4-.378h.4v-.59h-1l-1.422,1.542.007.387.708,0v-.341l.266.252-.728.789.344.321-.742.8v.853l1.59-1.723-.237-.221.774-.839-.685-.6.3-.325.9.845,1.719-1.863Zm-1.666.635.5-.537.117-.078-.02-.02.02-.02-.117-.078-.5-.538v1.27Zm-2.7.63.276-.354,0-.474h.512l.457-.437-.457-.437h-.512l0-.474-.276-.354v2.53Z" transform="translate(-659.712 -453.934)" fill="#2c0001" fill-rule="evenodd"/>
        <path id="Контур_120" data-name="Контур 120" d="M674.633,482.707l-1.552-1.682-.9.845-.474-.515.684-.605-.771-.836.237-.221-1.41-1.528v.478l.922,1-.344.321.727.788-.572.543v-.543h-.458V481l1.35,1.463h.818v-.335h-.6l.734-.686,1.17,1.268-1.17,1.268-.734-.686h.6v-.335h-.818l-1.35,1.463,0,.211.455,0v-.509l.572.543-.727.788.344.322-.922,1v.478l1.41-1.528-.237-.221.771-.836-.684-.605.474-.515.9.846,1.552-1.683Zm-1.08,0-.286-.309v.619l.286-.31Zm-3.111,1.057V481.65l.148.19,0,.558h.588l.324.309-.324.31h-.588l0,.557-.148.19Z" transform="translate(-659.712 -454.011)" fill="#ffef00" fill-rule="evenodd"/>
        <path id="Контур_121" data-name="Контур 121" d="M693.608,462.429l1.719-1.863.9.846.3-.325-.685-.605.773-.839-.236-.221,1.59-1.723v.853l-.742.8.344.321-.728.789.266.252v-.374h.713v.423l-1.422,1.54h-1v-.59h.4l-.4-.378-1,1.087,1,1.088.4-.378h-.4v-.59h1l1.422,1.542-.007.386-.707,0v-.34l-.266.252.728.788-.344.321.742.8v.853l-1.59-1.722.236-.222-.773-.838.685-.605-.3-.324-.9.845-1.719-1.863Zm1.666.636-.5-.537-.117-.078.02-.021-.02-.019.117-.078.5-.537v1.27Zm2.7.629-.276-.354,0-.474h-.511l-.457-.437.457-.437h.511l0-.473.276-.354v2.529Z" transform="translate(-666.5 -448.014)" fill="#2c0001" fill-rule="evenodd"/>
        <path id="Контур_122" data-name="Контур 122" d="M693.853,462.507l1.552-1.682.9.845.474-.515-.685-.6.772-.836-.237-.221,1.41-1.528v.477l-.923,1,.344.321-.727.788.572.542v-.542h.458v.247l-1.35,1.463H695.6v-.335h.6l-.734-.686-1.169,1.268,1.169,1.268.734-.686h-.6v-.335h.818l1.35,1.463,0,.211-.455,0v-.509l-.572.543.727.788-.344.321.923,1v.478l-1.41-1.528.237-.221-.772-.836.685-.6-.474-.515-.9.845-1.552-1.683Zm1.081,0,.286-.309v.619l-.286-.31Zm3.111,1.058V461.45l-.148.19,0,.558h-.588l-.324.309.324.31h.588l0,.558.148.19Z" transform="translate(-666.572 -448.092)" fill="#ffef00" fill-rule="evenodd"/>
        <path id="Контур_123" data-name="Контур 123" d="M693.608,523.03l1.719-1.863.9.845.3-.325-.685-.6.773-.839-.236-.221,1.59-1.724v.854l-.742.8.344.322-.728.788.266.252v-.374h.713v.424l-1.422,1.541h-1v-.59h.4l-.4-.378-1,1.087,1,1.087.4-.378h-.4v-.59h1l1.422,1.542-.007.387-.707,0v-.341l-.266.252.728.789-.344.321.742.8v.853l-1.59-1.723.236-.221-.773-.839.685-.605-.3-.324-.9.845-1.719-1.863Zm1.666.636-.5-.538-.117-.078.02-.02-.02-.02.117-.078.5-.538v1.271Zm2.7.629-.276-.354,0-.474h-.511l-.457-.437.457-.436h.511l0-.474.276-.354v2.53Z" transform="translate(-666.5 -465.772)" fill="#2c0001" fill-rule="evenodd"/>
        <path id="Контур_124" data-name="Контур 124" d="M693.853,523.108l1.552-1.682.9.845.474-.514-.685-.606.772-.836-.237-.221,1.41-1.529v.477l-.923,1,.344.321-.727.788.572.543v-.543h.458v.247l-1.35,1.463H695.6v-.335h.6l-.734-.686-1.169,1.268,1.169,1.268.734-.686h-.6v-.335h.818l1.35,1.463,0,.211-.455,0v-.509l-.572.543.727.788-.344.321.923,1v.478l-1.41-1.528.237-.221-.772-.836.685-.605-.474-.514-.9.845-1.552-1.683Zm1.081,0,.286-.309v.618l-.286-.309Zm3.111,1.057v-2.114l-.148.19,0,.558h-.588l-.324.309.324.309h.588l0,.558.148.19Z" transform="translate(-666.572 -465.85)" fill="#ffef00" fill-rule="evenodd"/>
        <path id="Контур_125" data-name="Контур 125" d="M693.608,502.83l1.719-1.863.9.844.3-.324-.685-.605.773-.839-.236-.221,1.59-1.723v.853l-.742.8.344.321-.728.788.266.252v-.374h.713v.424l-1.422,1.54h-1v-.59h.4l-.4-.378-1,1.087,1,1.087.4-.378h-.4v-.59h1l1.422,1.542-.007.386-.707,0v-.341l-.266.252.728.788-.344.321.742.805v.853l-1.59-1.723.236-.221-.773-.838.685-.605-.3-.324-.9.844-1.719-1.862Zm1.666.635-.5-.538-.117-.077.02-.02-.02-.02.117-.078.5-.537v1.27Zm2.7.629-.276-.354,0-.474h-.511l-.457-.436.457-.437h.511l0-.474.276-.354v2.529Z" transform="translate(-666.5 -459.853)" fill="#2c0001" fill-rule="evenodd"/>
        <path id="Контур_126" data-name="Контур 126" d="M693.853,502.908l1.552-1.683.9.845.474-.514-.685-.605.772-.836-.237-.221,1.41-1.528v.477l-.923,1,.344.321-.727.788.572.543v-.543h.458v.247l-1.35,1.463H695.6v-.336h.6l-.734-.686-1.169,1.268,1.169,1.268.734-.686h-.6v-.335h.818l1.35,1.463,0,.211h-.455v-.509l-.572.543.727.788-.344.322.923,1v.477l-1.41-1.528.237-.221-.772-.836.685-.605-.474-.514-.9.845-1.552-1.682Zm1.081,0,.286-.31v.619l-.286-.309Zm3.111,1.057v-2.115l-.148.19,0,.558h-.588l-.324.31.324.309h.588l0,.558.148.19Z" transform="translate(-666.572 -459.931)" fill="#ffef00" fill-rule="evenodd"/>
        <path id="Контур_127" data-name="Контур 127" d="M693.608,482.63l1.719-1.863.9.845.3-.324-.685-.6.773-.839-.236-.221,1.59-1.722v.853l-.742.8.344.321-.728.789.266.252v-.373h.713v.424l-1.422,1.54h-1v-.59h.4l-.4-.378-1,1.087,1,1.087.4-.378h-.4v-.59h1l1.422,1.542-.007.387-.707,0v-.341l-.266.252.728.789-.344.321.742.8v.853l-1.59-1.723.236-.221-.773-.839.685-.6-.3-.325-.9.845-1.719-1.863Zm1.666.635-.5-.537-.117-.078.02-.02-.02-.02.117-.078.5-.538v1.27Zm2.7.63-.276-.354,0-.474h-.511l-.457-.437.457-.437h.511l0-.474.276-.354v2.53Z" transform="translate(-666.5 -453.934)" fill="#2c0001" fill-rule="evenodd"/>
        <path id="Контур_128" data-name="Контур 128" d="M693.853,482.707l1.552-1.682.9.845.474-.515-.685-.605.772-.836-.237-.221,1.41-1.528v.478l-.923,1,.344.321-.727.788.572.543v-.543h.458V481l-1.35,1.463H695.6v-.335h.6l-.734-.686-1.169,1.268,1.169,1.268.734-.686h-.6v-.335h.818l1.35,1.463,0,.211-.455,0v-.509l-.572.543.727.788-.344.322.923,1v.478l-1.41-1.528.237-.221-.772-.836.685-.605-.474-.515-.9.846-1.552-1.683Zm1.081,0,.286-.309v.619l-.286-.31Zm3.111,1.057V481.65l-.148.19,0,.558h-.588l-.324.309.324.31h.588l0,.557.148.19Z" transform="translate(-666.572 -454.011)" fill="#ffef00" fill-rule="evenodd"/>
        <path id="Контур_129" data-name="Контур 129" d="M693.608,443.862l1.719,1.864.9-.845.3.324-.685.605.773.839-.236.221,1.59,1.723v-.853l-.742-.8.344-.321-.728-.789.266-.252v.331l.707.052.007-.433-1.422-1.542h-1v.59h.4l-.4.378-1-1.087Zm1.081,0,.585.636v-.636Zm3.284,0h-1.242l.457.437h.511l0,.474.276.354v-1.265Z" transform="translate(-666.5 -443.96)" fill="#2c0001" fill-rule="evenodd"/>
        <path id="Контур_130" data-name="Контур 130" d="M694.294,443.863h-.441l1.552,1.682.9-.845.474.514-.685.605.772.836-.237.221,1.41,1.528v-.477l-.923-1,.344-.321-.727-.788.572-.543v.509l.455.034,0-.247-1.35-1.463H695.6v.334h.6l-.734.686-1.169-1.268Zm.925,0h-.286l.286.309v-.31Zm2.825,1.058v-1.058h-1.058l.324.309h.588l0,.558.148.19Z" transform="translate(-666.572 -443.96)" fill="#ffef00" fill-rule="evenodd"/>
        <path id="Контур_131" data-name="Контур 131" d="M681.379,518.258l.715.455h2.175l1.212-1.179-2.273,0-.823.456.155.092h1.536l-.14.123h-1.622l-.32-.205,1.042-.586h4.529v-1.467h1.493v-1.307h1.326V511.1h-1.326v-1.3h-1.493v-1.467h-4.529l-1.042-.584.32-.206h1.622l.14.123H682.54l-.155.092.823.456,2.273.006-1.212-1.182h-2.175l-.715.456-.715-.456h-2.177l-1.211,1.182,2.272-.006.824-.456-.152-.092h-1.539l.142-.123h1.62l.32.206-1.042.584H675.2V509.8h-1.5v1.3h-1.325v3.541H673.7v1.307h1.5v1.467h4.527l1.042.586-.32.205h-1.62l-.142-.123h1.539l.152-.092-.824-.456-2.272,0,1.211,1.179h2.177l.715-.455Z" transform="translate(-660.278 -462.472)" fill="#2c0001" fill-rule="evenodd"/>
        <path id="Контур_132" data-name="Контур 132" d="M676.925,516.26v-1.116l1.738,1.116Zm0-5.946v1.113l1.738-1.113Zm9.417,5.946v-1.116l-1.736,1.116Zm0-5.946v1.113l-1.736-1.113ZM678.151,515l.8-.579h-1.595l.8.579Zm0-2.916h.8l-.8-.575-.8.575Zm2.235,2.235h1.2v.537h-1.2v-.537Zm.32.081h.555v.374h-.555V514.4Zm1.077-.081H682.9v.537h-1.116v-.537Zm.26.081h.585v.374h-.585V514.4Zm.351,1.137h1.195V515h-1.195v.537Zm.32-.082h.555v-.373h-.555v.373Zm-1.679.082h1.195V515h-1.195v.537Zm.32-.082h.555v-.373h-.555v.373Zm.429.783H682.9V515.7h-1.116v.539Zm.26-.083h.585v-.373h-.585v.373Zm-1.656.083h1.2V515.7h-1.2v.539Zm.32-.083h.555v-.373h-.555v.373Zm-1-.618H680.9V515h-1.195v.537Zm.32-.082h.555v-.373h-.555v.373Zm.359-3.2h1.2v-.536h-1.2v.536Zm.32-.078h.555V511.8h-.555v.378Zm1.077.078H682.9v-.536h-1.116v.536Zm.26-.078h.585V511.8h-.585v.378Zm.351-1.14h1.195v.539h-1.195v-.539Zm.32.081h.555v.374h-.555v-.374Zm-1.679-.081h1.195v.539h-1.195v-.539Zm.32.081h.555v.374h-.555v-.374Zm.429-.783H682.9v.542h-1.116v-.542Zm.26.086h.585v.372h-.585v-.372Zm-1.656-.086h1.2v.542h-1.2v-.542Zm.32.086h.555v.372h-.555v-.372Zm-1,.615H680.9v.539h-1.195v-.539Zm.32.081h.555v.374h-.555v-.374Zm1.606,6.747,1.481-.86h3.836V515.44h1.559v-1.281h1.256v-1.747H688.51v-1.283h-1.559v-1.562h-3.836l-1.481-.858-1.482.858h-3.835v1.562h-1.56v1.283H673.5v1.747h1.253v1.281h1.56V517h3.835l1.482.86Zm0,.276,1.513-.882H687.2v-1.572h1.476V514.4h1.352v-2.222h-1.352v-1.288H687.2v-1.572h-4.051l-1.513-.879-1.513.879H676.07v1.572h-1.476v1.288H673.24V514.4h1.354v1.289h1.476v1.572h4.051l1.513.882Zm3.485-6.057h-.8l.8-.575.8.575Zm0,2.916-.8-.579h1.6l-.8.579Z" transform="translate(-660.531 -462.881)" fill="#eb2f31" fill-rule="evenodd"/>
        <path id="Контур_133" data-name="Контур 133" d="M681.448,518l1.536-.918h4.2V515.5h1.48v-1.276h1.348v-2.579H688.66v-1.276h-1.48v-1.577h-4.2l-1.536-.917-1.536.917h-4.2v1.577h-1.481v1.276h-1.346v2.579h1.346V515.5h1.481v1.577h4.2l1.536.918Zm0,.109.8.522h2.014l.9-.862h-1.844l-.375.21h1.613l-.489.444h-1.781l-.547-.354,1.28-.75h4.452v-1.463h1.485v-1.311h1.334v-3.21h-1.334v-1.311h-1.485v-1.462h-4.452l-1.28-.748.547-.357h1.781l.489.445h-1.613l.375.21h1.844l-.9-.861H682.25l-.8.519-.8-.519H678.63l-.9.861h1.845l.375-.21h-1.614l.489-.445h1.782l.548.357-1.281.748h-4.454v1.462H673.94v1.311H672.6v3.21h1.336v1.311h1.484v1.463h4.454l1.281.75-.548.354H678.83l-.489-.444h1.614l-.375-.21h-1.845l.9.862h2.015l.8-.522Zm-1.839-5.348h-.555v.374h.555v-.374Zm.406-.081h-1.2v.537h1.2v-.537Zm-1.092-.618h-.555v.372h.555v-.372Zm.32-.083h-1.2v.539h1.2v-.539Zm-1.367,0h-1.182v.539h1.182v-.539Zm-.3.083h-.584v.372h.584v-.372Zm-.279.618h-1.2v.537h1.2v-.537Zm-.29.081h-.555v.374h.555v-.374Zm1.255,0h-.556v.374h.556v-.374Zm.393-.081h-1.2v.537h1.2v-.537Zm-.78.68h-1.182v.539h1.182v-.539Zm-.3.083h-.584v.372h.584v-.372Zm1.666-.083h-1.2v.539h1.2v-.539Zm-.32.083h-.555v.372h.555v-.372Zm5.05,0h.556v.372h-.556v-.372Zm-.32-.083h1.194v.539h-1.194v-.539Zm1.664.083h.587v.372h-.587v-.372Zm-.3-.083H686.2v.539h-1.183v-.539Zm-.778-.68h1.193v.537H684.24v-.537Zm.39.081h.556v.374h-.556v-.374Zm1.258,0h.554v.374h-.554v-.374Zm-.292-.081h1.2v.537h-1.2v-.537Zm-.28-.618h.587v.372h-.587v-.372Zm-.3-.083H686.2v.539h-1.183v-.539Zm-1.367,0h1.194v.539h-1.194v-.539Zm.32.083h.556v.372h-.556v-.372Zm-1.092.618h1.193v.537h-1.193v-.537Zm.405.081h.554v.374h-.554v-.374Zm-1.838-.066-.8-.579h1.594l-.8.579Zm0-2.916h-.8l.8-.575.8.575Zm0,3.406-.8.579h1.594l-.8-.579Zm0,2.916h-.8l.8.578.8-.578Z" transform="translate(-660.345 -462.534)" fill="#ffef00" fill-rule="evenodd"/>
        <path id="Контур_134" data-name="Контур 134" d="M689.783,513.488l0,.686-1.292,0v1.29h-1.545v1.558h-3.7l-1.439.821-1.44-.821h-3.7v-1.558h-1.546v-1.29l-1.292,0V512.8l1.292,0v-1.292h1.546v-1.559h3.7l1.44-.821,1.439.821h3.7v1.559h1.545V512.8l1.292,0,0,.686Zm-3.1,3.154v-1.579l-2.457,1.579Zm0-6.31v1.581l-2.457-1.581Zm-9.768,6.31v-1.579l2.458,1.579Zm0-6.31v1.581l2.458-1.581Zm8.369,5.1-1.145-.828h-.283v-.691h-.781v-.849h.781v-.694h.283l1.145-.857,1.082.857h.373v.694h.562v.849h-.562v.691h-.373l-1.082.828Zm-6.968,0,1.145-.828h.279v-.691h.781v-.849h-.781v-.694h-.279l-1.145-.857-1.083.857h-.371v.694H676.3v.849h.565v.691h.371l1.083.828Zm3.483-1.893-1.144.827h-.279v.691h-.658v.849h.658v.694h.279l1.144.826,1.145-.826h.279V515.9h.657v-.849h-.657v-.691h-.279l-1.145-.827Zm0-.094-1.144-.831h-.279v-.689h-.658v-.849h.658v-.695h.279l1.144-.824,1.145.824h.279v.695h.657v.849h-.657v.689h-.279l-1.145.831Z" transform="translate(-660.703 -463.084)" fill="#00a049" fill-rule="evenodd"/>
        <path id="Контур_135" data-name="Контур 135" d="M681.994,538.009H679.68l-5.207-2.743v-4.74l5.207-2.745h4.63l5.206,2.745v4.74l-5.206,2.743Z" transform="translate(-660.893 -468.55)" fill="#2c0001" fill-rule="evenodd"/>
        <path id="Контур_136" data-name="Контур 136" d="M679.763,537.935l-5.111-2.694v-4.585l5.111-2.694h4.568l5.111,2.694v4.585l-5.111,2.694Zm.068-.278-4.9-2.583v-4.252l4.9-2.585h4.431l4.9,2.585v4.252l-4.9,2.583Zm1.947-4.706-1.239.8h-.5v-.4h.349v-.226h-.562v.852h.728v.652h1.263v-.752h-.48v.219h.245v.322h-.8v-.51l1.26-.817,1.261.817v.51h-.806V534.1h.247v-.219h-.481v.752h1.263v-.652h.727v-.852h-.56v.226h.346v.4h-.5l-1.24-.8,1.24-.8h.5v.4h-.346v.226h.56v-.852h-.727v-.652h-1.263v.752h.481V531.8h-.247v-.322h.806v.511l-1.261.817-1.26-.814v-.513h.8v.323h-.245v.218h.48v-.755h-1.263v.654h-.728v.853h.562v-.226h-.349v-.4h.5l1.239.8Z" transform="translate(-660.945 -468.603)" fill="#00a049" fill-rule="evenodd"/>
        <path id="Контур_137" data-name="Контур 137" d="M682.269,529.676l.244.214v-1.217h1.627l-1.151.805v.722l1.057.683V529.5h.772v.512l.481.008v-.52h.741l-.006,1.546-.735-.006v-.5h-.481v.5h-.495l.245.162h.942v1.848h3.678l-.011-1.96-4.819-2.561h-2.09v1.138Zm4.045,1.374h2.011v-.126l-2.011-1.073v1.2Zm0,1.895V531.4h.772v.512l.481.008v-.52h.74l-.005,1.545-.735-.005v-.5h-.481v.5Zm-4.182,3.621-.242-.214v1.217h-1.627l1.149-.805v-.722l-1.055-.684v1.379h-.773v-.512l-.482-.008v.52h-.739l.006-1.545.733,0v.5h.482v-.5h.5l-.249-.162h-.94v-1.848h-3.678l.013,1.96,4.816,2.561h2.09v-1.138Zm-4.042-1.374h-2.013v.125l2.013,1.073v-1.2Zm0-1.9v1.545h-.774v-.512l-.479-.008v.52H676.1l.006-1.545.735,0v.5h.479v-.5Z" transform="translate(-661.11 -468.772)" fill="#ffef00" fill-rule="evenodd"/>
        <path id="Контур_138" data-name="Контур 138" d="M682.269,536.566l.244-.214v1.217h1.627l-1.151-.805v-.722l1.057-.684v1.379h.772v-.512l.481-.008v.52h.741l-.006-1.545-.735,0v.5h-.481v-.5h-.495l.245-.162h.942v-1.848h3.678l-.011,1.96-4.819,2.561h-2.09v-1.138Zm4.045-1.374h2.011v.125l-2.011,1.073v-1.2Zm0-1.9v1.545h.772v-.512l.481-.008v.52h.74L688.3,533.3l-.735.005v.5h-.481v-.5Zm-4.182-3.622-.242.214v-1.216h-1.627l1.149.805v.722l-1.055.683V529.5h-.773v.511l-.482.008V529.5h-.739l.006,1.546.733-.005v-.5h.482v.5h.5l-.249.162h-.94v1.847h-3.678l.013-1.961,4.816-2.559h2.09v1.135Zm-4.042,1.376h-2.013v-.126l2.013-1.075v1.2Zm0,1.895V531.4h-.774v.512l-.479.008v-.52H676.1l.006,1.546.735,0v-.5h.479v.5Z" transform="translate(-661.11 -468.772)" fill="#fff" fill-rule="evenodd"/>
        <path id="Контур_139" data-name="Контур 139" d="M686.329,536.717h-.443v-.525h-.792v.525h-.443v-1.268h.443v.542h.792v-.542h.443v1.268Zm2.259-1.883h-.444v-.525h-.791v.525h-.443v-1.268h.443v.542h.791v-.542h.444v1.268Zm-1.669.607h1.529l-1.529.78v-.78Zm-.59-5.668h-.443v.525h-.792v-.525h-.443v1.268h.443V530.5h.792v.542h.443v-1.268Zm2.259,1.883h-.444v.525h-.791v-.525h-.443v1.268h.443v-.542h.791v.542h.444v-1.268Zm-1.669-.608h1.529l-1.529-.78v.78Zm-7.993,5.668h.445v-.525h.792v.525h.441v-1.268h-.441v.542h-.792v-.542h-.445v1.268Zm-2.257-1.883h.443v-.525h.791v.525h.446v-1.268H677.9v.542h-.791v-.542h-.443v1.268Zm1.668.607h-1.528l1.528.78v-.78Zm.589-5.669h.445v.529h.792v-.529h.441v1.269h-.441V530.5h-.792v.541h-.445v-1.269Zm-2.257,1.885h.443v.525h.791v-.525h.446v1.269H677.9v-.544h-.791v.544h-.443v-1.269Zm1.668-.608h-1.528l1.528-.78v.78Zm3.835,6.479v-1.321l.456.3.455-.3v1.321h1l-.833-.563V536.1l1.7-1.1h.834v-3.514h-.834l-1.7-1.1v-.862l.833-.563h-1v1.321l-.455-.3-.456.3v-1.319h-1l.832.563v.86l-1.7,1.1h-.834V535h.834l1.7,1.1v.862l-.832.563Zm3.287-4.282v-1.527h-.575l-2.256-1.456-2.255,1.456H679.8v3.054h.576l2.255,1.455,2.256-1.455h.575v-1.527Zm-2.831,2.764-1.426-.916h1.352v-1.087h-.64l.714-.461.713.461H682.7v1.087h1.349l-1.424.916Zm.869-1.905v.424h-.276v.057h.536v-.311l-.26-.17Zm-1.738,0v.424h.276v.057H681.5v-.311l.261-.17Zm1.738-1.718v-.424h-.276v-.057h.536v.311l-.26.17Zm-1.738,0v-.427h.276V531.9H681.5v.311l.261.172Zm3.535.858v1.393h-.532l-.481.308v-.524h.737v-1.128h-.906v.489h.375v.119h-.319l-1.016-.656,1.016-.656h.319v.119h-.375v.489h.906v-1.129h-.737v-.523l.481.308h.532v1.394Zm-5.331,0v-1.393l.533,0,.48-.309v.525h-.739l0,1.127h.906v-.488h-.375l0-.119h.32l1.015.655-1.015.656h-.32l0-.119h.375v-.489h-.906l0,1.128h.739v.524l-.48-.308h-.533v-1.393Zm2.665-.3-.714-.461h.64V531.4H681.2l1.426-.918,1.424.916H682.7v1.087h.638l-.713.462Z" transform="translate(-661.536 -468.897)" fill="#eb2f31" fill-rule="evenodd"/>
        <path id="Контур_140" data-name="Контур 140" d="M681.25,458.437h2.51l2.569-1.443H687.6l1.457-.831v-1.442l1.512-.848v-2.66l-1.512-.848v-1.443l-1.457-.832-1.272,0-2.569-1.445h-5.017l-2.572,1.445-1.267,0-1.46.832v1.443l-1.512.848v2.66l1.512.848v1.442l1.46.831h1.267l2.572,1.443Z" transform="translate(-660.148 -444.776)" fill="#2c0001" fill-rule="evenodd"/>
        <path id="Контур_141" data-name="Контур 141" d="M686.879,450.422l.471-.322h-.879v.087l.409.235Zm.29-1.338h-.706L684,447.7h-1.307l.446.321,1.092,0,.857.493L684.6,449l-.491-.275h-.435l-.916.9.717.428.611-.4v-.843l.737.409.517-.339.552.341-.535.328.521.3.082-.049v-.891l.759.454.45-.279Zm-11.557,5.477h.8l.643-.382v-.484l-.734-.5h-.132v.717h-.752v.179h.7v.153l-.53.314Zm1.753,1.208h1.1l.323-.221h-1.1l-.323.221Zm-.466-.384.188-.107v-.531l-.188.107v.531Zm-1.6.961.5-.338-.576-.352V455.6h.372l-.471-.327.515-.312-1.508-.868v-.327l-.852-.81H672.9v.788l1.559.9V456.1l.9.517h.376l-.427-.269Zm.593.269h.706L679.068,458h1.307l-.446-.321-1.093,0-.856-.492.482-.479.491.275h.435l.916-.9-.718-.428-.611.4v.843l-.737-.409-.517.338-.552-.341.536-.328-.522-.3-.082.048v.892l-.758-.454-.45.278Zm.289-1.336-.471.321h.88v-.087l-.409-.234Zm11.577-5.927-.5.338.576.353v.056h-.37l.471.327-.516.312,1.508.869v.327l.852.811h.388v-.788l-1.559-.9V449.6l-.9-.517h-.376l.427.269Zm-.31,1.786h-.8l-.643.382V452l.735.5h.131v-.718h.753v-.178h-.7v-.153l.529-.314Zm-1.287-.824-.188.107v.53l.188-.107v-.53Zm-.465-.385h-1.1l-.323.221h1.1l.324-.221Z" transform="translate(-660.431 -445.085)" fill="#ffef00" fill-rule="evenodd"/>
        <path id="Контур_142" data-name="Контур 142" d="M676.184,450.426l-.471-.322h.88v.086l-.409.235Zm-.289-1.338h.706l2.467-1.382h1.307l-.446.321-1.093,0-.856.492.482.479.491-.276h.435l.916.9-.718.428-.611-.4v-.843l-.737.409-.517-.338-.552.341.536.328-.522.3-.082-.049v-.892l-.758.454-.45-.279Zm-.593.269.5.338-.576.352v.057h.372l-.471.326.515.313-1.508.867v.328l-.852.81H672.9v-.788l1.559-.9v-1.454l.9-.517h.376l-.427.269Zm1.6.961.188.107v.531l-.188-.107v-.531Zm.466-.385h1.1l.323.221h-1.1l-.323-.221Zm-1.753,1.21h.8l.643.382v.484l-.734.5h-.132v-.717h-.752v-.179h.7v-.153l-.53-.313Zm4.588.952.518-.321v.321Zm-1.052.653.717-.441v.441Zm2.383-4.014-.562-.45.562-.413.562.41-.562.452Zm2.383,4.011-.717-.443v.443Zm-1.052-.653-.518-.322v.322Zm-1.331-.462h.584l-.584-.361-.584.365.584,0Zm0-2.442,1.982,1.183,2.128.071,0,1.75.814.563h2.377l-.77-.783-.22.188h.284l0,.081-.426.42-1.037,0-.864-.592v-1.752l-2.233-.025-1.861-1.108,0-.475.186-.164h.631v.285l.2-.211-1.193-.886-1.193.889.205.211v-.285h.631l.186.164,0,.475L679.5,450.3l-2.232.025v1.753l-.864.592-1.037,0-.43-.421v-.081h.285l-.22-.187-.77.783h2.376l.814-.563,0-1.75,2.129-.073,1.981-1.185Zm0,7.78.562.449-.562.413-.562-.409.562-.452Zm2.383-4.015-.717.442v-.442Zm-1.052.653-.518.321v-.321Zm4.588.952h-.8l-.643-.382v-.484l.735-.5h.131v.717h.753v.178h-.7v.153l.529.314Zm-1.752,1.21h-1.1l-.323-.221h1.1l.324.221Zm.465-.385-.188-.107v-.53l.188.107v.53Zm1.6.962-.5-.339.576-.352V455.6h-.37l.471-.326-.516-.312,1.508-.868v-.327l.852-.811h.388v.788l-1.559.9V456.1l-.9.517h-.376l.427-.269Zm-.592.269h-.706L684,458h-1.307l.446-.322,1.092,0,.857-.493-.483-.478-.491.275h-.435l-.916-.9.717-.428.611.4v.843l.737-.409.517.338.552-.341-.535-.329.521-.3.082.048v.892l.759-.455.45.279Zm-.29-1.337.471.322h-.879v-.086l.409-.235Zm-7.731-2.32.717.441v-.441Zm1.052.653.518.321v-.321Zm1.331.825-.584-.362h.584l.584,0-.584.365Zm0,2.079-1.981-1.183-2.129-.072,0-1.75-.814-.563h-2.376l.77.783.22-.187h-.285l0-.081.427-.421,1.037,0,.864.592v1.752l2.232.026,1.861,1.108,0,.475-.186.164h-.631v-.285l-.205.21,1.193.886,1.193-.889-.2-.21v.284h-.631l-.186-.163,0-.476,1.861-1.107,2.233-.026v-1.752l.864-.592,1.037,0,.43.421v.081h-.284l.22.188.77-.783h-2.377l-.814.563,0,1.75-2.128.072-1.982,1.186Z" transform="translate(-660.431 -445.086)" fill="#fff" fill-rule="evenodd"/>
        <path id="Контур_143" data-name="Контур 143" d="M680.2,453.627l.26.161-.633.376v.658l-1.09-.666h.8l.667-.529Zm-1.3.84-.359.243.225.127.365-.24-.231-.129Zm2.907,3.168-.315-.214.315-.242.315.239-.315.217Zm-1.054-1.471-1.012.988h-.513l-.44-.25-.233.237.626.362h1.071l.686.5h.627l-1.182-.912.574-.579V457h.388l.131-.086V456.6l-.725-.437Zm-2.616.075-.356.233.225.143.359-.245-.228-.131Zm1.215-.694h.234l.061.016-.588.385v.635l-1.154-.648h.857l.59-.387Zm-2.047,0h.307l-.437.245v.654l-1.1-.681h.809l.42-.218Zm-1.066.545-.359.243.225.127.366-.24-.231-.13Zm-.162-1.031-.349.239.205.139.378-.245-.234-.134Zm1.282-.709v.2l-.334.2v.662l-1.1-.663h.768l.664-.4Zm-3.521-1.395.781.764v.314l.142.047.748.435.491-.265h-.444v-.472h.708l0-.583h-.513l-.172.173h.327l-.645.611-1-1.024Zm15.938,0-.781.761v.313l-.141.049-.749.433-.491-.263h.444v-.472h-.707l0-.585h.514l.172.173h-.327l.643.61,1-1.021Zm-3.52,1.394v.2l.334.2v.662l1.1-.662h-.768l-.664-.394Zm1.28.707.349.241-.2.138-.377-.245.233-.134Zm-.161,1.035.359.241-.225.127-.365-.241.232-.127Zm-1.067-.549H686l.437.245v.656l1.1-.681h-.81l-.42-.221Zm-2.047,0h-.234l-.061.015.588.386v.635l1.154-.647h-.857l-.59-.389Zm1.216.693.356.235-.225.139-.359-.242.228-.132Zm-2.2-3.28v.455h-.822v.489h-.534v-.945Zm3.1,0-.631.457v1.7h-1.9l-1.9,1.11,0-1.676,1.043-.651.627.371v.871l.732-.443.514.329.524-.317-.484-.351.616-.38h-1.366l-.539-.469.882-.55Zm-3.516,3.21,1.012.989h.513l.44-.252.233.238-.626.361h-1.071l-.686.5h-.626l1.181-.913-.574-.578V457h-.388l-.131-.087V456.6l.725-.436Zm-9.023-3.416.781-.761v-.314l.142-.049.748-.433.491.263h-.444v.471h.708l0,.585h-.513l-.172-.173h.327l-.645-.611-1,1.021Zm3.521-1.393v-.2l-.334-.2V450.3l-1.1.662h.768l.664.395Zm-1.282-.707-.349-.241.205-.138.378.245-.234.134Zm.162-1.035-.359-.241.225-.127.366.24-.231.128Zm1.066.548h.307l-.437-.245v-.656l-1.1.682h.809l.42.22Zm2.047,0h.234l.061-.016-.588-.386v-.635l-1.154.648h.857l.59.389Zm-1.215-.693-.356-.235.225-.139.359.242-.228.132Zm2.2,3.28v-.455h.822V451.8h.534v.944Zm-3.1,0,.631-.457v-1.7h1.9l1.9-1.11,0,1.675-1.044.651-.626-.371v-.871l-.732.443-.514-.329-.525.318.485.351-.617.38h1.366l.54.469-.882.55Zm3.516-3.209-1.012-.989h-.513l-.44.251-.233-.238.626-.361h1.071l.686-.5h.627l-1.182.913.574.577V448.7h.388l.131.088v.312l-.725.437Zm1.054-1.017-.315-.239.315-.217.315.214-.315.242Zm1.606,3.552-.26-.162.633-.375v-.658l1.091.665h-.8l-.667.53Zm1.3-.84.36-.243-.225-.126-.365.239.231.13Zm-1.853-1.7,1.012-.988h.513l.44.25.233-.238-.626-.362h-1.071l-.686-.5h-.626l1.181.912-.574.579V448.7h-.388l-.131.086v.312l.725.437Zm2.616-.074.356-.233-.225-.143-.359.245.228.131Zm-1.216.693h-.234l-.061-.016.588-.386v-.635l1.154.649h-.857l-.59.386Zm2.047,0H686l.437-.245v-.655l1.1.681h-.81l-.42.218Zm1.067-.546.359-.242-.225-.127-.365.239.232.129Zm.161,1.032.349-.239-.2-.138-.377.244.233.133Zm-1.28.71v-.2l.334-.2v-.662l1.1.663h-.768l-.664.4Zm3.52,1.394L689,451.98v-.315l-.141-.046-.749-.435-.491.265h.444v.472h-.707l0,.583h.514l.172-.174h-.327l.643-.61,1,1.023Z" transform="translate(-660.707 -445.085)" fill="#eb2f31" fill-rule="evenodd"/>
        <path id="Контур_144" data-name="Контур 144" d="M676.756,452.73l.631.455v1.7h1.9l1.9,1.106,0-1.673-1.043-.653-.626.375v.869l-.732-.445-.514.332-.525-.32.485-.349-.617-.384h1.366l.54-.467-.882-.549Zm3.1,0v.458h.821v.489h.534v-.947Zm4.376,1.507.36.243-.226.127-.365-.24.23-.13Zm-1.3-.839-.26.161.633.376v.658l1.091-.666h-.8l-.667-.529Zm-1.6,4.921h2.509l2.528-1.419H687.6l1.311-.735v-1.442l1.544-.867V451.4l-1.544-.867v-1.443l-1.311-.735-1.238,0-2.528-1.42h-5.017l-2.529,1.42-1.239,0-1.313.735v1.443l-1.544.867v2.462l1.544.867v1.442l1.313.735h1.239l2.529,1.419Zm0-.391h2.549l2.387-1.35h1.243l1.109-.626v-1.434l1.552-.888v-2.006l-1.552-.89V449.3l-1.109-.626h-1.243l-2.387-1.35h-5.1l-2.387,1.35h-1.239l-1.1.626v1.433l-1.561.89v2.006l1.561.888v1.434l1.1.626h1.239l2.387,1.35Zm4.568-5.409-.631-.455v-1.7h-1.9l-1.9-1.106,0,1.673,1.043.653.627-.375v-.87l.732.445.514-.332.524.319-.484.349.617.384h-1.366l-.539.467.882.55Zm-3.1,0v-.457h-.822v-.49h-.534v.947Zm-4.376-1.507-.359-.242.225-.127.365.239-.231.13Zm1.3.84.26-.161-.633-.376v-.658l-1.09.665h.8l.667.53Z" transform="translate(-660.225 -444.86)" fill="#00a049" fill-rule="evenodd"/>
        <path id="Контур_145" data-name="Контур 145" d="M681.583,477.839h2.331v-.813h2.15v-.717h1.919v-.815H690.1v-6.774h-2.113v-.811h-1.919v-.721h-2.15v-.812h-4.662v.812H677.1v.721h-1.918v.811h-2.114v6.774h2.114v.815H677.1v.717h2.152v.813Z" transform="translate(-660.481 -450.557)" fill="#2c0001" fill-rule="evenodd"/>
        <path id="Контур_146" data-name="Контур 146" d="M675.167,471.806l-.33-.341v-.228l.208.178.122-.264.12.264.208-.178v.228l-.329.341Zm4.211-.781.683-.674-.088-.144-.093-.015.053.113-.481.449v-.9l.252-.163-.327-.238-.326.238.252.163v.9l-.481-.449.053-.113-.092.015-.086.144.68.674Zm-2.081.708.684-.676-.09-.146-.092-.012.054.112-.481.445v-.9l.252-.163-.327-.24-.326.24.252.163v.9l-.482-.445.054-.112-.092.012-.086.146.679.676Zm4.8-2.511-.241-.187.241-.126.24.126-.24.187Zm-2.138,3.628-.431-.315-.472.315.472.315.431-.315Zm-4.8,1.042-.33.343v.227l.208-.177.122.263.12-.263.208.177v-.227l-.329-.343Zm4.211.779.683.678-.088.144-.093.013.053-.114-.481-.447v.9l.252.163-.327.239-.326-.239.252-.163v-.9l-.481.447.053.114-.092-.013-.086-.144.68-.678Zm-2.081-.7.684.677-.09.144-.092.014.054-.115-.481-.447v.9l.252.163-.327.24-.326-.24.252-.163v-.9l-.482.447.054.115-.092-.014-.086-.144.679-.677Zm4.8,2.822-.241-.125.241-.185.24.185-.24.125Zm6.934-4.982.329-.341v-.228l-.207.178-.122-.264-.122.264-.207-.178v.228l.329.341Zm-4.212-.781-.683-.674.088-.144.093-.015-.054.113.48.449v-.9l-.252-.163.327-.238.327.238-.252.163v.9l.48-.449-.053-.113.091.015.088.144-.682.674Zm2.08.708-.683-.676.089-.146.093-.012-.054.112.48.445v-.9l-.251-.163.326-.24.327.24-.252.163v.9l.479-.445-.052-.112.091.012.088.146-.682.676Zm-2.665,1.117.431-.315.472.315-.472.315-.431-.315Zm4.8,1.042.329.343v.227l-.207-.177-.122.263-.122-.263-.207.177v-.227l.329-.343Zm-4.212.779-.683.678.088.144.093.013-.054-.114.48-.447v.9l-.252.163.327.239.327-.239-.252-.163v-.9l.48.447-.053.114.091-.013.088-.144-.682-.678Zm2.08-.7-.683.677.089.144.093.014-.054-.115.48-.447v.9l-.251.163.326.24.327-.24-.252-.163v-.9l.479.447-.052.115.091-.014.088-.144-.682-.677Z" transform="translate(-660.999 -451.299)" fill="#fff" fill-rule="evenodd"/>
        <path id="Контур_147" data-name="Контур 147" d="M681.862,470.236h-.639l.2-.243-.7-.457.742-.429v.491h.187v-.657l-.581-.38.79-.45.788.45-.58.38v.657h.187v-.491l.743.429-.7.457.2.243Zm0-2.4-.932-.587h1.864l-.932.587Zm-7.5,1.732v.3l-.339-.3Zm.528.317-.321-.317h.642l-.321.317Zm.529-.317v.3l.339-.3Zm.992-.805v.3l-.339-.3Zm.557.392-.38-.392h.759l-.38.392Zm.558-.392v.3l.339-.3Zm.966-.706v.3l-.339-.3Zm.558.393-.38-.393h.76l-.38.393Zm.556-.393v.3l.341-.3Zm1.181-.221v-.587h-.6l.6.587Zm1.078,4.749-.279-.218.279-.218.28.218-.28.218Zm0,4.032-.79-.452.581-.379v-.655h-.187v.493l-.742-.432.7-.457-.2-.241H682.5l-.2.241.7.457-.743.432v-.493h-.187v.655l.58.379-.788.452Zm0-2.478H680.23l-1.725-1.118v-.248h-2.168v-.812H678.5v-.247l1.725-1.119h3.263l1.725,1.119v.247h2.168v.812h-2.168v.248l-1.725,1.118Zm0,.172h-1.656l-2.061-1.343h-2.772l0-.336h-.855V472.1h.855l0-.337h2.772l2.061-1.34h3.313l2.059,1.34h2.776l0,.337h.855v.532h-.855l0,.336h-2.776l-2.059,1.343Zm0,3.172h-.932l.932-.587.932.587Zm-7.5-2.318v-.3l-.339.3Zm.528-.316-.321.316h.642l-.321-.316Zm.529.316v-.3l.339.3Zm.992.805v-.3l-.339.3Zm.557-.393-.38.393h.759l-.38-.393Zm.558.393v-.3l.339.3Zm.966.706v-.3l-.339.3Zm.558-.394-.38.394h.76l-.38-.394Zm.556.394v-.3l.341.3Zm1.181.22v.587h-.6l.6-.587Zm1.078-7.953-.543-.377.543-.286.544.286-.544.377Zm0,7.512-.543-.287.543-.375.544.375-.544.287Zm7.5-6.886v.3l.339-.3Zm-.529.317.321-.317h-.641l.32.317Zm-.527-.317v.3l-.341-.3Zm-.994-.805v.3l.339-.3Zm-.558.392.38-.392h-.759l.379.392Zm-.557-.392v.3l-.34-.3Zm-.966-.706v.3l.339-.3Zm-.558.393.38-.393H684.3l.379.393Zm-.557-.393v.3l-.34-.3Zm-1.18-.221v-.587h.6l-.6.587Zm6.425,7.328v-.3l.339.3Zm-.529-.316.321.316h-.641l.32-.316Zm-.527.316v-.3l-.341.3Zm-.994.805v-.3l.339.3Zm-.558-.393.38.393h-.759l.379-.393Zm-.557.393v-.3l-.34.3Zm-.966.706v-.3l.339.3Zm-.558-.394.38.394H684.3l.379-.394Zm-.557.394v-.3l-.34.3Zm-1.18.22v.587h.6l-.6-.587Z" transform="translate(-660.761 -450.811)" fill="#eb2f31" fill-rule="evenodd"/>
        <path id="Контур_148" data-name="Контур 148" d="M678.047,473.611v3.1l.443-.375v.463l.374-.394.445.421v-.469l.6.609v-2.149l-1.859-1.2Zm.908.73.8.783v.232l-.425.339.075-.208-.214-.322v.486l.321.287-.561.368-.561-.368.32-.287v-.486l-.213.322.074.208-.424-.339v-.232l.8-.783Zm-4.779-1.613v.462h.837v.3h.7v1.96l-.617-.587v.489l-.353-.406-.4.379v-.52l-.561.552v-2.288h-.4v-.688h.4V470.1l.561.551v-.52l.4.38.353-.408v.49l.617-.587v1.958h-.7v.3h-.837v.465Zm.568.822-.449.466v.678l.284-.242.165.352.162-.352.286.242v-.678l-.448-.466Zm5-.822-.638.475-.721-.475.721-.475.638.475Zm1.93.419-.556-.419.556-.418.556.418-.556.419Zm0,.175-.787-.594.787-.593.787.593-.787.594Zm0,.653-.315.213h-.8l.664-.516-.833-.581-.469.376.154.083.256-.175.539.251-.8.488-1.1-.626.968-.759-.968-.76,1.1-.626.8.486-.539.253-.256-.175-.154.081.469.376.833-.581-.664-.517h.8l.315.214.315-.214h.8l-.665.517.831.581.47-.376-.153-.081-.257.175-.539-.253.8-.486,1.1.626-.969.76.969.759-1.1.626-.8-.488.539-.251.257.175.153-.083-.47-.376-.831.581.665.516h-.8l-.315-.213Zm0,.337h-1.594l-1.591-1.044v-.322h-2.166v-.433h2.166v-.322l1.591-1.045h3.188l1.59,1.045v.322h2.168v.433h-2.168v.322l-1.59,1.044Zm-3.631-2.467v-3.1l.443.375v-.464l.374.392.445-.418v.466l.6-.608v2.148l-1.859,1.2Zm.908-.73.8-.781V470.1l-.425-.337.075.206-.214.322V469.8l.321-.286-.561-.369-.561.369.32.286v.488l-.213-.322.074-.206-.424.337v.233l.8.781Zm-4.211.793-.449-.467v-.678l.284.24.165-.353.162.353.286-.24v.678l-.448.467Zm10.565,1.7v3.1l-.443-.375v.463l-.374-.394-.448.421v-.469l-.595.609v-2.149l1.859-1.2Zm-.909.73-.8.783v.232l.423.339-.073-.208.214-.322v.486l-.321.287.561.368.561-.368-.32-.287v-.486l.213.322-.072.208.423-.339v-.232l-.8-.783Zm4.782-1.613v.462h-.842v.3h-.7v1.96l.617-.587v.489l.355-.406.4.379v-.52l.563.552v-2.288h.392v-.688h-.392V470.1l-.563.551v-.52l-.4.38-.355-.408v.49l-.617-.587v1.958h.7v.3h.842v.465Zm-.57.822.448.466v.678l-.284-.242-.164.352-.165-.352-.283.242v-.678l.448-.466Zm-5.005-.822.639.475.72-.475-.72-.475-.639.475Zm1.7-.884v-3.1l-.443.375v-.464l-.374.392-.448-.418v.466l-.595-.608v2.148l1.859,1.2Zm-.909-.73-.8-.781V470.1l.423-.337-.073.206.214.322V469.8l-.321-.286.561-.369.561.369-.32.286v.488l.213-.322-.072-.206.423.337v.233l-.8.781Zm4.212.793.448-.467v-.678l-.284.24-.164-.353-.165.353-.283-.24v.678l.448.467Z" transform="translate(-660.576 -451.177)" fill="#00a049" fill-rule="evenodd"/>
        <path id="Контур_149" data-name="Контур 149" d="M687.442,472.947v2.622l-.513-.488v.462l-.374-.393-.448.421V475.1l-.637.609v-2.765Zm-.981.143-.8.783v.231l.425.339-.074-.209.214-.322v.486l-.321.287.561.369.561-.369-.32-.287v-.486l.213.322-.072.209.424-.339v-.231l-.8-.783Zm-4.8,4.643h2.147v-.812h2.15V476.2h1.919v-.816h2.114V472.7h-.273v2.434H687.6v.814h-2.132v.718h-2v.812h-3.622v-.812h-2v-.718h-2.131v-.814H673.6V472.7h-.274v2.689h2.115v.816h1.917v.718h2.151v.812Zm0-6.583.369-.281h.257l-.452.371,1.092.811.792-.638-.464-.243-.252.165-.175-.071.417-.266.8.455-.906.729.906.727-.8.459-.417-.268.175-.074.252.168.464-.245-.792-.637-1.092.809.452.373h-.257l-.369-.284-.372.284h-.255l.45-.373-1.089-.809-.793.637.464.245.252-.168.175.074-.419.268-.8-.459.906-.727-.906-.729.8-.455.419.266-.175.071-.252-.165-.464.243.793.638,1.089-.811-.45-.371h.255l.372.281Zm0,.217,1.114.814-1.114.813-1.116-.813,1.116-.814Zm.113-3.573.822-.539v.756l.668-.619v2.679h-.751l-.18-.206.714-.5-.9-.572.581-.43-.958-.568Zm5.669,3.62v-2.621l-.513.489v-.464l-.374.394-.448-.421v.468l-.637-.607v2.762Zm-.981-.141-.8-.784v-.233l.425-.339-.074.209.214.324v-.487l-.321-.288.561-.368.561.368-.32.288v.487l.213-.324-.072-.209.424.339v.233l-.8.784Zm-4.8-4.644h2.147v.812h2.15v.719h1.919v.815h2.114v2.689h-.273v-2.433H687.6v-.817h-2.132V467.7h-2v-.812h-1.811v-.257Zm-5.783,6.317v2.622l.515-.488v.462l.373-.393.448.421V475.1l.636.609v-2.765Zm.979.143.8.783v.231l-.424.339.074-.209-.214-.322v.486l.32.287-.561.369-.561-.369.321-.287v-.486l-.211.322.071.209-.424-.339v-.231l.8-.783Zm4.691-5.3-.823-.539v.756l-.667-.619v2.679h.751l.178-.206-.713-.5.9-.572-.583-.43.959-.568Zm-5.67,3.62v-2.621l.515.489v-.464l.373.394.448-.421v.468l.636-.607v2.762Zm.979-.141.8-.784v-.233l-.424-.339.074.209-.214.324v-.487l.32-.288-.561-.368-.561.368.321.288v.487l-.211-.324.071-.209-.424.339v.233l.8.784Zm4.8-4.644h-2.147v.812h-2.151v.719h-1.917v.815h-2.115v2.689h.274v-2.433h2.11v-.817h2.131V467.7h2v-.812h1.811v-.257Zm-.113,9.939-.823.539v-.755l-.667.619v-2.68h.751l.178.209-.713.5.9.573-.583.431.959.566Zm.226,0,.822.539v-.755l.668.619v-2.68h-.751l-.18.209.714.5-.9.573.581.431-.958.566Z" transform="translate(-660.558 -450.631)" fill="#ffef00" fill-rule="evenodd"/>
        <path id="Контур_150" data-name="Контур 150" d="M681.368,497.863l-.368.259-.425-.259V497.5l.222-.123-.391-.316-.384.316.207.123v.365l-.462.259-.325-.344-.4.344-.437-.259v-.4l.17-.09-.426-.386h-1.7v.68H675.9v-.482h-.491v-.753h.647V495.9h-1.173v.681h-.742V496.1h-.5v-.753h.7v-.438l-.772-.569-.347.305h-.383l-.5-.416.3-.25-.307-.279.5-.389h.388l.347.31.69-.531-.69-.546-.347.332h-.391l-.48-.394.319-.322-.319-.322.48-.392h.391l.347.33.69-.547-.69-.529-.347.307h-.388l-.5-.387.307-.279-.3-.253.5-.412h.383l.347.3.772-.568v-.437h-.7v-.755h.5v-.482h.742v.684h1.173v-.539h-.647v-.751h.491v-.483h.742v.677h1.7l.426-.382-.17-.092v-.4l.437-.259.4.344.325-.344.462.259v.364l-.207.125.384.314.391-.314-.222-.125v-.364L681,486.2l.368.259.367-.259.427.259v.364l-.221.125.389.314.386-.314-.209-.125v-.364l.463-.259.327.344.4-.344.438.259v.4l-.171.092.426.382h1.7v-.677h.743v.483h.493v.751h-.648v.539h1.173v-.684h.743v.482h.493v.755h-.7v.437l.772.568.346-.3h.382l.507.412-.3.253.306.279-.5.387h-.388l-.346-.307-.691.529.691.547.346-.33h.392l.481.392-.321.322.321.322-.481.394h-.392l-.346-.332-.691.546.691.531.346-.31h.388l.5.389-.306.279.3.25-.507.416h-.382l-.346-.305-.772.569v.438h.7v.753H688.6v.483h-.743V495.9h-1.173v.535h.648v.753h-.493v.482H686.1v-.68h-1.7l-.426.386.171.09v.4l-.438.259-.4-.344-.327.344-.463-.259V497.5l.209-.123-.386-.316-.389.316.221.123v.365l-.427.259-.367-.259Z" transform="translate(-660.266 -456.364)" fill="#2c0001"/>
        <path id="Контур_151" data-name="Контур 151" d="M675.055,492.572v.248l-.322-.248.322-.246v.246Zm-.285,1.818.276.217v-.434l-.276.217Zm7.3,3.15-.139-.135h.281l-.141.135Zm-1.936,0-.158-.136h.316l-.158.136Zm1.936-2.928-.234-.146-.422.284v.431l.064.047-.173.09-.183-.093.064-.047v-.428l-.438-.3-.271.3-.344-.291-.38.291v.417l.116.07-.523.348-1.26-.98.353-.127v.2h.472l.191-.368-.191-.283.191-.282-.191-.344h-.472v.24l-.426-.186v-.18l.214-.083.213-.083v.217h.472l.191-.335-.128-.414.128-.414-.191-.334h-.472v.216l-.213-.086-.214-.078v-.184l.426-.187v.242h.472l.191-.346-.191-.28.191-.282-.191-.375h-.472v.2l-.353-.128,1.26-.978.523.346-.116.067v.422l.38.288.344-.288.271.3.438-.3v-.433l-.064-.045.183-.092.173.092-.064.045v.433l.422.283.234-.146.235.146.424-.283v-.433l-.066-.045.175-.092.18.092-.061.045v.433l.437.3.272-.3.341.288.379-.288v-.422l-.114-.067.525-.346,1.258.978-.353.128v-.2h-.469l-.193.375.193.282-.193.28.193.346h.469v-.242l.428.187v.184l-.214.078-.214.086v-.216h-.469l-.193.334.129.414-.129.414.193.335h.469V493.1l.214.083.214.083v.18l-.428.186v-.24h-.469l-.193.344.193.282-.193.283.193.368h.469v-.2l.353.127-1.258.98-.525-.348.114-.07v-.417l-.379-.291-.341.291-.272-.3-.437.3v.428l.061.047-.18.093-.175-.09.066-.047v-.431l-.424-.284-.235.146Zm0,1.449h-2.69l-1.666-1.27v-4.433l1.666-1.274h5.379l1.666,1.274v4.433l-1.666,1.27Zm0-.136h-2.629l-1.586-1.233,0-2.119,0-2.118,1.586-1.235H684.7l1.588,1.235v4.237l-1.588,1.233Zm2.087-3.352v.495h-.636v.51h-.513v.492h-1.878v-.492h-.51v-.51h-.638v-.99h.638v-.508h.51v-.493h1.878v.493h.513v.508h.636v.5Zm-2.8.106v.3l.62.31v-.61Zm-6.586-1.924.276-.216v.431l-.276-.215Zm7.3-3.149-.139.134h.281l-.141-.134Zm-1.936,0-.158.134h.316l-.158-.134Zm1.222,4.86v-.3l.62-.305v.607Zm7.731.107v.248l.32-.248-.32-.246v.246Zm.286,1.818-.278.217v-.434l.278.217Zm-5.367,3.15.157-.136h-.315l.158.136Zm-1.223-4.861v.3l-.619.31v-.61Zm6.59-1.924-.278-.216v.431l.278-.215Zm-5.367-3.149.157.134h-.315l.158-.134Zm-1.223,4.86v-.3l-.619-.305v.607Z" transform="translate(-660.969 -456.778)" fill="#eb2f31" fill-rule="evenodd"/>
        <path id="Контур_152" data-name="Контур 152" d="M687.71,493.017v-2.3l-.579-.444h.717v5.489h-.717l.579-.44v-2.3Zm-.868-3.508v.545l-.713-.545Zm-1.989-.385-.279.224h.557l-.279-.224Zm-.858,0-.279.224h.557l-.279-.224Zm-.82.224h.28l-.28-.224-.28.224Zm0,.691.44-.207h-.877l.438.207Zm1.533.124-.439-.332h.879l-.44.332Zm2.417,2.853.109-.13v.261l-.109-.131Zm-.068-1.453.177.13v-.261l-.177.131Zm-.216,4.963v-.546l-.713.546Zm-1.989.385-.279-.226h.557l-.279.226Zm-.858,0-.279-.226h.557l-.279.226Zm-.82,0,.28-.226h-.56l.28.226Zm0-.709h.44l-.44-.2-.438.2Zm1.533-.333-.439.333h.879l-.44-.333Zm2.349-1.4.177-.13v.261l-.177-.131Zm-8.417-1.451v-2.3l.58-.444h-.717v5.489h.717l-.58-.44v-2.3Zm.869-3.508v.545l.714-.545Zm1.988-.385.279.224h-.556l.276-.224Zm.857,0,.28.224h-.556l.276-.224Zm-.713,1.04.44-.332H681.2l.439.332Zm-2.416,2.853-.107-.13v.261l.107-.131Zm.069-1.453-.177.13v-.261l.177.131Zm.216,4.963v-.546l.714.546Zm1.988.385.279-.226h-.556l.276.226Zm.857,0,.28-.226h-.556l.276.226Zm-.713-1.042.44.333H681.2l.439-.333Zm-2.347-1.4-.177-.13v.261l.177-.131Z" transform="translate(-662.074 -457.223)" fill="#fff" fill-rule="evenodd"/>
        <path id="Контур_153" data-name="Контур 153" d="M686.892,496.781h-1.2l1.2-.878v.878Zm1.693-1.039h-1.468l1.468-1.077v1.077Zm-1.467-1.325v.361h.665l.317-.361-.317-.361h-.665v.361Zm0-1.709v-.363h.665l.317.363-.317.361h-.665v-.361Zm0-1.712v-.358h.665l.317.358-.317.364h-.665V491Zm1.467-1.321h-1.468l1.468,1.078v-1.078Zm-1.693-1.037h-1.2l1.2.876v-.876Zm-4.621,8.708H687.4v-1.092h1.727v-7.094H687.4V488.07H677.143v1.092h-1.727v7.094h1.727v1.092Zm0-.377h4.787v-1.051h1.686V489.5h-1.686v-1.048h-9.574V489.5H675.8v6.424h1.687v1.051Zm-4.619-.189h1.194l-1.194-.878v.878Zm-1.693-1.039h1.468l-1.468-1.077v1.077Zm1.465-1.325v.361h-.662l-.319-.361.319-.361h.662v.361Zm0-1.709v-.363h-.662l-.319.363.319.361h.662v-.361Zm0-1.712v-.358h-.662l-.319.358.319.364h.662V491Zm-1.465-1.321h1.468l-1.468,1.078v-1.078Zm1.693-1.037h1.194l-1.194.876v-.876Zm2.708,4.379h.646l0,.516h.482l0,.486h.689v-.387l-.789-.409v-.4h-1.036v.2Zm3.823,0h-.645l0,.516h-.482l0,.486h-.689v-.387l.79-.409v-.4h1.035l0,.2Zm0-.618h-.645l0-.516h-.482l0-.486h-.689v.387l.79.409v.4h1.035l0-.2Zm-3.823,0h.646l0-.516h.482l0-.486h.689v.387l-.789.409v.4h-1.036v-.2Z" transform="translate(-661.169 -456.914)" fill="#ffef00" fill-rule="evenodd"/>
        <path id="Контур_154" data-name="Контур 154" d="M684.937,492.247l.6.3v.2l-.6-.26v.334h-.211l-.114-.166.144-.409-.144-.409.114-.166h.211v.334l.6-.259v.2l-.6.3Zm-.12,1.451-.182.283.12.175h.179V493.8l.6.257v-.151l-.491-.212.491-.211v-.149l-.6.255v-.351h-.179l-.12.175.182.282Zm-3.34,1.328.8.406.8-.526.747.526h.271l-.99-.7h.537l0-.226-.246-.156-.32.324-.32-.324-.245.156,0,.226h.534l-.769.473-.625-.334.053-.139h.3v-.226l-.319-.149-.206.165-.206-.165-.316.149v.226h.3l.056.139-.628.334-.768-.473h.534l0-.226-.247-.156-.319.324-.319-.324-.245.156v.226h.537l-.991.7h.271l.747-.526.8.526.8-.406Zm.41,1.034-.356.26h.711l-.356-.26Zm.838,0-.356.26h.712l-.356-.26Zm1.9.26h-1.4l.532-.4h1.413l-.547.4Zm.682-1.142h.877l-.877.653v-.653Zm1.018-2.068v.362h.665l.317-.362-.317-.361h-.665v.361Zm1.466-.863V494l-1.466,1.074v-.623h.737l.5-.5-.394-.43.415-.416-.415-.439.378-.424-.378-.424.415-.439-.415-.416.394-.43-.5-.5h-.737v-.623l1.466,1.074v1.754Zm2.12,0,.324.322-.24.187h-.374l-.346-.352-.772.616v-.328l.576-.444-.576-.444v-.328l.772.616.346-.351h.374l.24.186-.324.322Zm-1.408,1.127v.276l.559.416-.559.463v.269l.772-.6.445.366h.245l.268-.224-.3-.274.316-.279-.281-.2h-.293l-.4.37-.772-.58Zm.508,2.256v.378h-.472v.489l-.406,0v-.538h.4v-.327Zm-7.533,2.105.36.261.255-.13v-.187l-.329-.216.455-.385h-.363l-.378.328-.377-.328h-.364l.456.385-.329.216v.187l.252.13.362-.261Zm1.2-.657h.358l.372.385.411-.385h.413l-.439.385.3.216v.17l-.255.147-.429-.374-.358.374-.259-.148v-.169l.312-.216-.423-.385Zm4.573-.358v.378h-.472v.493l-.406-.006v-.538h.4v-.327Zm-9.049-4.473.143.409-.112.166h-.211v-.334l-.6.26v-.2l.6-.3-.6-.3v-.2l.6.262v-.334h.211l.112.164-.143.41Zm-.063,1.451.182.283-.119.175h-.18V493.8l-.6.257v-.151l.49-.212-.49-.211v-.149l.6.255v-.351h.18l.119.175-.182.282Zm2.93,2.361.355.26h-.711l.356-.26Zm-.839,0,.356.26h-.711l.356-.26Zm-1.9.26h1.4l-.529-.4h-1.413l.547.4Zm-.684-1.142h-.875l.875.653v-.653Zm-1.018-2.068v.362h-.662l-.319-.362.319-.361h.662v.361Zm-1.222-.863.376.424-.413.439.413.416-.391.43.5.5h.736v.623L675.163,494v-3.507l1.466-1.073v.623h-.736l-.5.5.391.428-.413.416.413.438-.376.425Zm-1.533,0,.578.444v.328l-.772-.616-.346.352h-.373l-.241-.187.323-.322-.323-.322.241-.186h.373l.346.352.772-.616v.328l-.578.444Zm.578,1.127v.276l-.559.416.559.463v.269l-.772-.6-.443.366h-.25l-.265-.224.3-.274-.316-.279.28-.2h.293l.4.37.772-.58Zm-.507,2.256v.378h.47v.489l.405,0v-.538h-.4v-.327Zm6.333,1.449h-.358l-.371.385-.412-.385h-.415l.441.385-.3.216v.17l.256.147.428-.374.356.374.262-.148v-.169l-.314-.216.425-.385Zm-4.573-.358v.378h.471v.493l.407-.006v-.538h-.395v-.327Zm2.432-5.926.182-.279-.119-.177h-.18v.352l-.6-.257v.152l.49.209-.49.213v.149l.6-.257v.354h.18l.119-.176-.182-.283Zm3.34-.824-.206.168-.316-.153v-.225h.3l.056-.136-.628-.334-.768.475.534,0,0,.225-.247.158-.319-.326-.319.326-.245-.158v-.225l.537,0-.991-.7h.271l.747.525.8-.525.8.406.8-.407.8.526.747-.526h.271l-.99.7h.537l0,.225-.246.156-.32-.325-.32.325-.245-.156,0-.225h.534l-.769-.473-.625.334.053.139h.3v.225l-.319.15-.206-.166Zm-.41-1.535.355-.262h-.711l.356.262Zm-.839,0,.356-.262h-.711l.356.262Zm-1.9-.262h1.4l-.529.4h-1.413l.547-.4Zm-.684,1.142h-.875l.875-.653v.653Zm-1.018,2.067v-.362h-.662l-.319.362.319.361h.662v-.361Zm-2.177-.264v-.276l-.559-.414.559-.465V489.7l-.772.6-.443-.365h-.25l-.265.223.3.276-.316.279.28.2h.293l.4-.371.772.58Zm-.507-2.256v-.377h.47V488h.405v.537h-.4v.329Zm7.531-2.1-.362-.264-.252.131v.188l.329.216-.456.386h.364l.377-.331.378.329h.363l-.455-.386.329-.216v-.186l-.255-.13-.36.262Zm-1.2.657h-.358l-.371-.386-.412.386h-.415l.441-.386-.3-.216v-.17l.256-.15.428.378.356-.378.262.15v.17l-.314.216.425.386Zm-4.573.355V487.4h.471V486.9l.407.006v.538h-.395v.324Zm9.112,3.023-.182-.283.12-.175h.179v.352l.6-.257v.151l-.491.212.491.211v.15l-.6-.255v.351h-.179l-.12-.175.182-.282Zm-2.93-2.361-.356-.26h.711l-.356.26Zm.838,0-.356-.26h.712l-.356.26Zm1.9-.26h-1.4l.532.4h1.413l-.547-.4Zm.682,1.141h.877l-.877-.652v.652Zm1.018,2.069v-.362h.665l.317.362-.317.361h-.665v-.361Zm2.178-.264v-.276l.559-.416-.559-.463V489.7l.772.6.445-.365h.245l.268.224-.3.274.316.28-.281.2h-.293l-.4-.37-.772.58Zm.508-2.256v-.379h-.472V488l-.406,0v.538h.4v.327Zm-6.334-1.448h.358l.372-.386.411.386h.413l-.439-.386.3-.216v-.169l-.255-.147-.429.375-.358-.375-.259.148v.168l.312.216-.423.386Zm4.573.358V487.4h-.472V486.9l-.406,0v.539h.4v.327Z" transform="translate(-660.375 -456.453)" fill="#00a049"/>
        <path id="Контур_155" data-name="Контур 155" d="M749.623,448.233a10.529,10.529,0,1,1-10.972,17.621,10.529,10.529,0,0,0,10.972-17.621Zm-12.652,12.448h1.583l.469,1.519.513-1.516,1.59-.01-1.268-.947.517-1.466-1.276.9-1.268-.947.464,1.544-1.323.924Zm-5.871-3.25h1.583l.469,1.519.513-1.516,1.59-.01-1.268-.947.516-1.465-1.275.9-1.268-.947.464,1.543-1.323.925Zm5.776-8.5h1.584l.468,1.519.513-1.516,1.59-.01-1.268-.947.516-1.466-1.275.9-1.268-.947L738.2,448l-1.324.925Zm5.871,3.251h1.583l.469,1.519.513-1.516,1.59-.01-1.268-.947.517-1.465-1.276.9-1.268-.947.464,1.544-1.323.925Zm-5.818,2.669h1.583l.469,1.519.513-1.516,1.59-.009-1.268-.947.516-1.465-1.275.9-1.268-.947.465,1.543-1.323.925Z" transform="translate(-677.486 -444.721)" fill="#fff" fill-rule="evenodd"/>
      </g>
    </g>
  </g>
</svg>
