<svg xmlns="http://www.w3.org/2000/svg" width="16" height="11.2" viewBox="0 0 16 11.2">
  <path id="Контур_3190" data-name="Контур 3190" d="M25.211,32.64a2.439,2.439,0,0,1,2.332-1.394H38.417a2.48,2.48,0,0,1,2.338,1.338.384.384,0,0,1,.059.369.423.423,0,0,1-.289.258l-7.209,3.514a.639.639,0,0,1-.6,0L25.413,33.18a.37.37,0,0,1-.247-.223A.336.336,0,0,1,25.211,32.64Zm.477,2.242q3.406,1.663,6.806,3.314a1.049,1.049,0,0,0,1.008,0q3.384-1.657,6.777-3.285a.815.815,0,0,1,.211-.075.4.4,0,0,1,.359.057.345.345,0,0,1,.143.313v4.219a6.211,6.211,0,0,1-.042,1.093,2.4,2.4,0,0,1-2.444,1.923H27.536a2.451,2.451,0,0,1-2.444-1.717,2.2,2.2,0,0,1-.093-.6q0-2.437,0-4.876C25,34.843,25.281,34.688,25.688,34.882Z" transform="translate(-25 -31.243)" fill="#00a933"/>
</svg>
