<svg xmlns="http://www.w3.org/2000/svg" width="17.053" height="17.053" viewBox="0 0 17.053 17.053">
  <path id="phone-call" d="M12.022,4.058a3.826,3.826,0,0,1,3.026,3.02M12.022,1a6.887,6.887,0,0,1,6.09,6.07m-.766,6.1v2.294a1.531,1.531,0,0,1-1.67,1.529,15.178,15.178,0,0,1-6.61-2.347,14.922,14.922,0,0,1-4.6-4.587A15.111,15.111,0,0,1,2.118,3.431,1.53,1.53,0,0,1,3.642,1.765h2.3A1.531,1.531,0,0,1,7.472,3.079a9.8,9.8,0,0,0,.536,2.148,1.527,1.527,0,0,1-.345,1.613l-.973.971a12.244,12.244,0,0,0,4.6,4.587l.973-.971a1.534,1.534,0,0,1,1.616-.344,9.851,9.851,0,0,0,2.152.535A1.53,1.53,0,0,1,17.346,13.171Z" transform="translate(-1.611 -0.448)" fill="none" stroke="#fff" stroke-linecap="round" stroke-linejoin="round" stroke-width="1"/>
</svg>
