<svg id="Сгруппировать_10" data-name="Сгруппировать 10" xmlns="http://www.w3.org/2000/svg" width="16" height="16" viewBox="0 0 16 16">
  <path id="Контур_3183" data-name="Контур 3183" d="M12.182,55.194a1.122,1.122,0,0,0-1.7,0c-.4.393-.793.787-1.183,1.186a.234.234,0,0,1-.327.06c-.257-.14-.53-.253-.777-.407a12.3,12.3,0,0,1-2.966-2.7,7.027,7.027,0,0,1-1.063-1.7.244.244,0,0,1,.06-.313c.4-.383.783-.777,1.173-1.17a1.126,1.126,0,0,0,0-1.736c-.31-.313-.62-.62-.93-.933s-.637-.643-.96-.96a1.129,1.129,0,0,0-1.7,0c-.4.393-.783.8-1.19,1.183a1.931,1.931,0,0,0-.607,1.3,5.521,5.521,0,0,0,.427,2.376,14.439,14.439,0,0,0,2.563,4.269,15.86,15.86,0,0,0,5.252,4.109,7.6,7.6,0,0,0,2.909.846,2.132,2.132,0,0,0,1.83-.7c.34-.38.723-.727,1.083-1.09a1.134,1.134,0,0,0,.007-1.726Q13.138,56.143,12.182,55.194Z" transform="translate(-0.006 -44.615)" fill="#00a933"/>
  <path id="Контур_3184" data-name="Контур 3184" d="M241.43,100.691l1.217-.208A5.465,5.465,0,0,0,238.026,96l-.172,1.224a4.223,4.223,0,0,1,3.576,3.467Z" transform="translate(-229.904 -92.792)" fill="#00a933"/>
  <path id="Контур_3185" data-name="Контур 3185" d="M248.072,2.567A8.977,8.977,0,0,0,242.926,0l-.172,1.224a7.833,7.833,0,0,1,6.628,6.424L250.6,7.44A9.043,9.043,0,0,0,248.072,2.567Z" transform="translate(-234.6)" fill="#00a933"/>
</svg>
